<?xml version="1.0" encoding="UTF-8" standalone="no"?>
<!-- Created with Inkscape (http://www.inkscape.org/) -->

<svg
   width="255.33093"
   height="162.48404"
   viewBox="0 0 255.33093 162.48404"
   version="1.1"
   id="svg5"
   inkscape:version="1.2.1 (9c6d41e410, 2022-07-14)"
   sodipodi:docname="mockup.svg"
   xml:space="preserve"
   xmlns:inkscape="http://www.inkscape.org/namespaces/inkscape"
   xmlns:sodipodi="http://sodipodi.sourceforge.net/DTD/sodipodi-0.dtd"
   xmlns:xlink="http://www.w3.org/1999/xlink"
   xmlns="http://www.w3.org/2000/svg"
   xmlns:svg="http://www.w3.org/2000/svg"><sodipodi:namedview
     id="namedview7"
     pagecolor="#404040"
     bordercolor="#666666"
     borderopacity="1.0"
     inkscape:pageshadow="2"
     inkscape:pageopacity="0"
     inkscape:pagecheckerboard="0"
     inkscape:document-units="px"
     showgrid="false"
     inkscape:snap-global="true"
     inkscape:zoom="1.9548704"
     inkscape:cx="723.06582"
     inkscape:cy="486.22148"
     inkscape:window-width="3840"
     inkscape:window-height="2066"
     inkscape:window-x="-11"
     inkscape:window-y="-11"
     inkscape:window-maximized="1"
     inkscape:current-layer="layer1"
     inkscape:showpageshadow="2"
     inkscape:deskcolor="#404040" /><defs
     id="defs2"><linearGradient
       inkscape:collect="always"
       id="linearGradient5357"><stop
         style="stop-color:#ffffff;stop-opacity:0.25748503;"
         offset="0"
         id="stop5353" /><stop
         style="stop-color:#ffffff;stop-opacity:0;"
         offset="0.67889911"
         id="stop5355" /></linearGradient><linearGradient
       inkscape:collect="always"
       xlink:href="#linearGradient5357"
       id="linearGradient17878"
       gradientUnits="userSpaceOnUse"
       gradientTransform="matrix(1.1605865,0,0,1.1605865,646.62369,-13.894825)"
       x1="203.84238"
       y1="279.54575"
       x2="203.84238"
       y2="350.50412"
       spreadMethod="reflect" /></defs><g
     inkscape:label="Layer 1"
     inkscape:groupmode="layer"
     id="layer1"
     transform="translate(-883.19946,-310.15918)"><g
       id="g17936"><path
         id="rect846-7-18-8-7"
         style="fill:#2f2f2f;stroke-width:15.8465;stroke-opacity:0.547893"
         d="m 906.41212,310.16013 h 208.90558 c 12.8593,0 23.2118,10.35243 23.2118,23.21173 v 116.05866 c 0,12.8593 -10.3525,23.21173 -23.2118,23.21173 H 906.41212 c -12.85929,0 -23.21172,-10.35243 -23.21172,-23.21173 V 333.37186 c 0,-12.8593 10.35243,-23.21173 23.21172,-23.21173 z" /><path
         id="rect846-7-18-8-7-14"
         style="fill:#0e0e0e;fill-opacity:1;stroke-width:15.8465;stroke-opacity:0.547893"
         d="m 895.33166,312.95399 c -1.3843,0.75013 -2.6773,1.64277 -3.8723,2.64838 l 4.647,4.03325 4.3301,-2.5 -4.9075,-4.2775 c -0.064,0.0341 -0.1332,0.0611 -0.1973,0.0959 z m -4.3112,3.04838 c -1.2173,1.07878 -2.3163,2.28236 -3.2835,3.59396 l 4.4671,-2.5791 z m 9.4827,-5.05987 -1.2909,3.2915 c 1.0872,0.42474 2.3556,0.56448 3.8054,0.41909 1.4366,-0.16789 2.8172,-0.58908 4.1417,-1.26363 l -1.833,-3.17485 c -1.6609,0.0764 -3.2731,0.32309 -4.8232,0.72789 z m -13.5605,9.78219 c -1.15,1.77148 -2.0763,3.70301 -2.712,5.76738 l 3.4522,-1.99315 z m 19.0852,-10.54519 1.6728,2.89746 c 1.4668,-0.84685 2.4897,-1.8473 3.3111,-2.91748 l -4.5983,3.5e-4 c -0.1303,2e-5 -0.2559,0.0176 -0.3856,0.0197 z m -22.49,19.37828 c -0.056,0.34261 -0.1164,0.68391 -0.1577,1.03149 l 9.8467,17.05495 4.0595,-2.34375 -10.2539,-17.76029 z m 4.9154,-2.8379 10.2539,17.76029 3.8565,-2.22655 -10.2539,-17.76029 z m 4.3639,-2.5195 4.9219,8.52494 9.3239,6.93065 4.0595,-2.34375 -18.0347,-13.26809 z m 4.77,-2.75395 5.1758,8.96471 8.9346,6.56903 -10.2539,-17.76029 z m 15.58,-8.9951 4.1646,21.27594 4.2963,-2.4805 -0.8577,-4.3762 5.3788,-3.10545 -3.3024,-2.8294 -2.9094,1.6797 -2.4373,-12.45598 -0.3648,8.9e-4 z m 4.9349,-2.29216 1.3703,7.04142 10.5791,9.18293 4.3302,-2.5 -15.7449,-13.72407 z m 9.8837,0.002 c 0.028,0.0512 0.022,0.10417 0.051,0.15531 0.8333,1.44337 1.8885,2.3076 3.1657,2.5926 1.2998,0.27198 2.7902,0.22336 4.4715,-0.14588 0.3808,-0.0695 0.91,-0.19462 1.5875,-0.3753 0.6775,-0.18068 1.1954,-0.29926 1.5538,-0.3558 0.3678,-0.0921 0.7663,-0.1568 1.1958,-0.19428 0.452,-0.0504 0.8156,-0.0198 1.0906,0.0921 0.262,0.0893 0.4712,0.2692 0.6275,0.53983 0.3125,0.54127 0.2619,1.15685 -0.1517,1.84669 -0.4041,0.65429 -1.091,1.26136 -2.0608,1.82126 l 2.1289,3.68737 c 2.2102,-1.27605 3.6877,-2.80563 4.4323,-4.5887 0.7314,-1.76373 0.6187,-3.45391 -0.2654,-5.07679 z m -44.7859,29.99104 9e-4,4.4469 c 0.034,-0.003 0.061,-0.0132 0.094,-0.0161 0.452,-0.0505 0.8155,-0.0198 1.0906,0.092 0.262,0.0893 0.4711,0.26925 0.6274,0.53988 0.3125,0.54127 0.2619,1.15685 -0.1517,1.84669 -0.3256,0.52724 -0.9671,1.00223 -1.6601,1.46817 l -3e-4,1.04659 1.7286,2.99387 c 2.2102,-1.2761 3.6876,-2.80563 4.4322,-4.5887 0.7542,-1.81868 0.6496,-3.5625 -0.3139,-5.2314 -0.8073,-1.39826 -1.8739,-2.25596 -3.1996,-2.57306 -0.7742,-0.18517 -1.7474,-0.0462 -2.6485,-0.0248 z m 51.5816,-23.31026 -1.624,4.14012 c 1.0872,0.42474 2.3556,0.56447 3.8053,0.41914 1.4366,-0.16789 2.8173,-0.58914 4.1419,-1.26368 l -2.1485,-3.7212 c -0.7833,0.36204 -1.5819,0.56749 -2.3957,0.61635 -0.7912,0.0358 -1.3842,-0.0277 -1.779,-0.19073 z m 14.0825,-6.68264 -0.8894,2.26811 c 1.0872,0.42474 2.3556,0.56447 3.8054,0.41909 1.4365,-0.16784 2.8172,-0.58909 4.1417,-1.26363 l -0.8212,-1.42251 z m -65.6631,40.66656 8e-4,2.41943 c 0.3888,-0.15168 0.8072,-0.16936 1.1867,-0.36262 z m 72.6215,-40.66508 0.6406,1.10959 c 0.5829,-0.33655 0.9776,-0.73863 1.4586,-1.11048 z m -62.1358,39.74867 c -1.8268,1.0547 -3.037,2.36988 -3.6308,3.94559 -0.5843,1.54016 -0.4533,3.04319 0.3931,4.50911 0.8333,1.44338 1.8886,2.30756 3.1657,2.59261 1.2997,0.27198 2.7903,0.22331 4.4715,-0.14594 0.3809,-0.0695 0.91,-0.1946 1.5876,-0.3753 0.6775,-0.18067 1.1954,-0.29925 1.5536,-0.35575 0.3679,-0.0921 0.7665,-0.15684 1.1959,-0.19427 0.452,-0.0505 0.8156,-0.0198 1.0905,0.0921 0.2622,0.0892 0.4713,0.2692 0.6275,0.53983 0.3125,0.54127 0.2619,1.15685 -0.1516,1.84669 -0.4041,0.65429 -1.091,1.26136 -2.0608,1.82126 l 2.1289,3.68737 c 2.2101,-1.276 3.6875,-2.80558 4.4323,-4.58871 0.7542,-1.81867 0.6495,-3.56244 -0.3141,-5.23135 -0.8073,-1.39826 -1.8738,-2.25595 -3.1995,-2.57309 -1.3258,-0.3171 -2.8375,-0.33136 -4.5353,-0.0428 -0.4389,0.073 -0.9747,0.18684 -1.6071,0.34147 -0.6454,0.13207 -1.1698,0.23938 -1.5732,0.32191 -0.4034,0.0826 -0.8133,0.15385 -1.2297,0.21384 -0.4164,0.06 -0.7491,0.0566 -0.9982,-0.0101 -0.2619,-0.0893 -0.4516,-0.23542 -0.5688,-0.4384 -0.1693,-0.29318 -0.1207,-0.65196 0.1455,-1.07628 0.2531,-0.44688 0.6616,-0.83305 1.2254,-1.1586 z m 0.4736,-0.27345 2.1485,3.7212 c 1.2959,-0.56777 2.5295,-0.61847 3.7009,-0.15212 l 1.6046,-4.17399 c -2.3428,-0.93271 -4.8274,-0.73113 -7.454,0.60491 z m 14.3436,-8.28125 c -1.8268,1.0547 -3.0372,2.36993 -3.6309,3.94559 -0.5843,1.54016 -0.4532,3.04319 0.3932,4.50911 0.8333,1.44338 1.8886,2.30756 3.1657,2.59261 1.2997,0.27198 2.7902,0.22336 4.4714,-0.14589 0.3809,-0.0695 0.9101,-0.19465 1.5875,-0.3753 0.6776,-0.18067 1.1955,-0.29925 1.5538,-0.3558 0.3678,-0.092 0.7664,-0.15679 1.1959,-0.19427 0.452,-0.0505 0.8155,-0.0198 1.0905,0.0921 0.2621,0.0893 0.4713,0.2692 0.6275,0.53983 0.3125,0.54127 0.2618,1.1569 -0.1517,1.84669 -0.4042,0.65434 -1.091,1.26136 -2.0607,1.82126 l 2.1289,3.68737 c 2.2102,-1.27605 3.6875,-2.80558 4.4322,-4.58871 0.7542,-1.81862 0.6495,-3.56244 -0.314,-5.23135 -0.8073,-1.39826 -1.8738,-2.25595 -3.1996,-2.57304 -1.3257,-0.31715 -2.8375,-0.33141 -4.5352,-0.0428 -0.439,0.073 -0.9747,0.18684 -1.6071,0.34147 -0.6454,0.13207 -1.1698,0.23938 -1.5732,0.32191 -0.4034,0.0825 -0.8133,0.15385 -1.2297,0.21384 -0.4165,0.06 -0.7492,0.0566 -0.9982,-0.0101 -0.2621,-0.0893 -0.4516,-0.23542 -0.5688,-0.4384 -0.1693,-0.29318 -0.1208,-0.65196 0.1453,-1.07623 0.2533,-0.44693 0.6618,-0.83315 1.2256,-1.15865 z m 0.4735,-0.2734 2.1485,3.7212 c 1.296,-0.56782 2.5296,-0.61852 3.701,-0.15217 l 1.6045,-4.17394 c -2.3426,-0.93281 -4.8273,-0.73118 -7.454,0.60491 z m 7.9408,-4.44932 10.2539,17.7603 4.0595,-2.34375 -10.2539,-17.7603 z m 5.4803,-3.16405 10.2539,17.7603 3.8565,-2.22655 -10.2539,-17.7603 z m 4.364,-2.51955 4.9219,8.52494 9.3239,6.93066 4.0595,-2.34375 -18.0347,-13.2681 z m 4.7699,-2.7539 5.1758,8.96473 8.9346,6.56902 -10.2539,-17.7603 z m 15.58,-8.9951 4.1647,21.2759 4.2963,-2.48045 -0.8578,-4.3762 5.3789,-3.1055 -3.3024,-2.82941 -2.9093,1.6797 -2.4741,-12.64454 z m 4.8376,-2.793 1.4678,7.54222 10.579,9.18293 4.3302,-2.5 -16.3432,-14.24465 z m 11.2832,-6.24596 c -0.7268,0.7228 -1.3091,1.50634 -1.644,2.39477 -0.5842,1.54012 -0.4532,3.04319 0.3931,4.50911 0.8334,1.44338 1.8886,2.30756 3.1659,2.59256 1.2997,0.27198 2.7902,0.22336 4.4714,-0.14589 0.3808,-0.0695 0.91,-0.1946 1.5875,-0.3753 0.6775,-0.18062 1.1954,-0.29925 1.5537,-0.35575 0.3678,-0.0921 0.7664,-0.15684 1.1959,-0.19427 0.452,-0.0505 0.8155,-0.0198 1.0906,0.092 0.2619,0.0893 0.4711,0.26925 0.6274,0.53988 0.3125,0.54127 0.2619,1.15685 -0.1517,1.84669 -0.4041,0.65429 -1.091,1.26136 -2.0608,1.82126 l 2.1289,3.68737 c 2.2102,-1.27605 3.68775,-2.80563 4.43235,-4.58871 0.7542,-1.81867 0.6496,-3.56249 -0.314,-5.2314 -0.8072,-1.39826 -1.87385,-2.25595 -3.19955,-2.57304 -1.3258,-0.3171 -2.8376,-0.33136 -4.5353,-0.0428 -0.439,0.073 -0.9747,0.18684 -1.6071,0.34147 -0.6454,0.13207 -1.1698,0.23933 -1.5732,0.32191 -0.4034,0.0825 -0.8134,0.15385 -1.2298,0.21384 -0.4164,0.06 -0.7491,0.0566 -0.9981,-0.0101 -0.2621,-0.0893 -0.4516,-0.23542 -0.5688,-0.4384 -0.1693,-0.29318 -0.1209,-0.65191 0.1454,-1.07628 0.2532,-0.44688 0.6617,-0.8331 1.2255,-1.1586 l -1.2529,-2.17014 z m 3.5132,-8.8e-4 1.0957,1.89781 c 1.296,-0.56777 2.5297,-0.61852 3.701,-0.15212 l 0.6705,-1.7448 z m -83.5454,49.92415 -2e-4,6.30815 9.2627,8.03949 4.3301,-2.5 z m 94.94905,-49.9226 c 0.5465,0.46601 1.1473,0.79199 1.8152,0.94112 1.2998,0.27198 2.7902,0.22336 4.4715,-0.14589 0.3808,-0.0695 0.9101,-0.19465 1.5875,-0.3753 0.6775,-0.18067 1.1954,-0.29925 1.5538,-0.3558 0.1223,-0.0306 0.2685,-0.0404 0.3977,-0.065 z m -94.94985,60.01093 7e-4,4.73566 5.3603,-3.09475 -3.3026,-2.82936 z m 106.70855,-60.01145 c 0.2367,0.0948 0.4379,0.25062 0.5832,0.50227 0.3125,0.54127 0.2619,1.15685 -0.1517,1.84669 -0.4041,0.65429 -1.091,1.26136 -2.0608,1.82126 l 2.1289,3.68737 c 2.2101,-1.276 3.6876,-2.80558 4.4323,-4.58871 0.4651,-1.12171 0.4881,-2.20487 0.2998,-3.26962 z m -92.71525,54.72896 -1.6241,4.14017 c 1.0872,0.42474 2.3556,0.56448 3.8053,0.41913 1.4367,-0.16794 2.8172,-0.58913 4.1418,-1.26367 l -2.1484,-3.7212 c -0.7834,0.36209 -1.582,0.56754 -2.3956,0.61631 -0.7913,0.0359 -1.3842,-0.0278 -1.779,-0.19074 z m 14.8171,-8.55465 -1.624,4.14012 c 1.0871,0.42479 2.3556,0.56448 3.8052,0.41913 1.4367,-0.16789 2.8173,-0.58913 4.1419,-1.26367 l -2.1484,-3.7212 c -0.7834,0.36204 -1.5819,0.56749 -2.3957,0.61636 -0.7912,0.0358 -1.3842,-0.0278 -1.779,-0.19074 z m 56.7162,-32.74515 -1.6241,4.14017 c 1.0873,0.42474 2.3557,0.56448 3.8053,0.41913 1.4367,-0.16794 2.8174,-0.58918 4.1419,-1.26367 l -2.1485,-3.7212 c -0.7832,0.36199 -1.5818,0.56744 -2.3955,0.61631 -0.7913,0.0358 -1.3843,-0.0278 -1.7791,-0.19074 z m 14.81715,-8.55465 -1.624,4.14012 c 1.0872,0.42474 2.3556,0.56448 3.8053,0.41913 1.4366,-0.16789 2.8173,-0.58913 4.1419,-1.26367 l -2.1485,-3.7212 c -0.7833,0.36204 -1.5819,0.56749 -2.3956,0.61631 -0.7913,0.0358 -1.3843,-0.0277 -1.7791,-0.19069 z m -100.34275,59.97844 -10e-5,4.76546 0.8389,-0.48435 z m 114.21535,-64.85292 0.6462,3.30298 4.29639,-2.4805 -0.1615,-0.82244 z m -101.75315,64.95368 c -1.8268,1.0547 -3.0372,2.36994 -3.6309,3.9456 -0.5842,1.54011 -0.4532,3.04318 0.3932,4.50911 0.8333,1.44337 1.8886,2.30755 3.1657,2.5926 1.2997,0.27199 2.7902,0.22337 4.4714,-0.14587 0.3809,-0.0695 0.9101,-0.19467 1.5875,-0.37531 0.6776,-0.18068 1.1955,-0.29926 1.5538,-0.3558 0.3678,-0.0921 0.7665,-0.15685 1.1959,-0.19427 0.452,-0.0505 0.8155,-0.0198 1.0905,0.0921 0.2621,0.0893 0.4713,0.2692 0.6275,0.53983 0.3125,0.54127 0.2619,1.15685 -0.1517,1.84668 -0.4041,0.65429 -1.091,1.26137 -2.0607,1.82127 l 2.1289,3.68737 c 2.2101,-1.276 3.6875,-2.80558 4.4322,-4.58871 0.7542,-1.81867 0.6495,-3.56244 -0.314,-5.23134 -0.8073,-1.39827 -1.8738,-2.25596 -3.1996,-2.57306 -1.3258,-0.3171 -2.8375,-0.3314 -4.5352,-0.0428 -0.439,0.073 -0.9747,0.18684 -1.6071,0.34146 -0.6454,0.13208 -1.1698,0.23939 -1.5732,0.32192 -0.4034,0.0825 -0.8133,0.1538 -1.2297,0.21383 -0.4164,0.06 -0.7492,0.0566 -0.9982,-0.0101 -0.2621,-0.0893 -0.4516,-0.23542 -0.5688,-0.4384 -0.1693,-0.29318 -0.1209,-0.65191 0.1453,-1.07624 0.2532,-0.44688 0.6617,-0.83309 1.2256,-1.15864 z m 0.4735,-0.2734 2.1485,3.72121 c 1.296,-0.56783 2.5297,-0.61857 3.701,-0.15217 l 1.6045,-4.17394 c -2.3427,-0.93277 -4.8274,-0.73113 -7.454,0.6049 z m 31.4949,-18.1836 c -1.8268,1.0547 -3.037,2.36989 -3.6308,3.9456 -0.5842,1.54011 -0.4532,3.04313 0.3932,4.50906 0.8333,1.44337 1.8886,2.30755 3.1657,2.5926 1.2998,0.27199 2.7902,0.22337 4.4714,-0.14587 0.3809,-0.0695 0.9101,-0.19462 1.5876,-0.37531 0.6775,-0.18068 1.1954,-0.29926 1.5537,-0.35575 0.3678,-0.0921 0.7664,-0.15685 1.1958,-0.19427 0.4521,-0.0505 0.8156,-0.0198 1.0907,0.092 0.262,0.0893 0.4711,0.26925 0.6274,0.53988 0.3125,0.54127 0.262,1.1568 -0.1517,1.84668 -0.404,0.65424 -1.091,1.26137 -2.0608,1.82127 l 2.1289,3.68737 c 2.2102,-1.27605 3.6877,-2.80563 4.4323,-4.58871 0.7542,-1.81867 0.6496,-3.56249 -0.314,-5.23139 -0.8073,-1.39827 -1.8739,-2.25591 -3.1996,-2.57306 -1.3257,-0.3171 -2.8374,-0.3314 -4.5352,-0.0428 -0.439,0.073 -0.9746,0.18684 -1.6071,0.34146 -0.6454,0.13208 -1.1699,0.23944 -1.5732,0.32197 -0.4034,0.0825 -0.8134,0.15385 -1.2298,0.21383 -0.4164,0.06 -0.749,0.0566 -0.9981,-0.0101 -0.262,-0.0893 -0.4517,-0.23537 -0.5689,-0.43835 -0.1692,-0.29318 -0.1207,-0.65196 0.1455,-1.07629 0.2532,-0.44688 0.6617,-0.83309 1.2255,-1.15859 z m 0.4737,-0.27345 2.1484,3.72121 c 1.296,-0.56783 2.5297,-0.61852 3.701,-0.15212 l 1.6046,-4.17399 c -2.3428,-0.93277 -4.8275,-0.73113 -7.454,0.6049 z m 14.3435,-8.28125 c -1.8267,1.05465 -3.037,2.36989 -3.6308,3.9456 -0.5843,1.54016 -0.4533,3.04318 0.3931,4.50911 0.8333,1.44337 1.8886,2.30755 3.1658,2.59255 1.2997,0.27199 2.7902,0.22337 4.4714,-0.14587 0.3809,-0.0695 0.91,-0.19462 1.5876,-0.37531 0.6774,-0.18063 1.1953,-0.29921 1.5536,-0.35575 0.3678,-0.092 0.7665,-0.15685 1.1959,-0.19427 0.452,-0.0505 0.8156,-0.0198 1.0906,0.092 0.262,0.0893 0.4712,0.26925 0.6274,0.53988 0.3125,0.54127 0.2619,1.15685 -0.1516,1.84668 -0.4041,0.65429 -1.091,1.26137 -2.0608,1.82127 l 2.1289,3.68737 c 2.2102,-1.27605 3.6876,-2.80558 4.4323,-4.58871 0.7542,-1.81867 0.6495,-3.56249 -0.314,-5.23139 -0.8073,-1.39827 -1.8738,-2.25596 -3.1996,-2.57306 -1.3257,-0.31715 -2.8375,-0.33135 -4.5353,-0.0428 -0.4389,0.073 -0.9746,0.18684 -1.6071,0.34146 -0.6454,0.13208 -1.1697,0.23934 -1.5732,0.32192 -0.4033,0.0825 -0.8133,0.15385 -1.2297,0.21383 -0.4164,0.06 -0.7492,0.0566 -0.9982,-0.0101 -0.2619,-0.0893 -0.4516,-0.23542 -0.5688,-0.4384 -0.1693,-0.29318 -0.1207,-0.65196 0.1455,-1.07629 0.2531,-0.44688 0.6617,-0.83309 1.2254,-1.15859 z m 0.4736,-0.27345 2.1485,3.72121 c 1.2959,-0.56778 2.5296,-0.61852 3.701,-0.15212 l 1.6045,-4.17399 c -2.3427,-0.93277 -4.8274,-0.73113 -7.454,0.6049 z m 56.24265,-32.47165 c -1.8267,1.05465 -3.0371,2.36989 -3.6309,3.9456 -0.5842,1.54011 -0.4531,3.04313 0.3933,4.50906 0.8333,1.44337 1.8886,2.30755 3.1657,2.5926 1.29969,0.27199 2.79019,0.22337 4.47139,-0.14587 0.3809,-0.0695 0.91,-0.19462 1.5875,-0.37531 0.6775,-0.18068 1.1954,-0.29926 1.5536,-0.35575 0.3678,-0.0921 0.7665,-0.15685 1.196,-0.19432 0.4519,-0.0504 0.8155,-0.0198 1.0905,0.0921 0.2621,0.0893 0.4712,0.26925 0.6274,0.53988 0.3125,0.54127 0.262,1.1568 -0.1517,1.84668 -0.404,0.65424 -1.091,1.26137 -2.0607,1.82127 l 2.1289,3.68737 c 2.2102,-1.2761 3.6876,-2.80563 4.4322,-4.58871 0.7543,-1.81872 0.6496,-3.56249 -0.3139,-5.23139 -0.8073,-1.39827 -1.8738,-2.25596 -3.1996,-2.57306 -1.3258,-0.3171 -2.8375,-0.33135 -4.5352,-0.0428 -0.4389,0.073 -0.9746,0.18684 -1.607,0.34146 -0.6454,0.13208 -1.1698,0.23939 -1.5733,0.32197 -0.4034,0.0825 -0.8133,0.1538 -1.2296,0.21378 -0.4164,0.06 -0.7492,0.0566 -0.9982,-0.0101 -0.2621,-0.0893 -0.4517,-0.23537 -0.56889,-0.43835 -0.1693,-0.29318 -0.1208,-0.65196 0.14539,-1.07629 0.2532,-0.44688 0.6617,-0.83309 1.2255,-1.15859 z m 0.4736,-0.27345 2.14849,3.72121 c 1.296,-0.56783 2.5296,-0.61852 3.701,-0.15217 l 1.6044,-4.17395 c -2.3426,-0.93282 -4.8273,-0.73113 -7.45389,0.60491 z m -90.11465,52.16299 4.1647,21.27594 4.2962,-2.48046 -0.8576,-4.37625 5.3788,-3.10545 -3.3024,-2.8294 -2.9094,1.6797 -2.474,-12.64454 z m 4.8376,-2.79296 1.4677,7.54222 10.5791,9.18293 4.3301,-2.5 -16.3431,-14.24469 z m 36.5016,-21.0742 10.2539,17.76029 4.0595,-2.34375 -10.2539,-17.76029 z m 5.4803,-3.1641 10.2539,17.76029 3.8565,-2.22655 -10.2539,-17.76029 z m 4.3639,-2.5195 4.9219,8.52494 9.3239,6.93065 4.05955,-2.34375 -18.03465,-13.26808 z m 4.7699,-2.7539 5.1758,8.96472 8.93475,6.56897 -10.25395,-17.76029 z m 15.58015,-8.99515 4.1646,21.27594 4.2964,-2.4805 -0.8577,-4.3762 5.3788,-3.10545 -3.3025,-2.8294 -2.9093,1.6797 -2.474,-12.64454 z m 4.8375,-2.79295 1.4678,7.54222 10.5791,9.18292 4.33009,-2.5 -16.34309,-14.24469 z m -102.69385,59.67594 -6e-4,3.82307 0.2676,0.46346 c 1.2959,-0.56778 2.5295,-0.61847 3.7009,-0.15212 l 1.6046,-4.17399 c -1.7679,-0.70387 -3.643,-0.54848 -5.5725,0.0396 z M 1010.7176,310.1603 c -0.1031,0.20401 -0.2858,0.37454 -0.3663,0.58813 -0.5842,1.54011 -0.4531,3.04313 0.3932,4.50906 0.8334,1.44337 1.8885,2.3076 3.1658,2.5926 1.2996,0.27204 2.7901,0.22342 4.4714,-0.14587 0.3808,-0.0695 0.91,-0.19462 1.5875,-0.37531 0.6775,-0.18063 1.1954,-0.29926 1.5537,-0.35575 0.3678,-0.0921 0.7665,-0.15685 1.1959,-0.19427 0.452,-0.0505 0.8154,-0.0198 1.0906,0.092 0.2619,0.0893 0.4711,0.26925 0.6274,0.53988 0.3125,0.54127 0.262,1.1568 -0.1517,1.84668 -0.404,0.65424 -1.091,1.26137 -2.0608,1.82127 l 2.129,3.68737 c 2.2101,-1.27605 3.6876,-2.80563 4.4322,-4.58871 0.7543,-1.81872 0.6496,-3.56249 -0.3139,-5.23139 -0.8073,-1.39827 -1.8739,-2.25596 -3.1996,-2.57306 -1.3258,-0.3171 -2.8376,-0.33135 -4.5353,-0.0428 -0.4389,0.073 -0.9747,0.18684 -1.6071,0.34146 -0.6454,0.13208 -1.1698,0.23939 -1.5732,0.32192 -0.4034,0.0825 -0.8133,0.1538 -1.2298,0.21383 -0.4164,0.06 -0.7491,0.0566 -0.998,-0.0101 -0.2622,-0.0892 -0.4517,-0.23537 -0.5689,-0.43835 -0.1693,-0.29318 -0.1209,-0.65191 0.1454,-1.07629 0.2531,-0.44683 0.6616,-0.83304 1.2255,-1.15859 l -0.21,-0.36366 z m 5.8349,6.4e-4 0.052,0.0897 c 0.1255,-0.055 0.243,-0.045 0.3674,-0.0903 z m -133.35154,79.91114 -7e-4,4.5651 c 0.6891,-0.0347 1.2762,0.10216 2.0453,-0.0668 0.3809,-0.0695 0.91,-0.19462 1.5875,-0.37531 0.6775,-0.18063 1.1955,-0.29926 1.5537,-0.35575 0.3679,-0.0921 0.7664,-0.1568 1.1959,-0.19427 0.452,-0.0505 0.8156,-0.0198 1.0905,0.0921 0.2621,0.0893 0.4713,0.2692 0.6275,0.53983 0.3125,0.54127 0.2619,1.15685 -0.1517,1.84668 -0.4041,0.65429 -1.0909,1.26137 -2.0607,1.82127 l 2.1289,3.68737 c 2.2102,-1.27605 3.6876,-2.80563 4.4322,-4.58871 0.7543,-1.81867 0.6495,-3.56244 -0.314,-5.23134 -0.8073,-1.39827 -1.8737,-2.25601 -3.1995,-2.57311 -1.3258,-0.3171 -2.8375,-0.33135 -4.5353,-0.0428 -0.4389,0.073 -0.9747,0.18684 -1.6071,0.34146 -0.6454,0.13208 -1.1697,0.23934 -1.5732,0.32192 -0.4,0.0818 -0.8065,0.15265 -1.2193,0.21232 z m 146.84014,-79.91134 1.9666,10.05072 4.2963,-2.48045 -0.8577,-4.3762 5.3788,-3.10545 -0.1033,-0.0892 z m -145.68824,88.48843 -1.1529,2.93669 9e-4,1.25564 c 0.9917,0.31009 2.0634,0.49427 3.3332,0.36697 1.4367,-0.16793 2.8173,-0.58918 4.1418,-1.26367 l -2.1484,-3.7212 c -0.7833,0.36199 -1.5818,0.56743 -2.3956,0.6163 -0.7913,0.0359 -1.3842,-0.0277 -1.779,-0.19073 z m 14.8171,-8.55465 -1.6241,4.14011 c 1.0873,0.42475 2.3557,0.56449 3.8053,0.41914 1.4367,-0.16788 2.8173,-0.58913 4.1419,-1.26367 l -2.1484,-3.7212 c -0.7834,0.36204 -1.5819,0.56748 -2.3957,0.61635 -0.7912,0.0358 -1.3842,-0.0278 -1.779,-0.19073 z m 31.9685,-18.45705 -1.6241,4.14016 c 1.0872,0.42475 2.3557,0.56449 3.8054,0.41909 1.4366,-0.16788 2.8172,-0.58908 4.1418,-1.26362 l -2.1485,-3.7212 c -0.7833,0.36204 -1.5819,0.56748 -2.3956,0.6163 -0.7912,0.0358 -1.3841,-0.0278 -1.779,-0.19073 z m 14.8172,-8.5547 -1.6241,4.14016 c 1.0871,0.4248 2.3556,0.56449 3.8053,0.41914 1.4367,-0.16793 2.8173,-0.58918 4.1418,-1.26367 l -2.1484,-3.7212 c -0.7832,0.36199 -1.5818,0.56743 -2.3956,0.6163 -0.7912,0.0358 -1.3842,-0.0278 -1.779,-0.19073 z m 56.71624,-32.7451 -1.6241,4.14016 c 1.0872,0.42475 2.3556,0.56449 3.8053,0.41909 1.4366,-0.16788 2.8171,-0.58908 4.1417,-1.26362 l -2.1484,-3.7212 c -0.7833,0.36204 -1.5817,0.56743 -2.3955,0.6163 -0.7912,0.0358 -1.3842,-0.0278 -1.779,-0.19073 z m 14.817,-8.5547 -1.6241,4.14016 c 1.0873,0.42475 2.3557,0.56449 3.8054,0.41909 1.4365,-0.16783 2.8172,-0.58908 4.1418,-1.26362 l -2.1484,-3.7212 c -0.7834,0.36204 -1.5819,0.56748 -2.3956,0.6163 -0.7912,0.0358 -1.3843,-0.0278 -1.7791,-0.19073 z m 24.1193,-11.62263 3.1193,2.70737 4.3301,-2.5 -0.2374,-0.208 z m -158.40764,94.87574 -3e-4,1.08948 0.7527,-0.4346 z m 31.5906,-14.61916 c -1.8267,1.05465 -3.037,2.36989 -3.6308,3.9456 -0.5842,1.54011 -0.4532,3.04313 0.3932,4.50905 0.8333,1.44338 1.8886,2.30756 3.1657,2.59261 1.2997,0.27199 2.7902,0.22337 4.4714,-0.14588 0.3809,-0.0695 0.91,-0.19461 1.5876,-0.3753 0.6775,-0.18068 1.1954,-0.29926 1.5537,-0.35575 0.3678,-0.0921 0.7664,-0.15685 1.1958,-0.19428 0.4521,-0.0505 0.8156,-0.0198 1.0907,0.092 0.262,0.0893 0.4711,0.26925 0.6274,0.53989 0.3125,0.54126 0.2619,1.15679 -0.1517,1.84668 -0.404,0.65424 -1.091,1.26136 -2.0608,1.82126 l 2.1289,3.68738 c 2.2103,-1.2761 3.6877,-2.80564 4.4323,-4.58872 0.7543,-1.81872 0.6496,-3.56248 -0.314,-5.23139 -0.8073,-1.39826 -1.8738,-2.25595 -3.1996,-2.57305 -1.3257,-0.3171 -2.8375,-0.33136 -4.5352,-0.0428 -0.439,0.073 -0.9746,0.18684 -1.6071,0.34147 -0.6454,0.13208 -1.1698,0.23938 -1.5733,0.32198 -0.4033,0.0825 -0.8133,0.15384 -1.2297,0.21382 -0.4164,0.06 -0.7491,0.0566 -0.9981,-0.0101 -0.262,-0.0893 -0.4517,-0.23538 -0.5689,-0.43835 -0.1692,-0.29319 -0.1207,-0.65197 0.1455,-1.07629 0.2532,-0.44688 0.6617,-0.8331 1.2255,-1.1586 z m 0.4737,-0.27345 2.1484,3.7212 c 1.296,-0.56782 2.5296,-0.61851 3.701,-0.15212 l 1.6045,-4.17399 c -2.3427,-0.93275 -4.8274,-0.73112 -7.4539,0.60491 z m 14.3435,-8.28125 c -1.8268,1.0547 -3.037,2.36989 -3.6308,3.9456 -0.5843,1.54011 -0.4533,3.04318 0.3931,4.5091 0.8333,1.44338 1.8886,2.30756 3.1658,2.59256 1.2996,0.27204 2.7901,0.22342 4.4714,-0.14588 0.3809,-0.0695 0.91,-0.19461 1.5875,-0.3753 0.6775,-0.18063 1.1955,-0.29926 1.5537,-0.35575 0.3679,-0.0921 0.7665,-0.15685 1.1959,-0.19428 0.452,-0.0505 0.8155,-0.0198 1.0906,0.092 0.262,0.0893 0.4712,0.26925 0.6274,0.53989 0.3125,0.54126 0.2619,1.15684 -0.1517,1.84668 -0.404,0.65429 -1.0909,1.26136 -2.0607,1.82126 l 2.1289,3.68738 c 2.2102,-1.27605 3.6875,-2.80559 4.4322,-4.58872 0.7543,-1.81867 0.6496,-3.56248 -0.3139,-5.23139 -0.8073,-1.39826 -1.8738,-2.25595 -3.1996,-2.57305 -1.3258,-0.3171 -2.8375,-0.33136 -4.5353,-0.0428 -0.4389,0.073 -0.9747,0.18684 -1.6071,0.34147 -0.6454,0.13208 -1.1698,0.23938 -1.5732,0.32193 -0.4034,0.0825 -0.8132,0.15379 -1.2297,0.21382 -0.4164,0.06 -0.7492,0.0566 -0.9982,-0.0101 -0.262,-0.0893 -0.4516,-0.23543 -0.5688,-0.4384 -0.1693,-0.29319 -0.1208,-0.65192 0.1455,-1.07629 0.253,-0.44683 0.6616,-0.83305 1.2254,-1.1586 z m 0.4736,-0.27345 2.1485,3.7212 c 1.2959,-0.56777 2.5296,-0.61851 3.7009,-0.15212 l 1.6046,-4.17399 c -2.3427,-0.93275 -4.8275,-0.73107 -7.454,0.60491 z m 31.4949,-18.1836 c -1.8267,1.0547 -3.0371,2.36994 -3.6308,3.9456 -0.5843,1.54016 -0.4532,3.04318 0.3931,4.5091 0.8334,1.44338 1.8886,2.30756 3.1658,2.59261 1.2997,0.27199 2.7902,0.22337 4.4714,-0.14588 0.3808,-0.0695 0.9101,-0.19466 1.5875,-0.3753 0.6776,-0.18073 1.1954,-0.29926 1.5538,-0.3558 0.3678,-0.0921 0.7664,-0.15685 1.1959,-0.19428 0.452,-0.0505 0.8155,-0.0198 1.0905,0.0921 0.2621,0.0892 0.4712,0.2692 0.6275,0.53984 0.3125,0.54126 0.2619,1.15684 -0.1517,1.84668 -0.4041,0.65429 -1.091,1.26136 -2.0608,1.82126 l 2.1289,3.68738 c 2.2101,-1.276 3.6876,-2.80559 4.4323,-4.58872 0.7541,-1.81862 0.6495,-3.56243 -0.3141,-5.23134 -0.8072,-1.39826 -1.8738,-2.25595 -3.1995,-2.57305 -1.3258,-0.3171 -2.8375,-0.33141 -4.5353,-0.0428 -0.4389,0.073 -0.9746,0.18684 -1.607,0.34147 -0.6455,0.13208 -1.1699,0.23938 -1.5732,0.32193 -0.4035,0.0826 -0.8134,0.15384 -1.2298,0.21382 -0.4164,0.06 -0.7491,0.0566 -0.9981,-0.0101 -0.2621,-0.0893 -0.4517,-0.23543 -0.5688,-0.4384 -0.1693,-0.29319 -0.1208,-0.65197 0.1453,-1.07624 0.2533,-0.44693 0.6617,-0.8331 1.2256,-1.15865 z m 0.4736,-0.2734 2.1484,3.7212 c 1.296,-0.56782 2.5297,-0.61851 3.7011,-0.15217 l 1.6045,-4.17394 c -2.3428,-0.93275 -4.8273,-0.73117 -7.454,0.60491 z m 14.3435,-8.28125 c -1.8267,1.05465 -3.037,2.36989 -3.6308,3.9456 -0.5842,1.54011 -0.4531,3.04313 0.3932,4.50905 0.8333,1.44338 1.8886,2.30756 3.1657,2.59261 1.2998,0.27199 2.79025,0.22337 4.47145,-0.14588 0.3809,-0.0695 0.9101,-0.19461 1.5876,-0.3753 0.6775,-0.18068 1.1953,-0.29921 1.5537,-0.35575 0.3678,-0.0921 0.7664,-0.15685 1.1959,-0.19433 0.452,-0.0504 0.8155,-0.0198 1.0906,0.0921 0.262,0.0893 0.4711,0.26925 0.6274,0.53989 0.3125,0.54126 0.2619,1.15684 -0.1517,1.84668 -0.4041,0.65429 -1.091,1.26136 -2.0608,1.82126 l 2.1289,3.68738 c 2.2103,-1.2761 3.6877,-2.80564 4.4323,-4.58872 0.7542,-1.81867 0.6496,-3.56248 -0.314,-5.23139 -0.8073,-1.39826 -1.8738,-2.25595 -3.1996,-2.57305 -1.3256,-0.31715 -2.8374,-0.33141 -4.5352,-0.0428 -0.439,0.073 -0.9746,0.18684 -1.607,0.34147 -0.6455,0.13208 -1.1699,0.23938 -1.5733,0.32198 -0.4034,0.0825 -0.8133,0.15379 -1.2297,0.21377 -0.4165,0.06 -0.74915,0.0566 -0.99825,-0.0101 -0.262,-0.0893 -0.4517,-0.23538 -0.5689,-0.43835 -0.1692,-0.29319 -0.1207,-0.65197 0.1455,-1.07629 0.2532,-0.44688 0.6617,-0.8331 1.22555,-1.1586 z m 0.4737,-0.27345 2.14845,3.7212 c 1.296,-0.56782 2.5297,-0.61851 3.7011,-0.15217 l 1.6045,-4.17394 c -2.3427,-0.9328 -4.8275,-0.73112 -7.45405,0.60491 z m 56.24254,-32.4717 c -1.8268,1.0547 -3.0371,2.36994 -3.6308,3.9456 -0.5843,1.54016 -0.4533,3.04318 0.3931,4.5091 0.8333,1.44338 1.8885,2.30761 3.1657,2.59261 1.2997,0.27199 2.7902,0.22337 4.4714,-0.14588 0.3809,-0.0695 0.91,-0.19461 1.5876,-0.3753 0.6775,-0.18068 1.1954,-0.29926 1.5537,-0.3558 0.3679,-0.0921 0.7664,-0.1568 1.1959,-0.19428 0.452,-0.0505 0.8156,-0.0198 1.0905,0.0921 0.2621,0.0893 0.4713,0.2692 0.6275,0.53984 0.3125,0.54126 0.2619,1.15684 -0.1516,1.84668 -0.4041,0.65429 -1.091,1.26136 -2.0608,1.82126 l 2.1289,3.68738 c 2.2102,-1.27605 3.6876,-2.80564 4.4322,-4.58872 0.7543,-1.81867 0.6495,-3.56243 -0.314,-5.23134 -0.8073,-1.39826 -1.8737,-2.256 -3.1995,-2.5731 -1.3258,-0.3171 -2.8376,-0.33131 -4.5353,-0.0428 -0.439,0.073 -0.9747,0.18684 -1.6071,0.34147 -0.6454,0.13208 -1.1698,0.23938 -1.5732,0.32193 -0.4034,0.0825 -0.8132,0.15379 -1.2297,0.21382 -0.4164,0.06 -0.7491,0.0566 -0.9982,-0.0101 -0.2619,-0.0893 -0.4516,-0.23543 -0.5688,-0.4384 -0.1693,-0.29319 -0.1208,-0.65192 0.1454,-1.07624 0.2531,-0.44688 0.6617,-0.8331 1.2255,-1.15865 z m 0.4735,-0.2734 2.1485,3.7212 c 1.296,-0.56782 2.5296,-0.61851 3.701,-0.15217 l 1.6046,-4.17399 c -2.3427,-0.93275 -4.8274,-0.73112 -7.4541,0.60496 z m 14.3436,-8.28125 c -1.8268,1.0547 -3.0371,2.36989 -3.6308,3.94555 -0.5842,1.54011 -0.4532,3.04318 0.3932,4.5091 0.8333,1.44338 1.8886,2.30756 3.1657,2.59261 1.2996,0.27204 2.7902,0.22337 4.4714,-0.14588 0.3809,-0.0695 0.9101,-0.19466 1.5875,-0.3753 0.6776,-0.18068 1.1955,-0.29926 1.5538,-0.3558 0.3678,-0.0921 0.7665,-0.15685 1.1959,-0.19428 0.4519,-0.0504 0.8155,-0.0198 1.0905,0.0921 0.2621,0.0893 0.4712,0.26925 0.6274,0.53989 0.3125,0.54126 0.262,1.15679 -0.1516,1.84663 -0.4041,0.65429 -1.091,1.26141 -2.0608,1.82131 l 2.1289,3.68738 c 2.2102,-1.27605 3.6876,-2.80564 4.4323,-4.58877 0.7542,-1.81867 0.6495,-3.56243 -0.314,-5.23134 -0.8073,-1.39826 -1.8738,-2.25595 -3.1996,-2.57305 -1.3258,-0.3171 -2.8375,-0.33141 -4.5352,-0.0428 -0.439,0.073 -0.9747,0.18684 -1.6071,0.34147 -0.6454,0.13208 -1.1699,0.23943 -1.5733,0.32198 -0.4034,0.0825 -0.8132,0.15379 -1.2296,0.21377 -0.4164,0.06 -0.7492,0.0566 -0.9982,-0.0101 -0.2621,-0.0893 -0.4516,-0.23543 -0.5688,-0.4384 -0.1693,-0.29319 -0.1209,-0.65192 0.1453,-1.07624 0.2532,-0.44688 0.6617,-0.8331 1.2255,-1.1586 z m 0.4736,-0.27345 2.1485,3.7212 c 1.296,-0.56782 2.5297,-0.61856 3.701,-0.15217 l 1.6045,-4.17394 c -2.3427,-0.93275 -4.8274,-0.73112 -7.454,0.60491 z m -165.19994,95.51359 -7e-4,4.84251 3.0791,5.33316 8.9347,6.56897 -10.2539,-17.76029 z m 13.4826,-7.7842 4.1647,21.27594 4.2962,-2.48045 -0.8576,-4.37625 5.3788,-3.10545 -3.3024,-2.8294 -2.9094,1.6797 -2.474,-12.64454 z m 4.8376,-2.79295 1.4677,7.54222 10.5791,9.18292 4.3301,-2.5 -16.3431,-14.24469 z m 41.9481,-24.21875 4.1646,21.27594 4.2963,-2.4805 -0.8577,-4.3762 5.3788,-3.10545 -3.3024,-2.8294 -2.9093,1.6797 -2.4741,-12.64454 z m 4.8375,-2.79295 1.4678,7.54222 10.579,9.18292 4.3302,-2.5 -16.3431,-14.24469 z m 36.50175,-21.07425 10.2539,17.76029 4.0595,-2.34375 -10.2539,-17.76029 z m 5.4803,-3.16405 10.25389,17.76029 3.8565,-2.22655 -10.25389,-17.76029 z m 4.364,-2.51955 4.9218,8.52494 9.32369,6.9307 4.0595,-2.34375 -18.03439,-13.26814 z m 4.7699,-2.7539 5.17569,8.96472 8.9346,6.56902 -10.2538,-17.76029 z m 15.57979,-8.9951 4.1647,21.27589 4.2963,-2.48045 -0.8577,-4.3762 5.3788,-3.10545 -3.3025,-2.8294 -2.9092,1.67965 -2.4741,-12.64449 z m 4.8376,-2.79295 1.4677,7.54222 10.5792,9.18287 4.3301,-2.5 -16.3432,-14.24464 z m 42.8242,-19.74043 3.2886,16.79757 4.2962,-2.48045 -0.8577,-4.3762 5.3789,-3.1055 -3.3024,-2.8294 -2.9094,1.6797 -1.113,-5.68568 z m 5.3761,-6.6e-4 0.053,0.27156 10.5791,9.18292 4.3301,-2.5 -7.9794,-6.95361 z M 883.20196,417.4528 v 5.27393 l 7.3794,5.48458 4.0594,-2.34375 z m 35.096,-12.05574 -1.6241,4.14017 c 1.0872,0.42475 2.3556,0.56448 3.8054,0.41908 1.4366,-0.16788 2.8172,-0.58907 4.1418,-1.26361 l -2.1485,-3.72121 c -0.7833,0.36205 -1.5818,0.56744 -2.3956,0.61631 -0.7912,0.0358 -1.3841,-0.0278 -1.779,-0.19074 z m 14.8172,-8.5547 -1.6241,4.14017 c 1.0872,0.42475 2.3556,0.56448 3.8053,0.41913 1.4366,-0.16789 2.8172,-0.58912 4.1418,-1.26366 l -2.1484,-3.72121 c -0.7833,0.36205 -1.5819,0.56749 -2.3956,0.61631 -0.7912,0.0358 -1.3842,-0.0278 -1.779,-0.19074 z m 31.9684,-18.457 -1.624,4.14012 c 1.0872,0.4248 2.3557,0.56448 3.8053,0.41913 1.4366,-0.16788 2.8173,-0.58912 4.1419,-1.26366 l -2.1485,-3.72121 c -0.7833,0.36205 -1.5818,0.56749 -2.3956,0.61636 -0.7912,0.0358 -1.3842,-0.0278 -1.7791,-0.19074 z m 14.81725,-8.55471 -1.6241,4.14018 c 1.0873,0.42475 2.3557,0.56443 3.8054,0.41908 1.4366,-0.16789 2.8173,-0.58912 4.1418,-1.26361 l -2.1485,-3.72121 c -0.7832,0.362 -1.5818,0.56744 -2.3956,0.61631 -0.7912,0.0358 -1.3842,-0.0278 -1.779,-0.19075 z m 56.71609,-32.74509 -1.624,4.14012 c 1.0872,0.42475 2.3557,0.56443 3.8053,0.41913 1.4367,-0.16793 2.8172,-0.58912 4.1418,-1.26366 l -2.1484,-3.72121 c -0.7833,0.36205 -1.5819,0.56749 -2.3956,0.61631 -0.7913,0.0359 -1.3843,-0.0277 -1.7791,-0.19069 z m 14.8172,-8.55471 -1.624,4.14013 c 1.0872,0.42475 2.3556,0.56448 3.8052,0.41913 1.4367,-0.16789 2.8172,-0.58907 4.1418,-1.26361 l -2.1484,-3.72121 c -0.7833,0.36205 -1.5818,0.56744 -2.3956,0.61631 -0.7912,0.0358 -1.3842,-0.0278 -1.779,-0.19075 z m 31.9352,-18.37015 -1.5908,4.05327 c 1.0873,0.42475 2.3557,0.56448 3.8054,0.41908 1.4366,-0.16788 2.8172,-0.58907 4.1418,-1.26361 l -1.8526,-3.2087 -2.289,1e-5 c -0.1359,0.0171 -0.2658,0.0956 -0.4025,0.10379 -0.4296,0.0194 -0.6533,-0.0639 -0.9661,-0.103 z m -200.16904,115.66014 0.001,6.65021 2.8789,-1.6621 z m 205.39484,-115.65967 1.6718,2.89578 c 1.4571,-0.84125 2.4765,-1.834 3.2966,-2.8956 z M 892.02016,429.90993 c -1.8267,1.05465 -3.0371,2.36987 -3.6309,3.94559 -0.5842,1.5401 -0.4531,3.04313 0.3932,4.50905 0.8334,1.44338 1.8886,2.30756 3.1658,2.59261 1.2997,0.27199 2.7902,0.22337 4.4714,-0.14588 0.3808,-0.0695 0.91,-0.19462 1.5875,-0.3753 0.6776,-0.18068 1.1954,-0.29922 1.5537,-0.35575 0.3678,-0.0921 0.7665,-0.15686 1.196,-0.19433 0.4519,-0.0504 0.8154,-0.0198 1.0905,0.0921 0.2621,0.0893 0.4712,0.26924 0.6274,0.53988 0.3125,0.54126 0.2619,1.15684 -0.1517,1.84669 -0.4041,0.65428 -1.091,1.26135 -2.0607,1.82125 l 2.1289,3.68737 c 2.2102,-1.27611 3.6876,-2.80563 4.4322,-4.58871 0.7542,-1.81867 0.6496,-3.56249 -0.3139,-5.2314 -0.8073,-1.39827 -1.8739,-2.25595 -3.1996,-2.57304 -1.3257,-0.31715 -2.8375,-0.33141 -4.5352,-0.0428 -0.439,0.073 -0.9747,0.18684 -1.6071,0.34147 -0.6454,0.13207 -1.1698,0.23938 -1.5733,0.32197 -0.4034,0.0825 -0.8134,0.15384 -1.2297,0.21378 -0.4164,0.06 -0.7492,0.0567 -0.9981,-0.0101 -0.2621,-0.0893 -0.4517,-0.23537 -0.5689,-0.43834 -0.1693,-0.29319 -0.1208,-0.65197 0.1454,-1.07629 0.2532,-0.44688 0.6617,-0.8331 1.2255,-1.1586 z m 0.4736,-0.27345 2.1484,3.72119 c 1.2961,-0.56783 2.5297,-0.61852 3.7011,-0.15216 l 1.6045,-4.17395 c -2.3427,-0.93276 -4.8274,-0.73113 -7.454,0.60492 z m 56.2426,-32.4717 c -1.8268,1.0547 -3.0371,2.36992 -3.6308,3.94559 -0.5843,1.54015 -0.4532,3.04318 0.3931,4.5091 0.8334,1.44338 1.8885,2.30761 3.1658,2.5926 1.2997,0.272 2.7901,0.22337 4.4714,-0.14587 0.3808,-0.0695 0.91,-0.19462 1.5875,-0.3753 0.6775,-0.18068 1.1954,-0.29927 1.5538,-0.3558 0.3678,-0.0921 0.7663,-0.15681 1.1958,-0.19428 0.4521,-0.0505 0.8156,-0.0198 1.0906,0.0921 0.262,0.0893 0.4712,0.26919 0.6275,0.53983 0.3125,0.54126 0.2619,1.15684 -0.1517,1.84669 -0.4041,0.65428 -1.091,1.26135 -2.0608,1.82125 l 2.1289,3.68737 c 2.2102,-1.27606 3.6877,-2.80563 4.4323,-4.58871 0.7542,-1.81867 0.6495,-3.56243 -0.3141,-5.23134 -0.8072,-1.39827 -1.8738,-2.25596 -3.1995,-2.57305 -1.3258,-0.3171 -2.8376,-0.33136 -4.5353,-0.0428 -0.439,0.073 -0.9746,0.18684 -1.607,0.34147 -0.6455,0.13207 -1.1699,0.23938 -1.5732,0.32192 -0.4034,0.0825 -0.8133,0.15379 -1.2298,0.21382 -0.4164,0.06 -0.7491,0.0566 -0.9981,-0.0101 -0.2621,-0.0893 -0.4517,-0.23542 -0.5689,-0.43839 -0.1692,-0.29319 -0.1208,-0.65192 0.1454,-1.07624 0.2532,-0.44688 0.6617,-0.8331 1.2256,-1.15865 z m 0.4736,-0.2734 2.1484,3.72119 c 1.296,-0.56783 2.5297,-0.61852 3.7011,-0.15216 l 1.6045,-4.17395 c -2.3427,-0.9328 -4.8274,-0.73118 -7.454,0.60492 z m 14.3435,-8.28125 c -1.8268,1.0547 -3.037,2.36987 -3.6308,3.94559 -0.5842,1.5401 -0.4532,3.04313 0.3932,4.50905 0.8333,1.44338 1.8886,2.30756 3.1657,2.59261 1.2997,0.27204 2.7901,0.22341 4.4714,-0.14588 0.3809,-0.0695 0.91,-0.19462 1.5876,-0.3753 0.6775,-0.18068 1.1954,-0.29927 1.5537,-0.35575 0.3678,-0.0921 0.7665,-0.15691 1.1959,-0.19433 0.452,-0.0504 0.8155,-0.0198 1.0906,0.0921 0.262,0.0893 0.4711,0.26924 0.6274,0.53988 0.3125,0.54126 0.262,1.15679 -0.1517,1.84669 -0.404,0.65423 -1.091,1.26135 -2.0608,1.82125 l 2.1289,3.68737 c 2.2102,-1.27605 3.6877,-2.80563 4.43235,-4.58871 0.7543,-1.81872 0.6496,-3.56248 -0.314,-5.23139 -0.80735,-1.39827 -1.87385,-2.25596 -3.19965,-2.57305 -1.3257,-0.3171 -2.8374,-0.33141 -4.5352,-0.0428 -0.439,0.073 -0.9746,0.18684 -1.6071,0.34147 -0.6454,0.13207 -1.1699,0.23943 -1.5733,0.32197 -0.4033,0.0825 -0.8132,0.15379 -1.2296,0.21378 -0.4164,0.06 -0.7492,0.0566 -0.9982,-0.0101 -0.262,-0.0893 -0.4517,-0.23537 -0.5689,-0.43834 -0.1692,-0.29319 -0.1207,-0.65197 0.1455,-1.07629 0.2532,-0.44688 0.6617,-0.8331 1.2255,-1.1586 z m 0.4737,-0.27345 2.1484,3.72119 c 1.296,-0.56784 2.5297,-0.61857 3.7011,-0.15216 l 1.6044,-4.17395 c -2.3427,-0.93275 -4.8274,-0.73113 -7.4539,0.60492 z m 31.49495,-18.1836 c -1.8268,1.0547 -3.0371,2.36987 -3.6309,3.94559 -0.5843,1.54014 -0.4532,3.04318 0.3932,4.50909 0.8333,1.44338 1.8886,2.30757 3.1658,2.59256 1.2997,0.27199 2.7902,0.22337 4.4714,-0.14587 0.38079,-0.0695 0.90999,-0.19462 1.58749,-0.3753 0.6776,-0.18068 1.1955,-0.29927 1.5537,-0.35575 0.3678,-0.0921 0.7665,-0.15686 1.1959,-0.19428 0.452,-0.0505 0.8155,-0.0198 1.0906,0.092 0.2621,0.0893 0.4711,0.26924 0.6273,0.53987 0.3125,0.54127 0.2619,1.15684 -0.1517,1.8467 -0.404,0.65428 -1.0909,1.26135 -2.0606,1.82125 l 2.1288,3.68737 c 2.2102,-1.27605 3.6875,-2.80558 4.4322,-4.58871 0.7542,-1.81867 0.6496,-3.56248 -0.3139,-5.23139 -0.8073,-1.39827 -1.8739,-2.25591 -3.1996,-2.57305 -1.3257,-0.3171 -2.8375,-0.33136 -4.5352,-0.0428 -0.4389,0.073 -0.9747,0.18684 -1.6071,0.34147 -0.6454,0.13207 -1.16979,0.23938 -1.57319,0.32192 -0.4035,0.0826 -0.8134,0.15384 -1.2297,0.21383 -0.4164,0.06 -0.7491,0.0566 -0.9982,-0.0101 -0.262,-0.0893 -0.4516,-0.23541 -0.5688,-0.43839 -0.1693,-0.29319 -0.1208,-0.65197 0.1454,-1.07629 0.2532,-0.44688 0.6616,-0.83305 1.2255,-1.15859 z m 0.4736,-0.27346 2.1484,3.72119 c 1.296,-0.56778 2.52969,-0.61852 3.70099,-0.15211 l 1.6046,-4.17399 c -2.3427,-0.93275 -4.82739,-0.73114 -7.45399,0.60491 z m 14.34349,-8.28125 c -1.8268,1.05471 -3.0372,2.36992 -3.6309,3.94559 -0.5843,1.54015 -0.4532,3.04318 0.3931,4.5091 0.8334,1.44338 1.8886,2.30756 3.1658,2.59261 1.2997,0.27199 2.7902,0.22337 4.4714,-0.14588 0.3808,-0.0695 0.9101,-0.19467 1.5875,-0.3753 0.6775,-0.18068 1.1954,-0.29926 1.5538,-0.3558 0.3677,-0.092 0.7664,-0.15681 1.1959,-0.19427 0.452,-0.0505 0.8155,-0.0198 1.0905,0.0921 0.262,0.0893 0.4712,0.26919 0.6275,0.53983 0.3125,0.54126 0.2619,1.15684 -0.1517,1.84669 -0.4041,0.65428 -1.091,1.26135 -2.0608,1.82125 l 2.1289,3.68737 c 2.2102,-1.27605 3.6876,-2.80558 4.4323,-4.58871 0.7541,-1.81862 0.6495,-3.56243 -0.314,-5.23134 -0.8073,-1.39827 -1.8738,-2.25601 -3.1995,-2.5731 -1.3258,-0.3171 -2.8376,-0.33136 -4.5353,-0.0428 -0.439,0.073 -0.9747,0.18684 -1.6071,0.34147 -0.6455,0.13207 -1.1699,0.23938 -1.5732,0.32192 -0.4034,0.0825 -0.8134,0.15384 -1.2298,0.21383 -0.4165,0.06 -0.7491,0.0566 -0.9981,-0.0101 -0.262,-0.0893 -0.4516,-0.23542 -0.5688,-0.4384 -0.1693,-0.29319 -0.1208,-0.65197 0.1453,-1.07624 0.2533,-0.44693 0.6618,-0.83314 1.2256,-1.15865 z m 0.4735,-0.27339 2.1484,3.72118 c 1.296,-0.56783 2.5297,-0.61851 3.7011,-0.15215 l 1.6046,-4.174 c -2.3428,-0.93275 -4.8274,-0.73113 -7.4541,0.60497 z m 56.2426,-32.4717 c -1.8267,1.05464 -3.037,2.36987 -3.6308,3.94558 -0.5842,1.5401 -0.4532,3.04314 0.3932,4.50905 0.8333,1.44338 1.8885,2.30762 3.1657,2.59261 1.2997,0.27199 2.7902,0.22337 4.4714,-0.14587 0.3809,-0.0695 0.91,-0.19462 1.5876,-0.3753 0.6774,-0.18063 1.1954,-0.29927 1.5537,-0.35575 0.3678,-0.0921 0.7664,-0.15686 1.1958,-0.19428 0.4521,-0.0505 0.8156,-0.0198 1.0907,0.092 0.2619,0.0893 0.4711,0.26924 0.6274,0.53987 0.3125,0.54127 0.262,1.15679 -0.1517,1.8467 -0.404,0.65423 -1.091,1.26135 -2.0608,1.82125 l 2.1289,3.68737 c 2.2102,-1.27605 3.6877,-2.80563 4.4323,-4.58871 0.7543,-1.81872 0.6496,-3.56248 -0.314,-5.23139 -0.8073,-1.39827 -1.8738,-2.25596 -3.1996,-2.57305 -1.3257,-0.3171 -2.8375,-0.33136 -4.5353,-0.0428 -0.4389,0.073 -0.9746,0.18684 -1.607,0.34147 -0.6455,0.13207 -1.1698,0.23933 -1.5733,0.32192 -0.4033,0.0825 -0.8133,0.15384 -1.2297,0.21383 -0.4164,0.06 -0.7491,0.0566 -0.9981,-0.0101 -0.262,-0.0893 -0.4517,-0.23537 -0.5689,-0.43834 -0.1692,-0.29318 -0.1207,-0.65197 0.1455,-1.07628 0.2532,-0.44688 0.6617,-0.8331 1.2255,-1.1586 z m 0.4737,-0.27346 2.1484,3.72119 c 1.2959,-0.56778 2.5296,-0.61852 3.701,-0.15211 l 1.6045,-4.174 c -2.3427,-0.93275 -4.8274,-0.73113 -7.4539,0.60492 z m 14.3435,-8.28125 c -1.8268,1.05471 -3.037,2.36987 -3.6308,3.94559 -0.5843,1.5401 -0.4533,3.04318 0.3931,4.5091 0.8333,1.44338 1.8886,2.30756 3.1657,2.59261 1.2997,0.27199 2.7902,0.22337 4.4715,-0.14593 0.3809,-0.0695 0.91,-0.19462 1.5876,-0.3753 0.6774,-0.18063 1.1954,-0.29927 1.5536,-0.35575 0.3679,-0.0921 0.7665,-0.15686 1.1959,-0.19428 0.452,-0.0505 0.8155,-0.0198 1.0905,0.0921 0.2621,0.0893 0.4713,0.26919 0.6275,0.53983 0.3125,0.54126 0.2619,1.15684 -0.1516,1.84669 -0.4041,0.65429 -1.091,1.26135 -2.0608,1.82126 l 2.1289,3.68736 c 2.2101,-1.276 3.6875,-2.80558 4.4323,-4.58871 0.7542,-1.81867 0.6495,-3.56243 -0.3141,-5.23133 -0.8073,-1.39828 -1.8737,-2.25601 -3.1995,-2.57311 -1.3258,-0.31709 -2.8375,-0.33136 -4.5353,-0.0428 -0.4389,0.073 -0.9747,0.18685 -1.6071,0.34148 -0.6454,0.13207 -1.1698,0.23937 -1.5732,0.32191 -0.4034,0.0825 -0.8132,0.1538 -1.2297,0.21383 -0.4164,0.06 -0.7492,0.0566 -0.9982,-0.0101 -0.262,-0.0893 -0.4516,-0.23542 -0.5688,-0.43839 -0.1693,-0.29319 -0.1208,-0.65192 0.1455,-1.07629 0.253,-0.44683 0.6616,-0.83305 1.2254,-1.1586 z m 0.4736,-0.27345 2.1485,3.72119 c 1.2959,-0.56778 2.5296,-0.61852 3.7009,-0.15211 l 1.6046,-4.174 c -2.3428,-0.9327 -4.8275,-0.73108 -7.454,0.60492 z m -181.91154,105.16203 10.2539,17.7603 4.0595,-2.34375 -10.2539,-17.7603 z m 5.4803,-3.16404 10.2539,17.76029 3.8565,-2.22655 -10.2539,-17.76029 z m 4.3639,-2.5195 4.9219,8.52493 9.3239,6.93066 4.0595,-2.34375 -18.0346,-13.26814 z m 4.77,-2.75396 5.1758,8.96472 8.9346,6.56902 -10.2539,-17.76029 z m 15.58,-8.99509 4.1646,21.27593 4.2963,-2.4805 -0.8577,-4.3762 5.3788,-3.10545 -3.3024,-2.82941 -2.9093,1.6797 -2.4741,-12.64453 z m 4.8375,-2.79296 1.4677,7.54223 10.5791,9.18291 4.3302,-2.5 -16.3431,-14.24468 z m 41.9481,-24.21875 4.16475,21.27589 4.2963,-2.48045 -0.8577,-4.3762 5.3789,-3.1055 -3.3025,-2.82941 -2.9093,1.67971 -2.474,-12.64453 z m 4.83765,-2.793 1.4678,7.54222 10.5791,9.18292 4.3301,-2.5 -16.3432,-14.24464 z m 36.50149,-21.0742 10.2539,17.76029 4.0595,-2.34375 -10.2539,-17.76029 z m 5.4803,-3.16405 10.2539,17.76029 3.8566,-2.2266 -10.2539,-17.76029 z m 4.364,-2.51954 4.9219,8.52492 9.3239,6.93066 4.0595,-2.34375 -18.0347,-13.26808 z m 4.7699,-2.7539 5.1758,8.96472 8.9346,6.56902 -10.2539,-17.76029 z m 15.58,-8.9951 4.1647,21.27589 4.2962,-2.48045 -0.8577,-4.3762 5.3789,-3.1055 -3.3024,-2.82941 -2.9094,1.6797 -2.474,-12.64453 z m 4.8376,-2.793 1.4677,7.54222 10.5791,9.18292 4.3301,-2.5 -16.3432,-14.24464 z m 41.9481,-24.21875 4.1646,21.27594 4.2964,-2.4805 -0.8578,-4.3762 5.3788,-3.10545 -3.3024,-2.82941 -2.9093,1.6797 -2.4334,-12.43347 -0.4043,-0.001 z m 4.9389,-2.26965 1.3664,7.01891 10.5791,9.18293 4.3301,-2.5 -15.7208,-13.70191 z m -217.47214,127.13183 6e-4,4.41099 c 0.1066,0.0336 0.2197,0.0137 0.3253,0.0557 l 1.6045,-4.17395 c -0.6245,-0.2487 -1.2856,-0.20537 -1.9304,-0.29277 z M 1110.5594,310.16148 c 0.024,0.0444 0.018,0.0904 0.044,0.13474 0.8334,1.44338 1.8886,2.30756 3.1658,2.59261 1.2997,0.27199 2.7902,0.22337 4.4714,-0.14588 0.3808,-0.0695 0.9101,-0.19467 1.5875,-0.3753 0.6776,-0.18073 1.1954,-0.29927 1.5538,-0.3558 0.3678,-0.0921 0.7664,-0.15686 1.1959,-0.19428 0.4519,-0.0504 0.8154,-0.0198 1.0905,0.0921 0.262,0.0893 0.4711,0.26924 0.6274,0.53988 0.3125,0.54126 0.262,1.15679 -0.1516,1.84664 -0.4041,0.65428 -1.0911,1.2614 -2.0608,1.8213 l 2.1289,3.68737 c 2.2101,-1.27605 3.6876,-2.80563 4.4323,-4.58876 0.1064,-0.25655 0.065,-0.50018 0.1376,-0.75374 -3.7944,-2.7008 -8.4318,-4.30119 -13.4642,-4.30121 z m -227.35864,133.99222 -3e-4,4.83548 c 0.671,-0.17871 1.1874,-0.29815 1.5433,-0.35428 0.3679,-0.0921 0.7665,-0.15687 1.1959,-0.19429 0.4519,-0.0504 0.8155,-0.0198 1.0905,0.0921 0.2621,0.0893 0.4712,0.26924 0.6274,0.53988 0.3125,0.54126 0.262,1.15679 -0.1516,1.84664 -0.4041,0.65428 -1.091,1.2614 -2.0608,1.8213 l 2.1289,3.68737 c 2.2102,-1.27605 3.6876,-2.80563 4.4323,-4.58876 0.7542,-1.81862 0.6495,-3.56243 -0.314,-5.23134 -0.8073,-1.39827 -1.8738,-2.25596 -3.1996,-2.57305 -1.3258,-0.3171 -2.8374,-0.33141 -4.5352,-0.0428 -0.2068,0.0344 -0.5071,0.10929 -0.7568,0.16179 z m 12.3262,0.73635 -1.6241,4.14017 c 1.0872,0.42474 2.3556,0.56448 3.8053,0.41908 1.4367,-0.16788 2.8173,-0.58912 4.1418,-1.26362 l -2.1484,-3.7212 c -0.7833,0.36199 -1.5818,0.56744 -2.3956,0.61631 -0.7912,0.0358 -1.3843,-0.0278 -1.779,-0.19074 z m 56.7161,-32.7451 -1.624,4.14012 c 1.0873,0.42474 2.3557,0.56448 3.8053,0.41913 1.4366,-0.16788 2.8173,-0.58912 4.1419,-1.26367 l -2.1485,-3.7212 c -0.7833,0.36204 -1.5819,0.56749 -2.3956,0.61636 -0.7912,0.0358 -1.3843,-0.0278 -1.7791,-0.19074 z m 14.8172,-8.5547 -1.6241,4.14017 c 1.0872,0.42474 2.3557,0.56443 3.8054,0.41908 1.4365,-0.16783 2.8172,-0.58907 4.1418,-1.26362 l -2.1485,-3.7212 c -0.7833,0.36204 -1.5818,0.56744 -2.3956,0.61631 -0.7912,0.0358 -1.3842,-0.0278 -1.779,-0.19074 z m 31.96865,-18.45705 -1.6241,4.14017 c 1.0871,0.42479 2.3556,0.56448 3.80519,0.41913 1.4368,-0.16793 2.8173,-0.58912 4.1419,-1.26367 l -2.1484,-3.7212 c -0.7834,0.36204 -1.5819,0.56749 -2.3956,0.61631 -0.7912,0.0358 -1.38429,-0.0278 -1.77899,-0.19074 z m 14.81699,-8.55465 -1.6241,4.14012 c 1.0872,0.42479 2.3557,0.56448 3.8053,0.41913 1.4367,-0.16793 2.8173,-0.58912 4.1419,-1.26367 l -2.1485,-3.7212 c -0.7833,0.36204 -1.5818,0.56744 -2.3956,0.61631 -0.7912,0.0358 -1.3843,-0.0277 -1.779,-0.19069 z m 56.7162,-32.74515 -1.6241,4.14017 c 1.0872,0.42474 2.3556,0.56448 3.8054,0.41908 1.4366,-0.16788 2.8173,-0.58912 4.1418,-1.26362 l -2.1485,-3.7212 c -0.7832,0.36199 -1.5818,0.56744 -2.3956,0.61631 -0.7912,0.0358 -1.3842,-0.0278 -1.779,-0.19074 z m 14.8172,-8.5547 -1.6241,4.14017 c 1.0872,0.42474 2.3556,0.56448 3.8053,0.41913 1.4366,-0.16788 2.8172,-0.58912 4.1418,-1.26367 l -2.1484,-3.7212 c -0.7833,0.36204 -1.5819,0.56749 -2.3956,0.61631 -0.7913,0.0358 -1.3842,-0.0278 -1.779,-0.19074 z m 31.9685,-18.457 -1.6241,4.14012 c 1.0872,0.42479 2.3557,0.56448 3.8053,0.41913 1.4366,-0.16788 2.8172,-0.58907 4.1418,-1.26362 l -2.1484,-3.7212 c -0.7834,0.36204 -1.5818,0.56744 -2.3956,0.61631 -0.7912,0.0358 -1.3842,-0.0278 -1.779,-0.19074 z M 883.55476,453.3606 c 0.2405,1.41884 0.6102,2.7891 1.0943,4.10649 0.7994,-0.2204 1.6215,-0.33855 2.3837,-0.72671 l -2.1484,-3.7212 c -0.4347,0.2009 -0.8856,0.23698 -1.3296,0.34142 z m 27.5934,-8.14814 c -1.8268,1.0547 -3.037,2.36988 -3.6308,3.94559 -0.5843,1.54016 -0.4533,3.04318 0.3931,4.50911 0.8333,1.44337 1.8886,2.30756 3.1658,2.59255 1.2996,0.27204 2.7902,0.22337 4.4714,-0.14587 0.3809,-0.0695 0.91,-0.19462 1.5876,-0.3753 0.6775,-0.18068 1.1954,-0.29927 1.5536,-0.35575 0.3679,-0.0921 0.7665,-0.15686 1.1959,-0.19429 0.452,-0.0505 0.8156,-0.0198 1.0906,0.0921 0.2621,0.0892 0.4712,0.2692 0.6274,0.53983 0.3125,0.54127 0.262,1.15685 -0.1516,1.84669 -0.4041,0.65428 -1.091,1.26136 -2.0608,1.82126 l 2.1289,3.68737 c 2.2102,-1.27605 3.6876,-2.80558 4.4323,-4.58871 0.7542,-1.81868 0.6495,-3.56244 -0.3141,-5.23134 -0.8073,-1.39827 -1.8738,-2.25596 -3.1995,-2.57311 -1.3258,-0.3171 -2.8375,-0.33135 -4.5353,-0.0428 -0.4389,0.073 -0.9746,0.18685 -1.6071,0.34146 -0.6454,0.13209 -1.1698,0.23939 -1.5732,0.32193 -0.4034,0.0826 -0.8133,0.15384 -1.2297,0.21383 -0.4164,0.06 -0.7491,0.0566 -0.9982,-0.0101 -0.2619,-0.0893 -0.4516,-0.23541 -0.5688,-0.43839 -0.1692,-0.29319 -0.1207,-0.65198 0.1455,-1.07629 0.2531,-0.44688 0.6616,-0.83304 1.2255,-1.15859 z m 0.4736,-0.27345 2.1485,3.7212 c 1.2959,-0.56778 2.5295,-0.61847 3.701,-0.15211 l 1.6045,-4.174 c -2.3428,-0.93271 -4.8274,-0.73113 -7.454,0.60491 z m 14.3436,-8.28125 c -1.8268,1.0547 -3.0371,2.36993 -3.6309,3.94559 -0.5843,1.54016 -0.4532,3.04318 0.3932,4.50911 0.8333,1.44337 1.8886,2.30756 3.1657,2.5926 1.2997,0.27198 2.7902,0.22337 4.4714,-0.14587 0.3809,-0.0695 0.9101,-0.19467 1.5876,-0.3753 0.6775,-0.18069 1.1954,-0.29927 1.5537,-0.3558 0.3678,-0.0921 0.7664,-0.15681 1.1959,-0.1943 0.452,-0.0505 0.8156,-0.0198 1.0905,0.0921 0.2621,0.0893 0.4713,0.2692 0.6275,0.53983 0.3125,0.54128 0.2618,1.1569 -0.1517,1.84669 -0.4041,0.65433 -1.0909,1.26136 -2.0607,1.82127 l 2.1289,3.68737 c 2.2102,-1.27606 3.6875,-2.80558 4.4322,-4.58871 0.7542,-1.81863 0.6495,-3.56245 -0.314,-5.23135 -0.8073,-1.39827 -1.8738,-2.25595 -3.1996,-2.57306 -1.3257,-0.31715 -2.8374,-0.3314 -4.5352,-0.0428 -0.439,0.073 -0.9747,0.18685 -1.6071,0.34147 -0.6454,0.13209 -1.1698,0.23939 -1.5732,0.32193 -0.4034,0.0825 -0.8133,0.15384 -1.2297,0.21383 -0.4165,0.06 -0.7492,0.0566 -0.9982,-0.0101 -0.262,-0.0893 -0.4516,-0.23541 -0.5688,-0.43839 -0.1693,-0.29319 -0.1208,-0.65198 0.1454,-1.07625 0.2532,-0.44693 0.6617,-0.83314 1.2255,-1.15864 z m 0.4735,-0.2734 2.1485,3.7212 c 1.296,-0.56783 2.5296,-0.61852 3.701,-0.15216 l 1.6046,-4.174 c -2.3427,-0.93276 -4.8274,-0.73113 -7.4541,0.60496 z m 56.24275,-32.4717 c -1.8267,1.05465 -3.0371,2.36988 -3.6309,3.94559 -0.5842,1.54011 -0.4532,3.04318 0.3931,4.5091 0.8334,1.44337 1.8887,2.30756 3.1659,2.59255 1.2997,0.27199 2.7902,0.22337 4.4714,-0.14586 0.3808,-0.0695 0.91,-0.19462 1.5875,-0.37531 0.6775,-0.18062 1.1954,-0.29927 1.5537,-0.35574 0.3678,-0.0921 0.7665,-0.15687 1.1959,-0.19429 0.452,-0.0505 0.8155,-0.0198 1.0906,0.092 0.262,0.0893 0.4711,0.26926 0.6274,0.53989 0.3125,0.54127 0.2619,1.15684 -0.1517,1.84668 -0.4041,0.65428 -1.091,1.26136 -2.0607,1.82127 l 2.1289,3.68737 c 2.2101,-1.27606 3.6876,-2.80563 4.4322,-4.58871 0.7542,-1.81868 0.6496,-3.56249 -0.3139,-5.23139 -0.8073,-1.39828 -1.8739,-2.25596 -3.1996,-2.57306 -1.3258,-0.3171 -2.8376,-0.33135 -4.5353,-0.0428 -0.4389,0.073 -0.9747,0.18685 -1.6071,0.34146 -0.6454,0.13209 -1.1697,0.23934 -1.5732,0.32193 -0.4034,0.0825 -0.8134,0.15384 -1.2298,0.21383 -0.4163,0.06 -0.7491,0.0566 -0.9981,-0.0101 -0.2621,-0.0893 -0.4516,-0.23541 -0.5688,-0.43839 -0.1693,-0.29319 -0.1209,-0.65193 0.1454,-1.0763 0.2532,-0.44688 0.6617,-0.83309 1.2255,-1.15859 z m 0.4736,-0.27345 2.1484,3.7212 c 1.296,-0.56778 2.5297,-0.61852 3.701,-0.15211 l 1.6046,-4.174 c -2.3428,-0.93276 -4.8274,-0.73113 -7.454,0.60491 z m 14.3435,-8.28125 c -1.8267,1.0547 -3.0371,2.36993 -3.6308,3.94559 -0.5842,1.54011 -0.4532,3.04318 0.3931,4.50911 0.8334,1.44337 1.8886,2.30756 3.1658,2.5926 1.2997,0.27199 2.79009,0.22337 4.47139,-0.14587 0.3808,-0.0695 0.9101,-0.19467 1.5875,-0.3753 0.6775,-0.18068 1.1955,-0.29932 1.5538,-0.3558 0.3678,-0.0921 0.7663,-0.15686 1.1957,-0.19429 0.4521,-0.0505 0.8155,-0.0198 1.0906,0.0921 0.262,0.0893 0.4712,0.2692 0.6275,0.53983 0.3125,0.54127 0.2619,1.15685 -0.1517,1.84669 -0.4041,0.65428 -1.091,1.26136 -2.0608,1.82126 l 2.1289,3.68737 c 2.2101,-1.276 3.6876,-2.80558 4.4323,-4.58871 0.7542,-1.81868 0.6495,-3.56244 -0.3141,-5.23134 -0.8072,-1.39827 -1.8737,-2.25601 -3.1995,-2.57311 -1.3257,-0.3171 -2.8375,-0.33135 -4.5352,-0.0428 -0.439,0.073 -0.9746,0.18685 -1.607,0.34147 -0.6455,0.13209 -1.1699,0.23939 -1.5732,0.32193 -0.4034,0.0825 -0.8133,0.15379 -1.22979,0.21383 -0.4164,0.06 -0.7491,0.0566 -0.9981,-0.0101 -0.2621,-0.0893 -0.4517,-0.23541 -0.5688,-0.43839 -0.1693,-0.29319 -0.1209,-0.65193 0.1453,-1.07625 0.2532,-0.44688 0.6617,-0.83309 1.2256,-1.15864 z m 0.4736,-0.2734 2.14839,3.7212 c 1.296,-0.56783 2.5298,-0.61857 3.7011,-0.15216 l 1.6046,-4.174 c -2.3429,-0.93271 -4.8275,-0.73108 -7.45409,0.60496 z m 31.49479,-18.1836 c -1.8268,1.0547 -3.037,2.36988 -3.6308,3.94559 -0.5843,1.54011 -0.4532,3.04313 0.3932,4.50905 0.8333,1.44338 1.8886,2.30757 3.1657,2.5926 1.2997,0.272 2.7902,0.22337 4.4714,-0.14587 0.3809,-0.0695 0.91,-0.19461 1.5876,-0.37529 0.6775,-0.18068 1.1954,-0.29927 1.5536,-0.35575 0.3679,-0.0921 0.7666,-0.15691 1.196,-0.19435 0.4519,-0.0504 0.8155,-0.0198 1.0905,0.0921 0.2621,0.0893 0.4712,0.26925 0.6274,0.53987 0.3125,0.54127 0.262,1.1568 -0.1516,1.8467 -0.4041,0.65423 -1.091,1.26136 -2.0608,1.82126 l 2.1289,3.68737 c 2.2102,-1.27605 3.6876,-2.80564 4.4323,-4.58871 0.7542,-1.81868 0.6495,-3.5625 -0.314,-5.23139 -0.8073,-1.39827 -1.8738,-2.25596 -3.1996,-2.57306 -1.3258,-0.3171 -2.8374,-0.3314 -4.5352,-0.0428 -0.439,0.073 -0.9747,0.18685 -1.6071,0.34147 -0.6454,0.13209 -1.1699,0.23944 -1.5733,0.32198 -0.4033,0.0825 -0.8132,0.15379 -1.2296,0.21378 -0.4164,0.06 -0.7492,0.0566 -0.9982,-0.0101 -0.262,-0.0893 -0.4517,-0.23537 -0.5689,-0.43834 -0.1693,-0.29319 -0.1207,-0.65198 0.1455,-1.0763 0.2531,-0.44688 0.6617,-0.8331 1.2254,-1.15859 z m 0.4736,-0.27345 2.1485,3.7212 c 1.296,-0.56784 2.5296,-0.61852 3.701,-0.15216 l 1.6045,-4.17395 c -2.3427,-0.93276 -4.8274,-0.73113 -7.454,0.60491 z m 14.3436,-8.28125 c -1.8267,1.05464 -3.0371,2.36988 -3.6309,3.94558 -0.5842,1.54012 -0.4531,3.04314 0.3932,4.50906 0.8334,1.44337 1.8886,2.30761 3.1658,2.5926 1.2997,0.27199 2.7902,0.22337 4.4714,-0.14587 0.3809,-0.0695 0.91,-0.19462 1.5875,-0.3753 0.6776,-0.18068 1.1954,-0.29922 1.5537,-0.35575 0.3678,-0.0921 0.7665,-0.15686 1.1959,-0.19429 0.452,-0.0505 0.8155,-0.0198 1.0906,0.092 0.262,0.0893 0.4712,0.26925 0.6274,0.53988 0.3125,0.54127 0.2619,1.15685 -0.1517,1.84669 -0.4041,0.65428 -1.091,1.26136 -2.0607,1.82126 l 2.1289,3.68737 c 2.2102,-1.27605 3.6876,-2.80563 4.4322,-4.58871 0.7542,-1.81868 0.6496,-3.56249 -0.3139,-5.23139 -0.8073,-1.39827 -1.8739,-2.25596 -3.1996,-2.57306 -1.3257,-0.31715 -2.8376,-0.33135 -4.5353,-0.0428 -0.4389,0.073 -0.9747,0.18685 -1.6071,0.34147 -0.6454,0.13209 -1.1697,0.23935 -1.5732,0.32193 -0.4034,0.0825 -0.8133,0.15384 -1.2297,0.21383 -0.4164,0.06 -0.7492,0.0566 -0.9981,-0.0101 -0.2621,-0.0893 -0.4517,-0.23536 -0.5689,-0.43834 -0.1693,-0.29319 -0.1208,-0.65198 0.1454,-1.0763 0.2532,-0.44688 0.6617,-0.83309 1.2255,-1.15859 z m 0.4736,-0.27346 2.1485,3.7212 c 1.2959,-0.56778 2.5296,-0.61852 3.7009,-0.15211 l 1.6046,-4.17399 c -2.3427,-0.93276 -4.8274,-0.73113 -7.454,0.6049 z m 56.2426,-32.47165 c -1.8267,1.05465 -3.0371,2.36988 -3.6308,3.94554 -0.5843,1.54016 -0.4532,3.04318 0.3931,4.50911 0.8334,1.44337 1.8886,2.30757 3.1658,2.5926 1.2997,0.272 2.7902,0.22337 4.4714,-0.14587 0.3808,-0.0695 0.9101,-0.19466 1.5875,-0.37529 0.6775,-0.18068 1.1954,-0.29927 1.5538,-0.3558 0.3678,-0.0921 0.7663,-0.15681 1.1958,-0.1943 0.452,-0.0504 0.8155,-0.0198 1.0906,0.0921 0.262,0.0893 0.4711,0.26925 0.6274,0.53987 0.3125,0.54127 0.262,1.1568 -0.1516,1.84664 -0.4041,0.65428 -1.0911,1.26141 -2.0609,1.82131 l 2.129,3.68737 c 2.2102,-1.2761 3.6877,-2.80568 4.4323,-4.58876 0.7542,-1.81868 0.6495,-3.56244 -0.3141,-5.23134 -0.8072,-1.39827 -1.8738,-2.25596 -3.1995,-2.57306 -1.3258,-0.3171 -2.8376,-0.33135 -4.5353,-0.0428 -0.439,0.073 -0.9746,0.18685 -1.607,0.34147 -0.6455,0.13209 -1.1699,0.2394 -1.5733,0.32198 -0.4034,0.0825 -0.8133,0.1538 -1.2297,0.21378 -0.4164,0.06 -0.7491,0.0566 -0.9981,-0.0101 -0.2621,-0.0893 -0.4517,-0.23541 -0.5688,-0.43839 -0.1693,-0.29319 -0.1208,-0.65198 0.1453,-1.07625 0.2533,-0.44693 0.6617,-0.83309 1.2255,-1.15859 z m 0.4736,-0.27345 2.1484,3.7212 c 1.296,-0.56783 2.5297,-0.61852 3.7011,-0.15216 l 1.6045,-4.17395 c -2.3427,-0.93281 -4.8274,-0.73113 -7.454,0.60491 z m 14.3435,-8.28125 c -1.8268,1.0547 -3.037,2.36988 -3.6308,3.94559 -0.5842,1.54011 -0.4532,3.04313 0.3932,4.50906 0.8333,1.44337 1.8885,2.30761 3.1657,2.5926 1.2997,0.27204 2.7901,0.22342 4.4714,-0.14587 0.3809,-0.0695 0.9101,-0.19462 1.5876,-0.3753 0.6775,-0.18068 1.1954,-0.29927 1.5537,-0.35575 0.3678,-0.0921 0.7664,-0.15686 1.1958,-0.19429 0.4521,-0.0505 0.8155,-0.0197 1.0907,0.092 0.2619,0.0893 0.4711,0.26925 0.6274,0.53988 0.3125,0.54127 0.262,1.1568 -0.1517,1.84669 -0.404,0.65423 -1.091,1.26136 -2.0608,1.82126 l 2.1289,3.68737 c 2.2102,-1.27605 3.6877,-2.80563 4.4323,-4.58871 0.7543,-1.81873 0.6496,-3.56249 -0.314,-5.23139 -0.8073,-1.39827 -1.8738,-2.25596 -3.1996,-2.57306 -1.3257,-0.3171 -2.8374,-0.3314 -4.5352,-0.0428 -0.439,0.073 -0.9746,0.18685 -1.6071,0.34147 -0.6454,0.13209 -1.1699,0.23944 -1.5732,0.32198 -0.4034,0.0825 -0.8133,0.15379 -1.2298,0.21383 -0.4164,0.06 -0.7491,0.0566 -0.9981,-0.0101 -0.2621,-0.0892 -0.4517,-0.23536 -0.5689,-0.43834 -0.1692,-0.29319 -0.1207,-0.65198 0.1455,-1.0763 0.2532,-0.44688 0.6617,-0.83309 1.2255,-1.15859 z m 0.4737,-0.27345 2.1484,3.7212 c 1.296,-0.56783 2.5297,-0.61852 3.701,-0.15211 l 1.6046,-4.174 c -2.3428,-0.93276 -4.8275,-0.73113 -7.454,0.60491 z m -223.25084,129.02924 2.7969,14.28945 c 1.6164,0.82588 3.3412,1.46132 5.152,1.89235 l -0.3456,-1.76256 5.3789,-3.1055 -3.3025,-2.82941 -2.9093,1.6797 -2.474,-12.64453 z m 4.8377,-2.793 1.4677,7.54221 10.5791,9.18292 4.3301,-2.5 -16.3432,-14.24463 z m 36.5015,-21.0742 10.254,17.76028 4.0594,-2.34375 -10.2539,-17.76028 z m 5.4803,-3.16405 10.2539,17.76028 3.8566,-2.2266 -10.2539,-17.76028 z m 4.364,-2.51955 4.9219,8.52493 9.3239,6.93065 4.0595,-2.34375 -18.0346,-13.26808 z m 4.7699,-2.7539 5.1758,8.96471 8.9346,6.56902 -10.2539,-17.76028 z m 15.58,-8.9951 4.1647,21.27588 4.2963,-2.48045 -0.8577,-4.37619 5.3788,-3.1055 -3.3024,-2.82941 -2.9093,1.6797 -2.4741,-12.64453 z m 4.8376,-2.793 1.4678,7.54221 10.57915,9.18292 4.3301,-2.5 -16.34325,-14.24463 z m 41.94804,-24.21875 4.1646,21.27593 4.2964,-2.4805 -0.8577,-4.37619 5.3788,-3.10545 -3.3025,-2.82941 -2.9093,1.6797 -2.474,-12.64453 z m 4.8376,-2.79295 1.4677,7.54221 10.5791,9.18292 4.3301,-2.5 -16.3431,-14.24468 z m 36.5015,-21.0742 10.2539,17.76028 4.0595,-2.34375 -10.2539,-17.76028 z m 5.4804,-3.1641 10.2539,17.76028 3.8565,-2.22655 -10.2539,-17.76028 z m 4.3639,-2.5195 4.9219,8.52493 9.3239,6.93065 4.0595,-2.34375 -18.0346,-13.26808 z m 4.7699,-2.7539 5.1758,8.96471 8.9347,6.56897 -10.2539,-17.76028 z m 15.5801,-8.99515 4.1646,21.27593 4.2963,-2.4805 -0.8577,-4.37619 5.3788,-3.10545 -3.3024,-2.82941 -2.9093,1.6797 -2.4741,-12.64453 z m 4.8375,-2.79295 1.4677,7.54221 10.5791,9.18292 4.3302,-2.5 -16.3431,-14.24468 z m 41.9481,-24.21875 4.1647,21.27588 4.2963,-2.48045 -0.8577,-4.37619 1.2229,-0.70605 c -0.031,-1.52212 -0.1969,-3.00946 -0.5048,-4.44466 l -1.551,0.8955 -1.6979,-8.67906 c -0.7072,-1.08209 -1.5115,-2.09113 -2.3848,-3.03672 z m 5.9532,2.9363 0.3522,1.81291 0.8548,0.74237 c -0.354,-0.8789 -0.7525,-1.73417 -1.207,-2.55528 z m -220.97674,138.07708 -1.6241,4.14017 c 1.0871,0.4248 2.3556,0.56448 3.8053,0.41915 1.4367,-0.16794 2.8173,-0.58914 4.1418,-1.26368 l -2.1484,-3.72121 c -0.7833,0.36205 -1.5819,0.5675 -2.3956,0.61631 -0.7913,0.0359 -1.3842,-0.0277 -1.779,-0.19074 z m 14.8171,-8.55465 -1.624,4.14012 c 1.0871,0.4248 2.3556,0.56448 3.8053,0.41915 1.4366,-0.16789 2.8172,-0.58914 4.1418,-1.26368 l -2.1484,-3.72121 c -0.7833,0.36205 -1.5819,0.5675 -2.3957,0.61636 -0.7912,0.0358 -1.3842,-0.0278 -1.779,-0.19074 z m 56.71635,-32.74515 -1.6242,4.14017 c 1.0873,0.42475 2.3557,0.56448 3.8053,0.41915 1.4367,-0.16794 2.8174,-0.58919 4.1419,-1.26368 l -2.1484,-3.72121 c -0.7833,0.362 -1.5818,0.56745 -2.3956,0.61631 -0.7912,0.0358 -1.3843,-0.0277 -1.779,-0.19074 z m 14.81699,-8.55465 -1.62399,4.14012 c 1.08729,0.42475 2.35569,0.56448 3.80529,0.41915 1.4366,-0.16789 2.8172,-0.58914 4.1418,-1.26368 l -2.1484,-3.72121 c -0.7833,0.36205 -1.5819,0.5675 -2.3956,0.61631 -0.7912,0.0359 -1.3843,-0.0277 -1.7791,-0.19069 z m 31.9685,-18.45705 -1.6241,4.14017 c 1.0872,0.42475 2.3557,0.56443 3.8054,0.4191 1.4366,-0.16789 2.8171,-0.58909 4.1417,-1.26363 l -2.1484,-3.72121 c -0.7833,0.36205 -1.5818,0.56745 -2.3956,0.61631 -0.7912,0.0358 -1.3841,-0.0278 -1.779,-0.19074 z m 14.8172,-8.5547 -1.6241,4.14017 c 1.0872,0.42475 2.3556,0.56448 3.8053,0.4191 1.4367,-0.16789 2.8173,-0.58914 4.1418,-1.26363 l -2.1484,-3.72121 c -0.7833,0.362 -1.5818,0.56745 -2.3956,0.61631 -0.7912,0.0358 -1.3843,-0.0278 -1.779,-0.19074 z m 56.7161,-32.7451 -1.624,4.14012 c 1.0872,0.4248 2.3557,0.56448 3.8053,0.41915 1.4366,-0.16789 2.8172,-0.58909 4.1418,-1.26363 l -2.1485,-3.72121 c -0.7833,0.36205 -1.5818,0.56745 -2.3955,0.61631 -0.7912,0.0358 -1.3842,-0.0278 -1.7791,-0.19074 z m 14.8172,-8.5547 -1.6241,4.14017 c 1.0872,0.42475 2.3556,0.56448 3.8054,0.4191 1.4365,-0.16784 2.8172,-0.58909 4.1418,-1.26363 l -2.1485,-3.72121 c -0.7833,0.36205 -1.5819,0.5675 -2.3956,0.61631 -0.7912,0.0358 -1.3842,-0.0278 -1.779,-0.19074 z M 913.12486,470.41735 c -1.1018,0.6361 -1.9031,1.39911 -2.5564,2.22466 l 3.8406,-4e-4 z m 0.4735,-0.2734 1.4424,2.49827 4.8198,3.1e-4 1.1919,-3.10355 c -2.3428,-0.9327 -4.8275,-0.73107 -7.4541,0.60497 z m 31.4949,-18.1836 c -1.8267,1.0547 -3.037,2.36988 -3.6308,3.94559 -0.5842,1.54011 -0.4531,3.04313 0.3932,4.50906 0.8333,1.44337 1.8886,2.30756 3.1657,2.5926 1.2998,0.27199 2.7902,0.22337 4.4715,-0.14588 0.3808,-0.0695 0.91,-0.19461 1.5875,-0.37531 0.6775,-0.18066 1.1954,-0.29926 1.5537,-0.35574 0.3678,-0.0921 0.7665,-0.1569 1.1959,-0.19429 0.452,-0.0505 0.8155,-0.0198 1.0906,0.092 0.262,0.0893 0.4711,0.26926 0.6274,0.53989 0.3125,0.54127 0.262,1.15679 -0.1517,1.84668 -0.404,0.65423 -1.091,1.26135 -2.0608,1.82125 l 2.1289,3.68738 c 2.2102,-1.27605 3.6877,-2.80564 4.4323,-4.58872 0.7542,-1.81867 0.6496,-3.56248 -0.314,-5.23139 -0.8073,-1.39827 -1.8739,-2.2559 -3.1996,-2.57305 -1.3257,-0.3171 -2.8374,-0.3314 -4.5352,-0.0428 -0.439,0.073 -0.9746,0.18684 -1.607,0.34148 -0.6455,0.13207 -1.17,0.23943 -1.5733,0.32197 -0.4034,0.0825 -0.8134,0.15383 -1.2298,0.21383 -0.4163,0.0599 -0.749,0.0566 -0.9981,-0.0101 -0.262,-0.0893 -0.4517,-0.23537 -0.5688,-0.43835 -0.1693,-0.29319 -0.1208,-0.65197 0.1454,-1.07629 0.2532,-0.44687 0.6617,-0.83308 1.2255,-1.15859 z m 0.4737,-0.27345 2.1484,3.7212 c 1.296,-0.56783 2.5297,-0.61852 3.701,-0.15212 l 1.6046,-4.174 c -2.3428,-0.93275 -4.8275,-0.73112 -7.454,0.60492 z m 14.3435,-8.28125 c -1.8267,1.05465 -3.037,2.36988 -3.6308,3.94559 -0.5843,1.54016 -0.4533,3.04318 0.3931,4.50911 0.8333,1.44337 1.8886,2.30756 3.1658,2.59255 1.2997,0.27198 2.7902,0.22337 4.4714,-0.14589 0.3809,-0.0695 0.91,-0.19461 1.5876,-0.3753 0.6774,-0.18062 1.1953,-0.29921 1.5536,-0.35574 0.3678,-0.092 0.7665,-0.15685 1.1959,-0.19429 0.452,-0.0505 0.8156,-0.0198 1.0907,0.092 0.2619,0.0893 0.4711,0.26926 0.6273,0.53988 0.3125,0.54128 0.262,1.15684 -0.1516,1.84669 -0.4041,0.65428 -1.091,1.26135 -2.0608,1.82125 l 2.1289,3.68738 c 2.2102,-1.27605 3.6876,-2.80559 4.4323,-4.58872 0.7542,-1.81867 0.6496,-3.56248 -0.314,-5.23139 -0.8073,-1.39827 -1.8738,-2.25595 -3.1996,-2.57305 -1.3257,-0.31715 -2.8375,-0.33135 -4.5353,-0.0428 -0.4389,0.073 -0.9746,0.18684 -1.607,0.34148 -0.6455,0.13207 -1.1698,0.23933 -1.5733,0.32192 -0.4033,0.0825 -0.8133,0.15383 -1.2297,0.21383 -0.4164,0.06 -0.7491,0.0566 -0.9982,-0.0101 -0.2619,-0.0893 -0.4516,-0.23542 -0.5688,-0.4384 -0.1692,-0.29319 -0.1207,-0.65197 0.1455,-1.07629 0.2532,-0.44687 0.6617,-0.83308 1.2255,-1.15859 z m 0.4737,-0.27345 2.1484,3.72119 c 1.2959,-0.56777 2.5296,-0.61851 3.701,-0.15211 l 1.6045,-4.174 c -2.3427,-0.93276 -4.8274,-0.73112 -7.4539,0.60492 z m 56.24244,-32.47165 c -1.8267,1.05465 -3.037,2.36988 -3.6308,3.94559 -0.5843,1.54011 -0.4532,3.04313 0.3932,4.50906 0.8333,1.44337 1.8886,2.30756 3.1657,2.5926 1.2997,0.27199 2.7902,0.22337 4.4714,-0.14588 0.3809,-0.0695 0.91,-0.19461 1.5875,-0.37531 0.6776,-0.18066 1.1955,-0.29926 1.5537,-0.35574 0.3679,-0.0921 0.7665,-0.15685 1.196,-0.19433 0.4519,-0.0504 0.8155,-0.0198 1.0905,0.0921 0.2621,0.0893 0.4712,0.26926 0.6274,0.53988 0.3125,0.54128 0.262,1.15679 -0.1517,1.84669 -0.404,0.65423 -1.0909,1.26135 -2.0607,1.82125 l 2.1289,3.68738 c 2.2103,-1.2761 3.6876,-2.80564 4.4322,-4.58872 0.7543,-1.81872 0.6496,-3.56248 -0.3139,-5.23139 -0.8073,-1.39827 -1.8738,-2.25595 -3.1996,-2.57305 -1.3258,-0.3171 -2.8375,-0.33135 -4.5352,-0.0428 -0.439,0.073 -0.9747,0.18684 -1.6071,0.34148 -0.6454,0.13207 -1.1698,0.23938 -1.5733,0.32197 -0.4034,0.0825 -0.8132,0.15378 -1.2296,0.21378 -0.4164,0.06 -0.7492,0.0566 -0.9982,-0.0101 -0.262,-0.0893 -0.4517,-0.23537 -0.5689,-0.43835 -0.1693,-0.29319 -0.1208,-0.65197 0.1454,-1.07629 0.2532,-0.44687 0.6618,-0.83308 1.2255,-1.15859 z m 0.4736,-0.27345 2.1485,3.7212 c 1.296,-0.56783 2.5296,-0.61852 3.701,-0.15217 l 1.6045,-4.17395 c -2.3426,-0.9328 -4.8274,-0.73112 -7.454,0.60492 z m 14.3436,-8.28125 c -1.8268,1.0547 -3.0371,2.36988 -3.6309,3.94559 -0.5842,1.54011 -0.4531,3.04313 0.3932,4.50906 0.8334,1.44337 1.8886,2.30761 3.1658,2.5926 1.2996,0.27203 2.7901,0.22342 4.4714,-0.14589 0.3808,-0.0695 0.91,-0.19461 1.5875,-0.3753 0.6776,-0.18067 1.1955,-0.29926 1.5537,-0.35574 0.3678,-0.0921 0.7665,-0.15685 1.1959,-0.19429 0.452,-0.0505 0.8155,-0.0197 1.0906,0.092 0.262,0.0893 0.4711,0.26926 0.6274,0.53988 0.3125,0.54128 0.262,1.15679 -0.1517,1.84669 -0.404,0.65423 -1.091,1.26135 -2.0607,1.82125 l 2.1289,3.68738 c 2.2102,-1.27605 3.6876,-2.80564 4.4322,-4.58872 0.7543,-1.81872 0.6496,-3.56248 -0.3139,-5.23139 -0.8073,-1.39827 -1.8739,-2.25595 -3.1996,-2.57305 -1.3258,-0.3171 -2.8376,-0.33135 -4.5353,-0.0428 -0.4389,0.073 -0.9747,0.18684 -1.6071,0.34148 -0.6454,0.13207 -1.1698,0.23938 -1.5732,0.32192 -0.4034,0.0825 -0.8133,0.15378 -1.2297,0.21383 -0.4164,0.06 -0.7492,0.0566 -0.9981,-0.0101 -0.2622,-0.0892 -0.4517,-0.23537 -0.5689,-0.43835 -0.1693,-0.29319 -0.1208,-0.65197 0.1454,-1.07629 0.2532,-0.44688 0.6616,-0.83304 1.2255,-1.15859 z m 0.4736,-0.27345 2.1484,3.7212 c 1.296,-0.56778 2.5297,-0.61852 3.701,-0.15212 l 1.6046,-4.174 c -2.3428,-0.93275 -4.8275,-0.73107 -7.454,0.60492 z m 31.4949,-18.1836 c -1.8268,1.0547 -3.0371,2.36993 -3.6308,3.94559 -0.5843,1.54016 -0.4533,3.04318 0.3931,4.50911 0.8333,1.44337 1.8886,2.30756 3.1657,2.5926 1.2998,0.27199 2.7902,0.22337 4.4714,-0.14588 0.3809,-0.0695 0.9101,-0.19466 1.5876,-0.3753 0.6776,-0.18072 1.1955,-0.29931 1.5537,-0.3558 0.3679,-0.0921 0.7665,-0.15685 1.1959,-0.19428 0.452,-0.0505 0.8156,-0.0198 1.0906,0.0921 0.2621,0.0892 0.4712,0.2692 0.6274,0.53983 0.3125,0.54127 0.262,1.15684 -0.1516,1.84669 -0.4041,0.65428 -1.091,1.26135 -2.0608,1.82125 l 2.1289,3.68738 c 2.2101,-1.276 3.6876,-2.80559 4.4323,-4.58872 0.7541,-1.81862 0.6495,-3.56243 -0.3141,-5.23134 -0.8073,-1.39827 -1.8738,-2.25595 -3.1995,-2.5731 -1.3257,-0.3171 -2.8375,-0.33135 -4.5353,-0.0428 -0.439,0.073 -0.9746,0.18684 -1.607,0.34148 -0.6455,0.13207 -1.1699,0.23938 -1.5733,0.32192 -0.4034,0.0826 -0.8133,0.15383 -1.2297,0.21383 -0.4164,0.06 -0.7491,0.0566 -0.9982,-0.0101 -0.2619,-0.0893 -0.4516,-0.23542 -0.5688,-0.4384 -0.1692,-0.29319 -0.1207,-0.65197 0.1454,-1.07624 0.2533,-0.44693 0.6617,-0.83309 1.2256,-1.15864 z m 0.4736,-0.2734 2.1484,3.7212 c 1.296,-0.56783 2.5296,-0.61852 3.7011,-0.15217 l 1.6045,-4.174 c -2.3428,-0.9327 -4.8274,-0.73112 -7.454,0.60497 z m 14.3435,-8.28125 c -1.8267,1.05465 -3.037,2.36988 -3.6307,3.94554 -0.5843,1.54016 -0.4533,3.04318 0.3931,4.50911 0.8333,1.44337 1.8886,2.30756 3.1657,2.5926 1.2997,0.27199 2.7902,0.22337 4.4714,-0.14588 0.3809,-0.0695 0.9101,-0.19466 1.5876,-0.3753 0.6775,-0.18067 1.1954,-0.29926 1.5537,-0.3558 0.3678,-0.092 0.7664,-0.1568 1.1959,-0.19428 0.4519,-0.0504 0.8155,-0.0197 1.0905,0.0921 0.2621,0.0893 0.4712,0.26925 0.6274,0.53988 0.3125,0.54127 0.2619,1.15684 -0.1516,1.84664 -0.4041,0.65433 -1.091,1.2614 -2.0608,1.8213 l 2.1289,3.68738 c 2.2103,-1.2761 3.6876,-2.80564 4.4323,-4.58877 0.7542,-1.81862 0.6495,-3.56243 -0.314,-5.23134 -0.8073,-1.39827 -1.8738,-2.25595 -3.1996,-2.57305 -1.3257,-0.31715 -2.8374,-0.3314 -4.5352,-0.0428 -0.439,0.073 -0.9747,0.18684 -1.6071,0.34148 -0.6454,0.13207 -1.1698,0.23938 -1.5733,0.32197 -0.4033,0.0825 -0.8132,0.15378 -1.2296,0.21378 -0.4165,0.06 -0.7492,0.0566 -0.9982,-0.0101 -0.262,-0.0893 -0.4516,-0.23542 -0.5688,-0.4384 -0.1693,-0.29319 -0.1208,-0.65197 0.1454,-1.07624 0.2532,-0.44693 0.6617,-0.83309 1.2254,-1.15859 z m 0.4736,-0.27345 2.1485,3.7212 c 1.296,-0.56783 2.5296,-0.61852 3.701,-0.15217 l 1.6045,-4.17395 c -2.3426,-0.9328 -4.8273,-0.73117 -7.454,0.60492 z m 56.2427,-32.4717 c -1.8268,1.0547 -3.0371,2.36988 -3.6309,3.94559 -0.5842,1.54011 -0.4532,3.04318 0.3932,4.50911 0.8333,1.44337 1.8886,2.30756 3.1657,2.5926 1.0624,0.22231 2.3376,0.0873 3.655,-0.11879 v -4.73925 c 0,5.1e-4 -0.01,9.5e-4 -0.01,9.9e-4 -0.4034,0.0825 -0.8133,0.15378 -1.2297,0.21383 -0.4164,0.06 -0.7492,0.0566 -0.9982,-0.0101 -0.2621,-0.0893 -0.4516,-0.23542 -0.5688,-0.4384 -0.1693,-0.29319 -0.1209,-0.65192 0.1454,-1.07629 0.2531,-0.44683 0.6616,-0.83304 1.2255,-1.15859 z m 0.4736,-0.27346 2.1484,3.72121 c 0.3281,-0.14374 0.6406,-0.15693 0.9607,-0.23442 l -3e-4,-4.4224 c -1.0184,0.1687 -2.0438,0.39389 -3.1088,0.93561 z m -208.43354,120.47454 1.9752,10.09313 4.7802,-0.002 -2.4592,-12.57193 z m 4.8375,-2.79295 1.4677,7.54221 6.1546,5.34369 7.2164,-8.8e-4 -14.8048,-12.90457 z m 36.5016,-21.0742 10.25395,17.76028 4.0595,-2.34375 -10.25395,-17.76028 z m 5.4804,-3.1641 10.25395,17.76028 3.8565,-2.22655 -10.25395,-17.76027 z m 4.36395,-2.5195 4.9218,8.52495 9.3239,6.93064 4.0595,-2.34375 -18.0346,-13.26809 z m 4.7699,-2.7539 5.1757,8.96471 8.9347,6.56897 -10.2539,-17.76028 z m 15.58,-8.99515 4.16459,21.27593 4.2963,-2.4805 -0.8577,-4.37618 5.3788,-3.10545 -3.3025,-2.82942 -2.9092,1.6797 -2.474,-12.64453 z m 4.83749,-2.79295 1.4678,7.54221 10.579,9.18292 4.3301,-2.5 -16.343,-14.24468 z m 41.948,-24.21875 4.1648,21.27588 4.2962,-2.48045 -0.8577,-4.37619 5.3788,-3.10545 -3.3024,-2.82941 -2.9093,1.67965 -2.4741,-12.64448 z m 4.8376,-2.79295 1.4677,7.54221 10.5792,9.18287 4.3301,-2.5 -16.3432,-14.24463 z m 36.5017,-21.07425 10.2539,17.76028 4.0595,-2.34375 -10.254,-17.76028 z m 5.4802,-3.16405 10.254,17.76028 3.8565,-2.22654 -10.254,-17.76029 z m 4.364,-2.51955 4.9219,8.52494 9.3238,6.9307 4.0595,-2.34375 -18.0345,-13.26813 z m 4.7699,-2.7539 5.1758,8.96472 8.9346,6.56902 -10.2539,-17.76028 z m 15.58,-8.99509 4.1647,21.27587 4.2963,-2.48045 -0.8577,-4.37619 5.3788,-3.1055 -3.3025,-2.82936 -2.9092,1.67965 -2.474,-12.64453 z m 4.8376,-2.793 1.4678,7.54221 10.5791,9.18292 4.3301,-2.5 -16.3432,-14.24463 z m -187.79444,122.49613 4.6596,3e-4 -1.8754,-1.60775 z m 14.7189,-5.70145 -1.6241,4.14017 c 1.0873,0.42475 2.3557,0.56448 3.8054,0.41909 1.4366,-0.1679 2.8172,-0.58908 4.1418,-1.26362 l -2.1485,-3.72121 c -0.7833,0.36204 -1.5818,0.5675 -2.3956,0.61631 -0.7912,0.0358 -1.3841,-0.0278 -1.779,-0.19074 z m 14.8172,-8.5547 -1.6241,4.14017 c 1.0872,0.4248 2.3556,0.56448 3.8054,0.41909 1.4366,-0.1679 2.8172,-0.58913 4.1418,-1.26362 l -2.1485,-3.72121 c -0.7832,0.36199 -1.5818,0.56745 -2.3956,0.61631 -0.7912,0.0358 -1.3842,-0.0278 -1.779,-0.19074 z m 56.71614,-32.7451 -1.6241,4.14017 c 1.0872,0.42475 2.3557,0.56443 3.8053,0.41909 1.4367,-0.1679 2.8172,-0.58908 4.1418,-1.26362 l -2.1484,-3.72121 c -0.7833,0.36204 -1.5818,0.56745 -2.3956,0.61631 -0.7911,0.0358 -1.3841,-0.0278 -1.779,-0.19074 z m 14.8172,-8.5547 -1.6241,4.14017 c 1.0872,0.42475 2.3556,0.56448 3.8053,0.41909 1.4366,-0.16784 2.8172,-0.58908 4.1418,-1.26362 l -2.1484,-3.72121 c -0.7834,0.36203 -1.5819,0.5675 -2.3956,0.61631 -0.7912,0.0358 -1.3843,-0.0278 -1.779,-0.19074 z m 31.9684,-18.457 -1.624,4.14012 c 1.0872,0.4248 2.3556,0.56448 3.8053,0.41914 1.4367,-0.16794 2.8173,-0.58913 4.1419,-1.26367 l -2.1485,-3.72121 c -0.7833,0.36204 -1.5819,0.5675 -2.3956,0.61631 -0.7913,0.0359 -1.3842,-0.0278 -1.7791,-0.19069 z m 14.8172,-8.55471 -1.624,4.14013 c 1.0871,0.4248 2.3556,0.56448 3.8053,0.41914 1.4366,-0.16789 2.8172,-0.58913 4.1417,-1.26362 l -2.1484,-3.72121 c -0.7832,0.36199 -1.5818,0.56745 -2.3956,0.61631 -0.7912,0.0358 -1.3842,-0.0277 -1.779,-0.19075 z m 56.7163,-32.74515 -1.6241,4.14017 c 0.4857,0.18973 1.1419,0.11077 1.7,0.18673 l 6e-4,-4.31923 c -0.018,-0.007 -0.06,-6.5e-4 -0.077,-0.008 z M 979.03861,458.70818 c -1.82685,1.0547 -3.03725,2.36994 -3.63095,3.9456 -0.5843,1.54015 -0.4532,3.04318 0.3931,4.5091 0.8334,1.44337 1.8886,2.30756 3.16585,2.59259 1.2997,0.27201 2.7902,0.22338 4.4714,-0.14586 0.3808,-0.0695 0.9101,-0.19467 1.5875,-0.37531 0.6776,-0.18073 1.1955,-0.29926 1.5538,-0.3558 0.3678,-0.0921 0.7665,-0.15685 1.1959,-0.19428 0.452,-0.0505 0.8155,-0.0198 1.0905,0.0921 0.2621,0.0892 0.4712,0.2692 0.6275,0.53983 0.3125,0.54127 0.2619,1.15684 -0.1517,1.84668 -0.3282,0.53146 -0.973,1.00952 -1.6745,1.47871 l 5.799,10e-4 c 0.1025,-0.19453 0.2919,-0.35887 0.3759,-0.55984 0.7541,-1.81862 0.6495,-3.56245 -0.314,-5.23135 -0.8073,-1.39827 -1.8739,-2.25596 -3.1995,-2.57311 -1.3258,-0.31709 -2.8376,-0.33134 -4.5353,-0.0428 -0.439,0.073 -0.9747,0.18684 -1.6071,0.34147 -0.6454,0.13208 -1.1698,0.23939 -1.5732,0.32192 -0.4035,0.0826 -0.8134,0.15384 -1.2298,0.21383 -0.4164,0.06 -0.7491,0.0566 -0.9981,-0.0101 -0.2621,-0.0893 -0.4516,-0.23541 -0.5688,-0.43839 -0.1693,-0.29319 -0.1208,-0.65197 0.1453,-1.07625 0.2533,-0.44693 0.6617,-0.83308 1.2256,-1.15863 z m 0.4735,-0.27341 2.1484,3.72122 c 1.2961,-0.56785 2.5297,-0.61852 3.7011,-0.15217 l 1.6045,-4.17395 c -2.3428,-0.93276 -4.8273,-0.73117 -7.454,0.6049 z m 14.3435,-8.28125 c -1.8267,1.05466 -3.037,2.3699 -3.6307,3.94555 -0.5843,1.54016 -0.4532,3.04318 0.3931,4.50911 0.8333,1.44337 1.8886,2.30756 3.1657,2.59259 1.2998,0.272 2.7902,0.22338 4.4715,-0.14587 0.3808,-0.0695 0.91,-0.19462 1.5875,-0.3753 0.67749,-0.18068 1.19539,-0.29926 1.55369,-0.35575 0.3678,-0.0921 0.7664,-0.15684 1.1959,-0.19433 0.452,-0.0504 0.8155,-0.0198 1.0906,0.0921 0.262,0.0893 0.4711,0.26925 0.6274,0.53988 0.3125,0.54128 0.2619,1.15684 -0.1517,1.84668 -0.4041,0.65429 -1.091,1.26136 -2.0608,1.82127 l 2.1289,3.68736 c 2.2102,-1.2761 3.6876,-2.80562 4.4323,-4.58875 0.7541,-1.81862 0.6495,-3.56245 -0.3141,-5.23135 -0.8073,-1.39827 -1.8738,-2.25595 -3.1995,-2.57306 -1.3256,-0.31714 -2.8374,-0.33139 -4.5352,-0.0428 -0.439,0.073 -0.97459,0.18684 -1.60699,0.34147 -0.6455,0.13208 -1.1699,0.23939 -1.5733,0.32197 -0.4034,0.0825 -0.8133,0.15379 -1.2297,0.21378 -0.4165,0.06 -0.7491,0.0566 -0.9982,-0.0101 -0.262,-0.0893 -0.4517,-0.23536 -0.5688,-0.43834 -0.1692,-0.29324 -0.1208,-0.65197 0.1454,-1.0763 0.2532,-0.44688 0.6617,-0.83308 1.2255,-1.15858 z m 0.4737,-0.27345 2.1484,3.72121 c 1.296,-0.56784 2.5297,-0.61852 3.70109,-0.15216 l 1.6045,-4.17395 c -2.34269,-0.93281 -4.82739,-0.73112 -7.45399,0.6049 z m 56.24249,-32.4717 c -1.8268,1.0547 -3.0371,2.36994 -3.6308,3.9456 -0.5842,1.5401 -0.4533,3.04318 0.3931,4.50911 0.8333,1.44337 1.8886,2.30756 3.1657,2.59259 1.2997,0.272 2.7902,0.22338 4.4714,-0.14587 0.3809,-0.0695 0.9101,-0.19467 1.5876,-0.3753 0.6775,-0.18068 1.1955,-0.29931 1.5537,-0.3558 0.3679,-0.0921 0.7664,-0.1568 1.1959,-0.19428 0.452,-0.0505 0.8156,-0.0198 1.0906,0.0921 0.262,0.0893 0.4712,0.2692 0.6274,0.53983 0.3125,0.54127 0.262,1.15684 -0.1516,1.84668 -0.4041,0.65429 -1.091,1.26136 -2.0608,1.82126 l 2.1289,3.68737 c 2.2102,-1.27605 3.6876,-2.80563 4.4323,-4.5887 0.7542,-1.81867 0.6495,-3.56245 -0.3141,-5.23135 -0.8073,-1.39827 -1.8737,-2.25601 -3.1995,-2.57311 -1.3258,-0.31709 -2.8376,-0.33129 -4.5353,-0.0428 -0.439,0.073 -0.9746,0.18684 -1.6071,0.34147 -0.6454,0.13208 -1.1698,0.23939 -1.5732,0.32192 -0.4033,0.0825 -0.8132,0.15379 -1.2297,0.21383 -0.4164,0.06 -0.7492,0.0566 -0.9982,-0.0101 -0.262,-0.0893 -0.4516,-0.23541 -0.5688,-0.43839 -0.1692,-0.29319 -0.1208,-0.65192 0.1454,-1.07625 0.2532,-0.44688 0.6617,-0.83308 1.2256,-1.15863 z m 0.4736,-0.2734 2.1484,3.72121 c 1.296,-0.56784 2.5296,-0.61852 3.7011,-0.15217 l 1.6045,-4.174 c -2.3427,-0.93276 -4.8274,-0.73112 -7.454,0.60496 z m 14.3435,-8.28125 c -1.8268,1.0547 -3.037,2.36989 -3.6308,3.94555 -0.5842,1.5401 -0.4532,3.04318 0.3932,4.50911 0.8333,1.44337 1.8886,2.30756 3.1657,2.59259 1.2996,0.27205 2.7902,0.22338 4.4714,-0.14587 0.3809,-0.0695 0.9101,-0.19467 1.5876,-0.3753 0.6775,-0.18068 1.1954,-0.29926 1.5537,-0.3558 0.3679,-0.0921 0.7665,-0.15685 1.1959,-0.19428 0.4519,-0.0504 0.8155,-0.0198 1.0905,0.0921 0.2621,0.0893 0.4712,0.26925 0.6274,0.53988 0.3125,0.54127 0.262,1.15679 -0.1516,1.84663 -0.4041,0.65429 -1.091,1.26141 -2.0608,1.82131 l 2.1289,3.68737 c 2.2102,-1.27605 3.6876,-2.80563 4.4323,-4.58875 0.7542,-1.81867 0.6495,-3.56245 -0.314,-5.23135 -0.8073,-1.39827 -1.8738,-2.25596 -3.1996,-2.57306 -1.3258,-0.31709 -2.8374,-0.33139 -4.5352,-0.0428 -0.439,0.073 -0.9747,0.18684 -1.6071,0.34147 -0.6454,0.13208 -1.1699,0.23944 -1.5733,0.32197 -0.4034,0.0825 -0.8132,0.15379 -1.2296,0.21378 -0.4164,0.06 -0.7492,0.0566 -0.9982,-0.0101 -0.262,-0.0893 -0.4516,-0.23541 -0.5688,-0.43839 -0.1693,-0.29319 -0.1209,-0.65192 0.1453,-1.07625 0.2532,-0.44688 0.6618,-0.83308 1.2255,-1.15858 z m 0.4736,-0.27345 2.1485,3.72121 c 1.296,-0.56784 2.5297,-0.61857 3.701,-0.15217 l 1.6045,-4.17395 c -2.3427,-0.93276 -4.8274,-0.73112 -7.454,0.60491 z m 31.4949,-18.1836 c -1.8267,1.0547 -3.037,2.36989 -3.6308,3.9456 -0.5842,1.5401 -0.4531,3.04313 0.3932,4.50906 0.8333,1.44337 1.8885,2.30761 3.1657,2.59259 1.2998,0.272 2.7902,0.22338 4.4715,-0.14587 0.3808,-0.0695 0.91,-0.19462 1.5875,-0.3753 0.6775,-0.18068 1.1954,-0.29926 1.5537,-0.35575 0.3678,-0.0921 0.7664,-0.15685 1.1959,-0.19428 0.452,-0.0505 0.8155,-0.0198 1.0906,0.092 0.262,0.0893 0.4711,0.26925 0.6274,0.53988 0.3125,0.54127 0.262,1.15679 -0.1517,1.84668 -0.404,0.65424 -1.091,1.26136 -2.0608,1.82126 l 2.1289,3.68737 c 2.2102,-1.27605 3.6877,-2.80563 4.4323,-4.5887 0.7542,-1.81867 0.6496,-3.5625 -0.314,-5.2314 -0.8073,-1.39827 -1.8739,-2.25591 -3.1996,-2.57306 -1.3257,-0.31709 -2.8375,-0.33134 -4.5352,-0.0428 -0.439,0.073 -0.9747,0.18684 -1.6071,0.34147 -0.6455,0.13208 -1.1699,0.23939 -1.5732,0.32192 -0.4035,0.0826 -0.8134,0.15384 -1.2298,0.21383 -0.4164,0.06 -0.749,0.0566 -0.9981,-0.0101 -0.262,-0.0893 -0.4517,-0.23536 -0.5688,-0.43834 -0.1693,-0.29319 -0.1208,-0.65197 0.1454,-1.0763 0.2532,-0.44688 0.6616,-0.83303 1.2255,-1.15858 z m 0.4737,-0.27345 2.1484,3.72121 c 1.2959,-0.56779 2.5297,-0.61852 3.701,-0.15212 l 1.6046,-4.174 c -2.3428,-0.93276 -4.8274,-0.73112 -7.454,0.60491 z m 14.3435,-8.28125 c -1.8267,1.05465 -3.037,2.36989 -3.6308,3.9456 -0.5843,1.54015 -0.4533,3.04318 0.3931,4.50911 0.8333,1.44337 1.8886,2.30756 3.1657,2.59259 1.2998,0.272 2.7903,0.22333 4.4715,-0.14592 0.3809,-0.0695 0.91,-0.19462 1.5876,-0.3753 0.6774,-0.18063 1.1953,-0.29921 1.5537,-0.35575 0.3677,-0.092 0.7663,-0.1568 1.1958,-0.19428 0.4521,-0.0505 0.8156,-0.0198 1.0906,0.0921 0.262,0.0893 0.4712,0.2692 0.6275,0.53983 0.3125,0.54127 0.2619,1.15684 -0.1517,1.84668 -0.4041,0.65429 -1.091,1.26136 -2.0608,1.82126 l 2.1289,3.68737 c 2.2102,-1.27605 3.6876,-2.80558 4.4323,-4.5887 0.7542,-1.81867 0.6495,-3.56245 -0.3141,-5.23135 -0.8073,-1.39827 -1.8737,-2.25601 -3.1995,-2.57311 -1.3257,-0.31709 -2.8375,-0.33134 -4.5353,-0.0428 -0.4389,0.073 -0.9746,0.18684 -1.607,0.34147 -0.6455,0.13208 -1.1698,0.23934 -1.5733,0.32192 -0.4033,0.0825 -0.8133,0.15384 -1.2297,0.21383 -0.4165,0.06 -0.7491,0.0566 -0.9982,-0.0101 -0.2619,-0.0893 -0.4516,-0.23541 -0.5688,-0.43839 -0.1692,-0.29319 -0.1207,-0.65197 0.1455,-1.0763 0.2532,-0.44688 0.6617,-0.83308 1.2255,-1.15858 z m 0.4737,-0.27345 2.1484,3.72121 c 1.2959,-0.56779 2.5296,-0.61847 3.701,-0.15212 l 1.6045,-4.174 c -2.3427,-0.93276 -4.8274,-0.73112 -7.4539,0.60491 z m -151.71744,87.72944 0.6539,3.34366 4.7813,-2e-5 -1.1389,-5.82409 z m 4.8375,-2.79295 1.1936,6.13759 5.9039,-8.6e-4 -7.0636,-6.15628 z m 36.50174,-21.07425 10.2538,17.76028 4.0595,-2.34375 -10.2539,-17.76028 z m 5.4802,-3.16405 10.2539,17.76028 3.8565,-2.22655 -10.2539,-17.76028 z m 4.364,-2.51955 4.9218,8.52494 9.3238,6.93069 4.0595,-2.34375 -18.0345,-13.26813 z m 4.7699,-2.7539 5.1757,8.96471 8.9347,6.56902 -10.2539,-17.76028 z m 15.5799,-8.9951 4.1647,21.27588 4.2963,-2.48045 -0.8577,-4.37619 5.3788,-3.10545 -3.3024,-2.82941 -2.9093,1.67965 -2.4741,-12.64448 z m 4.8376,-2.79295 1.4677,7.54222 10.5792,9.18286 4.3301,-2.5 -16.3432,-14.24463 z m 41.9481,-24.21875 4.1647,21.27588 4.2962,-2.48045 -0.8577,-4.37619 5.3789,-3.1055 -3.3024,-2.82941 -2.9093,1.6797 -2.4741,-12.64453 z m 4.8376,-2.793 1.4677,7.54222 10.5791,9.18291 4.3302,-2.5 -16.3432,-14.24463 z m 36.5016,-21.0742 10.2539,17.76028 4.0595,-2.34375 -10.2539,-17.76028 z m 5.4803,-3.16405 10.2539,17.76028 2.2057,-1.27345 5e-4,-3.81171 -8.6035,-14.90172 z m 4.364,-2.51955 4.9218,8.52494 3.1737,2.36021 4e-4,-5.28433 -7.8253,-5.75707 z m 4.7699,-2.7539 3.3261,5.7611 -7e-4,-7.68105 z m -137.84079,96.45189 -1.6241,4.14016 c 1.0873,0.42475 2.3558,0.56444 3.8054,0.4191 1.43659,-0.16789 2.81729,-0.58913 4.14179,-1.26363 l -2.1485,-3.72119 c -0.7832,0.36198 -1.58179,0.56743 -2.39559,0.61629 -0.7912,0.0358 -1.3842,-0.0277 -1.779,-0.19073 z m 56.71609,-32.7451 -1.624,4.14011 c 1.0872,0.42475 2.3556,0.56449 3.8053,0.41915 1.4366,-0.16789 2.8173,-0.58913 4.1418,-1.26368 l -2.1484,-3.72119 c -0.7833,0.36203 -1.5819,0.56748 -2.3956,0.61629 -0.7913,0.0359 -1.3843,-0.0277 -1.7791,-0.19068 z m 14.8172,-8.5547 -1.624,4.14011 c 1.0872,0.42475 2.3556,0.56449 3.8052,0.41915 1.4367,-0.16789 2.8172,-0.58908 4.1418,-1.26363 l -2.1484,-3.72119 c -0.7833,0.36203 -1.5818,0.56743 -2.3956,0.61629 -0.7912,0.0358 -1.3842,-0.0277 -1.779,-0.19073 z m 31.9685,-18.45705 -1.6241,4.14016 c 1.0873,0.42475 2.3557,0.56449 3.8054,0.4191 1.4366,-0.16789 2.8172,-0.58908 4.1418,-1.26363 l -2.1485,-3.72119 c -0.7833,0.36203 -1.5818,0.56748 -2.3956,0.61629 -0.7912,0.0358 -1.3841,-0.0278 -1.779,-0.19073 z m 14.8172,-8.5547 -1.6241,4.14016 c 1.0872,0.4248 2.3556,0.56449 3.8053,0.41915 1.4367,-0.16794 2.8174,-0.58918 4.1419,-1.26368 l -2.1485,-3.72119 c -0.7832,0.36198 -1.5818,0.56743 -2.3956,0.61629 -0.7913,0.0359 -1.3842,-0.0277 -1.779,-0.19073 z m -102.6978,68.63396 c -1.8268,1.0547 -3.0371,2.36989 -3.6309,3.94559 -0.4178,1.10161 -0.3373,2.17711 -0.023,3.24078 l 17.3493,-9.5e-4 c -0.6841,-0.78348 -1.4546,-1.38786 -2.4053,-1.61532 -1.3258,-0.31709 -2.8375,-0.33135 -4.5353,-0.0428 -0.4389,0.073 -0.9747,0.18685 -1.6071,0.34148 -0.6454,0.13208 -1.1698,0.23938 -1.5732,0.32192 -0.4035,0.0826 -0.8133,0.15385 -1.2297,0.21383 -0.4164,0.06 -0.7491,0.0566 -0.9981,-0.0101 -0.2621,-0.0893 -0.4517,-0.23536 -0.5689,-0.43834 -0.1693,-0.29318 -0.1208,-0.65197 0.1454,-1.0763 0.2532,-0.44688 0.6617,-0.83303 1.2255,-1.15858 z m 0.4736,-0.27345 2.1485,3.72121 c 1.2959,-0.56779 2.5296,-0.61852 3.7009,-0.15212 l 1.6046,-4.174 c -2.3427,-0.93276 -4.8274,-0.73112 -7.454,0.60491 z m 14.3436,-8.28125 c -1.8268,1.0547 -3.0371,2.36989 -3.6309,3.94559 -0.5843,1.54017 -0.4532,3.04319 0.3931,4.50912 0.8334,1.44337 1.8886,2.30755 3.1658,2.5926 1.2997,0.27198 2.7903,0.22331 4.4715,-0.14593 0.3808,-0.0695 0.91,-0.19462 1.5874,-0.37525 0.6776,-0.18068 1.1955,-0.29926 1.5538,-0.3558 0.3677,-0.092 0.7664,-0.1568 1.1959,-0.19429 0.452,-0.0505 0.8155,-0.0198 1.0905,0.0921 0.2621,0.0893 0.4712,0.2692 0.6275,0.53983 0.3125,0.54127 0.2619,1.15685 -0.1517,1.84669 -0.4041,0.65429 -1.091,1.26136 -2.0607,1.82126 l 0.8457,1.4648 4.1275,7.6e-4 c 0.6873,-0.73434 1.2332,-1.51751 1.5879,-2.36689 0.7542,-1.81868 0.6495,-3.56245 -0.314,-5.23135 -0.8073,-1.39827 -1.8738,-2.25601 -3.1995,-2.57311 -1.3258,-0.31709 -2.8376,-0.33135 -4.5353,-0.0428 -0.439,0.073 -0.9747,0.18685 -1.6071,0.34148 -0.6454,0.13208 -1.1698,0.23938 -1.5732,0.32192 -0.4034,0.0825 -0.8134,0.15385 -1.2298,0.21383 -0.4164,0.06 -0.7491,0.0566 -0.9981,-0.0101 -0.262,-0.0893 -0.4516,-0.23541 -0.5688,-0.43839 -0.1693,-0.29318 -0.1208,-0.65197 0.1454,-1.0763 0.2532,-0.44688 0.6617,-0.83308 1.2255,-1.15858 z m 0.4735,-0.2734 2.1484,3.72121 c 1.2961,-0.56784 2.5297,-0.61852 3.7011,-0.15217 l 1.6046,-4.174 c -2.3428,-0.93276 -4.8274,-0.73112 -7.4541,0.60496 z m 56.2426,-32.4717 c -1.8267,1.05465 -3.037,2.36989 -3.6308,3.94559 -0.5842,1.54012 -0.4531,3.04314 0.3932,4.50907 0.8333,1.44337 1.8885,2.3076 3.1657,2.5926 1.2998,0.27198 2.7902,0.22336 4.4715,-0.14588 0.3808,-0.0695 0.91,-0.19462 1.5875,-0.3753 0.6775,-0.18068 1.1954,-0.29926 1.5537,-0.35575 0.3678,-0.0921 0.7664,-0.15685 1.1958,-0.19429 0.4521,-0.0505 0.8156,-0.0198 1.0907,0.092 0.2619,0.0893 0.4711,0.26925 0.6274,0.53988 0.3125,0.54127 0.262,1.1568 -0.1517,1.84669 -0.404,0.65424 -1.091,1.26136 -2.0608,1.82126 l 2.1289,3.68737 c 2.2102,-1.27605 3.6877,-2.80563 4.4323,-4.5887 0.7543,-1.81873 0.6496,-3.5625 -0.314,-5.2314 -0.8073,-1.39827 -1.8738,-2.25596 -3.1996,-2.57306 -1.3257,-0.31709 -2.8375,-0.33135 -4.5353,-0.0428 -0.4389,0.073 -0.9746,0.18685 -1.607,0.34148 -0.6455,0.13208 -1.1698,0.23933 -1.5732,0.32192 -0.4034,0.0825 -0.8134,0.15385 -1.2298,0.21383 -0.4164,0.06 -0.7491,0.0566 -0.9981,-0.0101 -0.262,-0.0893 -0.4517,-0.23536 -0.5688,-0.43834 -0.1693,-0.29318 -0.1208,-0.65197 0.1454,-1.0763 0.2532,-0.44688 0.6617,-0.83308 1.2255,-1.15858 z m 0.4737,-0.27345 2.1484,3.72121 c 1.2959,-0.56779 2.5297,-0.61852 3.701,-0.15212 l 1.6046,-4.174 c -2.3428,-0.93276 -4.8275,-0.73112 -7.454,0.60491 z m 14.3435,-8.28125 c -1.8268,1.0547 -3.037,2.36989 -3.6308,3.94559 -0.5842,1.54012 -0.4533,3.04319 0.3931,4.50912 0.8333,1.44337 1.8886,2.30755 3.1657,2.5926 1.2997,0.27198 2.7902,0.22336 4.4715,-0.14593 0.3809,-0.0695 0.91,-0.19462 1.5876,-0.3753 0.6774,-0.18063 1.1954,-0.29926 1.5536,-0.35575 0.3679,-0.0921 0.7665,-0.15685 1.1959,-0.19429 0.452,-0.0505 0.8155,-0.0198 1.0906,0.0921 0.262,0.0893 0.4712,0.2692 0.6274,0.53983 0.3125,0.54127 0.262,1.15685 -0.1516,1.84669 -0.4041,0.65429 -1.091,1.26136 -2.0608,1.82126 l 2.1289,3.68737 c 2.2101,-1.276 3.6876,-2.80558 4.4323,-4.5887 0.7542,-1.81868 0.6495,-3.56245 -0.3141,-5.23135 -0.8073,-1.39827 -1.8737,-2.25601 -3.1995,-2.57311 -1.3258,-0.31709 -2.8375,-0.33135 -4.5353,-0.0428 -0.4389,0.073 -0.9746,0.18685 -1.6071,0.34148 -0.6454,0.13208 -1.1698,0.23938 -1.5732,0.32192 -0.4033,0.0825 -0.8132,0.1538 -1.2297,0.21383 -0.4164,0.06 -0.7492,0.0566 -0.9982,-0.0101 -0.262,-0.0893 -0.4516,-0.23541 -0.5688,-0.43839 -0.1692,-0.29318 -0.1208,-0.65192 0.1455,-1.0763 0.2531,-0.44683 0.6616,-0.83303 1.2255,-1.15858 z m 0.4736,-0.27345 2.1485,3.72121 c 1.2959,-0.56779 2.5296,-0.61852 3.701,-0.15212 l 1.6045,-4.174 c -2.3428,-0.93271 -4.8275,-0.73107 -7.454,0.60491 z m 31.4949,-18.18355 c -1.8268,1.0547 -3.0371,2.36989 -3.6308,3.94554 -0.5843,1.54017 -0.4532,3.04319 0.3931,4.50912 0.8334,1.44337 1.8886,2.30755 3.1658,2.5926 1.2997,0.27198 2.7902,0.22336 4.4714,-0.14588 0.3809,-0.0695 0.9101,-0.19467 1.5875,-0.3753 0.5403,-0.14408 0.9014,-0.21923 1.2387,-0.28439 l 8e-4,-4.70945 c -0.1726,0.0234 -0.2953,-0.035 -0.4719,-0.005 -0.439,0.073 -0.9747,0.18685 -1.6071,0.34148 -0.6454,0.13208 -1.1699,0.23943 -1.5733,0.32197 -0.4034,0.0825 -0.8133,0.1538 -1.2297,0.21378 -0.4163,0.06 -0.7491,0.0566 -0.9981,-0.0101 -0.2621,-0.0893 -0.4516,-0.23541 -0.5688,-0.43839 -0.1693,-0.29318 -0.1208,-0.65197 0.1453,-1.07625 0.2533,-0.44693 0.6617,-0.83308 1.2255,-1.15858 z m 0.4736,-0.27345 2.1484,3.72121 c 1.2961,-0.56784 2.5297,-0.61852 3.7011,-0.15217 l 0.9028,-2.35028 -4e-4,-1.93028 c -2.1404,-0.64369 -4.38,-0.49498 -6.7519,0.71152 z m -95.5611,55.30754 10.2539,17.76028 4.0595,-2.34375 -10.2539,-17.76028 z m 5.4803,-3.16405 10.2539,17.76028 3.8566,-2.2266 -10.2539,-17.76028 z m 4.364,-2.51955 4.9219,8.52494 9.3239,6.93064 4.0595,-2.34375 -18.0347,-13.26808 z m 4.7699,-2.7539 5.1758,8.96471 8.9346,6.56902 -10.2539,-17.76028 z m 15.58,-8.9951 4.1647,21.27588 4.2962,-2.48045 -0.8577,-4.37619 5.3789,-3.1055 -3.3024,-2.8294 -2.9094,1.6797 -2.474,-12.64454 z m 4.8376,-2.793 1.4677,7.54221 10.5791,9.18292 4.3302,-2.5 -16.3432,-14.24463 z m 41.9481,-24.21875 4.1646,21.27593 4.2964,-2.4805 -0.8577,-4.37619 5.3788,-3.10545 -3.3025,-2.8294 -2.9093,1.6797 -2.474,-12.64454 z m 4.8375,-2.79295 1.4678,7.54221 10.5791,9.18292 4.3301,-2.5 -16.3431,-14.24468 z m -86.725,66.94019 -0.2982,0.76077 5.1574,-6.8e-4 -0.6845,-1.18571 c -0.7834,0.36204 -1.5818,0.56744 -2.3956,0.6163 -0.7913,0.0359 -1.3844,-0.0277 -1.7791,-0.19068 z m 56.7162,-32.74515 -1.6241,4.14017 c 1.0873,0.42474 2.3557,0.56447 3.8054,0.41909 1.4366,-0.16789 2.8173,-0.58914 4.1418,-1.26363 l -2.1485,-3.7212 c -0.7832,0.36199 -1.5818,0.56744 -2.3956,0.6163 -0.7912,0.0358 -1.3842,-0.0277 -1.779,-0.19073 z m 14.8172,-8.5547 -1.6241,4.14017 c 1.0872,0.42474 2.3556,0.56447 3.8053,0.41914 1.4366,-0.16789 2.8173,-0.58914 4.1418,-1.26368 l -2.1484,-3.7212 c -0.7833,0.36204 -1.5819,0.56749 -2.3956,0.6163 -0.7913,0.0359 -1.3842,-0.0278 -1.779,-0.19073 z m 31.9685,-18.457 -1.6241,4.14012 c 1.0872,0.42479 2.3557,0.56447 3.8053,0.41914 0.5335,-0.0624 1.0202,-0.3364 1.5382,-0.46859 l -7e-4,-4.39963 c -0.639,0.24489 -1.2807,0.46011 -1.9397,0.49969 -0.7912,0.0358 -1.3842,-0.0278 -1.779,-0.19073 z m -87.8807,60.07926 c -0.2251,0.12995 -0.3544,0.30092 -0.5607,0.43877 l 0.8137,-6.8e-4 z m 0.4736,-0.27345 0.4112,0.7121 6.5373,-0.001 0.5055,-1.31578 c -2.3427,-0.93275 -4.8274,-0.73112 -7.454,0.60492 z m 14.3436,-8.28125 c -1.8267,1.05465 -3.0371,2.36988 -3.6308,3.94559 -0.5843,1.54011 -0.4532,3.04314 0.3932,4.50906 0.1294,0.22422 0.3006,0.3408 0.4408,0.5371 l 17.5516,0.002 c -0.1126,-0.2813 -0.1054,-0.57318 -0.2654,-0.85035 -0.8073,-1.39826 -1.8738,-2.25595 -3.1996,-2.57304 -1.3257,-0.31715 -2.8375,-0.33136 -4.5352,-0.0428 -0.439,0.073 -0.9748,0.1869 -1.6072,0.34153 -0.6453,0.13202 -1.1697,0.23933 -1.5732,0.32191 -0.4034,0.0825 -0.8133,0.15385 -1.2297,0.21384 -0.4164,0.06 -0.7492,0.0566 -0.9981,-0.0101 -0.2621,-0.0893 -0.4517,-0.23536 -0.5689,-0.43834 -0.1693,-0.29318 -0.1208,-0.65196 0.1454,-1.07628 0.2532,-0.44688 0.6617,-0.8331 1.2255,-1.1586 z m 0.4736,-0.27345 2.1485,3.7212 c 1.296,-0.56782 2.5296,-0.61852 3.7009,-0.15212 l 1.6046,-4.174 c -2.3427,-0.93275 -4.8274,-0.73112 -7.454,0.60492 z m 56.2426,-32.47165 c -1.8267,1.05465 -3.0371,2.36988 -3.6308,3.94554 -0.5843,1.54017 -0.4532,3.04319 0.3931,4.50911 0.8334,1.44338 1.8886,2.30756 3.1658,2.59261 1.2997,0.27198 2.7902,0.22336 4.4714,-0.14589 0.3808,-0.0695 0.91,-0.19461 1.5875,-0.3753 0.6775,-0.18062 1.1954,-0.29925 1.5538,-0.3558 0.3678,-0.0921 0.7664,-0.15679 1.1959,-0.19427 0.4519,-0.0504 0.8154,-0.0198 1.0905,0.0921 0.262,0.0893 0.4711,0.26925 0.6274,0.53988 0.3125,0.54127 0.262,1.1568 -0.1516,1.84664 -0.4041,0.65429 -1.0911,1.2614 -2.0608,1.8213 l 2.1289,3.68738 c 2.2102,-1.2761 3.6877,-2.80568 4.4323,-4.58876 0.7542,-1.81867 0.6495,-3.56244 -0.314,-5.23135 -0.8073,-1.39826 -1.8739,-2.25595 -3.1996,-2.57304 -1.3258,-0.3171 -2.8376,-0.33136 -4.5352,-0.0428 -0.439,0.073 -0.9747,0.18685 -1.6071,0.34148 -0.6454,0.13207 -1.1699,0.23938 -1.5733,0.32196 -0.4034,0.0825 -0.8133,0.1538 -1.2297,0.21379 -0.4164,0.06 -0.7491,0.0566 -0.9981,-0.0101 -0.2621,-0.0893 -0.4516,-0.23541 -0.5688,-0.43839 -0.1693,-0.29318 -0.1209,-0.65191 0.1453,-1.07623 0.2532,-0.44688 0.6617,-0.8331 1.2255,-1.1586 z m 0.4736,-0.27345 2.1484,3.7212 c 1.2961,-0.56782 2.5297,-0.61852 3.7011,-0.15217 l 1.6045,-4.17395 c -2.3427,-0.9328 -4.8273,-0.73117 -7.454,0.60492 z m 14.3435,-8.28125 c -1.8267,1.0547 -3.037,2.36988 -3.6308,3.94559 -0.5842,1.54012 -0.4531,3.04314 0.3932,4.50906 0.8333,1.44338 1.8886,2.30756 3.1657,2.59261 1.2997,0.27203 2.7902,0.22341 4.4715,-0.14589 0.2043,-0.0373 0.5619,-0.13146 0.8516,-0.20074 l -8e-4,-4.85292 c -0.04,0.01 -0.062,0.0112 -0.1028,0.0211 -0.6455,0.13207 -1.17,0.23943 -1.5733,0.32196 -0.4034,0.0825 -0.8133,0.1538 -1.2298,0.21384 -0.4164,0.06 -0.7491,0.0566 -0.9981,-0.0101 -0.2621,-0.0892 -0.4517,-0.23536 -0.5688,-0.43834 -0.1693,-0.29318 -0.1208,-0.65196 0.1454,-1.07628 0.2532,-0.44688 0.6617,-0.8331 1.2255,-1.1586 z m 0.4737,-0.27345 2.1484,3.7212 c 0.9106,-0.39896 1.7794,-0.44967 2.6284,-0.33801 l 6e-4,-4.39361 c -1.5429,-0.0593 -3.1218,0.16827 -4.7774,1.01042 z m -63.5927,36.85053 7.919,13.71603 5.4121,-10e-4 -9.2715,-16.05869 z m 5.4804,-3.1641 9.7451,16.87905 2.0345,4e-4 2.3308,-1.3457 -10.2539,-17.7603 z m 4.3639,-2.5195 4.9219,8.52494 9.3239,6.93066 4.0595,-2.34375 -18.0346,-13.2681 z m 4.7699,-2.7539 5.1758,8.96473 8.9347,6.56897 -10.2539,-17.7603 z m 15.5801,-8.99515 4.1646,21.27595 4.2964,-2.4805 -0.8578,-4.3762 5.3788,-3.10545 -3.3024,-2.82941 -2.9093,1.6797 -2.4741,-12.64454 z m 4.8375,-2.79295 1.4678,7.54222 10.5791,9.18293 4.3301,-2.5 -16.3431,-14.2447 z m 16.7769,7.18335 -1.6241,4.14012 c 1.0872,0.42479 2.3557,0.56447 3.8053,0.41913 1.4366,-0.16789 2.8172,-0.58908 4.1418,-1.26362 l -2.1484,-3.7212 c -0.7834,0.36204 -1.5818,0.56744 -2.3956,0.6163 -0.7912,0.0358 -1.3843,-0.0278 -1.779,-0.19073 z m 14.8171,-8.5547 -1.6241,4.14017 c 0.962,0.37572 2.1211,0.44062 3.3667,0.37017 l 3e-4,-4.32357 c -0.7672,0.0311 -1.3561,-0.0271 -1.7429,-0.18677 z m -41.095,33.06755 c -1.1103,0.64105 -1.9142,1.4119 -2.569,2.24552 l 3.8649,-9.5e-4 z m 0.4737,-0.27345 1.4541,2.51859 4.7996,6.5e-4 1.2002,-3.12414 c -2.3426,-0.93282 -4.8273,-0.73118 -7.4539,0.6049 z m 7.9408,-4.44931 4.0224,6.96711 5.413,6e-4 -5.3759,-9.31146 z m 5.4803,-3.16405 5.8466,10.12675 c 1.6606,-0.008 3.2762,-0.19541 4.8351,-0.53171 l -6.8252,-11.82159 z m 4.3639,-2.51955 4.9219,8.52494 3.8926,2.89462 c 1.5569,-0.52439 3.0332,-1.21307 4.4209,-2.0382 l -12.9647,-9.53761 z m 4.7699,-2.7539 5.1758,8.96472 3.8512,2.83061 c 0.7183,-0.4552 1.4151,-0.94042 2.0766,-1.46958 l -7.2471,-12.5523 z m 15.58,-8.9951 2.1218,10.84298 c 1.3414,-2.93996 2.1078,-6.20038 2.1078,-9.65393 l 8e-4,-3.63145 z" /><path
         id="rect846-81-7-9-74-0-1"
         style="font-variation-settings:normal;opacity:0.31094;fill:url(#linearGradient17878);fill-opacity:1;stroke-width:9.0178;stroke-linecap:butt;stroke-linejoin:miter;stroke-miterlimit:4;stroke-dasharray:none;stroke-dashoffset:0;stroke-opacity:1;stop-color:#000000"
         d="m 929.59894,310.16013 -46.39854,72.64318 v 17.20027 l 57.38556,-89.84345 z m 18.27469,0 -64.67323,101.25211 v 38.01827 c 0,6.71609 2.84151,12.72917 7.37155,16.95997 l 99.7855,-156.23035 z m 124.96027,0 -103.78183,162.48211 h 42.48383 l 103.7818,-162.48211 z m 48.901,0.91123 -103.1992,161.57088 h 10.9893 L 1129.9814,315.3601 c -2.3947,-1.9493 -5.1914,-3.41665 -8.2465,-4.28874 z" /></g></g></svg>
