<?xml version="1.0" encoding="UTF-8" standalone="no"?>
<!-- Created with Inkscape (http://www.inkscape.org/) -->

<svg
   width="255.32903"
   height="162.48212"
   viewBox="0 0 255.32903 162.48212"
   version="1.1"
   id="svg5"
   inkscape:version="1.2.1 (9c6d41e410, 2022-07-14)"
   sodipodi:docname="mockup.svg"
   xml:space="preserve"
   xmlns:inkscape="http://www.inkscape.org/namespaces/inkscape"
   xmlns:sodipodi="http://sodipodi.sourceforge.net/DTD/sodipodi-0.dtd"
   xmlns:xlink="http://www.w3.org/1999/xlink"
   xmlns="http://www.w3.org/2000/svg"
   xmlns:svg="http://www.w3.org/2000/svg"><sodipodi:namedview
     id="namedview7"
     pagecolor="#404040"
     bordercolor="#666666"
     borderopacity="1.0"
     inkscape:pageshadow="2"
     inkscape:pageopacity="0"
     inkscape:pagecheckerboard="0"
     inkscape:document-units="px"
     showgrid="false"
     inkscape:snap-global="true"
     inkscape:zoom="3.4"
     inkscape:cx="360.29412"
     inkscape:cy="296.91176"
     inkscape:window-width="3840"
     inkscape:window-height="2066"
     inkscape:window-x="-11"
     inkscape:window-y="-11"
     inkscape:window-maximized="1"
     inkscape:current-layer="layer1"
     inkscape:showpageshadow="2"
     inkscape:deskcolor="#404040" /><defs
     id="defs2"><linearGradient
       inkscape:collect="always"
       id="linearGradient5357"><stop
         style="stop-color:#ffffff;stop-opacity:0.25748503;"
         offset="0"
         id="stop5353" /><stop
         style="stop-color:#ffffff;stop-opacity:0;"
         offset="0.67889911"
         id="stop5355" /></linearGradient><linearGradient
       inkscape:collect="always"
       xlink:href="#linearGradient5357"
       id="linearGradient5167"
       x1="203.84238"
       y1="279.54575"
       x2="203.84238"
       y2="350.50412"
       gradientUnits="userSpaceOnUse"
       spreadMethod="reflect"
       gradientTransform="matrix(1.1605865,0,0,1.1605865,-196.494,-208.50223)" /></defs><g
     inkscape:label="Layer 1"
     inkscape:groupmode="layer"
     id="layer1"
     transform="translate(-40.082714,-115.55273)"><g
       id="g1187"
       inkscape:export-filename="blue_card.svg"
       inkscape:export-xdpi="96.000008"
       inkscape:export-ydpi="96.000008"><rect
         style="fill:#e4d5b8;fill-opacity:1;stroke-width:15.8465;stroke-opacity:0.547893"
         id="rect846-7"
         width="255.32903"
         height="162.48212"
         x="40.082714"
         y="115.55273"
         rx="23.211729"
         ry="23.211729" /><rect
         style="fill:none;fill-opacity:1;stroke:#0055d4;stroke-width:10.5613;stroke-dasharray:none;stroke-opacity:1"
         id="rect846-1-2"
         width="232.11729"
         height="139.27039"
         x="51.68856"
         y="127.15856"
         rx="11.605865"
         ry="11.605865" /><rect
         style="fill:#ffffff;fill-opacity:1;stroke:none;stroke-width:4.38056;stroke-dasharray:none;stroke-opacity:1"
         id="rect6027-4"
         width="214.375"
         height="41.0191"
         x="60.559711"
         y="176.28419" /><text
         xml:space="preserve"
         style="font-style:normal;font-weight:normal;font-size:30.949px;line-height:1.25;font-family:sans-serif;fill:#000000;fill-opacity:1;stroke:none;stroke-width:1.16059"
         x="112.27928"
         y="207.79517"
         id="text1801-8"><tspan
           sodipodi:role="line"
           x="112.27928"
           y="207.79517"
           style="font-style:normal;font-variant:normal;font-weight:normal;font-stretch:normal;font-size:30.949px;font-family:Roboto;-inkscape-font-specification:Roboto;stroke-width:1.16059"
           id="tspan351-0">BOTTLE</tspan></text><path
         d="m 73.132154,144.24515 q 0.680034,-0.68002 0.680034,-1.54139 0,-0.72537 -0.498692,-1.22406 -0.498681,-0.4987 -1.133383,-0.4987 H 61.934316 v -4.85088 h 11.152506 q 2.448118,0 4.21619,1.72274 1.768084,1.67741 1.768084,4.03485 0,2.08544 -1.677408,3.67218 -1.813416,-1.04272 -4.261534,-1.31474 z m 5.12291,2.76547 q 2.538783,2.13076 2.538783,5.30424 0,3.17348 -2.266776,5.39492 -2.266765,2.22143 -5.440249,2.22143 h -4.896225 v -5.30424 h 4.896225 q 0.95204,0 1.586742,-0.68003 0.680034,-0.72537 0.680034,-1.81342 0,-1.04272 -0.680034,-1.76808 -0.680034,-0.7707 -1.586742,-0.7707 h -2.040091 -2.856134 v -4.76022 h 2.720125 0.725366 q 4.080193,0 6.618976,2.1761 z m -16.18475,13.0566 v -18.45151 h 5.440249 v 18.45151 z"
         style="font-size:40px;line-height:1.25;font-family:BroshK;-inkscape-font-specification:BroshK;fill:#0055d4;stroke-width:1.16059"
         id="path3433" /><path
         id="rect846-81-7"
         style="font-variation-settings:normal;fill:url(#linearGradient5167);fill-opacity:1;stroke-width:9.0178;stroke-linecap:butt;stroke-linejoin:miter;stroke-miterlimit:4;stroke-dasharray:none;stroke-dashoffset:0;stroke-opacity:1;stop-color:#000000"
         d="m 86.481245,115.55273 -46.398531,72.64318 v 17.20027 l 57.38556,-89.84345 z m 18.274695,0 -64.673226,101.25211 v 38.01827 c 0,6.71609 2.841511,12.72917 7.371547,16.95997 L 147.23976,115.55273 Z m 124.96026,0 -103.78182,162.48211 H 168.4182 L 272.20001,115.55273 Z m 48.90105,0.91123 -103.19926,161.57088 h 10.9893 L 286.86376,120.7527 c -2.39472,-1.9493 -5.19141,-3.41665 -8.24651,-4.28874 z" /></g></g></svg>
