<?xml version="1.0" encoding="UTF-8" standalone="no"?>
<!-- Created with Inkscape (http://www.inkscape.org/) -->

<svg
   width="255.33017"
   height="162.48328"
   viewBox="0 0 255.33017 162.48328"
   version="1.1"
   id="svg5"
   xml:space="preserve"
   xmlns:xlink="http://www.w3.org/1999/xlink"
   xmlns="http://www.w3.org/2000/svg"
   xmlns:svg="http://www.w3.org/2000/svg"><defs
     id="defs2"><linearGradient
       id="linearGradient5357"><stop
         style="stop-color:#ffffff;stop-opacity:0.25748503;"
         offset="0"
         id="stop5353" /><stop
         style="stop-color:#ffffff;stop-opacity:0;"
         offset="0.67889911"
         id="stop5355" /></linearGradient><linearGradient
       xlink:href="#linearGradient5357"
       id="linearGradient17753"
       gradientUnits="userSpaceOnUse"
       gradientTransform="matrix(1.1605865,0,0,1.1605865,-201.31558,-14.40694)"
       x1="203.84238"
       y1="279.54575"
       x2="203.84238"
       y2="350.50412"
       spreadMethod="reflect" /></defs><g
     id="layer1"
     transform="translate(-35.261131,-309.64801)"><g
       id="g17922"><path
         id="rect846-7-18"
         style="fill:#0055d4;stroke-width:15.8465;stroke-opacity:0.547893"
         d="M 58.473433,309.64859 H 267.379 c 12.8593,0 23.21173,10.35243 23.21173,23.21173 v 116.05866 c 0,12.8593 -10.35243,23.21173 -23.21173,23.21173 H 58.473433 c -12.859298,0 -23.21173,-10.35243 -23.21173,-23.21173 V 332.86032 c 0,-12.8593 10.352432,-23.21173 23.21173,-23.21173 z" /><path
         id="rect846-7-18-4"
         style="fill:#134692;fill-opacity:1;stroke-width:15.8465;stroke-opacity:0.547893"
         d="m 46.201552,313.16362 c -2.19108,1.36416 -4.14446,3.06853 -5.76354,5.06413 l 0.68164,1.18064 2.13123,-1.23047 1.52232,-0.87891 c 0.45105,-0.26041 0.95641,-0.29658 1.51605,-0.10849 0.54662,0.16552 0.96968,0.50765 1.26915,1.02636 0.3125,0.54127 0.40378,1.08998 0.27381,1.64614 -0.12042,0.52058 -0.41744,0.91759 -0.89104,1.19102 l -3.65355,2.10938 2.28516,3.95801 3.65355,-2.10937 c 1.57868,-0.91147 2.61284,-2.24526 3.10246,-4.00139 0.4896,-1.75611 0.27869,-3.42353 -0.63276,-5.00221 -0.91146,-1.5787 -2.30467,-2.53346 -4.1796,-2.86427 -0.43021,-0.0805 -0.8773,0.0207 -1.31488,0.0194 z m 4.12486,-2.02741 3.15527,5.46509 4.05949,-2.34375 -2.5,-4.33013 c -1.63504,0.24102 -3.21109,0.64749 -4.71476,1.20879 z m -10.26985,7.60271 c -1.0858,1.41619 -2.01462,2.95607 -2.75384,4.60522 l 3.76172,6.51549 4.0595,-2.34375 z m 24.74199,-9.0909 c 0.89321,0.92045 1.92088,1.66424 3.24508,2.01906 1.9791,0.51123 3.84821,0.25904 5.60732,-0.75658 l -0.72852,-1.26184 z m -28.87214,17.7654 c -0.4183,1.74885 -0.66449,3.56611 -0.66449,5.44674 l -2.5e-4,0.2144 3.05984,-1.7666 -2.28516,-3.95802 z m 17.74675,-10.24609 2.28516,3.95801 11.5019,-6.64062 -2.28516,-3.95802 z m 19.92565,-7.51901 0.54004,0.93537 c 0.37973,-0.26355 0.61759,-0.6243 0.92829,-0.93512 z m -38.3366,25.94281 -3.6e-4,4.76109 4.5205,7.82975 c 0.29948,0.51871 0.39901,1.10776 0.29858,1.76715 -0.0779,0.64637 -0.34837,1.19346 -0.81151,1.64128 l 2.30468,3.99183 c 1.54566,-1.07281 2.51949,-2.53716 2.92145,-4.39303 0.42451,-1.86889 0.1615,-3.62651 -0.78902,-5.27286 l -6.58203,-11.40041 z m 2.97866,-1.71973 2.28516,3.95801 11.5019,-6.64063 -2.28516,-3.95801 z m 14.08475,-8.13184 2.08984,3.61972 7.64538,-4.41406 c 0.31573,-0.18229 0.66927,-0.22102 1.06058,-0.11616 0.39131,0.10485 0.69112,0.3377 0.89945,0.69854 0.2474,0.4285 0.29961,0.90956 0.15664,1.44315 1.29596,-0.5678 2.54475,-0.85277 3.74633,-0.85489 0.37873,-1.27112 0.26861,-2.42538 -0.33035,-3.46281 -0.67709,-1.17274 -1.69629,-1.92243 -3.05761,-2.24907 -1.37435,-0.34919 -2.67046,-0.17223 -3.8883,0.5309 z m 15.15544,-8.75 7.67578,13.29484 4.0595,-2.34375 -7.67578,-13.29484 z m 11.19744,-6.46484 6.58203,11.40041 c 1.01563,1.75911 2.50171,2.90081 4.45826,3.42506 1.9791,0.51123 3.84821,0.25904 5.60732,-0.75659 l -2.28516,-3.95801 c -0.63148,0.36459 -1.32724,0.43552 -2.08731,0.21279 -0.73752,-0.23574 -1.28205,-0.65808 -1.63361,-1.267 l -5.73437,-9.93222 -3.38993,-4.2e-4 z m -23.88811,19.24957 7.94922,13.76845 4.05949,-2.34375 -7.94922,-13.76845 z m 35.06489,-20.12519 4.16699,7.21744 c 0.29948,0.51871 0.39901,1.10776 0.29858,1.76715 -0.0779,0.64637 -0.34838,1.19346 -0.81152,1.64128 l 2.30469,3.99183 c 1.54566,-1.07281 2.51948,-2.53716 2.92144,-4.39303 0.42451,-1.86889 0.1615,-3.62651 -0.78902,-5.27286 l -2.85937,-4.95257 z m -48.93481,28.62915 5.09766,8.8294 4.05949,-2.34375 -5.09765,-8.8294 z m 19.82356,-8.73881 2.05078,3.55206 2.13124,-1.23047 1.52231,-0.87891 c 0.45106,-0.26042 0.95641,-0.29658 1.51605,-0.10849 0.54663,0.16552 0.96968,0.50765 1.26916,1.02636 0.3125,0.54126 0.40377,1.08998 0.27381,1.64613 -0.12042,0.52059 -0.41744,0.9176 -0.89105,1.19104 l -3.65355,2.10937 2.28516,3.95801 3.65355,-2.10937 c 1.57869,-0.91147 2.61284,-2.24526 3.10245,-4.00138 0.48962,-1.75613 0.2787,-3.42354 -0.63275,-5.00223 -0.91146,-1.57869 -2.30466,-2.53345 -4.17959,-2.86426 -1.88795,-0.35337 -3.84681,0.0559 -5.87656,1.22777 l -0.54126,0.3125 z m -13.90897,8.4363 2.28516,3.95801 5.5818,-3.22266 -2.28516,-3.95801 z m 49.87611,-28.32688 3.546868,6.14336 4.0595,-2.34375 -2.19336,-3.79901 z m 6.089398,2.6e-4 0.55957,0.9692 1.67961,-0.96973 z m -67.537898,41.38812 -1.1e-4,5.52323 c 0.0804,0.0242 0.13428,0.0832 0.21631,0.10515 1.97911,0.51123 3.84821,0.25904 5.60733,-0.75659 l -2.28516,-3.95801 c -0.63148,0.36459 -1.32725,0.43552 -2.08731,0.21279 -0.65535,-0.20948 -1.10045,-0.62243 -1.45106,-1.12657 z m 10.94695,-3.36356 2.28516,3.95801 11.5019,-6.64063 -2.28516,-3.95801 z m 29.1387,-16.82324 2.28516,3.95801 11.5019,-6.64063 -2.28516,-3.95801 z m 25.101208,-14.49219 2.28516,3.95801 11.5019,-6.64063 -2.28516,-3.95801 z m 15.04171,-6.70872 1.48828,2.57778 4.0595,-2.34375 -0.13574,-0.23511 z m -80.229878,52.13935 6.6e-4,0.798 7.33007,12.69606 4.05949,-2.34375 -7.67578,-13.29484 z m 10.85238,-6.26562 6.58203,11.40041 c 1.01563,1.75911 2.50172,2.9008 4.45827,3.42506 1.97909,0.51123 3.84821,0.25904 5.60732,-0.75659 l -2.28516,-3.95801 c -0.63148,0.36458 -1.32724,0.43552 -2.08732,0.2128 -0.73751,-0.23575 -1.28205,-0.65808 -1.63361,-1.26701 l -6.58203,-11.40041 z m 8.76175,-5.0586 6.58203,11.40041 c 0.29948,0.51872 0.39901,1.10777 0.29857,1.76716 -0.0779,0.64637 -0.34838,1.19346 -0.81152,1.64128 l 2.30469,3.99183 c 1.54567,-1.07282 2.51949,-2.53716 2.92145,-4.39303 0.42451,-1.86889 0.1615,-3.62651 -0.78902,-5.27286 l -6.58203,-11.40041 z m 5.04053,-2.91015 2.28516,3.95801 11.5019,-6.64062 -2.28516,-3.95802 z m 14.08476,-8.13184 2.08985,3.61971 7.64537,-4.41406 c 0.31574,-0.18229 0.66926,-0.221 1.06057,-0.11615 0.39132,0.10485 0.69114,0.33769 0.89947,0.69853 0.2474,0.42851 0.29961,0.90956 0.15662,1.44317 1.29598,-0.56781 2.54476,-0.85278 3.74635,-0.8549 0.37872,-1.27112 0.2686,-2.42538 -0.33036,-3.46281 -0.67708,-1.17275 -1.69628,-1.92244 -3.05761,-2.24907 -1.37435,-0.34919 -2.67045,-0.17223 -3.8883,0.53089 z m 15.15545,-8.75 7.67578,13.29484 4.059488,-2.34375 -7.675778,-13.29484 z m 11.197428,-6.46484 6.58203,11.40041 c 1.01562,1.75911 2.50172,2.9008 4.45826,3.42506 1.9791,0.51123 3.84821,0.25904 5.60733,-0.75659 l -2.28516,-3.95801 c -0.63148,0.36458 -1.32725,0.43552 -2.08732,0.2128 -0.73751,-0.23575 -1.28205,-0.65808 -1.63362,-1.26701 l -6.58203,-11.40041 z m 8.76174,-5.0586 6.58203,11.40041 c 0.29948,0.51872 0.39901,1.10777 0.29858,1.76716 -0.0779,0.64637 -0.34838,1.19346 -0.81152,1.64128 l 2.30468,3.99183 c 1.54568,-1.07282 2.5195,-2.53716 2.92146,-4.39303 0.42451,-1.86889 0.1615,-3.62651 -0.78902,-5.27286 l -6.58203,-11.40041 z m 5.04054,-2.91015 2.28516,3.95801 11.5019,-6.64062 -2.25586,-3.90727 -0.11726,3e-5 z m 14.97441,-6.59092 1.20019,2.07879 3.59942,-2.07812 z m -52.664808,33.80924 7.94922,13.76845 4.0595,-2.34375 -7.94922,-13.76845 z m 54.239918,-31.31543 7.94922,13.76845 4.05949,-2.34375 -7.94922,-13.76845 z m -68.109818,39.81939 5.09765,8.82939 4.0595,-2.34375 -5.09766,-8.82939 z m 54.239908,-31.31543 5.09766,8.82939 4.05949,-2.34375 -5.09765,-8.82939 z m -81.573698,47.72582 -2.8e-4,2.76513 c 0.0314,-4.4e-4 0.0662,-0.0224 0.0975,-0.0225 0.29576,-0.99265 0.20325,-1.89251 -0.0972,-2.74265 z m 47.15735,-25.1492 2.05078,3.55205 2.13123,-1.23047 1.52231,-0.8789 c 0.45105,-0.26042 0.95641,-0.29658 1.51606,-0.1085 0.54662,0.16553 0.96968,0.50766 1.26915,1.02636 0.3125,0.54127 0.40378,1.08998 0.27381,1.64614 -0.12042,0.52058 -0.41745,0.9176 -0.89105,1.19103 l -3.65354,2.10938 2.28516,3.95801 3.65354,-2.10937 c 1.57869,-0.91146 2.61284,-2.24527 3.10246,-4.00139 0.48961,-1.75612 0.2787,-3.42354 -0.63276,-5.00222 -0.91146,-1.5787 -2.30466,-2.53346 -4.17959,-2.86426 -1.88796,-0.35337 -3.8468,0.0559 -5.87655,1.22776 l -0.54127,0.3125 z m 54.239908,-31.31543 2.05078,3.55205 2.13124,-1.23047 1.52231,-0.8789 c 0.45105,-0.26042 0.95641,-0.29658 1.51605,-0.1085 0.54662,0.16553 0.96968,0.50766 1.26916,1.02636 0.3125,0.54127 0.40376,1.08999 0.27381,1.64614 -0.12042,0.52058 -0.41745,0.9176 -0.89105,1.19103 l -3.65355,2.10938 2.28516,3.95801 3.65355,-2.10937 c 1.57868,-0.91147 2.61284,-2.24527 3.10246,-4.00139 0.48961,-1.75612 0.2787,-3.42354 -0.63276,-5.00222 -0.69692,-1.20711 -1.76591,-1.93182 -3.02611,-2.40935 l -5.077,-6.5e-4 c -0.6474,0.22001 -1.29054,0.39101 -1.95304,0.7735 l -0.54126,0.3125 z m -68.148888,39.75172 2.28516,3.95802 5.58181,-3.22266 -2.28516,-3.95801 z m 54.239918,-31.31543 2.28516,3.95802 5.5818,-3.22266 -2.28516,-3.95801 z m -87.488088,51.50135 -9.2e-4,4.03747 c 0.0502,0.0134 0.0874,-0.0273 0.13853,-0.0101 0.54663,0.16553 0.96968,0.50766 1.26915,1.02636 0.3125,0.54127 0.40378,1.08998 0.27382,1.64614 -0.12042,0.52058 -0.41745,0.9176 -0.89106,1.19103 l -0.78991,0.45606 10e-6,5.27735 3.07506,-1.77539 c 1.57869,-0.91146 2.61285,-2.24527 3.10246,-4.00139 0.48962,-1.75612 0.2787,-3.42354 -0.63275,-5.00222 -0.91146,-1.5787 -2.30467,-2.53346 -4.17959,-2.86426 -0.44655,-0.0836 -0.91033,0.0172 -1.3648,0.0189 z m 114.075498,-62.1967 1.73437,3.00402 4.0595,-2.34375 -0.38086,-0.65966 z m -106.553978,66.20091 2.28516,3.95802 11.5019,-6.64063 -2.28516,-3.95801 z m 25.1012,-14.49218 2.28516,3.95801 11.5019,-6.64062 -2.28516,-3.95802 z m 29.13872,-16.82325 2.28516,3.95802 11.501898,-6.64063 -2.28516,-3.95801 z m 25.101198,-14.49218 2.28516,3.95801 11.5019,-6.64062 -2.28516,-3.95802 z m 29.13871,-16.82325 2.28516,3.95802 11.5019,-6.64063 -0.51172,-0.88632 -7.09307,-4e-4 z m -116.001188,74.76755 1e-5,5.27735 5.87611,-3.39258 -2.28516,-3.95801 z m 6.17381,-3.56445 2.08985,3.61972 7.64538,-4.41407 c 0.31574,-0.18229 0.66926,-0.22101 1.06057,-0.11616 0.39131,0.10486 0.69113,0.3377 0.89946,0.69854 0.2474,0.42851 0.29962,0.90956 0.15663,1.44316 1.29597,-0.56781 2.54475,-0.85277 3.74635,-0.8549 0.37872,-1.27111 0.2686,-2.42538 -0.33036,-3.46281 -0.67708,-1.17274 -1.69628,-1.92243 -3.05762,-2.24907 -1.37434,-0.34919 -2.67045,-0.17222 -3.88829,0.5309 z m 15.15545,-8.75 7.67578,13.29484 4.05949,-2.34375 -7.67578,-13.29484 z m 11.19744,-6.46485 6.58203,11.40041 c 1.01562,1.75912 2.501719,2.90081 4.45826,3.42506 1.9791,0.51124 3.84821,0.25904 5.60732,-0.75658 l -2.28516,-3.95801 c -0.63147,0.36458 -1.32725,0.43552 -2.08731,0.21279 -0.73751,-0.23575 -1.282051,-0.65808 -1.633621,-1.26701 l -6.582029,-11.40041 z m 8.76174,-5.05859 6.582029,11.40041 c 0.299481,0.51871 0.39901,1.10777 0.298581,1.76715 -0.0779,0.64638 -0.348381,1.19347 -0.81152,1.64128 l 2.30468,3.99184 c 1.54567,-1.07282 2.5195,-2.53717 2.92145,-4.39303 0.42452,-1.86889 0.16151,-3.62652 -0.78901,-5.27287 l -6.58203,-11.40041 z m 5.04054,-2.91016 2.28516,3.95802 11.5019,-6.64063 -2.28516,-3.95801 z m 14.08475,-8.13183 2.08984,3.61972 7.645388,-4.41407 c 0.31573,-0.18229 0.66926,-0.22101 1.06057,-0.11616 0.39131,0.10486 0.69113,0.3377 0.89946,0.69854 0.2474,0.42851 0.29961,0.90956 0.15663,1.44316 1.29597,-0.56781 2.54475,-0.85277 3.74634,-0.8549 0.37872,-1.27111 0.26861,-2.42538 -0.33035,-3.46281 -0.67709,-1.17274 -1.69629,-1.92243 -3.05762,-2.24907 -1.37434,-0.34919 -2.67046,-0.17222 -3.8883,0.5309 z m 15.155438,-8.75 7.67578,13.29484 4.0595,-2.34375 -7.67578,-13.29484 z m 11.19744,-6.46485 6.58203,11.40041 c 1.01563,1.75912 2.50172,2.90081 4.45827,3.42506 1.97909,0.51124 3.84821,0.25904 5.60731,-0.75658 l -2.28516,-3.95801 c -0.63147,0.36458 -1.32724,0.43552 -2.08731,0.21279 -0.73751,-0.23575 -1.28205,-0.65808 -1.63361,-1.26701 l -6.58203,-11.40041 z m 8.76175,-5.05859 6.58203,11.40041 c 0.29948,0.51871 0.399,1.10777 0.29857,1.76715 -0.0779,0.64638 -0.34838,1.19347 -0.81152,1.64128 l 2.30469,3.99184 c 1.54567,-1.07282 2.51949,-2.53717 2.92144,-4.39303 0.42452,-1.86889 0.16151,-3.62652 -0.78901,-5.27287 l -6.58203,-11.40041 z m 5.04053,-2.91016 2.28516,3.95802 11.5019,-6.64063 -2.28516,-3.95801 z m 14.08475,-8.13183 2.08985,3.61972 7.64538,-4.41407 c 0.31574,-0.18229 0.66926,-0.22101 1.06057,-0.11616 0.39132,0.10486 0.69114,0.3377 0.89947,0.69854 0.2474,0.42851 0.29961,0.90956 0.15662,1.44316 1.29598,-0.56781 2.54476,-0.85277 3.74635,-0.8549 0.37872,-1.27111 0.2686,-2.42538 -0.33036,-3.46281 -0.67708,-1.17274 -1.69628,-1.92243 -3.05761,-2.24907 -1.37436,-0.34918 -2.67046,-0.17222 -3.8883,0.5309 z m 15.15545,-8.75 7.67578,13.29484 4.05949,-2.34375 -7.67578,-13.29484 z m 12.97185,-3.39147 4.80762,8.32703 c 1.01562,1.75912 2.50172,2.90081 4.45826,3.42506 1.9791,0.51124 3.84821,0.25904 5.60732,-0.75658 l -2.28516,-3.95801 c -0.63147,0.36458 -1.32725,0.43552 -2.08731,0.21279 -0.73751,-0.23575 -1.28205,-0.65808 -1.63362,-1.26701 l -3.4541,-5.98267 z m -134.142358,78.80705 7.94922,13.76846 4.0595,-2.34375 -7.94922,-13.76846 z m 54.23992,-31.31543 7.949218,13.76846 4.05949,-2.34375 -7.94922,-13.76846 z m 54.239908,-31.31543 7.94922,13.76846 4.0595,-2.34375 -7.94922,-13.76846 z m -68.109818,39.81939 5.09766,8.8294 4.05949,-2.34375 -5.097661,-8.8294 z m 54.239918,-31.31543 5.09765,8.8294 4.0595,-2.34375 -5.09766,-8.8294 z m -103.248469,62.31686 -8e-5,9.06625 3.92586,-2.2666 z m 14.592191,-8.42481 2.050779,3.55206 2.13124,-1.23047 1.52231,-0.87891 c 0.45106,-0.2604 0.95641,-0.29658 1.51606,-0.10849 0.54661,0.16553 0.96967,0.50766 1.26914,1.02636 0.3125,0.54127 0.40378,1.08999 0.27382,1.64613 -0.12042,0.52059 -0.41745,0.9176 -0.89105,1.19104 l -3.65355,2.10937 2.28516,3.95802 3.65355,-2.10938 c 1.57869,-0.91145 2.61283,-2.24525 3.10246,-4.00138 0.48961,-1.75612 0.27869,-3.42353 -0.63277,-5.00222 -0.911459,-1.5787 -2.30465,-2.53346 -4.17959,-2.86426 -1.88795,-0.35337 -3.8468,0.0559 -5.87654,1.22776 l -0.54127,0.3125 z m 54.239918,-31.31543 2.05078,3.55206 2.13124,-1.23047 1.5223,-0.87891 c 0.45106,-0.26041 0.95642,-0.29658 1.51606,-0.10849 0.54662,0.16553 0.96967,0.50766 1.26915,1.02636 0.3125,0.54127 0.40377,1.08999 0.27382,1.64613 -0.12042,0.52059 -0.41745,0.9176 -0.89106,1.19104 l -3.65354,2.10937 2.28516,3.95802 3.65354,-2.10938 c 1.57869,-0.91145 2.61284,-2.24525 3.10246,-4.00138 0.48962,-1.75612 0.2787,-3.42353 -0.63276,-5.00222 -0.91146,-1.5787 -2.30466,-2.53346 -4.17959,-2.86426 -1.88795,-0.35337 -3.84681,0.0559 -5.87655,1.22776 l -0.54126,0.3125 z m 54.23992,-31.31543 2.05078,3.55206 2.13123,-1.23047 1.52231,-0.87891 c 0.45105,-0.26041 0.95641,-0.29658 1.51606,-0.10849 0.54661,0.16553 0.96967,0.50766 1.26914,1.02636 0.3125,0.54127 0.40378,1.08999 0.27382,1.64613 -0.12042,0.52059 -0.41745,0.9176 -0.89105,1.19104 l -3.65354,2.10937 2.28516,3.95802 3.65354,-2.10938 c 1.57869,-0.91145 2.61284,-2.24525 3.10246,-4.00138 0.48961,-1.75612 0.27869,-3.42353 -0.63276,-5.00222 -0.91146,-1.5787 -2.30467,-2.53346 -4.17959,-2.86426 -1.88796,-0.35337 -3.84681,0.0559 -5.87655,1.22776 l -0.54127,0.3125 z m -122.388809,71.06716 2.28516,3.95801 5.58181,-3.22265 -2.28516,-3.95802 z m 54.23992,-31.31543 2.28516,3.95801 5.5818,-3.22265 -2.28516,-3.95802 z m 54.239909,-31.31543 2.28516,3.95801 5.58181,-3.22265 -2.28516,-3.95802 z m 45.3005,-24.37709 1.88671,3.26789 c 0.29948,0.51871 0.399,1.10777 0.29858,1.76715 -0.0779,0.64638 -0.34838,1.19347 -0.81152,1.64128 l 2.30468,3.99184 c 1.54568,-1.07282 2.51949,-2.53716 2.92145,-4.39303 0.42452,-1.86889 0.16151,-3.62652 -0.78901,-5.27287 l -0.5791,-1.00303 z m 6.85589,-2.5e-4 1.2666,2.19382 3.8007,-2.19434 z m -161.261669,96.70614 2.28516,3.95802 11.5019,-6.64063 -2.28516,-3.95801 z m 29.13872,-16.82324 2.28516,3.95801 11.5019,-6.64062 -2.28516,-3.95802 z m 25.1012,-14.49219 2.28516,3.95802 11.501899,-6.64063 -2.28516,-3.95801 z m 29.138709,-16.82324 2.28516,3.95801 11.5019,-6.64062 -2.28516,-3.95802 z m 25.1012,-14.49219 2.28516,3.95802 11.5019,-6.64063 -2.28516,-3.95801 z m 29.13872,-16.82324 2.28516,3.95801 11.5019,-6.64062 -2.28516,-3.95802 z m 25.1012,-14.49219 2.28516,3.95802 11.5019,-6.64063 -0.0449,-0.0778 -8.96208,6.6e-4 z m -154.053869,96.73727 6.58203,11.40042 c 0.29948,0.51871 0.399,1.10777 0.29858,1.76715 -0.0779,0.64638 -0.34838,1.19346 -0.81153,1.64128 l 2.30469,3.99183 c 1.54567,-1.07281 2.51949,-2.53716 2.92145,-4.39302 0.42451,-1.8689 0.16151,-3.62652 -0.78901,-5.27287 l -6.58203,-11.40041 z m 54.23991,-31.31543 6.582029,11.40042 c 0.29948,0.51871 0.39901,1.10777 0.29858,1.76715 -0.0779,0.64638 -0.34838,1.19346 -0.81152,1.64128 l 2.30469,3.99183 c 1.54567,-1.07281 2.51948,-2.53716 2.92144,-4.39302 0.42452,-1.8689 0.16151,-3.62652 -0.78901,-5.27287 l -6.58203,-11.40041 z m 54.239919,-31.31543 6.58203,11.40042 c 0.29948,0.51871 0.399,1.10777 0.29858,1.76715 -0.0779,0.64638 -0.34838,1.19346 -0.81152,1.64128 l 2.30468,3.99183 c 1.54567,-1.07281 2.51949,-2.53716 2.92145,-4.39302 0.42452,-1.8689 0.16151,-3.62652 -0.78901,-5.27287 l -6.58203,-11.40041 z m 54.23992,-31.31543 6.58203,11.40042 c 0.29948,0.51871 0.399,1.10777 0.29858,1.76715 -0.0779,0.64638 -0.34839,1.19346 -0.81153,1.64128 l 2.30469,3.99183 c 1.54567,-1.07281 2.51949,-2.53716 2.92144,-4.39302 0.42452,-1.8689 0.16151,-3.62652 -0.78901,-5.27287 l -6.58203,-11.40041 z m -171.443299,98.9851 -1.1e-4,0.0858 6.54493,11.33615 c 1.01562,1.7591 2.50171,2.90079 4.45825,3.42505 1.9791,0.51123 3.84822,0.25904 5.60732,-0.75658 l -2.28515,-3.95801 c -0.63148,0.36458 -1.32726,0.43552 -2.08732,0.21279 -0.737509,-0.23574 -1.28205,-0.65808 -1.633609,-1.267 l -6.58203,-11.40041 z m 13.76506,-7.94726 2.28516,3.958 11.5019,-6.64062 -2.28516,-3.95801 z m 14.08476,-8.13184 2.08984,3.61971 7.64538,-4.41406 c 0.31574,-0.18229 0.66926,-0.22101 1.06057,-0.11616 0.39131,0.10485 0.69113,0.3377 0.89947,0.69854 0.24739,0.4285 0.29961,0.90956 0.15662,1.44316 1.29597,-0.5678 2.54476,-0.85277 3.74634,-0.85489 0.37873,-1.27112 0.26861,-2.42539 -0.33035,-3.46282 -0.67708,-1.17274 -1.69628,-1.92244 -3.05762,-2.24907 -1.37435,-0.34919 -2.67045,-0.17222 -3.88829,0.5309 z m 15.15544,-8.75 7.67578,13.29484 4.05949,-2.34375 -7.67578,-13.29484 z m 11.19744,-6.46484 6.58203,11.40041 c 1.01562,1.7591 2.50171,2.9008 4.458259,3.42505 1.9791,0.51123 3.84821,0.25904 5.60732,-0.75658 l -2.28516,-3.95801 c -0.63147,0.36458 -1.32725,0.43552 -2.08731,0.21279 -0.73751,-0.23574 -1.28206,-0.65808 -1.63362,-1.267 l -6.582029,-11.40041 z m 13.802279,-7.96875 2.28516,3.958 11.5019,-6.64062 -2.28516,-3.95801 z m 14.08475,-8.13184 2.08984,3.61971 7.64539,-4.41406 c 0.31573,-0.18229 0.66926,-0.22101 1.06057,-0.11616 0.39131,0.10485 0.69113,0.3377 0.89947,0.69854 0.24739,0.4285 0.2996,0.90956 0.15662,1.44316 1.29597,-0.5678 2.54475,-0.85277 3.74634,-0.85489 0.37873,-1.27112 0.26861,-2.42539 -0.33035,-3.46282 -0.67708,-1.17274 -1.6963,-1.92243 -3.05762,-2.24907 -1.37435,-0.34919 -2.67045,-0.17222 -3.88829,0.5309 z m 15.15545,-8.75 7.67578,13.29484 4.05949,-2.34375 -7.67578,-13.29484 z m 11.19744,-6.46484 6.58203,11.40041 c 1.01562,1.7591 2.5017,2.9008 4.45826,3.42505 1.97909,0.51123 3.84821,0.25904 5.60731,-0.75658 l -2.28515,-3.95801 c -0.63147,0.36458 -1.32725,0.43552 -2.08732,0.21279 -0.7375,-0.23574 -1.28205,-0.65808 -1.63361,-1.267 l -6.58203,-11.40041 z m 13.80228,-7.96875 2.28515,3.958 11.5019,-6.64062 -2.28515,-3.95801 z m 14.08475,-8.13184 2.08984,3.61971 7.64538,-4.41406 c 0.31574,-0.18229 0.66926,-0.22101 1.06057,-0.11616 0.39132,0.10485 0.69114,0.3377 0.89947,0.69854 0.2474,0.4285 0.2996,0.90956 0.15662,1.44316 1.29597,-0.5678 2.54476,-0.85277 3.74634,-0.85489 0.37873,-1.27112 0.26861,-2.42539 -0.33035,-3.46282 -0.67708,-1.17274 -1.69629,-1.92243 -3.05761,-2.24907 -1.37436,-0.34919 -2.67046,-0.17222 -3.88829,0.5309 z m 15.15544,-8.75 7.67578,13.29484 4.0595,-2.34375 -7.67578,-13.29484 z m 11.19744,-6.46484 6.58203,11.40041 c 1.01562,1.7591 2.50171,2.9008 4.45826,3.42505 1.9791,0.51123 3.84821,0.25904 5.60732,-0.75658 l -2.28516,-3.95801 c -0.63148,0.36459 -1.32725,0.43552 -2.08731,0.21279 -0.73751,-0.23574 -1.28205,-0.65808 -1.63361,-1.267 l -6.58203,-11.40041 z m 13.80228,-7.96875 2.28516,3.958 11.43255,-6.60058 h -9.14063 z m -146.170219,89.84918 7.94922,13.76845 4.05949,-2.34375 -7.94922,-13.76845 z m 54.239909,-31.31543 7.94922,13.76845 4.0595,-2.34375 -7.94922,-13.76845 z m 54.23992,-31.31543 7.94922,13.76845 4.05949,-2.34375 -7.94922,-13.76845 z m -122.349739,71.13482 5.09765,8.82939 4.0595,-2.34375 -5.09766,-8.82939 z m 54.239919,-31.31543 5.09765,8.82939 4.05949,-2.34375 -5.09765,-8.82939 z m 54.23991,-31.31543 5.09766,8.82939 4.05949,-2.34375 -5.09765,-8.82939 z m 54.23992,-31.31543 5.09765,8.82939 4.0595,-2.34375 -5.09766,-8.82939 z m 14.70975,-7.04931 7.10937,12.3138 4.0595,-2.34375 -5.75586,-9.96944 z m -157.605939,92.25679 2.05078,3.55205 2.13123,-1.23046 1.52231,-0.87891 c 0.45106,-0.26042 0.9564,-0.29659 1.51605,-0.1085 0.54663,0.16553 0.96968,0.50765 1.26916,1.02637 0.3125,0.54126 0.40377,1.08997 0.27381,1.64613 -0.12043,0.52058 -0.41744,0.9176 -0.89105,1.19103 l -3.65354,2.10938 2.28515,3.958 3.65355,-2.10937 c 1.57868,-0.91146 2.61283,-2.24526 3.10246,-4.00138 0.48961,-1.75613 0.27869,-3.42354 -0.63277,-5.00223 -0.91146,-1.57869 -2.30466,-2.53344 -4.17958,-2.86425 -1.88795,-0.35337 -3.84681,0.0559 -5.87655,1.22776 l -0.54126,0.3125 z m 54.239909,-31.31543 2.05078,3.55205 2.13123,-1.23046 1.52232,-0.87891 c 0.45105,-0.26042 0.9564,-0.29659 1.51604,-0.1085 0.54663,0.16553 0.96968,0.50765 1.26916,1.02637 0.3125,0.54126 0.40377,1.08997 0.27381,1.64613 -0.12042,0.52058 -0.41744,0.9176 -0.89104,1.19103 l -3.65355,2.10938 2.28516,3.958 3.65354,-2.10937 c 1.57869,-0.91146 2.61284,-2.24526 3.10247,-4.00138 0.4896,-1.75612 0.27868,-3.42354 -0.63277,-5.00223 -0.91146,-1.57869 -2.30466,-2.53344 -4.17959,-2.86425 -1.88795,-0.35337 -3.8468,0.0559 -5.87654,1.22776 l -0.54127,0.3125 z m 54.23992,-31.31543 2.05078,3.55205 2.13123,-1.23046 1.52232,-0.87891 c 0.45105,-0.26042 0.9564,-0.29659 1.51604,-0.1085 0.54663,0.16553 0.96968,0.50765 1.26916,1.02637 0.3125,0.54126 0.40377,1.08997 0.27381,1.64613 -0.12043,0.52058 -0.41744,0.9176 -0.89104,1.19103 l -3.65355,2.10938 2.28516,3.958 3.65354,-2.10937 c 1.57869,-0.91146 2.61284,-2.24526 3.10246,-4.00138 0.4896,-1.75612 0.27869,-3.42354 -0.63276,-5.00223 -0.91146,-1.57869 -2.30466,-2.53344 -4.17959,-2.86425 -1.88795,-0.35337 -3.84681,0.0559 -5.87655,1.22776 l -0.54126,0.3125 z m -122.388809,71.06716 2.28515,3.958 5.58181,-3.22266 -2.28515,-3.958 z m 54.239909,-31.31543 2.28516,3.958 5.58181,-3.22266 -2.28515,-3.958 z m 54.23992,-31.31543 2.28516,3.958 5.58181,-3.22266 -2.28516,-3.958 z m 54.23992,-31.31543 2.28515,3.958 5.58181,-3.22266 -2.28515,-3.958 z m 14.88456,-6.74654 1.0752,1.86229 2.13122,-1.23046 1.09437,-0.63184 z m 6.68437,-4.5e-4 c 0.30143,0.18816 0.63378,0.33211 0.82957,0.67124 0.3125,0.54126 0.40377,1.08997 0.27381,1.64613 -0.12042,0.52058 -0.41744,0.9176 -0.89105,1.19104 l -3.65353,2.10937 2.28515,3.958 3.65354,-2.10937 c 1.57869,-0.91146 2.61284,-2.24526 3.10246,-4.00137 0.33498,-1.20149 0.21966,-2.3459 -0.10118,-3.46433 z m -206.648299,121.1059 3.1e-4,1.15678 0.50067,-0.28906 z m 6.6e-4,1.83317 -10e-6,5.27734 10.41938,-6.01563 -2.28516,-3.958 z m 21.73351,-12.54785 2.28516,3.958 11.5019,-6.64062 -2.28516,-3.95801 z m 29.13871,-16.82324 2.28516,3.958 11.5019,-6.64062 -2.28516,-3.95801 z m 25.101209,-14.49219 2.28516,3.958 11.5019,-6.64062 -2.28516,-3.95801 z m 29.13871,-16.82324 2.28515,3.958 11.5019,-6.64062 -2.28515,-3.95801 z m 25.10121,-14.49219 2.28515,3.958 11.5019,-6.64062 -2.28515,-3.95801 z m 29.1387,-16.82324 2.28516,3.958 11.5019,-6.64062 -2.28516,-3.95801 z m 25.10121,-14.49219 2.28516,3.958 11.5019,-6.64062 -2.28516,-3.95801 z m 29.35746,-16.44436 2.0664,3.57912 6.20088,-3.58008 z m -213.811869,130.73339 8.9e-4,4.82576 5.02024,-2.89843 c 0.31574,-0.18229 0.66927,-0.22102 1.06058,-0.11616 0.39131,0.10485 0.69113,0.33769 0.89947,0.69854 0.24739,0.4285 0.2996,0.90956 0.15662,1.44315 1.29597,-0.56779 2.54476,-0.85276 3.74634,-0.85488 0.37873,-1.27112 0.2686,-2.42539 -0.33036,-3.46282 -0.67707,-1.17274 -1.69628,-1.92243 -3.05761,-2.24907 -1.37435,-0.34919 -2.67045,-0.17222 -3.88829,0.5309 z m 10.44136,-6.02832 7.67578,13.29484 4.05949,-2.34375 -7.67578,-13.29484 z m 11.19744,-6.46485 6.58203,11.40041 c 1.01562,1.75911 2.50171,2.9008 4.45825,3.42506 1.9791,0.51123 3.84822,0.25903 5.60733,-0.75659 l -2.28516,-3.958 c -0.63148,0.36458 -1.32725,0.43551 -2.08731,0.21278 -0.73752,-0.23573 -1.28206,-0.65808 -1.63362,-1.267 l -6.58203,-11.40041 z m 8.76174,-5.05859 6.58203,11.40041 c 0.29948,0.51871 0.399,1.10776 0.29858,1.76715 -0.0779,0.64637 -0.34838,1.19346 -0.81153,1.64128 l 2.30469,3.99184 c 1.54567,-1.07283 2.51949,-2.53717 2.92145,-4.39303 0.42451,-1.8689 0.1615,-3.62651 -0.78902,-5.27286 l -6.58203,-11.40041 z m 5.04054,-2.91016 2.28515,3.95801 11.5019,-6.64063 -2.28515,-3.958 z m 14.08475,-8.13183 2.08984,3.61971 7.64538,-4.41406 c 0.31573,-0.18229 0.66926,-0.22102 1.06058,-0.11616 0.39131,0.10485 0.69112,0.3377 0.89946,0.69854 0.24739,0.4285 0.2996,0.90956 0.15663,1.44315 1.29596,-0.56779 2.54475,-0.85276 3.746339,-0.85488 0.37873,-1.27112 0.2686,-2.42539 -0.33036,-3.46282 -0.677079,-1.17274 -1.696289,-1.92243 -3.057609,-2.24907 -1.37435,-0.34919 -2.67045,-0.17222 -3.8883,0.5309 z m 15.15545,-8.75 7.675779,13.29484 4.05949,-2.34375 -7.67578,-13.29484 z m 11.197439,-6.46485 6.58203,11.40041 c 1.01562,1.75911 2.5017,2.9008 4.45825,3.42506 1.9791,0.51123 3.84821,0.25904 5.60732,-0.75659 l -2.28515,-3.958 c -0.63148,0.36458 -1.32725,0.43551 -2.08732,0.21278 -0.73751,-0.23573 -1.28205,-0.65808 -1.63361,-1.267 l -6.58203,-11.40041 z m 8.76173,-5.05859 6.58203,11.40041 c 0.29948,0.51872 0.39901,1.10776 0.29858,1.76716 -0.0779,0.64636 -0.34838,1.19345 -0.81152,1.64127 l 2.30469,3.99184 c 1.54566,-1.07282 2.51948,-2.53717 2.92145,-4.39303 0.4245,-1.8689 0.1615,-3.62651 -0.78902,-5.27286 l -6.58203,-11.40041 z m 5.04055,-2.91016 2.28515,3.95801 11.5019,-6.64063 -2.28515,-3.958 z m 14.08475,-8.13183 2.08984,3.61971 7.64537,-4.41406 c 0.31574,-0.18229 0.66927,-0.22102 1.06058,-0.11616 0.39131,0.10485 0.69113,0.3377 0.89946,0.69854 0.2474,0.4285 0.29961,0.90956 0.15663,1.44315 1.29597,-0.56779 2.54476,-0.85276 3.74634,-0.85488 0.37873,-1.27112 0.2686,-2.42539 -0.33036,-3.46282 -0.67708,-1.17274 -1.69628,-1.92243 -3.05761,-2.24907 -1.37435,-0.34919 -2.67045,-0.17222 -3.88829,0.5309 z m 15.15544,-8.75 7.67578,13.29484 4.0595,-2.34375 -7.67578,-13.29484 z m 11.19744,-6.46485 6.58203,11.40041 c 1.01562,1.75911 2.50171,2.9008 4.45825,3.42506 1.97911,0.51123 3.84821,0.25904 5.60733,-0.75659 l -2.28516,-3.958 c -0.63148,0.36458 -1.32725,0.43551 -2.08731,0.21278 -0.73752,-0.23573 -1.28205,-0.65808 -1.63361,-1.267 l -6.58203,-11.40041 z m 8.76174,-5.05859 6.58203,11.40041 c 0.29948,0.51872 0.399,1.10776 0.29858,1.76716 -0.0779,0.64636 -0.34838,1.19345 -0.81152,1.64127 l 2.30469,3.99184 c 1.54566,-1.07282 2.51948,-2.53717 2.92144,-4.39303 0.42451,-1.8689 0.1615,-3.62651 -0.78902,-5.27286 l -6.58203,-11.40041 z m 5.04054,-2.91016 2.28516,3.95801 11.5019,-6.64063 -2.28516,-3.958 z m 14.08475,-8.13183 2.08984,3.61971 7.64538,-4.41406 c 0.31573,-0.18229 0.66927,-0.22102 1.06058,-0.11616 0.39131,0.10485 0.69112,0.3377 0.89946,0.69854 0.24739,0.4285 0.2996,0.90956 0.15663,1.44315 1.29597,-0.56779 2.54476,-0.85276 3.74634,-0.85488 0.37873,-1.27112 0.2686,-2.42539 -0.33036,-3.46282 -0.67708,-1.17274 -1.69629,-1.92243 -3.05761,-2.24907 -1.37435,-0.34919 -2.67045,-0.17222 -3.8883,0.5309 z m 15.15545,-8.75 7.67578,13.29484 4.05949,-2.34375 -7.67578,-13.29484 z m 11.19744,-6.46485 6.58203,11.40041 c 1.01562,1.75911 2.5017,2.9008 4.45825,3.42506 1.97909,0.51123 3.84821,0.25904 5.60732,-0.75659 l -2.28515,-3.958 c -0.63148,0.36458 -1.32725,0.43551 -2.08732,0.21278 -0.73751,-0.23573 -1.28205,-0.65808 -1.63361,-1.267 l -6.58203,-11.40041 z m 8.76173,-5.05859 6.58203,11.40041 c 0.29948,0.51872 0.39901,1.10776 0.29858,1.76716 -0.0779,0.64636 -0.34839,1.19345 -0.81152,1.64127 l 2.30469,3.99184 c 1.54566,-1.07282 2.51949,-2.53717 2.92145,-4.39303 0.4245,-1.8689 0.1615,-3.62651 -0.78902,-5.27286 l -6.58203,-11.40041 z m 5.04055,-2.91016 2.28515,3.95801 11.5019,-6.64063 -2.28515,-3.958 z m 14.08475,-8.13183 2.08984,3.61971 7.64537,-4.41406 c 0.31574,-0.18229 0.66927,-0.22102 1.06058,-0.11616 0.39131,0.10485 0.69113,0.3377 0.89946,0.69854 0.2474,0.4285 0.29961,0.90956 0.15663,1.44315 1.29597,-0.56779 2.54475,-0.85276 3.74635,-0.85488 0.37872,-1.27112 0.2686,-2.42539 -0.33036,-3.46282 -0.67708,-1.17274 -1.69629,-1.92243 -3.05762,-2.24907 -1.37435,-0.34919 -2.67044,-0.17222 -3.88829,0.5309 z m 15.47673,-8.19352 7.35449,12.73836 4.0595,-2.34375 -5.97168,-10.34325 c -0.34958,-0.0155 -0.69351,-0.0518 -1.04703,-0.0518 z m -227.721989,136.19114 1.4e-4,3.07836 c 0,0.78221 0.0406,1.55528 0.11546,2.31717 l 5.58398,9.67175 4.0595,-2.34375 -7.94922,-13.76846 z m 51.99028,-30.01661 7.94922,13.76846 4.05949,-2.34375 -7.94922,-13.76846 z m 54.239919,-31.31543 7.94922,13.76846 4.05949,-2.34375 -7.94922,-13.76846 z m 54.23991,-31.31543 7.94922,13.76846 4.0595,-2.34375 -7.94922,-13.76846 z m 54.23991,-31.31542 7.94922,13.76845 4.05949,-2.34375 -7.94922,-13.76845 z M 73.382191,424.3278 l 5.09766,8.8294 4.05949,-2.34375 -5.09765,-8.8294 z m 54.239909,-31.31542 5.09766,8.82939 4.05949,-2.34375 -5.09765,-8.82939 z m 54.23992,-31.31543 5.09765,8.82939 4.0595,-2.34375 -5.09766,-8.82939 z m 54.23991,-31.31543 5.09766,8.82939 4.05949,-2.34375 -5.09765,-8.82939 z m -197.136099,116.52291 2.05078,3.55205 2.13124,-1.23047 1.52231,-0.87891 c 0.45105,-0.26041 0.9564,-0.29658 1.51604,-0.10849 0.54664,0.16553 0.96968,0.50765 1.26916,1.02636 0.3125,0.54127 0.40378,1.08998 0.27381,1.64614 -0.12042,0.52058 -0.41743,0.91759 -0.89104,1.19103 l -3.65355,2.10938 2.28515,3.958 3.65356,-2.10938 c 1.57868,-0.91145 2.61283,-2.24525 3.10246,-4.00137 0.4896,-1.75613 0.27869,-3.42354 -0.63277,-5.00223 -0.91146,-1.57869 -2.30466,-2.53345 -4.17958,-2.86425 -1.88795,-0.35337 -3.84681,0.0559 -5.87655,1.22776 l -0.54127,0.3125 z m 54.23991,-31.31543 2.05078,3.55205 2.13124,-1.23047 1.52231,-0.8789 c 0.45106,-0.26042 0.95641,-0.29659 1.516049,-0.1085 0.54663,0.16553 0.96968,0.50765 1.26916,1.02636 0.3125,0.54127 0.40377,1.08998 0.27381,1.64614 -0.12042,0.52058 -0.41744,0.91759 -0.89105,1.19103 l -3.653549,2.10938 2.28516,3.958 3.653539,-2.10937 c 1.5787,-0.91146 2.61285,-2.24526 3.10247,-4.00138 0.48961,-1.75613 0.27869,-3.42354 -0.63276,-5.00223 -0.91146,-1.57869 -2.30466,-2.53345 -4.17959,-2.86425 -1.887949,-0.35337 -3.846809,0.0559 -5.876549,1.22776 l -0.54127,0.3125 z m 54.239919,-31.31543 2.05078,3.55205 2.13124,-1.23047 1.52231,-0.8789 c 0.45106,-0.26042 0.9564,-0.29659 1.51605,-0.1085 0.54663,0.16553 0.96968,0.50765 1.26916,1.02636 0.3125,0.54127 0.40377,1.08998 0.27381,1.64614 -0.12043,0.52058 -0.41744,0.91759 -0.89105,1.19103 l -3.65355,2.10938 2.28516,3.958 3.65354,-2.10937 c 1.5787,-0.91146 2.61284,-2.24526 3.10246,-4.00138 0.48961,-1.75613 0.2787,-3.42354 -0.63276,-5.00223 -0.91146,-1.57869 -2.30466,-2.53345 -4.17958,-2.86425 -1.88795,-0.35337 -3.84681,0.0559 -5.87656,1.22776 l -0.54126,0.3125 z m 54.23992,-31.31543 2.05078,3.55205 2.13123,-1.23047 1.52231,-0.8789 c 0.45106,-0.26042 0.95641,-0.29659 1.51605,-0.1085 0.54663,0.16553 0.96968,0.50765 1.26916,1.02636 0.3125,0.54127 0.40377,1.08998 0.27381,1.64614 -0.12042,0.52058 -0.41744,0.91759 -0.89105,1.19103 l -3.65354,2.10938 2.28515,3.958 3.65355,-2.10937 c 1.57868,-0.91146 2.61284,-2.24526 3.10246,-4.00138 0.48961,-1.75613 0.2787,-3.42354 -0.63276,-5.00223 -0.91146,-1.57869 -2.30466,-2.53345 -4.17959,-2.86425 -1.88795,-0.35337 -3.8468,0.0559 -5.87655,1.22776 l -0.54127,0.3125 z m 54.23991,-31.31543 2.05078,3.55205 2.13124,-1.23047 1.52231,-0.8789 c 0.45106,-0.26042 0.95641,-0.29659 1.51605,-0.1085 0.54663,0.16553 0.96968,0.50765 1.26916,1.02636 0.3125,0.54127 0.40377,1.08998 0.27381,1.64614 -0.12043,0.52058 -0.41744,0.91759 -0.89105,1.19103 l -3.65355,2.10938 2.28516,3.958 3.65354,-2.10937 c 1.57869,-0.91146 2.61285,-2.24526 3.10247,-4.00138 0.48961,-1.75613 0.27869,-3.42354 -0.63276,-5.00223 -0.91146,-1.57869 -2.30466,-2.53345 -4.17959,-2.86425 -1.88795,-0.35337 -3.84681,0.0559 -5.87655,1.22776 l -0.54127,0.3125 z m -176.628719,102.38258 2.28516,3.95801 5.5818,-3.22266 -2.28515,-3.958 z m 54.239919,-31.31543 2.28515,3.95801 5.58181,-3.22266 -2.28516,-3.958 z m 54.23992,-31.31543 2.28515,3.95801 5.5818,-3.22266 -2.28515,-3.958 z m 54.23991,-31.31543 2.28516,3.95801 5.5818,-3.22266 -2.28516,-3.958 z m 38.08366,-16.64262 0.3418,0.59202 c 0.95741,1.65827 2.36827,2.72178 4.16184,3.28271 -1.33047,-1.47381 -2.83546,-2.78282 -4.50364,-3.87473 z m -226.530059,134.77904 2.28516,3.95801 11.5019,-6.64063 -2.28516,-3.958 z m 25.10121,-14.49219 2.28515,3.95801 11.5019,-6.64063 -2.28515,-3.958 z m 29.138709,-16.82324 2.28515,3.95801 11.5019,-6.64063 -2.28515,-3.958 z m 25.10121,-14.49219 2.28515,3.95801 11.5019,-6.64063 -2.28515,-3.958 z m 29.1387,-16.82324 2.28516,3.95801 11.5019,-6.64063 -2.28516,-3.958 z m 25.10121,-14.49219 2.28516,3.95801 11.5019,-6.64063 -2.28516,-3.958 z m 29.13871,-16.82324 2.28515,3.95801 11.5019,-6.64063 -2.28515,-3.958 z m 25.10121,-14.49219 2.28515,3.95801 11.5019,-6.64063 -2.28515,-3.958 z m 29.1387,-16.82324 2.28516,3.95801 11.5019,-6.64063 -2.28516,-3.958 z M 40.458502,463.57965 c 0.99809,1.22659 2.118,2.3479 3.34401,3.34667 l 8.12237,-4.68945 -2.28515,-3.95801 z m 11.76408,-6.792 2.08984,3.61971 7.64538,-4.41406 c 0.31573,-0.18229 0.66926,-0.22101 1.06058,-0.11616 0.3913,0.10486 0.69112,0.3377 0.89945,0.69855 0.2474,0.4285 0.29961,0.90955 0.15663,1.44316 1.29597,-0.5678 2.54475,-0.85277 3.74635,-0.85489 0.37873,-1.27113 0.2686,-2.42539 -0.33036,-3.46282 -0.67708,-1.17274 -1.69629,-1.92244 -3.05761,-2.24908 -1.37435,-0.34918 -2.67045,-0.17222 -3.8883,0.53091 z m 15.15544,-8.75 7.67578,13.29485 4.0595,-2.34375 -7.67578,-13.29485 z m 11.19744,-6.46484 6.58203,11.40041 c 1.01562,1.75911 2.50171,2.9008 4.45825,3.42506 1.9791,0.51123 3.84822,0.25903 5.60733,-0.75659 l -2.28515,-3.95801 c -0.63148,0.36459 -1.32726,0.43552 -2.08733,0.21279 -0.73751,-0.23573 -1.28204,-0.65808 -1.6336,-1.267 l -6.58203,-11.40041 z m 8.76174,-5.05859 6.58203,11.40041 c 0.29948,0.51871 0.399009,1.10776 0.29858,1.76715 -0.0779,0.64637 -0.34839,1.19346 -0.81153,1.64128 l 2.30469,3.99184 c 1.545669,-1.07283 2.51949,-2.53718 2.92146,-4.39303 0.4245,-1.8689 0.1615,-3.62652 -0.78902,-5.27286 l -6.58203,-11.40042 z m 5.04054,-2.91016 2.28516,3.958 11.501888,-6.64062 -2.28515,-3.958 z m 14.084758,-8.13184 2.08984,3.61971 7.64537,-4.41406 c 0.31574,-0.18229 0.66926,-0.22101 1.06057,-0.11615 0.39131,0.10485 0.69113,0.33769 0.89947,0.69854 0.24739,0.4285 0.29961,0.90955 0.15662,1.44316 1.29598,-0.5678 2.54476,-0.85277 3.74635,-0.85489 0.37873,-1.27113 0.2686,-2.42539 -0.33036,-3.46282 -0.67708,-1.17274 -1.69628,-1.92244 -3.05762,-2.24907 -1.37434,-0.34919 -2.67044,-0.17223 -3.88829,0.5309 z m 15.15544,-8.75 7.67578,13.29485 4.05949,-2.34375 -7.67578,-13.29485 z m 11.19743,-6.46484 6.58203,11.40042 c 1.01562,1.7591 2.50172,2.90079 4.45826,3.42505 1.9791,0.51123 3.84821,0.25903 5.60733,-0.75659 l -2.28516,-3.95801 c -0.63148,0.36459 -1.32725,0.43552 -2.08732,0.21279 -0.73751,-0.23573 -1.28205,-0.65807 -1.63361,-1.26699 l -6.58203,-11.40042 z m 8.76174,-5.05859 6.58203,11.40041 c 0.29948,0.51871 0.39901,1.10776 0.29858,1.76715 -0.0779,0.64637 -0.34838,1.19346 -0.81152,1.64128 l 2.30469,3.99184 c 1.54566,-1.07283 2.51949,-2.53718 2.92145,-4.39303 0.42451,-1.8689 0.1615,-3.62652 -0.78902,-5.27286 l -6.58203,-11.40042 z m 5.04054,-2.91016 2.28516,3.95801 11.5019,-6.64063 -2.28516,-3.958 z m 14.08476,-8.13184 2.08984,3.61971 7.64538,-4.41406 c 0.31573,-0.18229 0.66926,-0.22101 1.06057,-0.11615 0.39131,0.10485 0.69113,0.33769 0.89947,0.69854 0.24739,0.4285 0.2996,0.90955 0.15662,1.44316 1.29598,-0.5678 2.54476,-0.85277 3.74635,-0.85489 0.37872,-1.27112 0.2686,-2.42539 -0.33036,-3.46282 -0.67708,-1.17274 -1.69629,-1.92244 -3.05762,-2.24907 -1.37434,-0.34919 -2.67044,-0.17223 -3.88829,0.5309 z m 15.15545,-8.75 7.67578,13.29485 4.05949,-2.34375 -7.67578,-13.29485 z m 11.19743,-6.46484 6.58203,11.40042 c 1.01562,1.7591 2.50171,2.90079 4.45826,3.42505 1.97909,0.51123 3.84821,0.25903 5.60732,-0.75659 l -2.28515,-3.95801 c -0.63148,0.36459 -1.32725,0.43552 -2.08733,0.21279 -0.7375,-0.23573 -1.28205,-0.65807 -1.63361,-1.26699 l -6.58203,-11.40042 z m 8.76174,-5.05859 6.58203,11.40041 c 0.29948,0.51871 0.39901,1.10776 0.29858,1.76715 -0.0779,0.64637 -0.34839,1.19346 -0.81153,1.64128 l 2.30469,3.99184 c 1.54567,-1.07283 2.51949,-2.53718 2.92146,-4.39303 0.4245,-1.8689 0.1615,-3.62652 -0.78902,-5.27286 l -6.58203,-11.40042 z m 5.04054,-2.91016 2.28515,3.95801 11.5019,-6.64063 -2.28515,-3.958 z m 14.08476,-8.13184 2.08984,3.61971 7.64537,-4.41406 c 0.31574,-0.18229 0.66926,-0.22101 1.06057,-0.11615 0.39132,0.10485 0.69114,0.33769 0.89947,0.69854 0.2474,0.4285 0.29961,0.90955 0.15662,1.44316 1.29598,-0.5678 2.54476,-0.85277 3.74635,-0.85489 0.37872,-1.27112 0.2686,-2.42539 -0.33036,-3.46282 -0.67708,-1.17274 -1.69628,-1.92244 -3.05761,-2.24907 -1.37435,-0.34919 -2.67045,-0.17223 -3.88829,0.5309 z m 15.15544,-8.75 7.67578,13.29485 4.0595,-2.34375 -7.67578,-13.29485 z m 11.19743,-6.46484 6.58203,11.40042 c 1.01562,1.7591 2.50172,2.90079 4.45826,3.42505 1.9791,0.51123 3.84821,0.25903 5.60733,-0.75659 l -2.28516,-3.95801 c -0.63148,0.36459 -1.32725,0.43552 -2.08732,0.21279 -0.73751,-0.23573 -1.28205,-0.65807 -1.63361,-1.26699 l -6.58203,-11.40042 z m 8.76175,-5.05859 6.58203,11.40041 c 0.29948,0.51871 0.399,1.10776 0.29858,1.76715 -0.0779,0.64637 -0.34839,1.19346 -0.81153,1.64128 l 2.30469,3.99184 c 1.54567,-1.07283 2.51949,-2.53718 2.92145,-4.39303 0.42451,-1.8689 0.1615,-3.62652 -0.78902,-5.27286 l -6.58203,-11.40042 z m 5.04053,-2.91016 2.28516,3.95801 11.5019,-6.64063 -2.28516,-3.958 z m 14.08475,-8.13183 2.08984,3.61971 7.64539,-4.41407 c 0.31573,-0.18229 0.66926,-0.22101 1.06057,-0.11615 0.39131,0.10485 0.69113,0.33769 0.89947,0.69854 0.24739,0.4285 0.2996,0.90955 0.15662,1.44316 1.29598,-0.5678 2.54476,-0.85277 3.74635,-0.85489 0.37872,-1.27112 0.2686,-2.42539 -0.33036,-3.46282 -0.67708,-1.17274 -1.69629,-1.92244 -3.05762,-2.24907 -1.37434,-0.34919 -2.67044,-0.17223 -3.88829,0.5309 z m 15.15545,-8.75 6.25293,10.83039 -1.8e-4,-0.7464 c 0,-4.32948 -1.1944,-8.36055 -3.24195,-11.82228 z m -229.650328,138.04644 6.52832,11.30738 5.41301,6.1e-4 -7.88184,-13.65174 z m 54.239908,-31.31542 7.94922,13.76845 4.05949,-2.34375 -7.94922,-13.76845 z m 54.23991,-31.31543 7.94922,13.76845 4.0595,-2.34375 -7.94922,-13.76845 z m 54.23992,-31.31543 7.94922,13.76845 4.05949,-2.34375 -7.94922,-13.76845 z m 54.23991,-31.31543 7.94922,13.76845 4.0595,-2.34375 -7.94922,-13.76845 z M 44.313672,467.30779 c 0.42547,0.32758 0.85228,0.65392 1.30056,0.95185 l -0.7373,-1.27705 z m 50.74368,-29.29688 5.097648,8.8294 4.0595,-2.34375 -5.097658,-8.8294 z m 54.239918,-31.31543 5.09765,8.8294 4.05949,-2.34375 -5.09765,-8.8294 z m 54.23991,-31.31543 5.09766,8.8294 4.05949,-2.34375 -5.09765,-8.8294 z m 54.23992,-31.31543 5.09765,8.8294 4.0595,-2.34375 -5.09766,-8.8294 z m -197.136108,116.52292 2.05078,3.55205 2.13124,-1.23047 1.52231,-0.8789 c 0.45106,-0.26042 0.95641,-0.29659 1.51605,-0.10851 0.54663,0.16554 0.96968,0.50766 1.26916,1.02637 0.3125,0.54127 0.40377,1.08997 0.27381,1.64614 -0.12043,0.52057 -0.41744,0.91759 -0.89105,1.19103 l -3.65355,2.10937 2.28516,3.95801 3.65354,-2.10938 c 1.57869,-0.91145 2.61285,-2.24526 3.10247,-4.00137 0.48961,-1.75613 0.27869,-3.42355 -0.63276,-5.00223 -0.91146,-1.5787 -2.30466,-2.53345 -4.17959,-2.86426 -1.88795,-0.35336 -3.84681,0.0559 -5.87655,1.22777 l -0.54127,0.3125 z m 54.239918,-31.31543 2.05078,3.55205 2.13124,-1.23047 1.5223,-0.8789 c 0.45106,-0.26042 0.95641,-0.29659 1.51606,-0.10851 0.54663,0.16554 0.96967,0.50766 1.26915,1.02637 0.3125,0.54127 0.40378,1.08997 0.27382,1.64614 -0.12043,0.52057 -0.41745,0.91759 -0.89106,1.19103 l -3.65354,2.10937 2.28515,3.95801 3.65355,-2.10938 c 1.57869,-0.91145 2.61284,-2.24526 3.10246,-4.00137 0.48961,-1.75613 0.2787,-3.42355 -0.63276,-5.00223 -0.91146,-1.5787 -2.30466,-2.53345 -4.17958,-2.86426 -1.88795,-0.35336 -3.84681,0.0559 -5.87656,1.22777 l -0.54126,0.3125 z m 54.23992,-31.31543 2.05078,3.55205 2.13123,-1.23047 1.52231,-0.8789 c 0.45105,-0.26042 0.95641,-0.29659 1.51605,-0.10851 0.54663,0.16554 0.96968,0.50766 1.26916,1.02637 0.3125,0.54127 0.40377,1.08997 0.27381,1.64614 -0.12042,0.52057 -0.41745,0.91759 -0.89105,1.19103 l -3.65354,2.10937 2.28515,3.95801 3.65354,-2.10938 c 1.57869,-0.91145 2.61285,-2.24526 3.10247,-4.00137 0.48961,-1.75613 0.27869,-3.42355 -0.63276,-5.00223 -0.91146,-1.5787 -2.30466,-2.53345 -4.17959,-2.86426 -1.88796,-0.35336 -3.8468,0.0559 -5.87655,1.22777 l -0.54127,0.3125 z m 54.23991,-31.31543 2.05078,3.55205 2.13124,-1.23047 1.52231,-0.8789 c 0.45105,-0.26042 0.95641,-0.29659 1.51605,-0.10851 0.54662,0.16554 0.96968,0.50766 1.26916,1.02637 0.3125,0.54127 0.40376,1.08998 0.27381,1.64614 -0.12043,0.52057 -0.41745,0.91759 -0.89105,1.19103 l -3.65355,2.10937 2.28516,3.95801 3.65354,-2.10938 c 1.57869,-0.91145 2.61285,-2.24526 3.10246,-4.00137 0.48961,-1.75613 0.2787,-3.42355 -0.63276,-5.00223 -0.91146,-1.5787 -2.30465,-2.53345 -4.17958,-2.86426 -1.88796,-0.35336 -3.84682,0.0559 -5.87656,1.22777 l -0.54126,0.3125 z m 54.23992,-31.31543 2.05078,3.55205 2.13123,-1.23047 1.52231,-0.8789 c 0.45105,-0.26042 0.95641,-0.29659 1.51605,-0.10851 0.54662,0.16554 0.96967,0.50766 1.26915,1.02638 0.3125,0.54126 0.40377,1.08997 0.27382,1.64613 -0.12042,0.52057 -0.41745,0.91759 -0.89105,1.19103 l -3.65354,2.10937 2.28515,3.95801 3.65355,-2.10938 c 1.39202,-0.80368 2.28733,-1.99274 2.8326,-3.45316 l -6.6e-4,-4.50114 c -0.13134,-0.34839 -0.16586,-0.70915 -0.36225,-1.0493 -0.91146,-1.57869 -2.30465,-2.53345 -4.17958,-2.86425 -1.88795,-0.35337 -3.84681,0.0559 -5.87655,1.22776 l -0.54127,0.3125 z M 46.804752,468.98184 c 1.63787,0.95168 3.39879,1.70824 5.26212,2.23925 l 2.53211,-1.46191 -2.28516,-3.958 z m 54.167188,-31.27344 2.28515,3.958 5.58181,-3.22265 -2.28516,-3.958 z m 54.23991,-31.31543 2.28516,3.958 5.5818,-3.22265 -2.28515,-3.958 z m 54.23992,-31.31543 2.28515,3.958 5.58181,-3.22265 -2.28516,-3.958 z m 54.23992,-31.31543 2.28515,3.958 5.5818,-3.22265 -2.28515,-3.958 z M 57.600022,472.08603 c 0.004,1.4e-4 0.008,5e-5 0.0114,1.9e-4 l -0.003,-0.005 z m 17.64526,-10.1875 2.28516,3.958 11.5019,-6.64062 -2.28516,-3.95801 z m 25.101208,-14.49219 2.28516,3.958 11.50189,-6.64062 -2.28515,-3.958 z m 29.13871,-16.82324 2.28516,3.958 11.5019,-6.64062 -2.28516,-3.95801 z m 25.1012,-14.49219 2.28516,3.95801 11.5019,-6.64063 -2.28516,-3.958 z m 29.13872,-16.82324 2.28515,3.958 11.5019,-6.64062 -2.28515,-3.95801 z m 25.1012,-14.49219 2.28515,3.95801 11.5019,-6.64063 -2.28515,-3.958 z m 29.13871,-16.82324 2.28516,3.958 11.5019,-6.64062 -2.28516,-3.95801 z m 25.1012,-14.49219 2.28516,3.95801 11.5019,-6.64063 -2.28516,-3.958 z m -192.042268,118.66989 0.3876,-5.1e-4 -0.0967,-0.16745 z m 2.87378,-1.65918 0.95801,1.65931 4.52827,-5.3e-4 4.24894,-2.45313 c 0.31574,-0.18229 0.66926,-0.22101 1.06057,-0.11616 0.39131,0.10485 0.69113,0.3377 0.89947,0.69855 0.24739,0.4285 0.29961,0.90955 0.15662,1.44315 1.29598,-0.5678 2.54476,-0.85277 3.74635,-0.85489 0.37872,-1.27111 0.2686,-2.42539 -0.33036,-3.46282 -0.67708,-1.17273 -1.69629,-1.92243 -3.05762,-2.24907 -1.37434,-0.34919 -2.67044,-0.17222 -3.88829,0.53091 z m 15.15545,-8.75 6.00976,10.40922 5.413008,6.1e-4 -7.363278,-12.75358 z m 11.197428,-6.46484 6.58203,11.40041 c 1.01562,1.75911 2.50171,2.9008 4.45826,3.42505 1.97909,0.51124 3.84821,0.25904 5.60732,-0.75658 l -2.28515,-3.95801 c -0.63148,0.36459 -1.32725,0.43551 -2.08732,0.21279 -0.73751,-0.23574 -1.28206,-0.65808 -1.63362,-1.267 l -6.58203,-11.40041 z m 8.76174,-5.05859 6.58203,11.40041 c 0.29948,0.51871 0.39901,1.10776 0.29858,1.76715 -0.0779,0.64637 -0.34838,1.19346 -0.81152,1.64127 l 2.30469,3.99184 c 1.54566,-1.07282 2.51949,-2.53717 2.92145,-4.39303 0.4245,-1.8689 0.1615,-3.62651 -0.78902,-5.27286 l -6.58203,-11.40041 z m 5.04054,-2.91016 2.28516,3.95801 11.50189,-6.64063 -2.28515,-3.958 z m 14.08475,-8.13183 2.08984,3.61971 7.64539,-4.41407 c 0.31573,-0.18229 0.66926,-0.22101 1.06057,-0.11616 0.39131,0.10485 0.69113,0.3377 0.89946,0.69855 0.2474,0.4285 0.29961,0.90955 0.15663,1.44315 1.29597,-0.5678 2.54475,-0.85277 3.74635,-0.85489 0.37872,-1.27111 0.2686,-2.42539 -0.33036,-3.46282 -0.67708,-1.17273 -1.69629,-1.92243 -3.05762,-2.24907 -1.37434,-0.34919 -2.67045,-0.17221 -3.88829,0.53091 z m 15.15545,-8.75 7.67578,13.29484 4.05949,-2.34375 -7.67578,-13.29484 z m 11.19744,-6.46485 6.58203,11.40041 c 1.01562,1.75911 2.50171,2.9008 4.45825,3.42505 1.9791,0.51124 3.84822,0.25904 5.60732,-0.75658 l -2.28515,-3.958 c -0.63147,0.36458 -1.32725,0.43551 -2.08732,0.21278 -0.7375,-0.23574 -1.28205,-0.65808 -1.63361,-1.267 l -6.58203,-11.40041 z m 8.76174,-5.05859 6.58203,11.40041 c 0.29948,0.51871 0.39901,1.10776 0.29858,1.76715 -0.0779,0.64637 -0.34839,1.19346 -0.81153,1.64127 l 2.30469,3.99184 c 1.54567,-1.07282 2.51949,-2.53717 2.92145,-4.39302 0.42451,-1.86891 0.16151,-3.62652 -0.78901,-5.27287 l -6.58203,-11.40041 z m 5.04054,-2.91016 2.28515,3.95801 11.5019,-6.64063 -2.28515,-3.958 z m 14.08475,-8.13183 2.08984,3.61971 7.64538,-4.41407 c 0.31574,-0.18229 0.66926,-0.22101 1.06057,-0.11616 0.39131,0.10485 0.69114,0.3377 0.89947,0.69855 0.2474,0.4285 0.29961,0.90955 0.15662,1.44315 1.29598,-0.5678 2.54476,-0.85277 3.74635,-0.85489 0.37872,-1.27111 0.2686,-2.42539 -0.33036,-3.46282 -0.67708,-1.17273 -1.69628,-1.92243 -3.05761,-2.24907 -1.37435,-0.34919 -2.67046,-0.17221 -3.8883,0.53091 z m 15.15544,-8.75 7.67578,13.29484 4.0595,-2.34375 -7.67578,-13.29484 z m 11.19744,-6.46485 6.58203,11.40041 c 1.01562,1.75911 2.50172,2.9008 4.45826,3.42505 1.9791,0.51124 3.84821,0.25904 5.60732,-0.75658 l -2.28516,-3.958 c -0.63147,0.36458 -1.32725,0.43551 -2.08731,0.21278 -0.73751,-0.23574 -1.28205,-0.65808 -1.63361,-1.267 l -6.58203,-11.40041 z m 8.76175,-5.05859 6.58203,11.40041 c 0.29948,0.51871 0.39899,1.10776 0.29857,1.76715 -0.0779,0.64637 -0.34838,1.19346 -0.81152,1.64127 l 2.30469,3.99184 c 1.54566,-1.07282 2.51949,-2.53717 2.92144,-4.39302 0.42452,-1.86891 0.16151,-3.62652 -0.78901,-5.27287 l -6.58203,-11.40041 z m 5.04053,-2.91016 2.28516,3.95801 11.5019,-6.64063 -2.28516,-3.958 z m 14.08475,-8.13183 2.08984,3.61971 7.64539,-4.41407 c 0.31573,-0.18229 0.66926,-0.22101 1.06057,-0.11616 0.39131,0.10485 0.69113,0.3377 0.89947,0.69855 0.24739,0.4285 0.2996,0.90955 0.15662,1.44315 1.29598,-0.5678 2.54476,-0.85277 3.74635,-0.85489 0.37872,-1.27111 0.2686,-2.42539 -0.33036,-3.46282 -0.67708,-1.17273 -1.69629,-1.92243 -3.05762,-2.24907 -1.37435,-0.34918 -2.67045,-0.17221 -3.88829,0.53091 z m 15.15545,-8.75 7.67578,13.29484 4.05949,-2.34375 -7.67578,-13.29484 z m 11.19744,-6.46485 6.58203,11.40041 c 1.01562,1.75911 2.50171,2.9008 4.45826,3.42505 1.97909,0.51124 3.84821,0.25904 5.60731,-0.75658 l -2.28515,-3.958 c -0.63147,0.36458 -1.32725,0.43551 -2.08732,0.21278 -0.7375,-0.23574 -1.28205,-0.65808 -1.63361,-1.267 l -6.58203,-11.40041 z m 8.76174,-5.05859 6.58203,11.40041 c 0.29948,0.51871 0.399,1.10776 0.29858,1.76715 -0.0779,0.64637 -0.34839,1.19346 -0.81153,1.64127 l 2.30469,3.99184 c 1.54567,-1.07282 2.51949,-2.53716 2.92145,-4.39302 0.42451,-1.86891 0.16151,-3.62652 -0.78901,-5.27287 l -6.58203,-11.40041 z m 5.04054,-2.91016 2.28515,3.95801 11.5019,-6.64063 -2.28515,-3.958 z m -146.17023,89.84918 7.94922,13.76846 4.0595,-2.34375 -7.94922,-13.76846 z m 54.23992,-31.31543 7.94922,13.76846 4.05949,-2.34375 -7.94922,-13.76846 z m 54.23991,-31.31543 7.94922,13.76846 4.0595,-2.34375 -7.94922,-13.76846 z m -122.34974,71.13482 5.09766,8.8294 4.05949,-2.34375 -5.09765,-8.8294 z m 54.23992,-31.31543 5.09766,8.8294 4.05949,-2.34375 -5.09766,-8.8294 z m 54.23992,-31.31543 5.09765,8.8294 4.0595,-2.34375 -5.09766,-8.8294 z m 54.23991,-31.31543 5.09766,8.8294 4.05949,-2.34375 -5.09765,-8.8294 z m -142.89619,85.20748 2.05078,3.55206 2.13124,-1.23047 1.52231,-0.87891 c 0.45105,-0.26041 0.95641,-0.29659 1.51605,-0.1085 0.54662,0.16554 0.96967,0.50766 1.26915,1.02637 0.3125,0.54127 0.40377,1.08998 0.27382,1.64613 -0.12043,0.52058 -0.41745,0.9176 -0.89105,1.19104 l -3.65355,2.10937 2.28516,3.95801 3.65354,-2.10938 c 1.57869,-0.91145 2.61284,-2.24525 3.10247,-4.00137 0.48961,-1.75614 0.27868,-3.42354 -0.63277,-5.00223 -0.91146,-1.5787 -2.30465,-2.53345 -4.17959,-2.86426 -1.88795,-0.35336 -3.8468,0.0559 -5.87654,1.22777 l -0.54127,0.3125 z m 54.23992,-31.31543 2.05078,3.55206 2.13124,-1.23047 1.5223,-0.87891 c 0.45106,-0.26041 0.95641,-0.29659 1.51606,-0.1085 0.54662,0.16554 0.96967,0.50766 1.26915,1.02637 0.3125,0.54127 0.40377,1.08998 0.27382,1.64613 -0.12043,0.52058 -0.41745,0.9176 -0.89106,1.19104 l -3.65354,2.10937 2.28515,3.95801 3.65355,-2.10938 c 1.57869,-0.91145 2.61284,-2.24525 3.10246,-4.00137 0.48961,-1.75614 0.27869,-3.42354 -0.63276,-5.00223 -0.91146,-1.5787 -2.30466,-2.53345 -4.17959,-2.86426 -1.88795,-0.35336 -3.84681,0.0559 -5.87655,1.22777 l -0.54126,0.3125 z m 54.23992,-31.31543 2.05078,3.55206 2.13123,-1.23047 1.52231,-0.87891 c 0.45105,-0.26041 0.95641,-0.29659 1.51605,-0.1085 0.54662,0.16554 0.96967,0.50766 1.26915,1.02637 0.3125,0.54127 0.40377,1.08998 0.27382,1.64613 -0.12042,0.52058 -0.41745,0.9176 -0.89105,1.19104 l -3.65354,2.10937 2.28515,3.95801 3.65355,-2.10938 c 1.57868,-0.91145 2.61283,-2.24525 3.10246,-4.00137 0.48961,-1.75614 0.27869,-3.42354 -0.63277,-5.00223 -0.91146,-1.5787 -2.30466,-2.53345 -4.17958,-2.86426 -1.88796,-0.35336 -3.84681,0.0559 -5.87655,1.22777 l -0.54127,0.3125 z m -158.493159,91.80602 5.67367,-0.001 c -0.47095,-0.20756 -0.89717,-0.47281 -1.45269,-0.57083 -1.36557,-0.25559 -2.78124,0.0295 -4.22098,0.57187 z m 36.104349,-20.73886 2.28516,3.958 5.5818,-3.22265 -2.28516,-3.95801 z m 54.23992,-31.31543 2.28515,3.958 5.58181,-3.22265 -2.28516,-3.95801 z m 54.23991,-31.31543 2.28516,3.958 5.5818,-3.22265 -2.28515,-3.95801 z m 54.23992,-31.31543 2.28516,3.958 2.93805,-1.69628 1e-5,-5.27735 z m -182.4688,114.68525 7.36512,-10e-4 -1.84082,-3.18839 z m 19.1236,-11.04102 2.28516,3.95801 11.50189,-6.64063 -2.28515,-3.958 z m 29.13872,-16.82324 2.28515,3.958 11.5019,-6.64062 -2.28515,-3.95801 z m 25.1012,-14.49219 2.28515,3.95801 11.5019,-6.64063 -2.28515,-3.958 z m 29.13871,-16.82324 2.28516,3.958 11.5019,-6.64062 -2.28516,-3.95801 z m 25.1012,-14.49219 2.28516,3.95801 11.5019,-6.64063 -2.28516,-3.958 z m 29.13872,-16.82324 2.28515,3.958 11.5019,-6.64062 -2.28515,-3.95801 z m 25.1012,-14.49219 2.28515,3.95801 3.5639,-2.05762 1e-5,-5.27734 z m -162.81562,101.79587 1.84277,3.19177 5.41204,-0.001 -3.19531,-5.53444 z m 8.76175,-5.0586 4.76269,8.24923 5.23277,9.2e-4 -6.07128,-10.51577 z m 5.04053,-2.91015 2.28516,3.958 11.5019,-6.64062 -2.28516,-3.95801 z m 14.08476,-8.13184 2.08984,3.61971 7.64538,-4.41406 c 0.31574,-0.18229 0.66926,-0.22101 1.06057,-0.11616 0.39131,0.10485 0.69113,0.3377 0.89947,0.69854 0.24739,0.4285 0.29961,0.90956 0.15662,1.44316 1.29597,-0.5678 2.54476,-0.85277 3.74634,-0.85489 0.37873,-1.27112 0.26861,-2.42539 -0.33035,-3.46282 -0.67708,-1.17274 -1.69628,-1.92244 -3.05762,-2.24907 -1.37435,-0.34919 -2.67045,-0.17222 -3.88829,0.5309 z m 15.15544,-8.75 7.67578,13.29484 4.05949,-2.34375 -7.67578,-13.29484 z m 11.19744,-6.46484 6.58203,11.40041 c 1.01562,1.7591 2.50171,2.9008 4.45826,3.42505 1.9791,0.51123 3.84821,0.25904 5.60732,-0.75658 l -2.28516,-3.95801 c -0.63147,0.36458 -1.32725,0.43552 -2.08731,0.21279 -0.73751,-0.23574 -1.28206,-0.65808 -1.63362,-1.267 l -6.58203,-11.40041 z m 8.76174,-5.0586 6.58203,11.40041 c 0.29948,0.51872 0.399,1.10777 0.29858,1.76716 -0.0779,0.64636 -0.34838,1.19345 -0.81152,1.64127 l 2.30469,3.99184 c 1.54566,-1.07283 2.51948,-2.53717 2.92144,-4.39303 0.42451,-1.8689 0.16151,-3.62651 -0.78901,-5.27286 l -6.58203,-11.40041 z m 5.04054,-2.91015 2.28516,3.958 11.5019,-6.64062 -2.28516,-3.95801 z m 14.08475,-8.13184 2.08984,3.61971 7.64539,-4.41406 c 0.31573,-0.18229 0.66926,-0.22101 1.06057,-0.11616 0.39131,0.10485 0.69113,0.3377 0.89946,0.69854 0.2474,0.4285 0.29961,0.90956 0.15663,1.44316 1.29597,-0.5678 2.54475,-0.85277 3.74634,-0.85489 0.37873,-1.27112 0.26861,-2.42539 -0.33035,-3.46282 -0.67708,-1.17274 -1.6963,-1.92243 -3.05762,-2.24907 -1.37435,-0.34919 -2.67045,-0.17222 -3.88829,0.5309 z m 15.15545,-8.75 7.67578,13.29484 4.05949,-2.34375 -7.67578,-13.29484 z m 11.19744,-6.46484 6.58203,11.40041 c 1.01562,1.7591 2.5017,2.9008 4.45826,3.42505 1.97909,0.51123 3.84821,0.25904 5.60731,-0.75658 l -2.28515,-3.95801 c -0.63147,0.36458 -1.32725,0.43552 -2.08732,0.21279 -0.7375,-0.23574 -1.28205,-0.65808 -1.63361,-1.267 l -6.58203,-11.40041 z m 8.76174,-5.0586 6.58203,11.40041 c 0.29948,0.51872 0.399,1.10777 0.29858,1.76716 -0.0779,0.64636 -0.34839,1.19345 -0.81153,1.64127 l 2.30469,3.99184 c 1.54567,-1.07283 2.51948,-2.53717 2.92145,-4.39303 0.42451,-1.8689 0.16151,-3.62651 -0.78901,-5.27286 l -6.58203,-11.40041 z m 5.04054,-2.91015 2.28515,3.958 11.5019,-6.64062 -2.28515,-3.95801 z m 14.08475,-8.13184 2.08984,3.61971 7.64538,-4.41406 c 0.31574,-0.18229 0.66926,-0.22101 1.06057,-0.11616 0.39131,0.10485 0.69114,0.3377 0.89947,0.69854 0.2474,0.4285 0.2996,0.90956 0.15662,1.44316 1.29597,-0.5678 2.54476,-0.85277 3.74634,-0.85489 0.37873,-1.27112 0.26861,-2.42539 -0.33035,-3.46282 -0.67708,-1.17274 -1.69629,-1.92243 -3.05761,-2.24907 -1.37436,-0.34919 -2.67046,-0.17222 -3.8883,0.5309 z m 15.15544,-8.75 7.67578,13.29484 4.0595,-2.34375 -7.67578,-13.29484 z m 11.19744,-6.46484 5.94531,10.29758 -7e-5,-9.37513 -1.88574,-3.2662 z m -132.36794,81.88043 7.94922,13.76845 4.05949,-2.34375 -7.94922,-13.76845 z m 54.23991,-31.31543 7.94922,13.76845 4.0595,-2.34375 -7.94922,-13.76845 z m 54.23992,-31.31543 7.94922,13.76845 4.05949,-2.34375 -7.94922,-13.76845 z m -122.34974,71.13482 3.89941,6.75397 4.79428,-7.5e-4 0.46346,-0.26758 -5.09766,-8.82939 z m 54.23991,-31.31543 5.09766,8.82939 4.05949,-2.34375 -5.09765,-8.82939 z m 54.23992,-31.31543 5.09766,8.82939 4.05949,-2.34375 -5.09766,-8.82939 z m -88.65627,53.89205 2.05078,3.55205 2.13123,-1.23046 1.52231,-0.87891 c 0.45106,-0.26042 0.9564,-0.29659 1.51605,-0.1085 0.54663,0.16553 0.96967,0.50765 1.26915,1.02637 0.3125,0.54126 0.40378,1.08997 0.27382,1.64613 -0.12043,0.52058 -0.41744,0.9176 -0.89105,1.19103 l -3.65354,2.10938 2.28515,3.958 3.65355,-2.10937 c 1.57868,-0.91146 2.61283,-2.24526 3.10246,-4.00138 0.48961,-1.75613 0.27869,-3.42354 -0.63277,-5.00222 -0.91146,-1.5787 -2.30466,-2.53345 -4.17958,-2.86426 -1.88795,-0.35337 -3.84681,0.0559 -5.87655,1.22776 l -0.54126,0.3125 z m 54.23991,-31.31543 2.05078,3.55205 2.13123,-1.23046 1.52232,-0.87891 c 0.45105,-0.26042 0.9564,-0.29659 1.51604,-0.1085 0.54663,0.16553 0.96968,0.50765 1.26916,1.02637 0.3125,0.54126 0.40377,1.08997 0.27381,1.64613 -0.12042,0.52058 -0.41744,0.9176 -0.89104,1.19103 l -3.65355,2.10938 2.28516,3.958 3.65354,-2.10937 c 1.57869,-0.91146 2.61284,-2.24526 3.10247,-4.00138 0.4896,-1.75612 0.27868,-3.42354 -0.63277,-5.00222 -0.91146,-1.5787 -2.30466,-2.53345 -4.17959,-2.86426 -1.88795,-0.35337 -3.8468,0.0559 -5.87654,1.22776 l -0.54127,0.3125 z m 54.23992,-31.31543 2.05078,3.55205 2.13123,-1.23046 1.52231,-0.87891 c 0.45106,-0.26042 0.95641,-0.29659 1.51605,-0.1085 0.54663,0.16553 0.96968,0.50765 1.26916,1.02637 0.3125,0.54126 0.40377,1.08997 0.27381,1.64613 -0.12043,0.52058 -0.41744,0.9176 -0.89105,1.19103 l -3.65354,2.10938 2.28516,3.958 3.65354,-2.10937 c 1.57869,-0.91146 2.61284,-2.24526 3.10246,-4.00138 0.4896,-1.75612 0.27869,-3.42354 -0.63276,-5.00222 -0.91146,-1.5787 -2.30466,-2.53345 -4.17959,-2.86426 -1.88795,-0.35337 -3.84681,0.0559 -5.87655,1.22776 l -0.54126,0.3125 z m -122.3888,71.06715 2.28515,3.95801 5.5818,-3.22266 -2.28515,-3.958 z m 54.2399,-31.31542 2.28516,3.958 5.58181,-3.22266 -2.28515,-3.958 z m 54.23992,-31.31543 2.28516,3.958 5.58181,-3.22266 -2.28516,-3.958 z M 148.2739,472.12998 h 9.14062 l 0.0693,-0.04 -2.28516,-3.95801 z m 24.56162,-14.18066 2.28516,3.958 11.5019,-6.64062 -2.28516,-3.95801 z m 25.10121,-14.49219 2.28516,3.958 11.5019,-6.64062 -2.28516,-3.95801 z m 29.13871,-16.82324 2.28515,3.958 11.5019,-6.64062 -2.28515,-3.95801 z m 25.10121,-14.49219 2.28515,3.958 11.5019,-6.64062 -2.28515,-3.95801 z m 29.1387,-16.82324 2.28516,3.958 6.99079,-4.03613 v -5.27734 z m -119.5414,76.81149 9.14063,-1e-5 0.2757,-0.15918 -2.28515,-3.958 z m 9.71403,-5.6084 2.08984,3.61971 7.64538,-4.41406 c 0.31573,-0.18229 0.66926,-0.22102 1.06058,-0.11616 0.39131,0.10485 0.69112,0.3377 0.89946,0.69854 0.24739,0.4285 0.2996,0.90956 0.15662,1.44315 1.29597,-0.56779 2.54476,-0.85276 3.74635,-0.85488 0.37873,-1.27112 0.2686,-2.42539 -0.33036,-3.46282 -0.67708,-1.17274 -1.69629,-1.92243 -3.05761,-2.24907 -1.37435,-0.34919 -2.67045,-0.17222 -3.8883,0.5309 z m 15.15545,-8.75 7.67578,13.29484 4.05949,-2.34375 -7.67578,-13.29484 z m 11.19744,-6.46485 6.58203,11.40041 c 1.01562,1.75911 2.5017,2.90081 4.45825,3.42506 1.9791,0.51123 3.84821,0.25904 5.60732,-0.75659 l -2.28515,-3.958 c -0.63148,0.36458 -1.32726,0.43551 -2.08732,0.21278 -0.73751,-0.23573 -1.28205,-0.65808 -1.63361,-1.267 l -6.58203,-11.40041 z m 8.76173,-5.05859 6.58203,11.40041 c 0.29948,0.51872 0.39901,1.10776 0.29858,1.76716 -0.0779,0.64636 -0.34838,1.19345 -0.81152,1.64127 l 2.30469,3.99184 c 1.54567,-1.07283 2.51948,-2.53717 2.92145,-4.39303 0.4245,-1.8689 0.1615,-3.62651 -0.78902,-5.27286 l -6.58203,-11.40041 z m 5.04055,-2.91016 2.28515,3.95801 11.5019,-6.64063 -2.28516,-3.958 z m 14.08475,-8.13183 2.08984,3.61971 7.64537,-4.41406 c 0.31574,-0.18229 0.66927,-0.22102 1.06058,-0.11616 0.39131,0.10485 0.69113,0.3377 0.89946,0.69854 0.2474,0.4285 0.29961,0.90956 0.15663,1.44315 1.29597,-0.56779 2.54476,-0.85276 3.74634,-0.85488 0.37873,-1.27112 0.2686,-2.42539 -0.33036,-3.46282 -0.67708,-1.17274 -1.69628,-1.92243 -3.05761,-2.24907 -1.37435,-0.34919 -2.67045,-0.17222 -3.8883,0.5309 z m 15.15544,-8.75 7.67578,13.29484 4.0595,-2.34375 -7.67578,-13.29484 z m 11.19744,-6.46485 6.58203,11.40041 c 1.01562,1.75911 2.50171,2.90081 4.45825,3.42506 1.97911,0.51123 3.84821,0.25904 5.60733,-0.75659 l -2.28516,-3.958 c -0.63148,0.36458 -1.32725,0.43551 -2.08731,0.21278 -0.73752,-0.23573 -1.28205,-0.65808 -1.63361,-1.267 l -6.58203,-11.40041 z m 8.76174,-5.05859 6.58203,11.40041 c 0.29948,0.51872 0.399,1.10776 0.29858,1.76716 -0.0779,0.64636 -0.34838,1.19345 -0.81152,1.64127 l 2.30469,3.99184 c 1.54565,-1.07282 2.51948,-2.53717 2.92144,-4.39303 0.42451,-1.8689 0.1615,-3.62651 -0.78902,-5.27286 l -6.58203,-11.40041 z m 5.04054,-2.91016 2.28516,3.95801 11.5019,-6.64063 -2.28516,-3.958 z m 14.08475,-8.13183 2.08984,3.61971 7.64538,-4.41406 c 0.26397,-0.15241 0.56991,-0.14528 0.88672,-0.097 l 1.1e-4,-4.5467 c -0.79199,0.0411 -1.56511,0.20899 -2.30009,0.63333 z m -106.01506,66.66558 0.90918,1.57475 5.41203,-10e-4 -2.26172,-3.91742 z m 54.23992,-31.31543 7.94922,13.76846 4.05949,-2.34375 -7.94922,-13.76846 z m 54.23991,-31.31543 7.94922,13.76846 0.20805,-0.12012 8.6e-4,-8.89305 -4.09863,-7.09904 z m -68.10983,39.8194 5.09766,8.82939 4.05949,-2.34375 -5.09765,-8.82939 z m 54.23992,-31.31543 5.09765,8.82939 4.0595,-2.34375 -5.09766,-8.82939 z m -88.65628,53.89205 1.04492,1.80985 4.02511,-9.6e-4 0.6343,-0.36621 c 0.45106,-0.26042 0.95641,-0.29659 1.51605,-0.1085 0.25303,0.0766 0.38758,0.32257 0.58766,0.47487 l 5.39192,-7.5e-4 c -0.14793,-0.55752 -0.26277,-1.1192 -0.5728,-1.65619 -0.91146,-1.57869 -2.30466,-2.53345 -4.17959,-2.86425 -1.88795,-0.35337 -3.84681,0.0559 -5.87655,1.22776 l -0.54127,0.3125 z m 54.23992,-31.31543 2.05078,3.55205 2.13124,-1.23047 1.5223,-0.8789 c 0.45107,-0.26042 0.95641,-0.29659 1.51606,-0.1085 0.54663,0.16553 0.96968,0.50765 1.26916,1.02637 0.3125,0.54126 0.40377,1.08997 0.27381,1.64613 -0.12043,0.52058 -0.41744,0.91759 -0.89106,1.19103 l -3.65354,2.10938 2.28516,3.958 3.65354,-2.10937 c 1.5787,-0.91146 2.61284,-2.24526 3.10246,-4.00138 0.48961,-1.75613 0.2787,-3.42354 -0.63276,-5.00223 -0.91146,-1.57869 -2.30466,-2.53345 -4.17958,-2.86425 -1.88795,-0.35337 -3.84681,0.0559 -5.87656,1.22776 l -0.54126,0.3125 z m 54.23992,-31.31543 2.05078,3.55205 0.15392,-0.0889 -7.3e-4,-4.73565 -0.17423,0.10059 z m -68.14889,39.75172 2.28515,3.95801 5.58181,-3.22266 -2.28516,-3.958 z m 54.23991,-31.31543 2.28516,3.95801 5.5818,-3.22266 -2.28515,-3.958 z m -79.96656,55.50556 0.2871,0.49728 7.99088,7.7e-4 5.50907,-3.18067 -2.28515,-3.958 z m 25.10121,-14.49219 2.28515,3.95801 11.5019,-6.64063 -2.28516,-3.958 z m 29.1387,-16.82324 2.28516,3.95801 11.5019,-6.64063 -2.28516,-3.958 z m 25.10121,-14.49219 2.28516,3.95801 11.5019,-6.64063 -2.28516,-3.958 z m -65.53322,45.62986 0.39062,0.67658 5.41203,-10e-4 -1.74316,-3.01924 z m 11.19743,-6.46484 4.12305,7.14132 5.41203,-0.001 -5.47558,-9.48399 z m 8.76174,-5.0586 6.58203,11.40041 c 0.13549,0.23468 0.081,0.5361 0.13463,0.79957 l 4.67702,-7.2e-4 c -0.0794,-1.0565 -0.32283,-2.0865 -0.88747,-3.06447 l -6.58203,-11.40041 z m 5.04054,-2.91015 2.28516,3.958 11.5019,-6.64063 -2.28516,-3.958 z m 14.08476,-8.13184 2.08984,3.6197 7.64538,-4.41406 c 0.31573,-0.18229 0.66926,-0.221 1.06057,-0.11615 0.39131,0.10485 0.69113,0.33769 0.89947,0.69854 0.24739,0.4285 0.2996,0.90955 0.15662,1.44316 1.29597,-0.5678 2.54476,-0.85277 3.74635,-0.85489 0.37872,-1.27112 0.2686,-2.42539 -0.33036,-3.46282 -0.67708,-1.17274 -1.69629,-1.92244 -3.05762,-2.24907 -1.37434,-0.34919 -2.67044,-0.17222 -3.88829,0.5309 z m 15.15545,-8.75 7.67578,13.29484 4.05949,-2.34375 -7.67578,-13.29484 z m 11.19743,-6.46484 6.58203,11.40041 c 1.01562,1.7591 2.50171,2.90079 4.45826,3.42505 1.97909,0.51123 3.84821,0.25903 5.60732,-0.75659 l -2.28515,-3.958 c -0.63148,0.36458 -1.32725,0.43551 -2.08733,0.21279 -0.7375,-0.23574 -1.28205,-0.65808 -1.63361,-1.267 l -6.58203,-11.40041 z m 8.76174,-5.0586 6.58203,11.40041 c 0.29948,0.51872 0.39901,1.10776 0.29858,1.76715 -0.0779,0.64637 -0.34839,1.19346 -0.81153,1.64128 l 2.00391,3.47086 -3.8e-4,-13.36002 -4.14843,-7.1853 z m 5.04054,-2.91015 2.28515,3.958 0.74762,-0.43164 1e-5,-5.27734 z m -37.6904,27.21832 7.94922,13.76845 4.0595,-2.34375 -7.94922,-13.76845 z m -13.8699,8.50395 5.09765,8.8294 4.05949,-2.34375 -5.09765,-8.8294 z m 54.23991,-31.31543 0.35254,0.61061 -7.2e-4,-0.81373 z m -34.41636,22.57663 2.05078,3.55205 2.13124,-1.23047 1.52231,-0.8789 c 0.45105,-0.26042 0.95641,-0.29659 1.51605,-0.10851 0.54663,0.16554 0.96968,0.50766 1.26916,1.02637 0.3125,0.54127 0.40377,1.08997 0.27381,1.64614 -0.12042,0.52057 -0.41745,0.9176 -0.89105,1.19103 l -3.65355,2.10938 2.28516,3.958 3.65354,-2.10938 c 1.57869,-0.91145 2.61285,-2.24526 3.10247,-4.00137 0.48961,-1.75613 0.27869,-3.42355 -0.63276,-5.00223 -0.91146,-1.5787 -2.30466,-2.53345 -4.17959,-2.86426 -1.88796,-0.35336 -3.84681,0.0559 -5.87655,1.22777 l -0.54127,0.3125 z m -13.90897,8.43629 2.28516,3.95801 5.5818,-3.22266 -2.28515,-3.958 z m -0.62545,9.69795 0.75488,1.30749 6.12089,1.1e-4 6.91129,-3.99023 -2.28516,-3.958 z m 29.13872,-16.82325 2.28515,3.958 11.5019,-6.64062 -2.28515,-3.958 z m -17.90352,18.13083 1.80603,-7.8e-4 -0.45117,-0.78145 z m 2.47122,-1.42676 0.82324,1.4259 5.84616,8.6e-4 7.11765,-4.10938 -2.28515,-3.958 z m 14.08475,-8.13183 2.08984,3.61971 7.64538,-4.41407 c 0.31574,-0.18229 0.66926,-0.22101 1.06057,-0.11616 0.39131,0.10485 0.69114,0.3377 0.89947,0.69855 0.2474,0.4285 0.29961,0.90955 0.15662,1.44315 1.29598,-0.5678 2.54476,-0.85277 3.74635,-0.85489 0.37872,-1.27111 0.2686,-2.42539 -0.33036,-3.46282 -0.67708,-1.17273 -1.69628,-1.92243 -3.05762,-2.24907 -1.37434,-0.34919 -2.67045,-0.17221 -3.88829,0.53091 z m 15.15544,-8.75 3.56543,6.1755 c 0.95375,-1.76084 1.66269,-3.67103 2.13762,-5.67254 l -1.64355,-2.84671 z m -12.69067,12.78472 2.61035,4.52126 c 1.52668,-0.46223 2.9861,-1.07329 4.36027,-1.82278 l -2.91113,-5.04223 z m 5.95365,-0.23485 1.51855,2.63021 c 2.41043,-1.39524 4.55454,-3.19475 6.31177,-5.33331 -1.69953,-0.16986 -3.44669,0.17221 -5.25931,1.21873 l -0.54126,0.3125 z m -9.19151,5.71267 c 0.37442,-0.0147 0.75065,-0.0238 1.1202,-0.0559 l -0.25586,-0.44316 z" /><path
         id="rect846-81-7-9"
         style="font-variation-settings:normal;opacity:0.5;fill:url(#linearGradient17753);fill-opacity:1;stroke-width:9.0178;stroke-linecap:butt;stroke-linejoin:miter;stroke-miterlimit:4;stroke-dasharray:none;stroke-dashoffset:0;stroke-opacity:1;stop-color:#000000"
         d="M 81.659667,309.64802 35.261132,382.2912 v 17.20027 l 57.385555,-89.84345 z m 18.27469,0 -64.673225,101.25211 v 38.01827 c 0,6.71609 2.841511,12.72917 7.371547,16.95997 L 142.41818,309.64802 Z m 124.960263,0 -103.78182,162.48211 h 42.48382 L 267.37843,309.64802 Z m 48.90105,0.91123 -103.19926,161.57088 h 10.9893 L 282.04218,314.84799 c -2.39472,-1.9493 -5.19141,-3.41665 -8.24651,-4.28874 z" /></g></g></svg>
