<?xml version="1.0" encoding="UTF-8" standalone="no"?>
<!-- Created with Inkscape (http://www.inkscape.org/) -->

<svg
   width="255.35144"
   height="162.48413"
   viewBox="0 0 255.35144 162.48413"
   version="1.1"
   id="svg5"
   inkscape:version="1.2.1 (9c6d41e410, 2022-07-14)"
   sodipodi:docname="mockup.svg"
   xml:space="preserve"
   xmlns:inkscape="http://www.inkscape.org/namespaces/inkscape"
   xmlns:sodipodi="http://sodipodi.sourceforge.net/DTD/sodipodi-0.dtd"
   xmlns:xlink="http://www.w3.org/1999/xlink"
   xmlns="http://www.w3.org/2000/svg"
   xmlns:svg="http://www.w3.org/2000/svg"><sodipodi:namedview
     id="namedview7"
     pagecolor="#404040"
     bordercolor="#666666"
     borderopacity="1.0"
     inkscape:pageshadow="2"
     inkscape:pageopacity="0"
     inkscape:pagecheckerboard="0"
     inkscape:document-units="px"
     showgrid="false"
     inkscape:snap-global="true"
     inkscape:zoom="1.9548704"
     inkscape:cx="723.06582"
     inkscape:cy="486.22148"
     inkscape:window-width="3840"
     inkscape:window-height="2066"
     inkscape:window-x="-11"
     inkscape:window-y="-11"
     inkscape:window-maximized="1"
     inkscape:current-layer="layer1"
     inkscape:showpageshadow="2"
     inkscape:deskcolor="#404040" /><defs
     id="defs2"><linearGradient
       inkscape:collect="always"
       id="linearGradient5357"><stop
         style="stop-color:#ffffff;stop-opacity:0.25748503;"
         offset="0"
         id="stop5353" /><stop
         style="stop-color:#ffffff;stop-opacity:0;"
         offset="0.67889911"
         id="stop5355" /></linearGradient><linearGradient
       inkscape:collect="always"
       xlink:href="#linearGradient5357"
       id="linearGradient17914"
       gradientUnits="userSpaceOnUse"
       gradientTransform="matrix(1.1605865,0,0,1.1605865,936.60109,-10.897494)"
       x1="203.84238"
       y1="279.54575"
       x2="203.84238"
       y2="350.50412"
       spreadMethod="reflect" /></defs><g
     inkscape:label="Layer 1"
     inkscape:groupmode="layer"
     id="layer1"
     transform="translate(-1173.1777,-313.15747)"><g
       id="g17943"><rect
         style="fill:#959983;fill-opacity:1;stroke-width:15.8465;stroke-opacity:0.547893"
         id="rect846-7-18-8-7-9"
         width="255.32903"
         height="162.48212"
         x="1173.189"
         y="313.15848"
         rx="23.211729"
         ry="23.211729"
         inkscape:export-filename="assassin_back.svg"
         inkscape:export-xdpi="96.000008"
         inkscape:export-ydpi="96.000008" /><path
         id="rect846-7-18-8-7-8"
         style="fill:#7d8360;fill-opacity:1;stop-color:#000000"
         d="m 1186.4534,315.41167 3.6563,6.33281 4.1271,-2.3828 -3.208,-5.55643 c -1.5979,0.37721 -3.1258,0.91935 -4.5754,1.60642 z m -5.4522,3.60337 c -0.7014,0.62282 -1.3632,1.28608 -1.9842,1.98906 l 5.4432,4.00208 z m -2.3938,2.4398 c -0.9137,1.09072 -1.7216,2.2708 -2.4243,3.51967 l 3.6425,2.70747 4.0595,-2.34375 z m -4.1326,7.34985 c -0.2635,0.76808 -0.4894,1.55219 -0.6725,2.35484 l 1.524,-0.8799 z m 29.3939,-15.64677 0.2784,0.48206 0.8339,-0.48145 z m -29.8891,20.42968 c -0.2732,0.15775 -0.4234,0.42001 -0.6711,0.59944 -0.067,0.71912 -0.1105,1.44668 -0.1104,2.18372 l -5e-4,8.94466 1.9436,-1.1221 c -0.6294,-1.3506 -0.8419,-2.65625 -0.6377,-3.91686 0.1914,-1.28325 0.7719,-2.20478 1.7417,-2.76468 1.2855,-0.74215 2.5447,-0.85273 3.7778,-0.33176 l 1.6136,-4.31454 c -2.5111,-1.01597 -5.0635,-0.77523 -7.657,0.72212 z m 7.095,-3.96102 2.2852,3.95801 11.5019,-6.6406 -2.2852,-3.95801 z m 12.5168,-7.22655 10.2539,17.76029 3.8565,-2.22655 -10.2539,-17.76029 z m 4.364,-2.51955 4.9219,8.52494 9.3238,6.9307 4.0595,-2.34375 -18.0346,-13.26814 z m 4.7699,-2.7539 5.1758,8.96472 8.9346,6.56902 -10.2539,-17.76029 z m 4.7699,-2.7539 2.1679,3.75503 8.6078,-4.9697 -8.6733,8.2e-4 z m 7.1969,1.52812 7.793,13.49782 4.1272,-2.38285 -7.7929,-13.49782 z m -30.9378,18.13262 5.0976,8.82941 4.0595,-2.34375 -5.0976,-8.82941 z m 5.9145,-0.30248 2.2852,3.958 5.5818,-3.22265 -2.2852,-3.958 z m -16.4715,12.3064 v 3.47469 c 1.1538,1.16606 2.4462,2.13249 4.0326,2.67618 2.5588,0.83812 4.9319,0.62569 7.1196,-0.63736 2.571,-1.48435 4.0491,-3.58569 4.4343,-6.30391 l -4.5238,-0.72601 c -0.1523,1.35092 -0.8712,2.39743 -2.1566,3.13958 -1.0375,0.599 -2.2148,0.61714 -3.5319,0.0545 -1.2946,-0.57568 -2.3456,-1.56261 -3.1529,-2.96089 z m 58.628,-32.87912 4.6972,8.1359 4.0595,-2.34375 -3.3437,-5.79154 z m 7.3074,6.6e-4 2.8701,4.97119 3.8566,-2.2266 -1.585,-2.74523 z m -50.0893,30.26998 2.2852,3.95801 11.5018,-6.6406 -2.2852,-3.95801 z m 61.1174,-30.2704 0.1979,0.14736 0.2554,-0.14745 z m -60.0437,37.45827 2.2656,3.92418 c 0.9924,-0.57295 2.1133,-0.55854 3.3627,0.0432 1.2722,0.58863 2.3118,1.58212 3.1191,2.98039 0.8073,1.39827 1.1478,2.79536 1.0215,4.19138 -0.1036,1.38293 -0.6515,2.36083 -1.6439,2.93378 -0.9022,0.52085 -1.9454,0.53678 -3.1298,0.0479 -1.1974,-0.51151 -2.2123,-1.38397 -3.0447,-2.61738 l -4.1948,2.42185 c 1.48,2.30294 3.4395,3.84789 5.8784,4.63489 2.439,0.787 4.6847,0.58802 6.737,-0.59688 2.1424,-1.23695 3.4567,-3.15343 3.9426,-5.74939 0.4954,-2.63151 0.027,-5.18767 -1.4053,-7.66847 -1.4323,-2.4808 -3.4118,-4.16456 -5.9385,-5.05127 -2.5041,-0.89972 -4.8275,-0.73108 -6.9699,0.50587 z m 16.2379,-9.375 c -2.1199,1.22395 -3.4714,3.10183 -4.0545,5.63358 -0.5735,2.49619 -0.2331,4.96087 1.0214,7.394 l 4.1947,-2.42185 c -0.6294,-1.3506 -0.842,-2.6562 -0.6375,-3.91691 0.1912,-1.28316 0.7718,-2.20474 1.7416,-2.76464 1.2855,-0.7422 2.5447,-0.85277 3.7777,-0.33175 l 1.6136,-4.31454 c -2.5111,-1.01597 -5.0634,-0.77529 -7.657,0.72211 z m -16.7258,9.70179 c -1.9386,1.32976 -3.1058,3.26658 -3.5014,5.81039 -0.3862,2.5083 0.1044,4.94644 1.4716,7.31447 l 4.1609,-2.4023 c -0.7422,-1.2855 -1.0936,-2.57112 -1.054,-3.85693 0.039,-1.28571 0.4357,-2.26624 1.1885,-2.94146 z m -12.0379,7.0403 5.1758,8.96471 8.9346,6.56902 -10.2539,-17.76028 z m 35.8588,-20.7031 2.2852,3.958 11.5019,-6.64065 -2.2852,-3.958 z m 12.5168,-7.22655 10.2539,17.76028 3.8565,-2.2266 -10.2539,-17.76028 z m 4.3639,-2.51955 4.9219,8.52494 9.3239,6.93064 4.0595,-2.34375 -18.0346,-13.26808 z m 4.7699,-2.7539 5.1758,8.96471 8.9346,6.56902 -10.2539,-17.76028 z m 4.7699,-2.7539 2.168,3.75503 13.5316,-7.8125 -2.1679,-3.75503 z m -66.6724,38.63317 10e-5,0.73069 4.5449,7.87203 9.3239,6.93064 4.0595,-2.34375 z m -5e-4,1.9015 -10e-5,8.90611 5.5137,9.54995 3.8565,-2.22655 z m 86.5842,-49.40302 9.1162,15.78973 4.0594,-2.3437 -7.7627,-13.44538 z m -12.7142,10.39642 7.793,13.49781 4.1271,-2.3828 -7.793,-13.49781 z m -30.938,18.13267 5.0977,8.8294 4.0595,-2.34375 -5.0977,-8.8294 z m 50.9596,-28.52843 7.2891,12.62502 3.8565,-2.22655 -6.004,-10.39906 z m -45.045,28.22594 2.2851,3.95801 5.5818,-3.22265 -2.2851,-3.95801 z m 50.863,-28.22686 0.5029,0.8711 9.3239,6.93064 4.0595,-2.34375 -7.418,-5.45774 z m -69.2729,41.65237 c 1.4323,2.4808 3.423,4.15806 5.9722,5.03177 2.5587,0.83811 4.9319,0.62569 7.1195,-0.63736 2.571,-1.48435 4.0492,-3.58569 4.4344,-6.30391 l -4.5238,-0.72601 c -0.1523,1.35087 -0.8711,2.39737 -2.1567,3.13957 -1.0374,0.59895 -2.2147,0.61715 -3.5318,0.0545 -1.2947,-0.57562 -2.3455,-1.56261 -3.1528,-2.96088 z m -30.4367,19.93839 7e-4,4.07939 4.0921,3.00949 z m 107.2,-61.58974 6.971,5.12492 -2.9589,-5.12511 z m 5.9065,-1.3e-4 2.4853,4.30475 3.8565,-2.22655 -1.2002,-2.07879 z m -64.8853,37.9239 2.2851,3.958 11.5019,-6.64065 -2.2851,-3.958 z m -48.2208,28.4988 7e-4,4.6184 3.5166,-2.0303 z m 49.2944,-21.31093 2.2657,3.92418 c 0.9923,-0.57295 2.1132,-0.55854 3.3628,0.0431 1.2719,0.58872 2.3116,1.58217 3.1189,2.98043 0.8073,1.39828 1.1478,2.79542 1.0217,4.19134 -0.1037,1.38297 -0.6517,2.36088 -1.6441,2.93383 -0.902,0.5208 -1.9453,0.53678 -3.1297,0.0478 -1.1974,-0.51146 -2.2123,-1.38392 -3.0447,-2.61733 l -4.1948,2.42185 c 1.4799,2.30294 3.4394,3.84789 5.8784,4.63488 2.439,0.78695 4.6847,0.58798 6.7369,-0.59687 2.1426,-1.237 3.4568,-3.15348 3.9426,-5.74939 0.4955,-2.63151 0.027,-5.18767 -1.4053,-7.66848 -1.4323,-2.48079 -3.4117,-4.16455 -5.9384,-5.05127 -2.5041,-0.89976 -4.8274,-0.73112 -6.97,0.50588 z m 16.238,-9.375 c -2.1198,1.2239 -3.4714,3.10178 -4.0545,5.63357 -0.5735,2.4962 -0.2331,4.96087 1.0213,7.39401 l 4.1949,-2.4219 c -0.6294,-1.35061 -0.842,-2.65621 -0.6377,-3.91686 0.1914,-1.28321 0.7719,-2.20479 1.7416,-2.76464 1.2856,-0.7422 2.5449,-0.85281 3.7778,-0.33176 l 1.6136,-4.31454 c -2.511,-1.01601 -5.0634,-0.77528 -7.657,0.72212 z m -16.7258,9.70178 c -1.9386,1.32972 -3.1058,3.26654 -3.5014,5.81039 -0.3861,2.50827 0.1044,4.94644 1.4715,7.31447 l 4.161,-2.40235 c -0.7421,-1.2855 -1.0935,-2.57111 -1.054,-3.85687 0.04,-1.28577 0.4356,-2.26624 1.1885,-2.94146 z m -48.8068,28.26881 -5e-4,5.00698 4.6701,-2.69625 -2.168,-3.75503 z m 7.7435,-4.4707 10.2539,17.76029 4.0595,-2.34375 -10.2539,-17.76029 z m 5.4803,-3.16405 10.2539,17.76029 3.8565,-2.22655 -10.2539,-17.76029 z m 4.364,-2.51955 4.9218,8.52494 9.3238,6.9307 4.0595,-2.34375 -18.0345,-13.26814 z m 4.7699,-2.7539 5.1757,8.96471 8.9347,6.56903 -10.2539,-17.76029 z m 5.2773,-3.04685 10.2539,17.76029 3.8565,-2.22655 -10.2539,-17.76029 z m 4.3639,-2.51955 4.9219,8.52494 9.3239,6.93065 4.0595,-2.34375 -18.0346,-13.26809 z m 4.7699,-2.7539 5.1758,8.96471 8.9346,6.56903 -10.2539,-17.76029 z m 35.8589,-20.7031 2.2851,3.95801 11.502,-6.64065 -2.2852,-3.95801 z m 12.5168,-7.2266 10.2539,17.76029 3.8565,-2.22655 -10.2539,-17.76029 z m 4.3639,-2.5195 4.9219,8.52494 9.3239,6.93065 4.0595,-2.34375 -18.0347,-13.26809 z m 4.7699,-2.7539 5.1758,8.96471 8.9347,6.56898 -10.2539,-17.76029 z m 4.77,-2.75395 2.1679,3.75503 13.5317,-7.8125 -2.168,-3.75503 z m 18.7734,-10.83885 10.2539,17.76029 4.0595,-2.34375 -10.2539,-17.76029 z m 5.4803,-3.16405 10.2539,17.76029 3.8565,-2.22655 -10.2539,-17.76029 z m 4.364,-2.51955 4.9219,8.52494 9.3238,6.9307 4.0596,-2.3438 -17.8223,-13.11106 z m 6.3597,-2.2e-4 3.586,6.21103 8.9346,6.56903 -7.3789,-12.78064 z m -134.0258,79.39159 10e-5,8.85186 3.96,6.85886 4.1271,-2.3828 -7.793,-13.49782 z m 106.2453,-61.3408 7.793,13.49782 4.1271,-2.3828 -7.7929,-13.49782 z m -30.9379,18.13267 5.0976,8.8294 4.0595,-2.34375 -5.0976,-8.8294 z m 65.7545,-36.18399 6.9053,11.96029 3.8566,-2.2266 -5.6192,-9.73264 z m -59.8399,35.88145 2.2852,3.95801 5.5818,-3.22265 -2.2852,-3.95801 z m 65.659,-35.88073 0.1182,0.20467 9.3238,6.93065 4.0595,-2.34375 -6.5126,-4.79191 z m -84.069,49.30628 c 1.4323,2.48081 3.4231,4.15807 5.9723,5.03173 2.5587,0.83816 4.9319,0.62569 7.1195,-0.63731 2.5711,-1.4844 4.0492,-3.58574 4.4343,-6.30391 l -4.5237,-0.72601 c -0.1522,1.35082 -0.8712,2.39737 -2.1567,3.13957 -1.0373,0.5989 -2.2147,0.61709 -3.5318,0.0545 -1.2946,-0.57567 -2.3456,-1.56261 -3.1529,-2.96089 z m 92.08,-49.30585 6.0656,4.45914 -2.5742,-4.45868 z m -74.2955,45.57828 2.2852,3.95801 11.5019,-6.64065 -2.2851,-3.95801 z m 82.1865,-45.57854 c 0.082,0.0285 0.1413,0.0919 0.2242,0.11865 1.877,0.60573 3.6037,0.44402 5.2519,-0.11833 z m -81.1127,52.76636 2.2656,3.92418 c 0.9923,-0.5729 2.1132,-0.5585 3.3627,0.0432 1.2721,0.58867 2.3117,1.58217 3.119,2.98043 0.8073,1.39828 1.1479,2.79537 1.0216,4.19134 -0.1037,1.38297 -0.6516,2.36088 -1.6439,2.93378 -0.9022,0.52085 -1.9454,0.53677 -3.1298,0.0479 -1.1975,-0.51147 -2.2124,-1.38392 -3.0447,-2.61738 l -4.1949,2.4219 c 1.4801,2.30289 3.4395,3.84789 5.8785,4.63483 2.439,0.787 4.6847,0.58803 6.737,-0.59687 2.1424,-1.23695 3.4566,-3.15338 3.9425,-5.74934 0.4954,-2.63151 0.027,-5.18768 -1.4053,-7.66848 -1.4323,-2.4808 -3.4118,-4.16456 -5.9385,-5.05127 -2.5041,-0.89971 -4.8274,-0.73112 -6.9698,0.50583 z m 16.238,-9.375 c -2.1201,1.224 -3.4715,3.10183 -4.0546,5.63358 -0.5735,2.49619 -0.2331,4.96086 1.0214,7.394 l 4.1947,-2.42185 c -0.6294,-1.35061 -0.842,-2.65621 -0.6375,-3.91692 0.1912,-1.28315 0.7718,-2.20473 1.7416,-2.76463 1.2855,-0.7422 2.5447,-0.85277 3.7777,-0.33176 l 1.6136,-4.31453 c -2.5111,-1.01597 -5.0634,-0.77529 -7.6569,0.72211 z m -16.726,9.70183 c -1.9386,1.32978 -3.1057,3.26653 -3.5014,5.81039 -0.3862,2.50831 0.1044,4.94645 1.4716,7.31447 l 4.161,-2.40235 c -0.7422,-1.2855 -1.0936,-2.57111 -1.0541,-3.85688 0.04,-1.28576 0.4357,-2.26623 1.1885,-2.94145 z m -81.1812,46.9602 v 5.27737 l 8.711,-5.0293 -2.2852,-3.95802 z m 7.4407,-4.2959 10.2539,17.7603 3.8565,-2.22655 -10.2539,-17.7603 z m 4.3639,-2.5195 4.9219,8.52494 9.3239,6.93066 4.0595,-2.34375 -18.0346,-13.2681 z m 4.77,-2.75395 5.1758,8.96473 8.9346,6.56902 -10.2539,-17.7603 z m 4.7699,-2.7539 2.168,3.75504 13.5316,-7.8125 -2.168,-3.75504 z m 18.7734,-10.83885 10.2539,17.7603 4.0595,-2.34375 -10.2539,-17.7603 z m 5.4803,-3.16405 10.2539,17.7603 3.8566,-2.2266 -10.2539,-17.7603 z m 4.364,-2.51955 4.9219,8.52494 9.3239,6.93066 4.0595,-2.34375 -18.0347,-13.2681 z m 4.7699,-2.7539 5.1758,8.96473 8.9346,6.56902 -10.2539,-17.7603 z m 5.2774,-3.0469 10.2539,17.7603 3.8565,-2.22655 -10.2539,-17.7603 z m 4.3639,-2.5195 4.9219,8.52494 9.3239,6.93066 4.0595,-2.34375 -18.0347,-13.2681 z m 4.7699,-2.7539 5.1758,8.96473 8.9347,6.56897 -10.2539,-17.7603 z m 35.8589,-20.70315 2.2852,3.95802 11.5018,-6.6406 -2.2851,-3.95802 z m 12.5168,-7.22655 10.2539,17.7603 3.8565,-2.22655 -10.2539,-17.7603 z m 4.3639,-2.51955 4.9219,8.52494 9.3238,6.93071 4.0595,-2.34375 -18.0345,-13.26815 z m 4.7699,-2.7539 5.1758,8.96473 8.9346,6.56902 -10.2539,-17.7603 z m 4.7699,-2.7539 2.168,3.75504 13.5316,-7.8125 -2.1679,-3.75504 z m 18.7735,-10.83885 10.2539,17.7603 4.0595,-2.34375 -10.2539,-17.7603 z m 5.4804,-3.1641 10.2539,17.7603 3.8565,-2.22655 -10.254,-17.7603 z m 4.3639,-2.5195 4.9218,8.52494 9.3239,6.93066 4.0595,-2.34375 -18.0346,-13.2681 z m 4.7698,-2.7539 5.1758,8.96473 8.9347,6.56897 -10.2539,-17.7603 z m 5.2774,-3.0469 10.2539,17.7603 3.8565,-2.22655 -10.038,-17.38649 -0.862,-7.6e-4 z m 4.7487,-1.85306 4.5371,7.8585 9.3239,6.93066 4.0595,-2.34375 -16.9168,-12.4453 z m 6.3597,-2.1e-4 3.2012,5.5446 8.9347,6.56897 -6.9941,-12.11422 z m -152.6546,89.25835 7.7929,13.49782 4.1272,-2.3828 -7.793,-13.49782 z m 110.0782,-63.5537 7.793,13.49782 4.1272,-2.38285 -7.793,-13.49782 z m -138.621,80.30352 3e-4,5.53199 2.7022,4.68026 4.0595,-2.34375 -5.0977,-8.8294 z m 107.6831,-62.1709 5.0977,8.8294 4.0595,-2.34375 -5.0977,-8.8294 z m 80.5173,-43.83674 c 0.2659,0.89423 0.5253,1.7888 1.0305,2.6639 l 4.161,-2.40235 c -0.051,-0.0875 -0.064,-0.17534 -0.1111,-0.26286 z m -184.681,107.08795 2.2852,3.95801 5.5818,-3.22265 -2.2852,-3.95801 z m 110.0783,-63.5537 2.2851,3.95801 5.5818,-3.22265 -2.2851,-3.95801 z m -18.4099,13.4255 c 1.4323,2.4808 3.423,4.15807 5.9722,5.03178 2.5588,0.83811 4.9319,0.62569 7.1195,-0.63736 2.571,-1.48435 4.0491,-3.58564 4.4344,-6.30391 l -4.5238,-0.72601 c -0.1523,1.35086 -0.8711,2.39737 -2.1566,3.13957 -1.0375,0.599 -2.2148,0.61714 -3.532,0.0545 -1.2946,-0.57567 -2.3455,-1.56261 -3.1528,-2.96089 z m 94.3166,-53.82224 c 1.4799,2.30294 3.4395,3.84784 5.8785,4.63483 2.439,0.78695 4.6846,0.58803 6.7369,-0.59687 2.1425,-1.23695 3.4567,-3.15343 3.9426,-5.74939 0.091,-0.48279 -0.018,-0.94993 0.01,-1.42766 l -4.5799,0.001 c 0,0.11725 0.038,0.23465 0.027,0.3519 -0.1037,1.38292 -0.6517,2.36088 -1.644,2.93378 -0.9021,0.52085 -1.9453,0.53677 -3.1298,0.0479 -1.1973,-0.51152 -2.2123,-1.38392 -3.0447,-2.61738 z m -189.5036,115.04361 10e-5,5.13295 c 1.3534,-1.30181 2.3636,-2.79731 2.6347,-4.71006 z m 2.8932,-1.39525 2.2852,3.95802 11.5018,-6.6406 -2.2851,-3.95802 z m 110.0783,-63.5537 2.2851,3.95802 11.5019,-6.6406 -2.2852,-3.95802 z m -109.0046,70.74157 2.2656,3.92418 c 0.9923,-0.5729 2.1133,-0.55854 3.3627,0.0432 1.2721,0.58867 2.3118,1.58213 3.1191,2.98039 0.8073,1.39827 1.1478,2.79542 1.0216,4.19139 -0.1037,1.38291 -0.6517,2.36088 -1.644,2.93378 -0.9021,0.52085 -1.9453,0.53677 -3.1298,0.0479 -1.1974,-0.51151 -2.2123,-1.38392 -3.0447,-2.61737 l -4.1948,2.4219 c 1.4799,2.30293 3.4394,3.84789 5.8784,4.63483 2.439,0.78699 4.6847,0.58803 6.737,-0.59687 2.1425,-1.23695 3.4567,-3.15344 3.9426,-5.74939 0.4954,-2.63152 0.027,-5.18763 -1.4054,-7.66843 -1.4323,-2.4808 -3.4117,-4.16461 -5.9383,-5.05132 -2.5042,-0.89971 -4.8275,-0.73108 -6.97,0.50587 z m 16.238,-9.375 c -2.12,1.22395 -3.4715,3.10184 -4.0545,5.63358 -0.5736,2.49619 -0.2331,4.96087 1.0213,7.39401 l 4.1948,-2.42185 c -0.6295,-1.3506 -0.8421,-2.65621 -0.6376,-3.91692 0.1912,-1.28315 0.7718,-2.20474 1.7416,-2.76464 1.2854,-0.74215 2.5447,-0.85276 3.7777,-0.33176 l 1.6137,-4.31452 c -2.5112,-1.01597 -5.0635,-0.7753 -7.657,0.7221 z m 93.8402,-54.1787 2.2657,3.92418 c 0.9923,-0.57295 2.1132,-0.55854 3.3627,0.0432 1.272,0.58867 2.3117,1.58213 3.119,2.98039 0.8073,1.39827 1.1478,2.79542 1.0216,4.19139 -0.1036,1.38291 -0.6516,2.36083 -1.644,2.93378 -0.902,0.5208 -1.9454,0.53682 -3.1297,0.0479 -1.1974,-0.51151 -2.2123,-1.38397 -3.0447,-2.61737 l -4.1948,2.42185 c 1.4799,2.30293 3.4394,3.84789 5.8784,4.63488 2.439,0.78694 4.6847,0.58798 6.7369,-0.59687 2.1426,-1.237 3.4567,-3.15344 3.9426,-5.74939 0.4955,-2.63152 0.027,-5.18768 -1.4053,-7.66848 -1.4323,-2.4808 -3.4117,-4.16456 -5.9384,-5.05127 -2.5042,-0.89971 -4.8274,-0.73113 -6.97,0.50587 z m 16.238,-9.375 c -2.1198,1.2239 -3.4714,3.10179 -4.0545,5.63358 -0.5735,2.49619 -0.2331,4.96087 1.0213,7.39401 l 4.1948,-2.42185 c -0.6294,-1.3506 -0.8419,-2.65626 -0.6376,-3.91692 0.1914,-1.2832 0.7719,-2.20479 1.7416,-2.76464 1.2856,-0.7422 2.5448,-0.85276 3.7778,-0.33176 l 1.6136,-4.31452 c -2.5111,-1.01597 -5.0634,-0.7753 -7.657,0.7221 z m -126.8041,73.25548 c -1.9205,1.31735 -3.0727,3.23898 -3.479,5.74784 l -5e-4,1.11219 c -0.1186,2.13641 0.2758,4.23185 1.4496,6.26489 l 4.161,-2.40235 c -0.7422,-1.2855 -1.0935,-2.57117 -1.054,-3.85693 0.04,-1.28577 0.4357,-2.26623 1.1885,-2.94146 z m 110.0783,-63.5537 c -1.9387,1.32978 -3.1058,3.26654 -3.5014,5.8104 -0.3862,2.50831 0.1044,4.94644 1.4716,7.31447 l 4.1609,-2.40235 c -0.7421,-1.2855 -1.0935,-2.57112 -1.054,-3.85688 0.039,-1.28572 0.4356,-2.26623 1.1885,-2.94146 z m -86.2574,49.89091 2.2852,3.95801 11.5018,-6.6406 -2.2851,-3.95801 z m 12.5168,-7.22655 10.2539,17.76029 3.8565,-2.22655 -10.2539,-17.76029 z m 4.364,-2.51955 4.9218,8.52494 9.3239,6.93065 4.0595,-2.34375 -18.0346,-13.26809 z m 4.7699,-2.7539 5.1757,8.96472 8.9347,6.56902 -10.2539,-17.76029 z m 4.7699,-2.7539 2.1679,3.75504 13.5317,-7.8125 -2.168,-3.75504 z m 18.7734,-10.83885 10.2539,17.76029 4.0595,-2.34375 -10.2539,-17.76029 z m 5.4804,-3.1641 10.2539,17.76029 3.8565,-2.22655 -10.2539,-17.76029 z m 4.3639,-2.5195 4.9219,8.52494 9.3238,6.93065 4.0595,-2.34375 -18.0346,-13.26809 z m 4.7699,-2.7539 5.1758,8.96472 8.9347,6.56897 -10.2539,-17.76029 z m 5.2774,-3.0469 10.2539,17.76029 3.8565,-2.22655 -10.2539,-17.76029 z m 4.3639,-2.51955 4.9219,8.52494 9.3238,6.9307 4.0595,-2.34375 -18.0345,-13.26814 z m 4.7699,-2.7539 5.1758,8.96472 8.9346,6.56902 -10.2539,-17.76029 z m 35.8589,-20.7031 2.2851,3.95801 11.502,-6.64065 -2.2852,-3.95801 z m 12.5167,-7.22655 10.2539,17.76029 3.8566,-2.2266 -10.2539,-17.76029 z m 4.364,-2.51955 4.9219,8.52494 9.3239,6.93065 4.0595,-2.34375 -18.0347,-13.26809 z m 4.7699,-2.7539 5.1758,8.96472 8.9346,6.56902 -10.2539,-17.76029 z m 4.7699,-2.7539 2.168,3.75504 13.5316,-7.8125 -2.168,-3.75504 z m 18.7735,-10.8389 10.2539,17.76029 4.0595,-2.34375 -10.2539,-17.76029 z m 5.4803,-3.16405 10.2539,17.76029 3.8565,-2.22655 -10.2539,-17.76029 z m 4.364,-2.51955 4.9219,8.52494 9.3238,6.9307 4.0595,-2.34375 -18.0347,-13.26809 z m 4.7699,-2.7539 5.1758,8.96472 8.9346,6.56902 -10.2539,-17.76029 z m 5.2773,-3.04685 10.2539,17.76029 3.8565,-2.22655 -10.2539,-17.76029 z m 4.364,-2.51955 4.9219,8.52494 9.3238,6.93065 4.0595,-2.3437 -18.0346,-13.26814 z m 4.7699,-2.7539 5.1758,8.96472 8.9346,6.56902 -10.2539,-17.76029 z m 9.5847,-4.23472 c -0.4853,0.89463 -0.8714,1.86752 -1.0482,3.00481 -0.3861,2.50826 0.1044,4.94644 1.4716,7.31447 l 4.161,-2.40235 c -0.7422,-1.2855 -1.0936,-2.57112 -1.0541,-3.85688 0.039,-1.28577 0.4357,-2.26623 1.1885,-2.94146 l -0.6455,-1.11805 z m 4.7497,2.1e-4 0.457,0.7916 c 0.9924,-0.57295 2.1133,-0.55859 3.3628,0.0431 1.272,0.58867 2.3117,1.58218 3.119,2.98044 0.8073,1.39827 1.1478,2.79537 1.0216,4.19134 -0.1036,1.38291 -0.6517,2.36088 -1.644,2.93383 -0.9021,0.5208 -1.9454,0.53677 -3.1297,0.0478 -1.1974,-0.51151 -2.2124,-1.38392 -3.0448,-2.61732 l -4.1948,2.42185 c 1.48,2.30293 3.4395,3.84789 5.8784,4.63488 2.4391,0.78694 4.6847,0.58803 6.737,-0.59687 2.1425,-1.237 3.4567,-3.15344 3.9426,-5.74939 0.4954,-2.63152 0.027,-5.18768 -1.4053,-7.66848 -0.238,-0.41222 -0.5817,-0.67021 -0.8499,-1.0384 -1.3214,-0.23196 -2.6735,-0.37387 -4.0633,-0.3739 z m -165.0145,96.91298 7.793,13.49782 4.1271,-2.3828 -7.793,-13.49782 z m 110.0782,-63.5537 7.793,13.49782 4.1271,-2.3828 -7.7929,-13.49782 z m -141.0162,81.68638 5.0977,8.82939 4.0595,-2.34375 -5.0977,-8.82939 z m 110.0783,-63.5537 5.0976,8.82939 4.0595,-2.34375 -5.0976,-8.82939 z m -104.1637,63.2512 2.2852,3.95801 5.5817,-3.22265 -2.2851,-3.95801 z m 110.0782,-63.5537 2.2852,3.95801 5.5819,-3.2227 -2.2852,-3.95801 z m -145.9726,86.07027 v 2.01172 c 0,1.2864 0.1299,2.53727 0.3293,3.76562 l 5.2225,3.83858 z m 17.4845,-9.09106 c 1.4323,2.4808 3.423,4.15806 5.9722,5.03178 2.5588,0.8381 4.9319,0.62569 7.1196,-0.63736 2.5709,-1.48435 4.049,-3.58565 4.4343,-6.30392 l -4.5238,-0.726 c -0.1522,1.35086 -0.8712,2.39742 -2.1566,3.13957 -1.0374,0.59895 -2.2147,0.61708 -3.5319,0.0545 -1.2946,-0.57562 -2.3455,-1.56262 -3.1528,-2.96089 z m 110.0782,-63.5537 c 1.4323,2.4808 3.4231,4.15806 5.9722,5.03178 2.5588,0.8381 4.932,0.62564 7.1196,-0.63736 2.5711,-1.4844 4.0491,-3.5857 4.4343,-6.30392 l -4.5237,-0.726 c -0.1523,1.35086 -0.8712,2.39737 -2.1567,3.13957 -1.0373,0.5989 -2.2147,0.61708 -3.5318,0.0545 -1.2947,-0.57562 -2.3456,-1.56262 -3.1529,-2.96089 z m 110.0783,-63.5537 c 1.4323,2.4808 3.4231,4.15801 5.9723,5.03173 1.5522,0.50849 3.0128,0.49779 4.4285,0.23297 -2.7611,-2.60383 -6.1586,-4.52495 -9.9476,-5.5264 z M 1173.6552,457.0414 c 0.3498,1.74753 0.9125,3.41345 1.6289,4.99322 l 2.8907,-1.66895 z m 34.8119,-19.44234 2.2851,3.95801 11.5019,-6.6406 -2.2852,-3.95801 z m 110.0782,-63.5537 2.2852,3.95801 11.5019,-6.64065 -2.2851,-3.95801 z m -109.0045,70.74157 2.2656,3.92418 c 0.9924,-0.57295 2.1133,-0.55858 3.3628,0.0431 1.272,0.58867 2.3117,1.58217 3.119,2.98044 0.8072,1.39827 1.1478,2.79537 1.0216,4.19134 -0.1036,1.38291 -0.6517,2.36088 -1.644,2.93383 -0.9021,0.5208 -1.9454,0.53677 -3.1297,0.0478 -1.1974,-0.5115 -2.2124,-1.38392 -3.0448,-2.61732 l -4.1948,2.42185 c 1.48,2.30293 3.4395,3.84789 5.8784,4.63488 2.439,0.78694 4.6846,0.58803 6.7369,-0.59687 2.1426,-1.237 3.4568,-3.15349 3.9427,-5.7494 0.4954,-2.63151 0.027,-5.18767 -1.4054,-7.66847 -1.4322,-2.48079 -3.4117,-4.16456 -5.9384,-5.05128 -2.504,-0.89975 -4.8274,-0.73112 -6.9699,0.50588 z m 16.2379,-9.375 c -2.1199,1.22395 -3.4714,3.10183 -4.0545,5.63358 -0.5735,2.4962 -0.2331,4.96087 1.0213,7.394 l 4.1949,-2.4219 c -0.6294,-1.3506 -0.842,-2.65621 -0.6377,-3.91686 0.1914,-1.2832 0.7719,-2.20474 1.7417,-2.76464 1.2855,-0.7422 2.5448,-0.85281 3.7777,-0.33176 l 1.6136,-4.31453 c -2.511,-1.01602 -5.0634,-0.77529 -7.657,0.72211 z m 93.8404,-54.17875 2.2656,3.92418 c 0.9923,-0.5729 2.1132,-0.55848 3.3627,0.0432 1.2721,0.58867 2.3117,1.58217 3.119,2.98044 0.8073,1.39827 1.1479,2.79537 1.0216,4.19134 -0.1037,1.38296 -0.6516,2.36088 -1.6439,2.93378 -0.9022,0.52085 -1.9454,0.53682 -3.1298,0.0479 -1.1975,-0.51145 -2.2124,-1.38392 -3.0447,-2.61737 l -4.1949,2.4219 c 1.4801,2.30288 3.4395,3.84789 5.8784,4.63488 2.4391,0.78694 4.6848,0.58798 6.7371,-0.59692 2.1424,-1.23695 3.4566,-3.15339 3.9425,-5.74935 0.4953,-2.63146 0.027,-5.18767 -1.4053,-7.66847 -1.4323,-2.48079 -3.4119,-4.16451 -5.9385,-5.05128 -2.5041,-0.8997 -4.8274,-0.73112 -6.9698,0.50583 z m 16.238,-9.375 c -2.1201,1.224 -3.4716,3.10188 -4.0546,5.63363 -0.5736,2.4962 -0.2331,4.96087 1.0213,7.394 l 4.1948,-2.4219 c -0.6294,-1.3506 -0.842,-2.65621 -0.6376,-3.91686 0.1913,-1.2832 0.7719,-2.20479 1.7417,-2.76469 1.2855,-0.7422 2.5447,-0.85276 3.7777,-0.33176 l 1.6136,-4.31448 c -2.5111,-1.01602 -5.0634,-0.77534 -7.6569,0.72206 z m -126.8042,73.25553 c -1.9386,1.32972 -3.1057,3.26654 -3.5014,5.8104 -0.3861,2.50826 0.1044,4.94643 1.4716,7.31447 l 4.161,-2.40235 c -0.7422,-1.28551 -1.0936,-2.57112 -1.0541,-3.85688 0.04,-1.28577 0.4357,-2.26624 1.1885,-2.94146 z m 110.0782,-63.5537 c -1.9386,1.32977 -3.1058,3.26659 -3.5014,5.8104 -0.3862,2.50831 0.1044,4.94643 1.4716,7.31447 l 4.161,-2.40235 c -0.7422,-1.28551 -1.0936,-2.57112 -1.0541,-3.85688 0.04,-1.28577 0.4357,-2.26624 1.1885,-2.94146 z m -142.7875,82.52861 c 1.2149,2.09287 2.7462,3.97033 4.5316,5.57935 l -3.5488,-6.14675 z m 1.4902,-0.86035 4.3545,7.5422 c 3.6024,2.79299 8.0489,4.53357 12.9107,4.80341 l -16.9946,-12.50186 z m 4.77,-2.75395 5.1758,8.96472 8.421,6.19122 c 0.07,6.1e-4 0.1383,0.0102 0.2089,0.0102 l 0.093,5.5e-4 -10.042,-17.39324 z m 5.2773,-3.04685 10.2539,17.76029 3.8565,-2.22655 -10.2539,-17.76029 z m 4.364,-2.51955 4.9218,8.52494 9.3238,6.9307 4.0595,-2.34375 -18.0345,-13.26814 z m 4.7699,-2.7539 5.1757,8.96472 8.9347,6.56902 -10.2539,-17.76029 z m 35.8588,-20.7031 2.2851,3.95801 11.502,-6.64065 -2.2852,-3.95801 z m 12.5168,-7.2266 10.2539,17.76029 3.8565,-2.22655 -10.2539,-17.76029 z m 4.3639,-2.5195 4.9219,8.52494 9.3239,6.93065 4.0595,-2.34375 -18.0346,-13.26809 z m 4.7699,-2.7539 5.1758,8.96472 8.9347,6.56897 -10.2539,-17.76029 z m 4.7699,-2.7539 2.168,3.75503 13.5316,-7.8125 -2.1679,-3.75503 z m 18.7735,-10.8389 10.2539,17.76029 4.0595,-2.34375 -10.2539,-17.76029 z m 5.4803,-3.16405 10.2539,17.76029 3.8565,-2.22655 -10.2539,-17.76029 z m 4.364,-2.51955 4.9219,8.52494 9.3238,6.9307 4.0595,-2.34375 -18.0345,-13.26814 z m 4.7699,-2.7539 5.1758,8.96472 8.9346,6.56902 -10.2539,-17.76029 z m 5.2773,-3.04685 10.2539,17.76029 3.8566,-2.2266 -10.2539,-17.76029 z m 4.364,-2.51955 4.9219,8.52494 9.3239,6.93065 4.0595,-2.34375 -18.0347,-13.26809 z m 4.7699,-2.7539 5.1758,8.96472 8.9346,6.56902 -10.2539,-17.76029 z m 35.8589,-20.70315 2.2852,3.95801 11.5018,-6.6406 -2.2851,-3.95801 z m 12.5168,-7.22655 10.2539,17.76029 3.8565,-2.22655 -10.2539,-17.76029 z m 4.3639,-2.5195 4.9218,8.52494 9.3239,6.93065 4.0595,-2.34375 -18.0346,-13.26809 z m 4.7699,-2.75395 5.1758,8.96472 8.9346,6.56902 -10.2539,-17.76029 z m 4.7699,-2.7539 2.168,3.75503 13.5316,-7.8125 -2.1679,-3.75503 z m 18.7735,-10.83885 10.2539,17.76029 4.0595,-2.34375 -10.2539,-17.76029 z m 5.4803,-3.16405 10.2539,17.76029 3.8566,-2.2266 -10.2539,-17.76029 z m 4.364,-2.51955 4.9218,8.52494 9.3239,6.93065 4.0595,-2.34375 -18.0346,-13.26809 z m 4.7699,-2.7539 5.1757,8.96472 8.9347,6.56902 -10.2539,-17.76029 z m 5.2773,-3.04685 10.2539,17.76029 3.8565,-2.2266 -10.2539,-17.76029 z m 4.3639,-2.51955 4.9219,8.52494 9.3239,6.93065 1.8809,-1.08595 -2e-4,-2.85957 -15.8558,-11.66632 z m 4.7699,-2.7539 5.1758,8.96472 6.1802,4.54411 9e-4,-2.18592 c 0,-0.2065 -0.025,-0.40632 -0.031,-0.61151 l -7.4698,-12.93795 z m 8.5686,0.25136 c -0.029,1.98507 0.3453,3.93792 1.4395,5.8332 l 0.6428,-0.3711 c -0.475,-1.92417 -1.1627,-3.76309 -2.0823,-5.4621 z m -159.2486,92.42711 7.7929,13.49782 4.1272,-2.3828 -7.793,-13.49782 z m 110.0782,-63.5537 7.793,13.49782 4.1271,-2.3828 -7.793,-13.49782 z m -141.0162,81.68638 5.0977,8.8294 4.0595,-2.34375 -5.0977,-8.8294 z m 110.0782,-63.5537 5.0977,8.8294 4.0595,-2.34375 -5.0977,-8.8294 z m -104.1636,63.25115 2.2852,3.95801 5.5818,-3.22265 -2.2852,-3.95801 z m 110.0783,-63.5537 2.2851,3.95801 5.5818,-3.22265 -2.2851,-3.95801 z m -128.4883,76.97926 c 1.4323,2.4808 3.4232,4.15801 5.9723,5.03172 2.5588,0.83811 4.9319,0.6257 7.1195,-0.6373 2.5711,-1.4844 4.0492,-3.5857 4.4344,-6.30392 l -4.5238,-0.72601 c -0.1522,1.35082 -0.8711,2.39738 -2.1567,3.13958 -1.0374,0.59895 -2.2147,0.61713 -3.5318,0.0545 -1.2946,-0.57567 -2.3456,-1.56262 -3.1529,-2.96089 z m 110.0783,-63.5537 c 1.4323,2.4808 3.4231,4.15801 5.9723,5.03172 2.5587,0.83816 4.9319,0.6257 7.1196,-0.63735 2.5709,-1.48435 4.049,-3.58565 4.4342,-6.30387 l -4.5237,-0.72606 c -0.1523,1.35087 -0.8711,2.39738 -2.1566,3.13958 -1.0375,0.599 -2.2149,0.61718 -3.532,0.0545 -1.2945,-0.57567 -2.3455,-1.56262 -3.1528,-2.96089 z m 94.3167,-53.82229 c 0.2052,0.31926 0.4912,0.51045 0.7149,0.8006 -0.063,-0.36748 -0.1242,-0.7343 -0.204,-1.09555 z m -186.6105,113.64841 2.2852,3.95801 11.5019,-6.64065 -2.2851,-3.95801 z m 110.0784,-63.55375 2.2851,3.95801 11.5019,-6.6406 -2.2852,-3.95801 z m -109.0046,70.74157 2.2656,3.92417 c 0.9923,-0.5729 2.1132,-0.55848 3.3627,0.0432 1.2721,0.58867 2.3117,1.58217 3.119,2.98044 0.8073,1.39826 1.1479,2.79536 1.0217,4.19133 -0.1038,1.38297 -0.6517,2.36088 -1.644,2.93378 -0.9021,0.52085 -1.9453,0.53677 -3.1298,0.0479 -1.1974,-0.51146 -2.2123,-1.38392 -3.0447,-2.61738 l -4.1948,2.4219 c 1.4799,2.30293 3.4394,3.84789 5.8785,4.63484 2.4389,0.787 4.6846,0.58802 6.7369,-0.59688 2.1425,-1.23695 3.4567,-3.15344 3.9425,-5.74934 0.4954,-2.63151 0.027,-5.18767 -1.4053,-7.66847 -1.4323,-2.4808 -3.4118,-4.16456 -5.9384,-5.05128 -2.5041,-0.89976 -4.8274,-0.73112 -6.9699,0.50583 z m 16.238,-9.375 c -2.1201,1.224 -3.4715,3.10183 -4.0546,5.63363 -0.5735,2.49615 -0.233,4.96082 1.0213,7.394 l 4.1949,-2.4219 c -0.6295,-1.3506 -0.842,-2.65626 -0.6377,-3.91687 0.1914,-1.28325 0.7719,-2.20479 1.7417,-2.76469 1.2854,-0.74215 2.5447,-0.85271 3.7777,-0.33175 l 1.6137,-4.31453 c -2.5111,-1.01597 -5.0635,-0.77529 -7.657,0.72211 z m 93.8402,-54.1787 2.2657,3.92417 c 0.9923,-0.57295 2.1131,-0.55848 3.3627,0.0432 1.272,0.58867 2.3117,1.58212 3.119,2.98039 0.8073,1.39826 1.1478,2.79541 1.0216,4.19138 -0.1037,1.38297 -0.6516,2.36083 -1.644,2.93378 -0.9021,0.52085 -1.9454,0.53682 -3.1297,0.0479 -1.1975,-0.51146 -2.2123,-1.38397 -3.0447,-2.61738 l -4.1949,2.4219 c 1.4799,2.30293 3.4394,3.84789 5.8785,4.63484 2.439,0.78695 4.6847,0.58797 6.7369,-0.59688 2.1426,-1.237 3.4567,-3.15344 3.9426,-5.74939 0.4955,-2.63151 0.027,-5.18762 -1.4054,-7.66842 -1.4322,-2.4808 -3.4116,-4.16461 -5.9383,-5.05133 -2.5042,-0.89971 -4.8274,-0.73112 -6.97,0.50588 z m 16.238,-9.375 c -2.1199,1.22395 -3.4715,3.10183 -4.0545,5.63358 -0.5735,2.49619 -0.2331,4.96087 1.0213,7.394 l 4.1948,-2.42185 c -0.6294,-1.3506 -0.8419,-2.65626 -0.6376,-3.91692 0.1914,-1.2832 0.7719,-2.20479 1.7416,-2.76464 1.2856,-0.7422 2.5448,-0.85276 3.7778,-0.33175 l 1.6136,-4.31453 c -2.5111,-1.01597 -5.0634,-0.77529 -7.657,0.72211 z m -126.8042,73.25553 c -1.9385,1.32972 -3.1057,3.26654 -3.5014,5.8104 -0.3861,2.50825 0.1044,4.94643 1.4716,7.31447 l 4.161,-2.40235 c -0.7422,-1.28551 -1.0935,-2.57117 -1.054,-3.85689 0.04,-1.28581 0.4357,-2.26628 1.1885,-2.94145 z m 110.0784,-63.55375 c -1.9387,1.32977 -3.1058,3.26654 -3.5014,5.8104 -0.3862,2.5083 0.1043,4.94648 1.4715,7.31452 l 4.161,-2.40235 c -0.7422,-1.28551 -1.0935,-2.57117 -1.054,-3.85694 0.039,-1.28571 0.4356,-2.26623 1.1885,-2.94145 z m -149.5381,86.42606 3.2743,-5.1e-4 -0.8184,-1.41744 z m 3.8768,-2.23825 1.2919,2.2378 5.1427,0.001 -2.5782,-4.46544 z m 4.3639,-2.51955 2.7471,4.75806 4.2036,-2.9e-4 -6.68,-4.91402 z m 4.7699,-2.7539 4.3369,7.51175 5.1427,10e-4 -5.6231,-9.7394 z m 5.2773,-3.04685 6.0957,10.55807 5.1428,10e-4 -7.3819,-12.78571 z m 4.364,-2.51955 4.9219,8.52493 6.1264,4.55261 7.2112,0.002 -17.9888,-13.23585 z m 4.7699,-2.7539 5.1758,8.96471 8.9346,6.56902 -10.2539,-17.76028 z m 35.8589,-20.70315 2.2852,3.958 11.5018,-6.6406 -2.2851,-3.958 z m 12.5168,-7.22655 10.2539,17.76028 3.8565,-2.22655 -10.2539,-17.76028 z m 4.364,-2.51955 4.9218,8.52493 9.3238,6.9307 4.0595,-2.34375 -18.0345,-13.26813 z m 4.7699,-2.7539 5.1757,8.96471 8.9347,6.56902 -10.2539,-17.76028 z m 4.7699,-2.7539 2.1679,3.75503 13.5317,-7.8125 -2.168,-3.75503 z m 18.7734,-10.83885 10.2539,17.76028 4.0595,-2.34375 -10.2539,-17.76028 z m 5.4803,-3.16405 10.2539,17.76028 3.8566,-2.2266 -10.2539,-17.76028 z m 4.364,-2.51955 4.9219,8.52493 9.3238,6.93065 4.0595,-2.34375 -18.0346,-13.26808 z m 4.7699,-2.7539 5.1758,8.96471 8.9346,6.56902 -10.2539,-17.76028 z m 5.2774,-3.0469 10.2539,17.76028 3.8565,-2.22655 -10.2539,-17.76028 z m 4.3639,-2.5195 4.9218,8.52493 9.3239,6.93065 4.0595,-2.34375 -18.0346,-13.26808 z m 4.7699,-2.7539 5.1757,8.96471 8.9347,6.56897 -10.2539,-17.76028 z m 35.8589,-20.70315 2.2851,3.958 11.5019,-6.6406 -2.2852,-3.958 z m 12.5167,-7.22655 10.2539,17.76028 3.8565,-2.22655 -10.2539,-17.76028 z m 4.364,-2.51955 4.9219,8.52493 9.3239,6.93065 4.0595,-2.34375 -18.0347,-13.26808 z m 4.7699,-2.7539 5.1758,8.96471 8.9346,6.56902 -10.2539,-17.76028 z m 4.7699,-2.7539 2.168,3.75503 13.5316,-7.8125 -2.168,-3.75503 z m 18.7734,-10.83885 8.0069,13.86824 -10e-5,-9.37513 -3.9473,-6.83686 z m 5.4804,-3.1641 2.5264,4.3758 6e-4,-5.83475 z m -127.1351,79.08477 7.793,13.49781 4.1272,-2.38285 -7.793,-13.49781 z m 110.0784,-63.55375 7.7929,13.49781 4.1271,-2.3828 -7.7929,-13.49781 z m -141.0163,81.68637 5.0977,8.8294 4.0595,-2.34375 -5.0977,-8.8294 z m 110.0783,-63.5537 5.0976,8.8294 4.0595,-2.34375 -5.0976,-8.8294 z m -104.1637,63.25121 2.2852,3.95801 5.5818,-3.22265 -2.2852,-3.95801 z m 110.0782,-63.5537 2.2852,3.95801 5.5818,-3.22265 -2.2852,-3.95801 z m -128.4882,76.97926 c 1.4323,2.4808 3.423,4.15806 5.9723,5.03172 2.5588,0.8381 4.9319,0.62569 7.1196,-0.63736 2.5709,-1.48435 4.049,-3.58564 4.4343,-6.30392 l -4.5238,-0.726 c -0.1523,1.35092 -0.8712,2.39742 -2.1566,3.13957 -1.0375,0.599 -2.2148,0.61714 -3.532,0.0545 -1.2945,-0.57567 -2.3455,-1.56262 -3.1528,-2.96088 z m 110.0783,-63.55375 c 1.4323,2.4808 3.4231,4.15806 5.9722,5.03177 2.5588,0.8381 4.932,0.62564 7.1196,-0.63736 2.5711,-1.4844 4.0491,-3.58569 4.4343,-6.30392 l -4.5237,-0.726 c -0.1523,1.35087 -0.8712,2.39737 -2.1567,3.13957 -1.0374,0.59895 -2.2147,0.61709 -3.5318,0.0545 -1.2947,-0.57562 -2.3456,-1.56262 -3.1529,-2.96088 z m -92.2937,59.82612 2.2851,3.958 11.5019,-6.6406 -2.2852,-3.958 z m 110.0782,-63.5537 2.2852,3.958 11.5018,-6.6406 -2.2851,-3.958 z m -109.0045,70.74157 2.2656,3.92417 c 0.9924,-0.57295 2.1132,-0.55853 3.3627,0.0432 1.2721,0.58861 2.3118,1.58212 3.1191,2.98039 0.8073,1.39826 1.1478,2.79536 1.0215,4.19138 -0.1036,1.38292 -0.6516,2.36083 -1.6439,2.93378 -0.9022,0.52085 -1.9454,0.53677 -3.1298,0.0479 -1.1974,-0.5115 -2.2123,-1.38397 -3.0447,-2.61737 l -4.1948,2.42185 c 0.4153,0.64635 0.9566,1.09339 1.4474,1.62034 l 13.7818,-3.4e-4 c 0.6404,-0.94843 1.0896,-2.0537 1.3288,-3.33138 0.4954,-2.63151 0.027,-5.18767 -1.4053,-7.66847 -1.4323,-2.4808 -3.4118,-4.16456 -5.9385,-5.05128 -2.5041,-0.89971 -4.8275,-0.73107 -6.9699,0.50588 z m 16.2379,-9.375 c -2.1199,1.22395 -3.4714,3.10183 -4.0545,5.63357 -0.5735,2.4962 -0.2331,4.96088 1.0214,7.39401 l 4.1947,-2.42185 c -0.6294,-1.35061 -0.842,-2.65622 -0.6376,-3.91692 0.1913,-1.28315 0.7719,-2.20474 1.7417,-2.76464 1.2855,-0.7422 2.5447,-0.85276 3.7777,-0.33175 l 1.6136,-4.31453 c -2.5111,-1.01598 -5.0634,-0.77529 -7.657,0.72211 z m 93.8403,-54.1787 2.2656,3.92417 c 0.9923,-0.5729 2.1133,-0.55853 3.3628,0.0431 1.272,0.58871 2.3117,1.58217 3.119,2.98044 0.8073,1.39826 1.1478,2.79541 1.0216,4.19133 -0.1037,1.38297 -0.6517,2.36093 -1.644,2.93383 -0.9021,0.5208 -1.9453,0.53677 -3.1297,0.0478 -1.1975,-0.51145 -2.2124,-1.38392 -3.0448,-2.61732 l -4.1948,2.42185 c 1.48,2.30293 3.4394,3.84794 5.8784,4.63489 2.439,0.78699 4.6847,0.58802 6.737,-0.59688 2.1425,-1.237 3.4568,-3.15348 3.9426,-5.74939 0.4954,-2.63151 0.027,-5.18767 -1.4053,-7.66847 -1.4323,-2.4808 -3.4118,-4.16456 -5.9384,-5.05128 -2.5041,-0.89976 -4.8275,-0.73112 -6.97,0.50588 z m 16.238,-9.375 c -2.12,1.22395 -3.4714,3.10178 -4.0545,5.63357 -0.5735,2.49615 -0.233,4.96083 1.0213,7.39401 l 4.1948,-2.4219 c -0.6294,-1.35061 -0.842,-2.65622 -0.6376,-3.91687 0.1913,-1.2832 0.7718,-2.20474 1.7416,-2.76464 1.2855,-0.7422 2.5447,-0.85276 3.7777,-0.33175 l 1.6137,-4.31453 c -2.5111,-1.01603 -5.0635,-0.77529 -7.657,0.72211 z m -126.8041,73.25547 c -1.9387,1.32978 -3.1058,3.2666 -3.5014,5.8104 -0.3862,2.50831 0.1044,4.94644 1.4716,7.31448 l 4.1609,-2.4023 c -0.7422,-1.28551 -1.0936,-2.57112 -1.054,-3.85694 0.039,-1.28571 0.4357,-2.26623 1.1885,-2.94146 z m 110.0782,-63.5537 c -1.9385,1.32973 -3.1057,3.26655 -3.5014,5.8104 -0.3861,2.50826 0.1044,4.94644 1.4716,7.31448 l 4.161,-2.40235 c -0.7422,-1.28551 -1.0936,-2.57112 -1.0541,-3.85689 0.04,-1.28576 0.4358,-2.26628 1.1885,-2.94146 z m -136.2804,78.77177 4.8127,-1.3e-4 -1.2031,-2.08387 z m 5.0304,-2.9043 1.6767,2.90422 5.1427,10e-4 -2.9629,-5.13187 z m 4.3639,-2.5195 3.1318,5.42449 4.7243,-9.2e-4 -7.5855,-5.57982 z m 4.77,-2.75395 4.7216,8.17819 5.1417,-6e-4 -6.0068,-10.40414 z m 35.8588,-20.7031 2.2851,3.958 11.502,-6.64065 -2.2852,-3.958 z m 12.5167,-7.22655 10.2539,17.76028 3.8566,-2.2266 -10.2539,-17.76028 z m 4.364,-2.51955 4.9219,8.52493 9.3239,6.93065 4.0595,-2.34375 -18.0346,-13.26808 z m 4.7699,-2.7539 5.1758,8.96471 8.9346,6.56902 -10.2539,-17.76028 z m 4.7699,-2.7539 2.168,3.75503 13.5316,-7.8125 -2.1679,-3.75503 z m 18.7735,-10.8389 10.2539,17.76028 4.0595,-2.34375 -10.2539,-17.76028 z m 5.4803,-3.16405 10.2539,17.76028 3.8565,-2.22655 -10.2539,-17.76028 z m 4.3639,-2.5195 4.9219,8.52493 9.3239,6.93065 4.0595,-2.34375 -18.0346,-13.26808 z m 4.77,-2.75395 5.1758,8.96471 8.9346,6.56902 -10.2539,-17.76028 z m 5.2773,-3.04685 10.2539,17.76028 3.8565,-2.22655 -10.2539,-17.76028 z m 4.364,-2.51955 4.9219,8.52493 9.3238,6.9307 4.0595,-2.34375 -18.0346,-13.26813 z m 4.7699,-2.7539 5.1758,8.96471 8.9346,6.56902 -10.2539,-17.76028 z m 35.8588,-20.7031 2.2852,3.958 11.5019,-6.64065 -2.2851,-3.958 z m 12.5169,-7.2266 8.3086,14.39091 v -8.90612 l -4.4521,-7.71134 z m 4.3639,-2.5195 3.9443,6.83179 10e-5,-4.28507 -3.6738,-2.70297 z m -93.3414,59.57396 7.7929,13.49782 4.1272,-2.3828 -7.793,-13.49782 z m -30.938,18.13268 5.0977,8.8294 4.0595,-2.34375 -5.0977,-8.8294 z m 110.0782,-63.5537 5.0977,8.8294 4.0595,-2.34375 -5.0977,-8.8294 z m -104.1636,63.25121 2.2851,3.958 5.5818,-3.22265 -2.2851,-3.958 z m 110.0783,-63.55375 2.2851,3.958 5.5818,-3.22265 -2.2851,-3.958 z m -128.4882,76.97926 c 1.4322,2.4808 3.423,4.15806 5.9722,5.03177 2.5587,0.83811 4.9319,0.62569 7.1195,-0.63736 2.571,-1.48435 4.0492,-3.5857 4.4344,-6.30392 l -4.5238,-0.726 c -0.1523,1.35087 -0.8711,2.39737 -2.1567,3.13957 -1.0374,0.59895 -2.2147,0.61714 -3.5318,0.0545 -1.2947,-0.57562 -2.3456,-1.56262 -3.1529,-2.96088 z m 110.0782,-63.5537 c 1.4323,2.4808 3.423,4.15806 5.9723,5.03172 2.5587,0.83816 4.9319,0.62569 7.1195,-0.63731 2.571,-1.4844 4.0491,-3.5857 4.4343,-6.30392 l -4.5238,-0.726 c -0.1522,1.35087 -0.8711,2.39737 -2.1566,3.13957 -1.0374,0.59895 -2.2147,0.61709 -3.5319,0.0545 -1.2945,-0.57567 -2.3455,-1.56262 -3.1528,-2.96088 z m -92.2938,59.82612 2.2852,3.958 11.5019,-6.64065 -2.2851,-3.958 z m 110.0783,-63.5537 2.2851,3.958 10.5717,-6.10355 -4e-4,-2.14906 -1.3545,-2.34604 z m -109.0046,70.74157 2.2656,3.92418 c 0.9923,-0.5729 2.1133,-0.55855 3.3628,0.0431 1.272,0.58871 2.3117,1.58216 3.119,2.98043 0.1818,0.31493 0.253,0.62974 0.3875,0.94452 l 5.0358,-3.6e-4 c -0.2562,-1.12833 -0.6279,-2.24776 -1.2623,-3.34651 -1.4323,-2.4808 -3.4118,-4.16456 -5.9384,-5.05128 -2.5041,-0.89975 -4.8274,-0.73111 -6.97,0.50589 z m 16.238,-9.375 c -2.12,1.22395 -3.4714,3.10177 -4.0545,5.63357 -0.5736,2.4962 -0.2331,4.96087 1.0213,7.394 l 4.1949,-2.4219 c -0.6295,-1.3506 -0.842,-2.65626 -0.6377,-3.91687 0.1914,-1.28324 0.7718,-2.20472 1.7416,-2.76462 1.2855,-0.7422 2.5448,-0.85278 3.7778,-0.33176 l 1.6136,-4.31454 c -2.511,-1.01602 -5.0634,-0.77528 -7.657,0.72212 z m 93.8403,-54.17875 2.2657,3.92418 c 0.9923,-0.5729 2.1131,-0.5585 3.3627,0.0432 1.272,0.58866 2.3117,1.58216 3.119,2.98043 0.8072,1.39827 1.1478,2.79536 1.0216,4.19134 -0.1037,1.38297 -0.6517,2.36088 -1.644,2.93378 -0.9021,0.52085 -1.9454,0.53682 -3.1297,0.0479 -1.1975,-0.51146 -2.2123,-1.38397 -3.0447,-2.61737 l -4.1949,2.4219 c 1.4799,2.30293 3.4394,3.84788 5.8785,4.63483 2.4389,0.787 4.6846,0.58802 6.7369,-0.59688 0.5836,-0.3369 0.9513,-0.85101 1.412,-1.2888 l 6e-4,-13.50269 c -1.305,-1.66204 -2.8426,-2.9858 -4.8138,-3.6776 -2.5041,-0.89975 -4.8273,-0.73116 -6.9699,0.50584 z m -110.5662,63.88052 c -1.9385,1.32972 -3.1057,3.26654 -3.5014,5.8104 -0.091,0.59294 0.03,1.16888 0.036,1.75403 l 4.6281,4.7e-4 c -0.019,-0.23312 -0.093,-0.46612 -0.086,-0.69927 0.04,-1.28575 0.4356,-2.26623 1.1885,-2.94145 z m 110.0783,-63.5537 c -1.9386,1.32972 -3.1057,3.26654 -3.5014,5.8104 -0.3861,2.50825 0.1044,4.94643 1.4716,7.31447 l 4.161,-2.40235 c -0.7422,-1.2855 -1.0935,-2.57116 -1.0541,-3.85689 0.04,-1.28575 0.4356,-2.26623 1.1885,-2.94145 z m -122.1162,70.59401 0.3028,0.52435 5.1416,-5.9e-4 -1.5879,-2.75031 z m 35.8588,-20.7031 2.2852,3.95801 11.5019,-6.64065 -2.2851,-3.95801 z m 12.5169,-7.2266 10.2539,17.76029 3.8565,-2.22655 -10.2539,-17.76029 z m 4.3639,-2.5195 4.9219,8.52494 9.3238,6.93065 4.0595,-2.34375 -18.0346,-13.26809 z m 4.7699,-2.7539 5.1758,8.96472 8.9347,6.56897 -10.2539,-17.76029 z m 4.77,-2.75395 2.1679,3.75503 13.5317,-7.8125 -2.168,-3.75503 z m 18.7734,-10.83885 10.2539,17.76029 4.0595,-2.34375 -10.2539,-17.76029 z m 5.4803,-3.16405 10.2539,17.76029 3.8565,-2.22655 -10.2539,-17.76029 z m 4.364,-2.51955 4.9219,8.52494 9.3238,6.93065 4.0595,-2.34375 -18.0346,-13.26809 z m 4.7699,-2.7539 5.1758,8.96472 8.9346,6.56902 -10.2539,-17.76029 z m 5.2773,-3.04685 10.2539,17.76029 3.8566,-2.2266 -10.2539,-17.76029 z m 4.364,-2.51955 4.9218,8.52494 9.3239,6.93065 4.0595,-2.34375 -18.0346,-13.26809 z m 4.7699,-2.7539 5.1757,8.96472 8.9347,6.56902 -10.2539,-17.76029 z m -40.6019,29.12477 7.793,13.49782 4.1271,-2.3828 -7.7929,-13.49782 z m -30.9379,18.13267 5.0976,8.82941 4.0595,-2.34375 -5.0976,-8.82941 z m 5.9146,-0.30253 2.2852,3.958 5.5818,-3.22265 -2.2852,-3.958 z m -18.41,13.42555 c 0.9328,1.6156 2.1913,2.76236 3.5978,3.69633 l 10.2799,7.6e-4 c 1.9916,-1.43123 3.3132,-3.24044 3.6484,-5.60659 l -4.5238,-0.72601 c -0.1522,1.35087 -0.8711,2.39738 -2.1566,3.13958 -1.0374,0.59895 -2.2147,0.61709 -3.5319,0.0545 -1.2945,-0.57568 -2.3455,-1.56262 -3.1528,-2.96089 z m 17.7845,-3.72758 2.2851,3.95801 11.502,-6.64065 -2.2852,-3.95801 z m 1.0738,7.18782 0.1367,0.23681 8.1352,8.5e-4 c -0.4462,-0.23005 -0.8152,-0.57263 -1.3021,-0.74348 -2.5041,-0.89972 -4.8274,-0.73113 -6.9698,0.50582 z m 16.2379,-9.375 c -2.1199,1.22395 -3.4714,3.10183 -4.0545,5.63358 -0.307,1.33587 -0.3077,2.66125 -0.091,3.97903 l 4.9929,-4.3e-4 c -0.3164,-0.99706 -0.4767,-1.97697 -0.3233,-2.92336 0.1913,-1.28316 0.7719,-2.20474 1.7417,-2.76464 1.2855,-0.7422 2.5447,-0.85277 3.7777,-0.33175 l 1.6136,-4.31454 c -2.5111,-1.01597 -5.0634,-0.77529 -7.657,0.72211 z m 7.0951,-3.96101 2.2851,3.958 11.5019,-6.6406 -2.2852,-3.958 z m 12.5167,-7.22655 10.2539,17.76028 3.8565,-2.22655 -10.2539,-17.76028 z m 4.364,-2.51955 4.9219,8.52494 9.3238,6.93069 4.0595,-2.34375 -18.0345,-13.26813 z m 4.7699,-2.7539 5.1758,8.96471 8.9346,6.56902 -10.2539,-17.76028 z m 4.7699,-2.7539 2.168,3.75503 13.5316,-7.8125 -2.1679,-3.75503 z m 18.7735,-10.83885 10.2539,17.76028 4.0595,-2.34375 -10.254,-17.76028 z m 5.4803,-3.1641 10.2539,17.76028 3.8565,-2.22655 -10.2539,-17.76028 z m 4.3639,-2.5195 4.9219,8.52494 6.1916,4.60291 8e-4,-5.30714 -10.8436,-7.97696 z m 4.7699,-2.7539 5.1758,8.96471 1.1682,0.85915 9e-4,-7.74063 -2.4883,-4.30983 z m 5.2774,-3.0469 1.0674,1.84876 -10e-5,-2.46496 z m -31.468,23.85137 7.793,13.49781 4.1272,-2.38285 -7.793,-13.49781 z m -30.9379,18.13262 5.0977,8.8294 4.0595,-2.34375 -5.0977,-8.8294 z m 5.9146,-0.30249 2.2851,3.95801 5.5818,-3.22265 -2.2851,-3.95801 z m -0.228,9.46843 h 9.1407 l 4.2488,-2.4531 -2.2851,-3.958 z m 16.9142,-1.95763 c -0.8922,0.5151 -1.5718,1.21105 -2.1917,1.95773 l 8.8458,0.001 1.0029,-2.68095 c -2.5111,-1.01597 -5.0634,-0.77528 -7.657,0.72212 z m 7.095,-3.96101 2.2852,3.958 11.5019,-6.64065 -2.2851,-3.958 z m 12.5168,-7.22655 6.6367,11.49513 c 1.3948,-0.55334 2.7216,-1.23522 3.9669,-2.03546 l -6.747,-11.68627 z m 4.364,-2.51955 4.9219,8.52494 3.0188,2.24439 c 1.1422,-0.88891 2.1935,-1.88213 3.1497,-2.9664 l -10.8198,-7.95918 z m 4.7699,-2.7539 5.1758,8.96471 1.5526,1.14233 c 0.8695,-1.03959 1.638,-2.16335 2.3166,-3.34689 l -5.1885,-8.9867 z m 4.7699,-2.7539 2.1679,3.75503 4.9864,-2.8789 c 0.1191,-0.9565 0.2023,-1.92576 0.2023,-2.91554 l -4e-4,-2.20769 z m -23.7409,19.66074 0.873,1.51216 5.413,6.1e-4 -2.2265,-3.85652 z m 5.9145,-0.30249 1.0479,1.81493 0.9223,-2.6e-4 c 1.706,-2e-5 3.3638,-0.19421 4.9631,-0.54026 l 0.9338,-0.5391 -2.2852,-3.95801 z" /><path
         id="rect846-81-7-9-0"
         style="font-variation-settings:normal;opacity:0.5;fill:url(#linearGradient17914);fill-opacity:1;stroke-width:9.0178;stroke-linecap:butt;stroke-linejoin:miter;stroke-miterlimit:4;stroke-dasharray:none;stroke-dashoffset:0;stroke-opacity:1;stop-color:#000000"
         d="m 1219.5764,313.15747 -46.3986,72.64318 v 17.20027 l 57.3856,-89.84345 z m 18.2747,0 -64.6733,101.25211 v 38.01827 c 0,6.71609 2.8415,12.72917 7.3716,16.95997 l 99.7855,-156.23035 z m 124.9602,0 -103.7818,162.48211 h 42.4838 l 103.7818,-162.48211 z m 48.9011,0.91123 -103.1993,161.57088 h 10.9893 l 100.4565,-157.28214 c -2.3947,-1.9493 -5.1914,-3.41665 -8.2465,-4.28874 z" /></g></g></svg>
