<?xml version="1.0" encoding="UTF-8" standalone="no"?>
<!-- Created with Inkscape (http://www.inkscape.org/) -->

<svg
   width="255.33002"
   height="162.48505"
   viewBox="0 0 255.33002 162.48505"
   version="1.1"
   id="svg5"
   inkscape:version="1.2.1 (9c6d41e410, 2022-07-14)"
   sodipodi:docname="mockup.svg"
   xml:space="preserve"
   xmlns:inkscape="http://www.inkscape.org/namespaces/inkscape"
   xmlns:sodipodi="http://sodipodi.sourceforge.net/DTD/sodipodi-0.dtd"
   xmlns:xlink="http://www.w3.org/1999/xlink"
   xmlns="http://www.w3.org/2000/svg"
   xmlns:svg="http://www.w3.org/2000/svg"><sodipodi:namedview
     id="namedview7"
     pagecolor="#404040"
     bordercolor="#666666"
     borderopacity="1.0"
     inkscape:pageshadow="2"
     inkscape:pageopacity="0"
     inkscape:pagecheckerboard="0"
     inkscape:document-units="px"
     showgrid="false"
     inkscape:snap-global="true"
     inkscape:zoom="1.3823022"
     inkscape:cx="710.7708"
     inkscape:cy="435.14365"
     inkscape:window-width="3840"
     inkscape:window-height="2066"
     inkscape:window-x="-11"
     inkscape:window-y="-11"
     inkscape:window-maximized="1"
     inkscape:current-layer="layer1"
     inkscape:showpageshadow="2"
     inkscape:deskcolor="#404040" /><defs
     id="defs2"><linearGradient
       inkscape:collect="always"
       id="linearGradient5357"><stop
         style="stop-color:#ffffff;stop-opacity:0.25748503;"
         offset="0"
         id="stop5353" /><stop
         style="stop-color:#ffffff;stop-opacity:0;"
         offset="0.67889911"
         id="stop5355" /></linearGradient><linearGradient
       inkscape:collect="always"
       xlink:href="#linearGradient5357"
       id="linearGradient17842"
       gradientUnits="userSpaceOnUse"
       gradientTransform="matrix(1.1605865,0,0,1.1605865,363.20729,-14.406369)"
       x1="203.84238"
       y1="279.54575"
       x2="203.84238"
       y2="350.50412"
       spreadMethod="reflect" /></defs><g
     inkscape:label="Layer 1"
     inkscape:groupmode="layer"
     id="layer1"
     transform="translate(-599.78351,-309.64713)"><g
       id="g3537"><path
         id="rect846-7-18-8-7-1"
         style="fill:#e4d5b8;stroke-width:15.8465;stroke-opacity:0.547893"
         d="m 622.99573,309.64859 h 208.90556 c 12.8593,0 23.21173,10.35243 23.21173,23.21173 v 116.05866 c 0,12.8593 -10.35243,23.21173 -23.21173,23.21173 H 622.99573 c -12.8593,0 -23.21173,-10.35243 -23.21173,-23.21173 V 332.86032 c 0,-12.8593 10.35243,-23.21173 23.21173,-23.21173 z"
         inkscape:export-filename="..\SVGs\blank_back.svg"
         inkscape:export-xdpi="96.000008"
         inkscape:export-ydpi="96.000008" /><path
         id="rect846-7-18-8-7-1-5"
         style="fill:#d39f7c;fill-opacity:1;stroke-width:15.8465;stroke-opacity:0.547893"
         d="m 611.91359,312.44211 c -0.18042,0.0978 -0.34681,0.21611 -0.52428,0.31848 l 3.11622,5.39744 4.05949,-2.34375 -2.87793,-4.98472 c -1.3116,0.43247 -2.57828,0.96488 -3.7735,1.61255 z m -1.92753,1.16924 c -1.28697,0.86946 -2.47538,1.87137 -3.55957,2.97527 l 5.27833,9.14232 3.958,-2.28515 z m 6.26901,-2.96989 1.35254,2.34267 5.58181,-3.22266 -0.0654,-0.11333 -0.12864,-1.5e-4 c -2.34737,0 -4.60769,0.35127 -6.74028,0.99347 z m -11.04433,7.28081 c -1.15062,1.36998 -2.1305,2.8827 -2.94231,4.49754 l 5.07206,4.65613 z m -3.2037,5.04087 c -0.69143,1.46988 -1.23494,3.01944 -1.60803,4.64058 l 3.08533,2.87132 4.09333,-2.36329 z m 12.68996,-4.23908 2.28516,3.95801 11.5019,-6.64063 -2.28516,-3.95801 z m -14.91284,16.55301 -2.5e-4,2.88238 9.00586,15.59861 3.85652,-2.22656 -10.25391,-17.76029 z m 9.47554,-5.4707 4.16466,21.27591 4.2963,-2.48047 -0.8577,-4.3762 5.37883,-3.10547 -3.30245,-2.8294 -2.90931,1.67969 -2.47403,-12.64453 z m 4.83756,-2.79297 1.46776,7.54221 10.5791,9.18292 4.33012,-2.5 -16.34314,-14.24466 z m 6.86731,-3.96485 10.25391,17.76029 3.958,-2.28516 -6.85547,-11.87402 -5.19137,-4.85111 z m 2.6725,-1.54296 15.7004,14.61575 4.09332,-2.36328 -15.76805,-14.57669 z m 10.96064,-6.32813 2.83569,12.25531 5.76022,5.28948 -3.56153,-15.30937 3.95801,-2.28515 -2.22656,-3.85652 z m 7.98366,-4.60937 2.28516,3.958 8.44882,-4.87793 h -9.14062 z m -2.2842,7.13739 0.30764,1.6266 6.95313,12.04317 3.95801,-2.28516 -7.73437,-13.39633 z m 4.96382,-2.73054 5.09766,8.82939 4.05949,-2.34375 -5.09766,-8.82939 z m -45.47643,27.84579 -7.1e-4,5.28001 8.22785,6.10654 0.27063,-0.15625 -5,-8.66026 z m 51.39102,-28.14831 2.28515,3.95801 5.58181,-3.22266 -2.28516,-3.958 z m 14.44453,-5.02429 c 1.41097,2.25551 3.27784,3.85536 5.68337,4.67982 2.55874,0.83812 4.93193,0.62567 7.11954,-0.63735 1.76652,-1.0199 2.82482,-2.43953 3.55942,-4.04192 l -5.63442,-0.001 c -0.0695,0.0442 -0.0979,0.11064 -0.17108,0.1529 -1.03742,0.59896 -2.21472,0.61712 -3.53188,0.0545 -0.11422,-0.0508 -0.20035,-0.14905 -0.31076,-0.20623 z m -65.83619,40.69882 5.4e-4,8.61033 3.72797,-2.15235 z m 50.7662,-25.97658 2.28516,3.958 11.5019,-6.64062 -2.28516,-3.95801 z m -50.76662,37.2532 4.5e-4,4.61404 0.2871,0.49729 5.17585,-2.98828 c 1.30806,-0.75521 2.69309,-0.90835 4.15509,-0.45941 1.48456,0.43591 2.61747,1.33044 3.39872,2.68361 0.78125,1.35316 0.9895,2.78157 0.62472,4.28519 -0.35523,1.46804 -1.18687,2.57967 -2.49494,3.33488 l -0.50744,0.29297 2.28516,3.95801 0.50744,-0.29297 c 2.48081,-1.43229 4.08341,-3.50024 4.80783,-6.20383 0.73396,-2.73916 0.39131,-5.33788 -1.02796,-7.79613 -1.43229,-2.48079 -3.51152,-4.0769 -6.23766,-4.7883 -2.73917,-0.73396 -5.33787,-0.3913 -7.79612,1.02797 z m 12.95487,-7.47949 2.28515,3.95801 11.5019,-6.64063 -2.28515,-3.958 z m 12.41528,-7.16797 2.22656,3.85652 2.4357,-1.40625 14.04891,10.42721 0.27064,-0.15625 -5,-8.66026 -9.24574,-6.79534 z m 9.23535,-5.33203 10.25391,17.76029 3.85652,-2.22657 -10.25391,-17.76028 z m 10.72383,-6.1914 4.16466,21.27591 4.2963,-2.48047 -0.8577,-4.3762 5.37883,-3.10547 -3.30245,-2.8294 -2.90931,1.67969 -2.47403,-12.64453 z m 4.83756,-2.79297 1.46775,7.54221 10.5791,9.18292 4.33013,-2.5 -16.34315,-14.24466 z m 6.86732,-3.96485 10.2539,17.76029 3.95801,-2.28516 -6.85547,-11.87402 -5.19138,-4.85111 z m 2.6725,-1.54297 15.70039,14.61576 4.09332,-2.36328 -15.76805,-14.57669 z m 10.96063,-6.32812 2.83569,12.25531 5.76021,5.28948 -3.56153,-15.30937 3.95802,-2.28516 -2.22656,-3.85651 z m 7.98368,-4.60938 2.28515,3.95801 11.5019,-6.64063 -2.24219,-3.88358 -0.17152,-2e-4 z m 21.29185,-6.56672 c 0.0485,1.59602 0.33618,3.18379 1.14549,4.75356 l 4.19481,-2.42187 c -0.37021,-0.79438 -0.5517,-1.56831 -0.63347,-2.33157 z m -71.9517,41.6338 7.73438,13.39633 3.85651,-2.22656 -5.27344,-9.13386 -4.32154,-3.18825 z m 48.37564,-27.92968 0.30764,1.6266 6.95313,12.04316 3.958,-2.28515 -7.73437,-13.39633 z m -75.6848,43.83196 7.73437,13.39633 4.05949,-2.34375 L 604.525,364.84 Z m 14.95247,-8.63282 5.09766,8.8294 4.05949,-2.34375 -5.09766,-8.8294 z m 65.69614,-37.92968 5.09766,8.82939 4.05949,-2.34375 -5.09765,-8.82939 z m -81.32953,48.86358 -6.4e-4,15.85044 c 1.92017,-1.2394 3.17393,-3.02559 3.6306,-5.46551 0.49541,-2.63151 0.027,-5.18767 -1.40532,-7.66847 -0.62275,-1.07863 -1.39501,-1.93918 -2.22464,-2.71646 z m 21.54798,-11.23641 2.28515,3.958 5.58181,-3.22265 -2.28516,-3.95801 z m 65.69614,-37.92969 2.28515,3.95801 5.58181,-3.22266 -2.28516,-3.958 z m 14.15565,-5.37623 c 1.43229,2.4808 3.42305,4.15805 5.97226,5.03175 2.55874,0.83813 4.93192,0.62568 7.11953,-0.63734 2.57102,-1.48437 4.04912,-3.58568 4.43432,-6.30391 l -4.52376,-0.72602 c -0.15226,1.35086 -0.87115,2.3974 -2.15665,3.13958 -1.03742,0.59896 -2.21472,0.61712 -3.53188,0.0545 -1.2946,-0.57565 -2.34555,-1.56262 -3.15284,-2.96089 z m 15.93952,-5.29429 c 1.1504,1.08546 2.42129,1.9808 3.94697,2.47307 2.43899,0.78698 4.68465,0.58803 6.73695,-0.59687 0.84963,-0.49053 1.46755,-1.17103 2.05665,-1.87527 z m -96.41676,58.29815 2.28515,3.95801 11.5019,-6.64063 -2.28515,-3.958 z m 65.69615,-37.92969 2.28515,3.95801 11.5019,-6.64063 -2.28515,-3.958 z m -74.98092,51.09801 c -2.11995,1.22395 -3.47146,3.10182 -4.05453,5.63359 -0.57354,2.49619 -0.2331,4.96086 1.02133,7.394 l 4.19482,-2.42188 c -0.62944,-1.35061 -0.84198,-2.65624 -0.63763,-3.91689 0.19132,-1.28319 0.77187,-2.20475 1.74163,-2.76465 1.28551,-0.74218 2.54476,-0.85277 3.77775,-0.33175 l 1.61361,-4.31453 c -2.51109,-1.01599 -5.06342,-0.77529 -7.65698,0.72211 z m 13.53165,-7.8125 2.26562,3.92417 c 0.99232,-0.57291 2.11323,-0.55852 3.36273,0.0432 1.27205,0.58869 2.31172,1.58215 3.11902,2.98042 0.80729,1.39827 1.14782,2.79539 1.02161,4.19135 -0.10367,1.38296 -0.65167,2.36088 -1.64398,2.9338 -0.90211,0.52083 -1.94537,0.53679 -3.12975,0.0479 -1.19743,-0.51148 -2.21233,-1.38394 -3.04473,-2.61736 l -4.19481,2.42187 c 1.47995,2.30293 3.43943,3.84789 5.87843,4.63487 2.43899,0.78698 4.68465,0.58801 6.73695,-0.59688 2.14251,-1.23698 3.45671,-3.15345 3.94258,-5.74937 0.49542,-2.63152 0.027,-5.18767 -1.40532,-7.66847 -1.43229,-2.4808 -3.41177,-4.16457 -5.93843,-5.05128 -2.5041,-0.89974 -4.82741,-0.73112 -6.96992,0.50586 z m -0.48791,0.3268 c -1.93859,1.32974 -3.10573,3.26654 -3.5014,5.8104 -0.38613,2.50826 0.10439,4.94643 1.47158,7.31447 l 4.16099,-2.40235 c -0.74219,-1.28551 -1.09354,-2.57113 -1.05405,-3.85689 0.0395,-1.28576 0.43567,-2.26624 1.18851,-2.94145 z m 9.17293,-5.20579 2.28515,3.95801 5.17586,-2.98828 c 1.30806,-0.75521 2.69309,-0.90834 4.1551,-0.45941 1.48455,0.43592 2.61746,1.33046 3.39871,2.68362 0.78125,1.35316 0.98949,2.78156 0.62473,4.28518 -0.35524,1.46805 -1.18689,2.57967 -2.49495,3.33488 l -0.50744,0.29297 2.28516,3.95801 0.50744,-0.29297 c 2.4808,-1.4323 4.08341,-3.50023 4.80784,-6.20383 0.73396,-2.73915 0.3913,-5.33787 -1.02797,-7.79612 -1.43229,-2.48079 -3.51151,-4.0769 -6.23765,-4.78831 -2.73918,-0.73394 -5.33788,-0.3913 -7.79613,1.02797 z m 14.95246,-8.63281 2.28516,3.95801 11.5019,-6.64063 -2.28516,-3.958 z m 12.41529,-7.16797 2.22657,3.85653 2.43569,-1.40625 14.04893,10.42719 0.27063,-0.15625 -5,-8.66025 -9.24574,-6.79534 z m 9.23535,-5.33203 10.2539,17.76029 3.85653,-2.22657 -10.25391,-17.76028 z m 10.72384,-6.19141 4.16466,21.27591 4.29629,-2.48046 -0.85769,-4.37621 5.37882,-3.10546 -3.30245,-2.8294 -2.9093,1.67968 -2.47404,-12.64452 z m 4.83755,-2.79296 1.46775,7.54222 10.57911,9.1829 4.33012,-2.5 -16.34314,-14.24466 z m 6.86732,-3.96485 10.2539,17.76029 3.95801,-2.28516 -6.85547,-11.87401 -5.19138,-4.85112 z m 2.6725,-1.54297 15.70039,14.61576 4.09332,-2.36328 -15.76804,-14.5767 z m 10.96063,-6.32812 2.83569,12.25531 5.76021,5.28949 -3.56151,-15.30937 3.958,-2.28516 -2.22656,-3.85652 z m 7.98367,-4.60938 2.28516,3.95801 11.5019,-6.64063 -2.28516,-3.958 z m 22.73457,-12.21241 c -0.58219,0.88034 -1.05364,1.85494 -1.31855,3.00526 -0.57354,2.49619 -0.23309,4.96086 1.02133,7.394 l 4.19481,-2.42187 c -0.62942,-1.35062 -0.84196,-2.65625 -0.63762,-3.91689 0.19133,-1.2832 0.77187,-2.20476 1.74163,-2.76465 1.28551,-0.74219 2.54476,-0.85277 3.77775,-0.33175 l 0.36128,-0.96411 z m -73.39441,47.27949 7.73438,13.39633 3.85651,-2.22656 -5.27343,-9.13385 -4.32154,-3.18826 z m 48.37563,-27.92968 0.30765,1.6266 6.95313,12.04316 3.958,-2.28515 -7.73437,-13.39633 z m -75.68479,43.83195 7.73438,13.39633 4.05949,-2.34375 -7.73437,-13.39633 z m 14.95247,-8.63281 5.09765,8.8294 4.0595,-2.34375 -5.09766,-8.8294 z m 65.69615,-37.92969 5.09765,8.8294 4.0595,-2.34375 -5.09766,-8.8294 z m 32.64145,-16.61958 c 0.26517,1.01348 0.59239,2.02214 1.1634,3.01116 l 4.16098,-2.40234 c -0.11707,-0.20278 -0.16115,-0.40558 -0.25877,-0.60837 z m -149.82426,87.38739 v 5.27734 l 2.62852,-1.51757 -2.28516,-3.95801 z m 57.40125,-33.14063 2.28516,3.95801 5.5818,-3.22265 -2.28516,-3.95801 z m 65.69614,-37.92968 2.28516,3.95801 5.58181,-3.22266 -2.28516,-3.95801 z m -114.18018,68.71849 c 1.43229,2.4808 3.42304,4.15806 5.97226,5.03175 2.55873,0.83812 4.93192,0.62568 7.11953,-0.63734 2.57102,-1.48438 4.04912,-3.58568 4.43432,-6.30392 l -4.52376,-0.726 c -0.15226,1.35085 -0.87115,2.39738 -2.15665,3.13957 -1.03742,0.59895 -2.21471,0.61712 -3.53188,0.0545 -1.2946,-0.57566 -2.34555,-1.56262 -3.15284,-2.96089 z m 128.33583,-74.09472 c 1.43229,2.4808 3.42305,4.15805 5.97226,5.03175 2.55873,0.83812 4.93193,0.62567 7.11953,-0.63735 2.57102,-1.48437 4.04913,-3.58568 4.43432,-6.30391 l -4.52376,-0.72601 c -0.15226,1.35086 -0.87114,2.39738 -2.15665,3.13957 -1.03742,0.59896 -2.21471,0.61712 -3.53187,0.0545 -1.29461,-0.57565 -2.34555,-1.56262 -3.15284,-2.96089 z m 14.00806,-7.45608 c 1.47995,2.30293 3.43942,3.84788 5.87843,4.63487 2.439,0.78697 4.68465,0.58801 6.73695,-0.59689 2.14251,-1.23698 3.45671,-3.15344 3.94259,-5.74937 0.1129,-0.59971 -0.004,-1.18149 0.009,-1.77337 l -4.60701,9e-4 c 0.005,0.23252 0.0743,0.46524 0.0533,0.6977 -0.10366,1.38295 -0.65166,2.36087 -1.64399,2.93379 -0.9021,0.52083 -1.94535,0.53679 -3.12974,0.0479 -1.19742,-0.51149 -2.21233,-1.38394 -3.04473,-2.61737 z m -151.26071,93.23923 v 5.27734 l 7.92278,-4.57422 -2.28515,-3.95801 z m 56.7754,-32.7793 2.28516,3.95801 11.5019,-6.64063 -2.28516,-3.958 z m 65.69615,-37.92969 2.28516,3.95801 11.5019,-6.64063 -2.28516,-3.958 z m 48.69886,-26.01438 1.4336,2.48306 4.05949,-2.34375 -0.0811,-0.14039 z m -123.67977,77.1124 c -2.11995,1.22395 -3.47146,3.10182 -4.05453,5.63358 -0.57353,2.49619 -0.23309,4.96086 1.02134,7.39401 l 4.19481,-2.42188 c -0.62943,-1.35061 -0.84197,-2.65624 -0.63762,-3.91689 0.19131,-1.2832 0.77186,-2.20475 1.74163,-2.76465 1.28551,-0.74219 2.54476,-0.85277 3.77774,-0.33175 l 1.61361,-4.31453 c -2.51108,-1.01599 -5.06341,-0.77529 -7.65698,0.72211 z m 13.53165,-7.8125 2.26562,3.92417 c 0.99233,-0.57292 2.11324,-0.55852 3.36274,0.0432 1.27204,0.58868 2.31172,1.58214 3.11902,2.98042 0.80728,1.39826 1.14781,2.79539 1.0216,4.19135 -0.10366,1.38295 -0.65165,2.36088 -1.64398,2.9338 -0.90211,0.52083 -1.94537,0.53679 -3.12975,0.0479 -1.19742,-0.51148 -2.21233,-1.38394 -3.04473,-2.61736 l -4.19481,2.42187 c 1.47995,2.30293 3.43943,3.84789 5.87843,4.63487 2.439,0.78697 4.68466,0.58801 6.73695,-0.59688 2.14252,-1.23698 3.45671,-3.15345 3.94259,-5.74938 0.49541,-2.63151 0.027,-5.18767 -1.40533,-7.66846 -1.43229,-2.48081 -3.41176,-4.16457 -5.93842,-5.05128 -2.50411,-0.89975 -4.82742,-0.73112 -6.96993,0.50586 z m 114.80419,-66.28223 c -2.11995,1.22395 -3.47147,3.10183 -4.05454,5.63358 -0.57353,2.4962 -0.23309,4.96087 1.02134,7.39401 l 4.19481,-2.42187 c -0.62943,-1.35062 -0.84197,-2.65625 -0.63763,-3.91689 0.19132,-1.28321 0.77187,-2.20476 1.74164,-2.76466 1.28551,-0.74218 2.54475,-0.85276 3.77775,-0.33175 l 1.6136,-4.31452 c -2.51108,-1.016 -5.06341,-0.7753 -7.65697,0.7221 z m -115.29209,66.60902 c -1.9386,1.32975 -3.10573,3.26655 -3.5014,5.81039 -0.38613,2.50829 0.10439,4.94645 1.47158,7.31449 l 4.16098,-2.40234 c -0.74219,-1.28552 -1.09353,-2.57116 -1.05403,-3.8569 0.0395,-1.28576 0.43566,-2.26625 1.18849,-2.94146 z m -60.1311,34.80692 10.25391,17.76028 3.958,-2.28515 -6.85547,-11.87402 -5.19138,-4.85111 z m 2.6725,-1.54297 15.70039,14.61575 4.09332,-2.36328 -15.76804,-14.57669 z m 10.96064,-6.32812 2.83568,12.2553 5.76022,5.28949 -3.56152,-15.30937 3.958,-2.28516 -2.22656,-3.85651 z m 7.98367,-4.60938 2.28515,3.95801 11.5019,-6.64063 -2.28515,-3.958 z m 47.68721,-27.53222 2.28516,3.958 5.17585,-2.98828 c 1.30806,-0.75521 2.69309,-0.90834 4.1551,-0.45941 1.48455,0.43592 2.61746,1.33046 3.39871,2.68362 0.78125,1.35316 0.98949,2.78157 0.62473,4.28517 -0.35524,1.46806 -1.18688,2.57969 -2.49495,3.3349 l -0.50743,0.29296 2.28516,3.958 0.50743,-0.29296 c 2.48081,-1.4323 4.08342,-3.50023 4.80784,-6.20383 0.73396,-2.73915 0.3913,-5.33788 -1.02797,-7.79611 -1.43229,-2.48081 -3.51151,-4.07691 -6.23765,-4.78832 -2.73916,-0.73395 -5.33788,-0.39129 -7.79613,1.02798 z m 14.95248,-8.63282 2.28515,3.95801 11.5019,-6.64063 -2.28515,-3.958 z m 12.41527,-7.16796 2.22656,3.85651 2.4357,-1.40625 14.04893,10.4272 0.27064,-0.15625 -5,-8.66025 -9.24575,-6.79534 z m 9.23536,-5.33204 10.25391,17.76028 3.85651,-2.22656 -10.2539,-17.76028 z m 10.72383,-6.1914 4.16466,21.2759 4.2963,-2.48047 -0.8577,-4.37619 5.37883,-3.10547 -3.30246,-2.8294 -2.9093,1.67969 -2.47403,-12.64453 z m 4.83756,-2.79297 1.46775,7.54221 10.5791,9.18291 4.33013,-2.5 -16.34315,-14.24465 z m 6.86731,-3.96484 10.2539,17.76028 3.95802,-2.28516 -6.85547,-11.87402 -5.19139,-4.8511 z m 2.6725,-1.54297 15.70039,14.61575 4.09333,-2.36329 -15.76805,-14.57668 z m 10.96064,-6.32813 2.83569,12.2553 5.76021,5.28949 -3.56153,-15.30937 3.95801,-2.28515 -2.22656,-3.85652 z m 7.98367,-4.60937 2.28515,3.958 11.5019,-6.64062 -2.28515,-3.95801 z m 35.48004,-17.85927 c -0.14065,0.45977 -0.3881,0.83497 -0.46715,1.34321 -0.38613,2.50828 0.10439,4.94644 1.47158,7.31448 l 4.16098,-2.40234 c -0.74219,-1.28551 -1.09353,-2.57115 -1.05404,-3.8569 0.0309,-1.00482 0.34501,-1.76712 0.81154,-2.39906 z m -166.10008,99.09138 0.30765,1.6266 6.95312,12.04317 3.95801,-2.28516 -7.73438,-13.39633 z m 79.96019,-46.16504 7.73438,13.39633 3.85652,-2.22656 -5.27343,-9.13386 -4.32155,-3.18825 z m 48.37565,-27.92969 0.30763,1.62661 6.95313,12.04316 3.958,-2.28515 -7.73437,-13.39633 z m -123.37202,71.36419 5.09766,8.8294 4.05949,-2.34375 -5.09765,-8.8294 z m 47.68722,-27.53223 7.73437,13.39633 4.05949,-2.34375 -7.73437,-13.39633 z m 14.95246,-8.63281 5.09766,8.8294 4.05949,-2.34375 -5.09765,-8.8294 z m 65.69615,-37.92969 5.09766,8.8294 4.05949,-2.34375 -5.09765,-8.8294 z m 43.15912,-22.26573 c 0.72331,0.56736 1.38484,1.24235 1.91084,2.15341 0.80728,1.39825 1.14782,2.79538 1.0216,4.19135 -0.10367,1.38294 -0.65166,2.36087 -1.64397,2.93379 -0.90212,0.52083 -1.94537,0.53679 -3.12977,0.0478 -1.19741,-0.51148 -2.21232,-1.38394 -3.04471,-2.61736 l -4.19481,2.42187 c 1.47994,2.30294 3.43942,3.84789 5.87842,4.63488 2.439,0.78696 4.68466,0.588 6.73696,-0.59689 2.1425,-1.23698 3.4567,-3.15344 3.94258,-5.74937 0.47914,-2.54509 0.0123,-5.01623 -1.31168,-7.42034 z m -165.58037,96.05795 2.28516,3.95801 5.58181,-3.22266 -2.28516,-3.95801 z m 62.63969,-36.16504 2.28515,3.95801 5.58181,-3.22266 -2.28516,-3.958 z m 65.69615,-37.92969 2.28515,3.95801 5.58181,-3.22266 -2.28516,-3.958 z m -158.95104,92.02077 6.5e-4,6.29409 5.58309,4.84597 4.33013,-2.5 z m 44.77086,-23.30226 c 1.43228,2.48079 3.42304,4.15804 5.97225,5.03174 2.55874,0.83812 4.93193,0.62567 7.11954,-0.63734 2.57101,-1.48438 4.04913,-3.58569 4.43432,-6.30391 l -4.52377,-0.72601 c -0.15226,1.35085 -0.87114,2.39738 -2.15665,3.13957 -1.03742,0.59895 -2.21471,0.61711 -3.53187,0.0545 -1.29461,-0.57565 -2.34555,-1.56262 -3.15284,-2.96088 z M 772.8906,326.23512 c 1.43228,2.48079 3.42304,4.15804 5.97225,5.03175 2.55874,0.83812 4.93193,0.62567 7.11954,-0.63735 2.57102,-1.48438 4.04913,-3.58568 4.43431,-6.30391 l -4.52374,-0.72601 c -0.15228,1.35086 -0.87115,2.39738 -2.15665,3.13957 -1.03743,0.59896 -2.21473,0.61712 -3.53188,0.0545 -1.2946,-0.57566 -2.34556,-1.56263 -3.15284,-2.96088 z m 30.65799,-16.5863 4.69336,8.12914 4.05949,-2.34375 -3.34082,-5.78647 z m -203.76487,121.06496 3.2e-4,2.41071 1.68129,-0.9707 z m 212.4968,-121.06581 c -0.37478,0.42608 -0.77496,0.83309 -1.30795,1.14081 l -0.50744,0.29297 2.28516,3.958 0.50744,-0.29297 c 2.09771,-1.21112 3.42676,-2.97857 4.26864,-5.09867 z m -182.50685,105.75604 2.28515,3.958 11.5019,-6.64062 -2.28515,-3.958 z m 62.63969,-36.16504 2.28515,3.958 11.5019,-6.64062 -2.28515,-3.958 z m 65.69614,-37.92968 2.28515,3.958 11.5019,-6.64063 -2.28515,-3.958 z m -74.98091,51.098 c -2.11995,1.22396 -3.47147,3.10183 -4.05454,5.63359 -0.57353,2.49619 -0.23309,4.96085 1.02134,7.394 l 4.19481,-2.42187 c -0.62943,-1.35062 -0.84197,-2.65625 -0.63763,-3.9169 0.19133,-1.28319 0.77187,-2.20474 1.74165,-2.76464 1.2855,-0.74219 2.54475,-0.85277 3.77774,-0.33176 l 1.61361,-4.31452 c -2.51108,-1.016 -5.0634,-0.77529 -7.65698,0.7221 z m 13.53165,-7.8125 2.26563,3.92418 c 0.99231,-0.57292 2.11322,-0.55853 3.36272,0.0432 1.27205,0.58867 2.31173,1.58215 3.11902,2.98041 0.80729,1.39827 1.14782,2.79539 1.02161,4.19136 -0.10367,1.38295 -0.65166,2.36088 -1.64398,2.93379 -0.90211,0.52084 -1.94536,0.53679 -3.12976,0.0479 -1.19742,-0.51149 -2.21233,-1.38394 -3.04472,-2.61737 l -4.19481,2.42188 c 1.47994,2.30293 3.43942,3.84789 5.87842,4.63486 2.439,0.78698 4.68466,0.58801 6.73696,-0.59688 2.1425,-1.23698 3.45671,-3.15344 3.94258,-5.74937 0.49541,-2.63151 0.027,-5.18767 -1.40532,-7.66847 -1.43229,-2.4808 -3.41177,-4.16456 -5.93843,-5.05128 -2.5041,-0.89974 -4.82742,-0.73111 -6.96992,0.50586 z m 114.80418,-66.28222 c -2.11995,1.22395 -3.47147,3.10182 -4.05454,5.63359 -0.57353,2.49619 -0.23309,4.96085 1.02133,7.394 l 4.19481,-2.42188 c -0.62942,-1.35061 -0.84196,-2.65625 -0.63762,-3.91689 0.19133,-1.2832 0.77188,-2.20475 1.74165,-2.76465 1.2855,-0.74218 2.54476,-0.85277 3.77774,-0.33175 l 1.61361,-4.31453 c -2.51108,-1.016 -5.06341,-0.77529 -7.65698,0.72211 z m 13.53165,-7.8125 2.26562,3.92417 c 0.9923,-0.5729 2.11322,-0.55852 3.36273,0.0432 1.27203,0.58868 2.31172,1.58214 3.11901,2.98041 0.80729,1.39826 1.14782,2.7954 1.02161,4.19136 -0.10366,1.38295 -0.65168,2.36089 -1.64396,2.93379 -0.90211,0.52083 -1.94535,0.53678 -3.12977,0.0479 -1.19743,-0.51148 -2.21236,-1.38392 -3.04472,-2.61736 l -4.1948,2.42187 c 1.47995,2.30293 3.43944,3.84787 5.87843,4.63486 2.43903,0.78695 4.68463,0.58802 6.73694,-0.59688 2.14249,-1.23696 3.45673,-3.15344 3.94259,-5.74937 0.49541,-2.63151 0.027,-5.18767 -1.40532,-7.66847 -1.43229,-2.4808 -3.41176,-4.16456 -5.93843,-5.05128 -0.79066,-0.28408 -1.53167,-0.27559 -2.28629,-0.34666 l -1.97754,5.7e-4 c -0.92453,0.15099 -1.84058,0.35225 -2.70609,0.85196 z m -128.82374,74.42152 c -1.93859,1.32974 -3.10574,3.26654 -3.5014,5.81039 -0.38613,2.50828 0.10439,4.94644 1.47158,7.31448 l 4.16098,-2.40234 c -0.74219,-1.28551 -1.09353,-2.57115 -1.05404,-3.8569 0.0395,-1.28576 0.43567,-2.26624 1.18851,-2.94145 z m 128.33583,-74.09473 c -1.93858,1.32974 -3.10572,3.26654 -3.5014,5.8104 -0.38612,2.50826 0.10439,4.94643 1.47158,7.31447 l 4.16098,-2.40234 c -0.74219,-1.28551 -1.09351,-2.57115 -1.05404,-3.8569 0.0395,-1.28575 0.43565,-2.26623 1.18851,-2.94145 z M 599.78489,440.66112 v 5.27735 l 5.96407,-3.44336 -2.28517,-3.95802 z m 4.59229,-2.65137 2.22657,3.85653 2.4357,-1.40625 14.04893,10.4272 0.27063,-0.15625 -5,-8.66025 -9.24575,-6.79535 z m 9.23536,-5.33203 10.25391,17.76029 3.85652,-2.22656 -10.25391,-17.76029 z m 10.72383,-6.19141 4.16467,21.27592 4.2963,-2.48047 -0.8577,-4.3762 5.37883,-3.10547 -3.30247,-2.8294 -2.9093,1.67968 -2.47403,-12.64453 z m 4.83756,-2.79297 1.46776,7.54222 10.5791,9.18292 4.33012,-2.5 -16.34315,-14.24467 z m 6.86731,-3.96484 10.25391,17.7603 3.95801,-2.28516 -6.85547,-11.87403 -5.19139,-4.85111 z m 2.6725,-1.54297 15.7004,14.61577 4.09333,-2.36329 -15.76806,-14.5767 z m 10.96063,-6.32812 2.8357,12.2553 5.76021,5.28949 -3.56152,-15.30936 3.958,-2.28516 -2.22656,-3.85652 z m 7.98368,-4.60938 2.28516,3.95802 11.5019,-6.64063 -2.28516,-3.95801 z m 47.68721,-27.53222 2.28516,3.95801 5.17586,-2.98828 c 1.30805,-0.75521 2.69309,-0.90836 4.15509,-0.45942 1.48456,0.43592 2.61746,1.33046 3.39871,2.68362 0.78125,1.35317 0.9895,2.78156 0.62473,4.28518 -0.35523,1.46805 -1.18689,2.57968 -2.49494,3.33488 l -0.50744,0.29297 2.28516,3.95802 0.50744,-0.29297 c 2.4808,-1.43229 4.08341,-3.50024 4.80784,-6.20383 0.73395,-2.73917 0.39129,-5.33787 -1.02798,-7.79612 -1.43229,-2.4808 -3.51151,-4.07691 -6.23765,-4.78831 -2.73917,-0.73396 -5.33788,-0.3913 -7.79612,1.02796 z m 14.95247,-8.63282 2.28516,3.95802 11.5019,-6.64063 -2.28516,-3.95801 z m 12.41529,-7.16797 2.22657,3.85653 2.43569,-1.40625 14.04893,10.42721 0.27063,-0.15625 -5,-8.66026 -9.24574,-6.79535 z m 9.23535,-5.33203 10.25391,17.7603 3.85651,-2.22656 -10.25391,-17.7603 z m 10.72383,-6.1914 4.16467,21.27592 4.2963,-2.48047 -0.8577,-4.3762 5.37883,-3.10547 -3.30246,-2.82941 -2.90931,1.67969 -2.47403,-12.64453 z m 4.83756,-2.79297 1.46775,7.54222 10.5791,9.18292 4.33013,-2.5 -16.34315,-14.24467 z m 6.86732,-3.96485 10.25391,17.7603 3.958,-2.28516 -6.85547,-11.87402 -5.19138,-4.85112 z m 2.67249,-1.54296 15.7004,14.61576 4.09332,-2.36328 -15.76805,-14.5767 z m 10.96063,-6.32813 2.8357,12.25531 5.76021,5.28948 -3.56152,-15.30936 3.958,-2.28515 -2.22656,-3.85653 z m 7.98367,-4.60937 2.28516,3.95801 11.5019,-6.64062 -2.28516,-3.95802 z m -178.99566,109.16181 7.73437,13.39633 3.85653,-2.22656 -5.27344,-9.13387 -4.32154,-3.18824 z m 48.37564,-27.92969 0.30764,1.6266 6.95312,12.04317 3.95801,-2.28515 -7.73438,-13.39633 z m 79.96019,-46.16503 7.73437,13.39633 3.85653,-2.22657 -5.27344,-9.13387 -4.32154,-3.18824 z m 48.37564,-27.92969 0.30764,1.6266 6.95312,12.04317 3.95802,-2.28516 -7.73438,-13.39633 z m -123.37202,71.36417 5.09766,8.82941 4.0595,-2.34375 -5.09766,-8.82941 z m 47.68721,-27.53222 7.73438,13.39633 4.05949,-2.34375 -7.73437,-13.39633 z m 14.95248,-8.63282 5.09766,8.82941 4.05949,-2.34375 -5.09766,-8.82941 z m 65.69614,-37.92968 5.09766,8.8294 4.05949,-2.34375 -5.09766,-8.8294 z m 47.72139,-27.47303 7.7002,13.33713 4.05949,-2.34375 -4.88964,-8.46911 c -2.10758,-1.18137 -4.41663,-2.04632 -6.87005,-2.52427 z M 599.79572,449.13695 c 0.0272,2.93786 0.60242,5.73515 1.61629,8.31121 l 2.38664,-1.37793 z m 0.76037,0.14512 2.28516,3.958 5.5818,-3.22265 -2.28515,-3.95801 z m 65.69615,-37.92969 2.28516,3.958 5.5818,-3.22265 -2.28515,-3.95801 z m 62.63968,-36.16504 2.28516,3.95801 5.58181,-3.22266 -2.28516,-3.95801 z m 65.69615,-37.92969 2.28516,3.95801 5.5818,-3.22266 -2.28516,-3.958 z m -114.18018,68.7185 c 1.43229,2.4808 3.42304,4.15805 5.97225,5.03175 2.55874,0.83812 4.93193,0.62567 7.11954,-0.63735 2.57102,-1.48438 4.04912,-3.58568 4.43432,-6.3039 l -4.52376,-0.72602 c -0.15227,1.35086 -0.87114,2.39739 -2.15665,3.13957 -1.03743,0.59896 -2.21471,0.61712 -3.53187,0.0545 -1.29461,-0.57566 -2.34556,-1.56262 -3.15285,-2.96089 z m 128.33582,-74.09473 c 1.43229,2.4808 3.42305,4.15805 5.97226,5.03175 2.55875,0.83812 4.93193,0.62567 7.11954,-0.63735 2.57101,-1.48437 4.04912,-3.58568 4.43433,-6.3039 l -4.52377,-0.72602 c -0.15226,1.35086 -0.87115,2.39739 -2.15665,3.13958 -1.03742,0.59895 -2.21472,0.61712 -3.53188,0.0545 -1.2946,-0.57566 -2.34555,-1.56263 -3.15284,-2.96089 z m 38.85106,-16.11815 c -0.25883,0.22203 -0.45548,0.49075 -0.76908,0.67181 l -0.50744,0.29297 2.28516,3.95801 0.50744,-0.29297 c 0.60311,-0.3482 0.9895,-0.85344 1.4888,-1.27679 -0.89245,-1.21445 -1.89706,-2.33608 -3.00488,-3.35303 z M 601.61871,458.00539 c 0.59976,1.41594 1.33951,2.75563 2.19552,4.00977 l 9.90347,-5.71777 -2.28516,-3.95802 z m 64.00808,-36.95508 2.28516,3.95802 11.5019,-6.64063 -2.28516,-3.95801 z m 62.63968,-36.16504 2.28516,3.95802 11.5019,-6.64063 -2.28516,-3.95801 z m 65.69614,-37.92968 2.28516,3.95801 11.5019,-6.64062 -2.28516,-3.95802 z m -74.9809,51.098 c -2.11995,1.22396 -3.47146,3.10183 -4.05453,5.6336 -0.57354,2.49618 -0.2331,4.96085 1.02133,7.394 l 4.19481,-2.42187 c -0.62943,-1.35062 -0.84197,-2.65625 -0.63762,-3.9169 0.19132,-1.2832 0.77187,-2.20475 1.74164,-2.76465 1.2855,-0.74218 2.54476,-0.85277 3.77774,-0.33175 l 1.61361,-4.31453 c -2.51109,-1.01599 -5.06341,-0.77529 -7.65698,0.7221 z m 13.53165,-7.8125 2.26562,3.92418 c 0.99232,-0.57291 2.11323,-0.55852 3.36273,0.0432 1.27205,0.58868 2.31173,1.58215 3.11902,2.98042 0.80729,1.39827 1.14782,2.79539 1.0216,4.19136 -0.10366,1.38295 -0.65165,2.36087 -1.64396,2.93379 -0.90211,0.52083 -1.94538,0.53679 -3.12977,0.0479 -1.19741,-0.51149 -2.21232,-1.38396 -3.04472,-2.61737 l -4.1948,2.42187 c 1.47995,2.30293 3.43942,3.84789 5.87843,4.63487 2.43899,0.78698 4.68466,0.58801 6.73694,-0.59688 2.14252,-1.23698 3.45672,-3.15345 3.94259,-5.74937 0.49541,-2.63151 0.027,-5.18767 -1.40532,-7.66847 -1.43229,-2.48081 -3.41177,-4.16457 -5.93843,-5.05128 -2.5041,-0.89974 -4.82741,-0.73113 -6.96992,0.50585 z m 114.80418,-66.28222 c -2.11991,1.22393 -3.47144,3.10181 -4.05453,5.63359 -0.57354,2.49619 -0.2331,4.96086 1.02134,7.394 l 4.19481,-2.42187 c -0.62944,-1.35061 -0.84195,-2.65626 -0.63763,-3.9169 0.1913,-1.28319 0.77186,-2.20474 1.74164,-2.76464 1.28552,-0.7422 2.54478,-0.85279 3.77774,-0.33175 l 0.6574,-1.75979 c -0.31533,-0.99346 -0.71358,-1.94724 -1.1536,-2.877 -1.83012,-0.22957 -3.67401,-0.0371 -5.54717,1.04436 z M 732.02545,390.5679 c -1.93859,1.32974 -3.10573,3.26654 -3.5014,5.8104 -0.38613,2.50827 0.10439,4.94643 1.47158,7.31447 l 4.16099,-2.40235 c -0.74219,-1.28551 -1.09354,-2.57114 -1.05404,-3.85689 0.0395,-1.28576 0.43566,-2.26624 1.1885,-2.94145 z m -119.16291,68.88894 2.28516,3.95801 5.17586,-2.98829 c 1.30805,-0.7552 2.69309,-0.90833 4.15509,-0.4594 1.48456,0.43591 2.61747,1.33045 3.39872,2.68362 0.78125,1.35316 0.98949,2.78156 0.62472,4.28518 -0.35523,1.46805 -1.18688,2.57967 -2.49493,3.33488 l -0.50744,0.29297 0.90333,1.56459 4.33932,3.1e-4 c 1.06695,-1.16449 1.92313,-2.48154 2.35779,-4.10369 0.73396,-2.73916 0.3913,-5.33787 -1.02797,-7.79612 -1.4323,-2.4808 -3.51151,-4.07691 -6.23766,-4.78831 -2.73916,-0.73395 -5.33788,-0.3913 -7.79611,1.02797 z m 14.95248,-8.63281 2.28515,3.958 11.5019,-6.64062 -2.28515,-3.95801 z m 12.41529,-7.16797 2.22656,3.85652 2.4357,-1.40625 14.04892,10.4272 0.27063,-0.15625 -5,-8.66025 -9.24574,-6.79535 z m 9.23534,-5.33203 10.25391,17.76028 3.85651,-2.22656 -10.2539,-17.76028 z m 10.72383,-6.19141 4.16467,21.27591 4.2963,-2.48047 -0.8577,-4.3762 5.37883,-3.10547 -3.30246,-2.8294 -2.90931,1.67969 -2.47403,-12.64453 z m 4.83757,-2.79297 1.46775,7.54222 10.57909,9.18291 4.33013,-2.5 -16.34315,-14.24466 z m 6.86731,-3.96484 10.25391,17.76028 3.958,-2.28515 -6.85547,-11.87402 -5.19138,-4.85111 z m 2.67249,-1.54297 15.7004,14.61575 4.09332,-2.36328 -15.76805,-14.57669 z m 10.96064,-6.32812 2.83569,12.2553 5.76022,5.28949 -3.56153,-15.30936 3.95801,-2.28516 -2.22657,-3.85652 z m 7.98367,-4.60938 2.28515,3.95801 11.5019,-6.64063 -2.28515,-3.958 z m 47.68722,-27.53223 2.28516,3.95801 5.17585,-2.98828 c 1.30806,-0.75521 2.69309,-0.90834 4.15509,-0.45941 1.48456,0.43591 2.61747,1.33045 3.39872,2.68362 0.78125,1.35316 0.98949,2.78156 0.62472,4.28518 -0.35523,1.46805 -1.18687,2.57967 -2.49494,3.33488 l -0.50744,0.29297 2.28516,3.95801 0.50744,-0.29297 c 2.4808,-1.43229 4.08342,-3.50023 4.80784,-6.20383 0.73396,-2.73915 0.3913,-5.33787 -1.02797,-7.79612 -1.43229,-2.4808 -3.51151,-4.0769 -6.23766,-4.78831 -2.73916,-0.73395 -5.33786,-0.3913 -7.79612,1.02797 z m 14.95247,-8.63281 2.28515,3.95801 11.5019,-6.64063 -2.28515,-3.958 z m 12.41528,-7.16797 2.22657,3.85653 2.4357,-1.40625 14.04891,10.4272 0.27064,-0.15625 -5,-8.66026 -9.24574,-6.79534 z m 9.23535,-5.33203 10.25391,17.76029 3.85653,-2.22657 -10.25391,-17.76028 z m 10.72383,-6.1914 4.16466,21.27591 4.2963,-2.48047 -0.8577,-4.3762 5.37884,-3.10547 -3.30246,-2.8294 -2.90931,1.67969 -2.47403,-12.64453 z m 4.83757,-2.79297 1.46776,7.54222 10.57908,9.18291 4.33014,-2.5 -16.34316,-14.24466 z m 6.86731,-3.96485 10.25391,17.76029 3.958,-2.28516 -6.85547,-11.87401 -5.19137,-4.85112 z m 2.6725,-1.54297 15.70039,14.61576 4.09332,-2.36328 -15.76805,-14.57669 z m 10.96064,-6.32812 2.83569,12.25531 5.76022,5.28948 -3.56153,-15.30936 3.95801,-2.28516 -2.22656,-3.85652 z m 7.98368,-4.60938 2.28515,3.95801 11.5019,-6.64063 -2.28515,-3.958 z m -216.5264,125.17622 c 3.24745,3.81211 7.70403,6.55312 12.7954,7.63494 -0.26584,-0.9159 -0.51267,-1.83329 -1.03012,-2.72953 -1.43229,-2.4808 -3.41177,-4.16457 -5.93842,-5.05128 -2.07679,-0.74619 -3.9988,-0.57761 -5.82686,0.14587 z m 37.53072,-16.01441 7.73437,13.39633 3.85653,-2.22656 -5.27344,-9.13386 -4.32154,-3.18825 z m 48.37564,-27.92969 0.30764,1.62661 6.95312,12.04316 3.95802,-2.28516 -7.73438,-13.39633 z m 79.96019,-46.16504 7.73438,13.39633 3.85651,-2.22656 -5.27343,-9.13385 -4.32154,-3.18826 z m 48.37564,-27.92968 0.30764,1.6266 6.95313,12.04316 3.95799,-2.28515 -7.73437,-13.39633 z m -204.02063,117.92668 4.66797,8.08516 c 0.91458,0.10865 1.84078,0.1802 2.78556,0.18019 l 2.73096,-2.9e-4 -6.125,-10.60881 z m 14.95247,-8.63281 5.09766,8.82939 4.05949,-2.34375 -5.09766,-8.82939 z m 65.69614,-37.92969 5.09766,8.8294 4.05949,-2.34375 -5.09766,-8.8294 z m 47.68722,-27.53222 7.73437,13.39633 4.0595,-2.34375 -7.73438,-13.39633 z m 14.95246,-8.63282 5.09767,8.8294 4.05948,-2.34375 -5.09766,-8.8294 z m 65.69615,-37.92968 5.09766,8.82939 4.05949,-2.34375 -5.09766,-8.82939 z m -188.11739,111.7219 2.28516,3.95801 5.58181,-3.22266 -2.28516,-3.95801 z m 65.69614,-37.92969 2.28517,3.95801 5.5818,-3.22265 -2.28516,-3.95802 z m 62.63969,-36.16504 2.28516,3.95801 5.58181,-3.22265 -2.28516,-3.95802 z m 65.69614,-37.92969 2.28516,3.95802 5.58181,-3.22266 -2.28516,-3.95801 z m -114.18017,68.71851 c 1.43228,2.4808 3.42305,4.15805 5.97225,5.03175 2.55875,0.83811 4.93193,0.62567 7.11955,-0.63735 2.57101,-1.48438 4.04912,-3.58568 4.43432,-6.30392 l -4.52377,-0.726 c -0.15226,1.35085 -0.87115,2.39738 -2.15666,3.13957 -1.03742,0.59895 -2.2147,0.61712 -3.53188,0.0545 -1.29459,-0.57566 -2.34555,-1.56262 -3.15283,-2.96089 z m 128.33583,-74.09473 c 1.43229,2.4808 3.42301,4.15807 5.97225,5.03175 1.59562,0.52266 3.09312,0.4898 4.54441,0.19537 l -10e-4,-4.63147 c -0.95927,0.43533 -2.01518,0.46956 -3.20137,-0.0371 -1.2946,-0.57565 -2.34555,-1.56261 -3.15284,-2.96088 z m -208.81308,127.09858 2.28515,3.958 11.5019,-6.64062 -2.28515,-3.95801 z m 65.69614,-37.92969 2.28515,3.95801 11.5019,-6.64063 -2.28515,-3.958 z m 62.63969,-36.16504 2.28515,3.95801 11.5019,-6.64063 -2.28515,-3.958 z m 65.69615,-37.92969 2.28515,3.95801 11.5019,-6.64063 -2.28515,-3.958 z m -189.7851,117.38024 1.23926,2.14645 9.70412,-5.7e-4 c -1.1411,-1.15093 -2.41718,-2.10557 -3.97346,-2.65174 -2.50409,-0.89975 -4.8274,-0.73112 -6.96992,0.50586 z M 754.83483,403.6999 c -2.11995,1.22396 -3.47146,3.10182 -4.05453,5.63359 -0.57354,2.4962 -0.23309,4.96087 1.02134,7.394 l 4.19481,-2.42188 c -0.62943,-1.3506 -0.84197,-2.65623 -0.63762,-3.91688 0.19131,-1.2832 0.77186,-2.20475 1.74163,-2.76465 1.2855,-0.74218 2.54476,-0.85277 3.77774,-0.33176 l 1.61361,-4.31453 c -2.51108,-1.01598 -5.06341,-0.77528 -7.65698,0.72211 z m 13.53165,-7.8125 2.26563,3.92418 c 0.99231,-0.57291 2.11322,-0.55852 3.36273,0.0432 1.27204,0.58868 2.31172,1.58215 3.11901,2.98042 0.80729,1.39826 1.14783,2.79539 1.02162,4.19135 -0.10368,1.38295 -0.65167,2.36088 -1.64399,2.9338 -0.9021,0.52083 -1.94536,0.53679 -3.12975,0.0478 -1.19742,-0.51147 -2.21233,-1.38394 -3.04473,-2.61735 l -4.19481,2.42187 c 1.47995,2.30293 3.43943,3.84789 5.87843,4.63486 2.43899,0.78698 4.68466,0.58802 6.73696,-0.59687 2.14251,-1.23698 3.4567,-3.15345 3.94257,-5.74938 0.49542,-2.63151 0.027,-5.18767 -1.40532,-7.66847 -1.43229,-2.4808 -3.41176,-4.16456 -5.93843,-5.05128 -2.5041,-0.89974 -4.82741,-0.73112 -6.96992,0.50586 z m -128.82374,74.42153 c -0.71997,0.49385 -1.22293,1.15847 -1.73009,1.81979 l 2.78087,2.1e-4 z M 767.87857,396.2142 c -1.93859,1.32975 -3.10572,3.26655 -3.5014,5.8104 -0.38612,2.50827 0.1044,4.94644 1.47158,7.31447 l 4.16099,-2.40234 c -0.74219,-1.28551 -1.09354,-2.57114 -1.05404,-3.85689 0.0395,-1.28577 0.43567,-2.26624 1.1885,-2.94146 z m -119.16289,68.88895 2.28515,3.958 5.17585,-2.98828 c 1.30807,-0.75521 2.69309,-0.90835 4.1551,-0.4594 1.48456,0.43591 2.61747,1.33045 3.39871,2.68361 0.70063,1.21352 0.87017,2.4968 0.64911,3.83132 l 4.68672,4.5e-4 c 0.25767,-2.16778 0.005,-4.26897 -1.14102,-6.25365 -1.43229,-2.4808 -3.51151,-4.0769 -6.23766,-4.7883 -2.73916,-0.73396 -5.33786,-0.3913 -7.79611,1.02797 z m 14.95246,-8.63281 2.28516,3.958 11.5019,-6.64062 -2.28516,-3.95801 z m 12.41529,-7.16797 2.22656,3.85651 2.4357,-1.40625 14.04892,10.42721 0.27063,-0.15625 -5,-8.66025 -9.24573,-6.79535 z m 9.23535,-5.33203 10.2539,17.76028 3.85652,-2.22656 -10.2539,-17.76029 z m 10.72382,-6.19141 4.16467,21.27591 4.2963,-2.48047 -0.8577,-4.3762 5.37883,-3.10547 -3.30246,-2.8294 -2.9093,1.67969 -2.47404,-12.64453 z m 4.83757,-2.79297 1.46775,7.54222 10.5791,9.18291 4.33012,-2.5 -16.34314,-14.24466 z m 6.86731,-3.96484 10.25391,17.76028 3.958,-2.28515 -6.85547,-11.87402 -5.19137,-4.85111 z m 2.67251,-1.54297 15.70039,14.61575 4.09332,-2.36328 -15.76806,-14.57669 z m 10.96063,-6.32813 2.83568,12.25531 5.76022,5.28948 -3.56153,-15.30936 3.95801,-2.28516 -2.22656,-3.85652 z m 7.98367,-4.60937 2.28516,3.958 11.5019,-6.64062 -2.28516,-3.95801 z m 47.68721,-27.53223 2.28516,3.95801 5.17585,-2.98828 c 1.30806,-0.75521 2.69309,-0.90835 4.1551,-0.45941 1.48455,0.43591 2.61747,1.33045 3.39871,2.68361 0.78125,1.35317 0.98949,2.78157 0.62473,4.28518 -0.35524,1.46805 -1.18688,2.57968 -2.49494,3.33489 l -0.50744,0.29297 2.28515,3.95801 0.50744,-0.29297 c 2.48081,-1.4323 4.08342,-3.50024 4.80785,-6.20383 0.73395,-2.73916 0.39129,-5.33788 -1.02798,-7.79612 -1.43229,-2.4808 -3.51151,-4.07691 -6.23765,-4.78831 -2.73917,-0.73395 -5.33788,-0.3913 -7.79612,1.02797 z m 14.95247,-8.63281 2.28515,3.95801 11.5019,-6.64063 -2.28515,-3.958 z m 12.41529,-7.16797 2.22656,3.85652 2.43569,-1.40625 14.04894,10.4272 0.27063,-0.15625 -5,-8.66025 -9.24575,-6.79534 z m 9.23534,-5.33203 10.25391,17.76029 3.85652,-2.22657 -10.2539,-17.76028 z m 10.72384,-6.19141 4.16467,21.27591 4.29629,-2.48046 -0.85769,-4.37621 5.37882,-3.10546 -3.30246,-2.8294 -2.9093,1.67968 -2.47404,-12.64452 z m 4.83756,-2.79296 1.46774,7.54221 10.57911,9.18291 4.33013,-2.5 -16.34315,-14.24466 z m 6.86731,-3.96485 10.25391,17.76029 3.958,-2.28516 -6.85547,-11.87402 -5.19138,-4.85111 z m 2.6725,-1.54297 15.70039,14.61576 0.65629,-0.37891 -9.4e-4,-5.16178 -12.33007,-11.39929 z m 10.96064,-6.32812 2.83568,12.25531 2.55975,2.35157 10e-4,-10.81462 -0.36207,-1.55684 0.36197,-0.20899 -6.1e-4,-5.14167 z m -171.012,104.55243 7.73437,13.39633 3.85652,-2.22656 -5.27344,-9.13387 -4.32154,-3.18824 z m 48.37563,-27.92969 0.30765,1.6266 6.95312,12.04317 3.95801,-2.28516 -7.73438,-13.39633 z m 79.9602,-46.16504 7.73437,13.39633 3.85652,-2.22656 -5.27344,-9.13386 -4.32153,-3.18825 z m -155.645,89.997 1.51172,2.61837 5.41301,6.2e-4 -2.86523,-4.96274 z m 14.95248,-8.63281 5.09765,8.82939 4.05949,-2.34375 -5.09765,-8.82939 z m 65.69614,-37.92969 5.09765,8.8294 4.0595,-2.34375 -5.09766,-8.8294 z m 47.68722,-27.53223 7.73437,13.39633 4.0595,-2.34375 -7.73438,-13.39633 z m 14.95246,-8.63281 5.09766,8.8294 4.05949,-2.34375 -5.09765,-8.8294 z m -122.42124,73.79221 2.28516,3.95801 5.5818,-3.22266 -2.28515,-3.958 z m 65.69615,-37.92968 2.28515,3.958 5.5818,-3.22265 -2.28515,-3.95801 z m 62.63968,-36.16504 2.28516,3.958 5.5818,-3.22265 -2.28516,-3.95801 z m -48.48403,30.78881 c 1.43229,2.48079 3.42303,4.15805 5.97225,5.03174 2.55874,0.83813 4.93192,0.62569 7.11954,-0.63733 2.57101,-1.48438 4.04912,-3.58568 4.43432,-6.30392 l -4.52377,-0.72601 c -0.15226,1.35086 -0.87114,2.39739 -2.15665,3.13958 -1.03742,0.59895 -2.21471,0.61711 -3.53187,0.0545 -1.2946,-0.57566 -2.34556,-1.56263 -3.15285,-2.96089 z m -80.47725,53.00386 1.07227,1.85722 4.8529,-7.8e-4 7.86189,-4.53906 -2.28516,-3.95801 z m 65.69615,-37.92969 2.28516,3.958 11.5019,-6.64062 -2.28516,-3.95801 z m 62.63968,-36.16504 2.28515,3.95801 11.5019,-6.64063 -2.28515,-3.958 z m -9.28476,13.16833 c -2.11995,1.22395 -3.47147,3.10181 -4.05453,5.63358 -0.57354,2.49619 -0.2331,4.96085 1.02133,7.394 l 4.19481,-2.42187 c -0.62943,-1.35062 -0.84197,-2.65625 -0.63762,-3.9169 0.19131,-1.28319 0.77187,-2.20474 1.74163,-2.76464 1.28551,-0.74219 2.54476,-0.85277 3.77775,-0.33176 l 1.6136,-4.31453 c -2.51108,-1.01599 -5.06341,-0.77528 -7.65697,0.72212 z m 13.53164,-7.8125 2.26563,3.92417 c 0.99233,-0.57292 2.11323,-0.55853 3.36273,0.0432 1.27204,0.58868 2.31173,1.58214 3.11902,2.98041 0.80729,1.39827 1.14781,2.7954 1.02161,4.19136 -0.10367,1.38294 -0.65166,2.36088 -1.64399,2.9338 -0.9021,0.52083 -1.94537,0.53678 -3.12975,0.0479 -1.19742,-0.51149 -2.21232,-1.38394 -3.04472,-2.61736 l -4.19481,2.42187 c 1.47996,2.30293 3.43943,3.84789 5.87843,4.63486 2.439,0.78698 4.68465,0.58801 6.73694,-0.59688 2.14252,-1.23698 3.45672,-3.15344 3.94259,-5.74937 0.49541,-2.63151 0.027,-5.18767 -1.40533,-7.66847 -1.43229,-2.4808 -3.41176,-4.16456 -5.93842,-5.05128 -2.5041,-0.89974 -4.82741,-0.73111 -6.96993,0.50587 z m -0.4879,0.32679 c -1.9386,1.32974 -3.10573,3.26654 -3.5014,5.81039 -0.38613,2.50828 0.10439,4.94644 1.47158,7.31448 l 4.16098,-2.40234 c -0.74219,-1.28551 -1.09353,-2.57115 -1.05403,-3.8569 0.0395,-1.28576 0.43566,-2.26625 1.1885,-2.94146 z m -119.16291,68.88894 0.79688,1.38023 5.95373,-3.4e-4 0.71041,-0.41016 c 1.30806,-0.75521 2.69309,-0.90835 4.15509,-0.45942 0.64659,0.18987 1.19716,0.50477 1.71033,0.86864 l 6.09473,0.002 c -0.1,-0.19898 -0.0977,-0.4114 -0.21153,-0.60858 -1.43229,-2.4808 -3.51152,-4.0769 -6.23765,-4.78831 -2.73918,-0.73395 -5.33789,-0.3913 -7.79613,1.02797 z m 14.95247,-8.63281 2.28516,3.95801 11.5019,-6.64062 -2.28516,-3.95801 z m 12.41529,-7.16797 2.22656,3.85652 2.4357,-1.40625 14.04893,10.42721 0.27063,-0.15625 -5,-8.66025 -9.24575,-6.79535 z m 9.23534,-5.33203 10.25391,17.76029 3.85653,-2.22656 -10.25391,-17.76029 z m 10.72384,-6.19141 4.16467,21.27592 4.29629,-2.48047 -0.85769,-4.3762 5.37882,-3.10547 -3.30246,-2.8294 -2.9093,1.67968 -2.47404,-12.64452 z m 4.83756,-2.79296 1.46775,7.54222 10.57911,9.18291 4.33012,-2.5 -16.34315,-14.24467 z m 6.86731,-3.96485 10.25391,17.76029 3.95801,-2.28515 -6.85547,-11.87402 -5.19139,-4.85112 z m 2.6725,-1.54297 15.7004,14.61576 4.09332,-2.36328 -15.76805,-14.5767 z m 10.96064,-6.32812 2.83568,12.2553 5.76022,5.28949 -3.56152,-15.30937 3.95801,-2.28515 -2.22657,-3.85652 z m 7.98367,-4.60938 2.28516,3.95801 11.5019,-6.64062 -2.28516,-3.95801 z m 47.68721,-27.53222 2.28516,3.95801 5.17585,-2.98828 c 1.30807,-0.75521 2.69309,-0.90835 4.1551,-0.45942 1.48456,0.43592 2.61746,1.33046 3.39871,2.68362 0.78125,1.35317 0.98949,2.78157 0.62473,4.28518 -0.35524,1.46805 -1.18688,2.57968 -2.49495,3.33489 l -0.50743,0.29296 2.28516,3.95801 0.50743,-0.29296 c 2.48081,-1.4323 4.08342,-3.50024 4.80785,-6.20383 0.73395,-2.73916 0.39129,-5.33788 -1.02798,-7.79612 -1.43229,-2.4808 -3.51151,-4.07691 -6.23765,-4.78831 -2.73916,-0.73396 -5.33788,-0.3913 -7.79613,1.02797 z m 14.95248,-8.63282 2.28516,3.95801 11.5019,-6.64062 -2.28516,-3.95801 z m 12.41528,-7.16796 2.22656,3.85652 2.4357,-1.40625 10.17769,7.55406 2.7e-4,-4.45658 -0.8584,-1.48678 -9.24575,-6.79535 z m 9.23536,-5.33204 5.60546,9.70896 8e-5,-8.90612 -1.74902,-3.0294 z m -134.95016,83.73213 7.43359,12.87535 1.20402,-5.1e-4 2.95327,-1.70507 -5.27344,-9.13387 -4.32153,-3.18825 z m 48.37564,-27.92969 0.30763,1.6266 6.95313,12.04317 3.958,-2.28516 -7.73437,-13.39633 z m 79.96019,-46.16504 7.73438,13.39633 3.85652,-2.22656 -5.27345,-9.13387 -4.32154,-3.18824 z m -140.69254,81.36418 3.23633,5.60549 5.41301,6e-4 -4.58984,-7.94984 z m 65.69615,-37.92969 5.09766,8.82941 4.0595,-2.34375 -5.09766,-8.82941 z m 47.68722,-27.53223 7.73438,13.39633 4.05949,-2.34375 -7.73438,-13.39633 z m 14.95246,-8.63281 5.09766,8.82941 4.0595,-2.34375 -5.09766,-8.82941 z m -122.42123,73.79223 2.28515,3.958 5.58181,-3.22266 -2.28516,-3.958 z m 65.69614,-37.92969 2.28515,3.958 5.58182,-3.22266 -2.28516,-3.958 z m 62.63968,-36.16504 2.28516,3.958 5.58181,-3.22265 -2.28516,-3.958 z m -48.48403,30.78881 c 1.43229,2.4808 3.42304,4.15805 5.97226,5.03175 2.55873,0.83812 4.93192,0.62566 7.11954,-0.63735 2.57101,-1.48438 4.04913,-3.58568 4.43432,-6.30391 l -4.52377,-0.72601 c -0.15225,1.35086 -0.87114,2.39739 -2.15665,3.13958 -1.03742,0.59895 -2.21471,0.61711 -3.53187,0.0545 -1.29461,-0.57565 -2.34556,-1.56262 -3.15285,-2.96089 z m -73.91271,49.21381 6.58287,-4.8e-4 -1.64551,-2.8501 z m 59.13161,-34.13965 2.28516,3.95801 11.5019,-6.64062 -2.28516,-3.95801 z m 62.63969,-36.16504 2.28516,3.95801 11.5019,-6.64062 -2.28516,-3.95801 z m -9.28477,13.16832 c -2.11995,1.22396 -3.47147,3.10184 -4.05454,5.63359 -0.57353,2.49619 -0.23308,4.96086 1.02134,7.39401 l 4.19481,-2.42187 c -0.62942,-1.35062 -0.84196,-2.65625 -0.63762,-3.9169 0.19132,-1.2832 0.77186,-2.20475 1.74164,-2.76465 1.2855,-0.74219 2.54475,-0.85276 3.77774,-0.33176 l 1.6136,-4.31452 c -2.51107,-1.01599 -5.0634,-0.77529 -7.65697,0.7221 z m 13.53165,-7.8125 2.26563,3.92418 c 0.99231,-0.57292 2.11322,-0.55852 3.36272,0.0432 1.27205,0.58867 2.31173,1.58215 3.11902,2.98042 0.80729,1.39827 1.14783,2.79539 1.02161,4.19135 -0.10367,1.38295 -0.65166,2.36088 -1.64398,2.93379 -0.90211,0.52084 -1.94536,0.53679 -3.12976,0.0479 -1.19741,-0.51148 -2.21233,-1.38394 -3.04472,-2.61737 l -4.19481,2.42188 c 1.47994,2.30293 3.43942,3.84789 5.87843,4.63487 2.43899,0.78697 4.68466,0.58801 6.73696,-0.59688 2.1425,-1.23698 3.4567,-3.15345 3.94258,-5.74937 0.4954,-2.63151 0.027,-5.18768 -1.40532,-7.66847 -1.4323,-2.48081 -3.41178,-4.16457 -5.93843,-5.05128 -2.50411,-0.89974 -4.82743,-0.73112 -6.96993,0.50585 z m -0.48791,0.3268 c -1.93859,1.32975 -3.10573,3.26655 -3.5014,5.81039 -0.38613,2.50829 0.1044,4.94644 1.47159,7.31449 l 4.16097,-2.40234 c -0.74219,-1.28551 -1.09353,-2.57116 -1.05403,-3.8569 0.0395,-1.28576 0.43567,-2.26625 1.1885,-2.94146 z m -104.21043,60.25614 2.28516,3.958 11.5019,-6.64062 -2.28516,-3.95801 z m 12.41528,-7.16797 2.22656,3.85652 2.4357,-1.40625 12.23837,9.08419 1.39566,-6.4e-4 -4.31447,-7.47285 -9.24574,-6.79534 z m 9.23536,-5.33203 9.7373,16.8655 2.06597,2.5e-4 2.30715,-1.33203 -10.25391,-17.76028 z m 10.72383,-6.19141 4.16467,21.27591 4.2963,-2.48047 -0.85771,-4.3762 5.37883,-3.10547 -3.30246,-2.82939 -2.9093,1.67968 -2.47403,-12.64453 z m 4.83757,-2.79297 1.46775,7.54221 10.5791,9.18292 4.33012,-2.5 -16.34314,-14.24466 z m 6.8673,-3.96484 10.25391,17.76029 3.95801,-2.28516 -6.85547,-11.87403 -5.19138,-4.8511 z m 2.67251,-1.54297 15.70039,14.61576 4.09333,-2.36329 -15.76806,-14.57669 z m 10.96063,-6.32812 2.83569,12.2553 5.76022,5.28949 -3.56153,-15.30937 3.958,-2.28516 -2.22656,-3.85651 z m 7.98367,-4.60938 2.28516,3.95801 11.5019,-6.64063 -2.28516,-3.958 z m 47.68721,-27.53222 2.28516,3.958 4.06964,-2.34961 4.8e-4,-5.00699 c -0.38894,0.1686 -0.79726,0.18968 -1.17941,0.41031 z m -119.49158,69.82746 0.71054,2.3e-4 c -0.2346,0.0166 -0.4782,-0.0341 -0.71054,-2.3e-4 z m 21.14453,-7.22816 4.17383,7.22929 5.14168,-6.1e-4 -2.99805,-5.19277 -4.32155,-3.18825 z m 48.37564,-27.92969 0.30764,1.62661 6.95313,12.04316 3.958,-2.28515 -7.73438,-13.39633 z m -60.66129,35.15814 5.31853,0.001 -1.33008,-2.30377 z m 65.62511,-37.88868 5.09765,8.8294 4.0595,-2.34375 -5.09766,-8.8294 z m 47.68721,-27.53222 3.67578,6.36663 -2.5e-4,-8.4887 z m -107.46878,65.1594 0.15137,0.26218 7.44216,-4.4e-4 -2.01172,-3.4844 z m 65.69615,-37.92969 2.28516,3.958 5.5818,-3.22265 -2.28515,-3.95801 z m 14.15565,-5.37622 c 1.43229,2.48079 3.42305,4.15805 5.97226,5.03175 2.55873,0.83811 4.93192,0.62567 7.11954,-0.63735 2.57101,-1.48438 4.04912,-3.58568 4.43431,-6.30391 l -4.52375,-0.72601 c -0.15228,1.35085 -0.87115,2.39738 -2.15666,3.13956 -1.03742,0.59896 -2.21471,0.61712 -3.53187,0.0545 -1.2946,-0.57565 -2.34555,-1.56261 -3.15284,-2.96088 z m -14.7811,15.07416 2.28516,3.95801 11.5019,-6.64063 -2.28516,-3.958 z m -35.59426,28.49344 h 9.14062 l 2.42893,-1.40234 -2.28516,-3.95801 z m 10.19778,-5.88769 2.22656,3.85651 2.4357,-1.40625 4.63225,3.43737 5.74199,1.1e-4 -1.05469,-1.82677 -9.24573,-6.79535 z m 9.23535,-5.33203 6.47753,11.21942 5.14265,0.001 -7.76367,-13.44707 z m 10.72383,-6.19141 3.40856,17.41163 4.78121,3e-5 -0.58651,-2.99242 5.37883,-3.10547 -3.30245,-2.8294 -2.90931,1.67969 -2.47403,-12.64453 z m 4.83756,-2.79297 1.46775,7.54221 10.5791,9.18292 4.33013,-2.5 -16.34315,-14.24466 z m 6.86732,-3.96484 10.2539,17.76028 3.95801,-2.28515 -6.85547,-11.87403 -5.19138,-4.8511 z m 2.67249,-1.54297 15.7004,14.61575 4.09332,-2.36328 -15.76805,-14.57669 z m 10.96063,-6.32812 2.8357,12.2553 5.76021,5.28948 -3.56153,-15.30936 3.95801,-2.28516 -2.22656,-3.85651 z m 7.98368,-4.60938 2.28515,3.95801 11.5019,-6.64063 -2.28515,-3.958 z m -50.65985,35.06708 0.91406,1.5832 4.78992,-5e-4 -3.70806,-2.73504 z m 48.37564,-27.92969 0.30764,1.62661 6.95313,12.04316 3.95801,-2.28516 -7.73437,-13.39633 z m 4.96382,-2.73054 5.09765,8.8294 4.0595,-2.34375 -5.09766,-8.8294 z m 5.91459,-0.30251 2.28515,3.958 5.58181,-3.22265 -2.28516,-3.95801 z m -0.62545,9.69794 2.28515,3.95801 7.93462,-4.58106 v -5.27734 z m -25.39649,22.60574 0.13965,0.24188 8.64617,-9.5e-4 -4.04974,-2.97531 z m 9.23535,-5.33203 3.2168,5.57166 c 1.66336,-0.003 3.28077,-0.18551 4.84285,-0.5182 l -4.20313,-7.28003 z m 10.72382,-6.19141 1.90833,9.75062 c 1.52824,-0.68018 2.96039,-1.52551 4.29134,-2.50468 l -1.90336,-9.72641 z m 4.83757,-2.79297 1.46775,7.54222 1.44556,1.25379 c 1.19446,-1.04775 2.27489,-2.2164 3.23218,-3.48765 l -6.11166,-5.32789 z m 6.86731,-3.96484 2.28321,3.95463 c 0.50894,-1.27371 0.92397,-2.59641 1.20281,-3.97136 l -1.32095,-1.23327 z m 2.67251,-1.54297 0.91564,0.85158 c 0.0864,-0.50099 0.17547,-1.00106 0.22947,-1.51271 z" /><path
         id="rect846-81-7-9-74-0"
         style="font-variation-settings:normal;opacity:0.68714;fill:url(#linearGradient17842);fill-opacity:1;stroke-width:9.0178;stroke-linecap:butt;stroke-linejoin:miter;stroke-miterlimit:4;stroke-dasharray:none;stroke-dashoffset:0;stroke-opacity:1;stop-color:#000000"
         d="M 646.18254,309.64859 599.784,382.29177 v 17.20027 l 57.38556,-89.84345 z m 18.27469,0 L 599.784,410.9007 v 38.01827 c 0,6.71609 2.84151,12.72917 7.37155,16.95997 l 99.7855,-156.23035 z m 124.96026,0 -103.78182,162.48211 h 42.48382 L 831.9013,309.64859 Z m 48.90105,0.91123 -103.19926,161.57088 h 10.9893 L 846.56505,314.84856 c -2.39472,-1.9493 -5.19141,-3.41665 -8.24651,-4.28874 z" /></g></g></svg>
