<?xml version="1.0" encoding="UTF-8" standalone="no"?>
<!-- Created with Inkscape (http://www.inkscape.org/) -->

<svg
   width="255.32901"
   height="162.48213"
   viewBox="0 0 255.32901 162.48213"
   version="1.1"
   id="svg5"
   inkscape:version="1.2.1 (9c6d41e410, 2022-07-14)"
   sodipodi:docname="mockup.svg"
   xml:space="preserve"
   xmlns:inkscape="http://www.inkscape.org/namespaces/inkscape"
   xmlns:sodipodi="http://sodipodi.sourceforge.net/DTD/sodipodi-0.dtd"
   xmlns:xlink="http://www.w3.org/1999/xlink"
   xmlns="http://www.w3.org/2000/svg"
   xmlns:svg="http://www.w3.org/2000/svg"><sodipodi:namedview
     id="namedview7"
     pagecolor="#404040"
     bordercolor="#666666"
     borderopacity="1.0"
     inkscape:pageshadow="2"
     inkscape:pageopacity="0"
     inkscape:pagecheckerboard="0"
     inkscape:document-units="px"
     showgrid="false"
     inkscape:snap-global="true"
     inkscape:zoom="3.4"
     inkscape:cx="360.29412"
     inkscape:cy="296.91176"
     inkscape:window-width="3840"
     inkscape:window-height="2066"
     inkscape:window-x="-11"
     inkscape:window-y="-11"
     inkscape:window-maximized="1"
     inkscape:current-layer="layer1"
     inkscape:showpageshadow="2"
     inkscape:deskcolor="#404040" /><defs
     id="defs2"><linearGradient
       inkscape:collect="always"
       id="linearGradient5357"><stop
         style="stop-color:#ffffff;stop-opacity:0.25748503;"
         offset="0"
         id="stop5353" /><stop
         style="stop-color:#ffffff;stop-opacity:0;"
         offset="0.67889911"
         id="stop5355" /></linearGradient><linearGradient
       inkscape:collect="always"
       xlink:href="#linearGradient5357"
       id="linearGradient429"
       gradientUnits="userSpaceOnUse"
       x1="203.84238"
       y1="279.54575"
       x2="203.84238"
       y2="350.50412"
       spreadMethod="reflect"
       gradientTransform="matrix(1.1605865,0,0,1.1605865,86.660196,-208.59162)" /></defs><g
     inkscape:label="Layer 1"
     inkscape:groupmode="layer"
     id="layer1"
     transform="translate(-323.23691,-115.46333)"><g
       id="g748"><rect
         style="fill:#e4d5b8;fill-opacity:1;stroke-width:15.8465;stroke-opacity:0.547893"
         id="rect846-7-2"
         width="255.32903"
         height="162.48212"
         x="323.23691"
         y="115.46333"
         rx="23.211729"
         ry="23.211729" /><rect
         style="fill:none;fill-opacity:1;stroke:#aa0000;stroke-width:10.5613;stroke-dasharray:none;stroke-opacity:1"
         id="rect846-1-2-1"
         width="232.11729"
         height="139.27039"
         x="334.84274"
         y="127.06916"
         rx="11.605865"
         ry="11.605865" /><rect
         style="fill:#ffffff;fill-opacity:1;stroke:none;stroke-width:4.38056;stroke-dasharray:none;stroke-opacity:1"
         id="rect6027-4-1"
         width="214.375"
         height="41.0191"
         x="343.7139"
         y="176.19476" /><text
         xml:space="preserve"
         style="font-style:normal;font-weight:normal;font-size:30.949px;line-height:1.25;font-family:sans-serif;fill:#000000;fill-opacity:1;stroke:none;stroke-width:1.16059"
         x="395.43347"
         y="207.70575"
         id="text1801-8-3"><tspan
           sodipodi:role="line"
           x="395.43347"
           y="207.70575"
           style="font-style:normal;font-variant:normal;font-weight:normal;font-stretch:normal;font-size:30.949px;font-family:Roboto;-inkscape-font-specification:Roboto;stroke-width:1.16059"
           id="tspan351-0-2">BOTTLE</tspan></text><g
         aria-label="R"
         id="text253-2"
         style="font-size:40px;line-height:1.25;fill:#aa0000"
         transform="matrix(1.1551283,0,0,1.1551283,87.438832,-412.52957)"><path
           d="m 229.61105,482.8493 q 3.08594,0 5.625,1.91407 2.57813,1.91406 2.57813,4.21875 v 6.17187 h -4.6875 v -5.50781 q 0,-1.21094 -0.85938,-2.07031 -0.85937,-0.85938 -2.07031,-0.85938 h -1.75781 v -3.86719 z m -6.44531,12.30469 v -15.46875 h 4.6875 v 15.46875 z m 12.34375,-10.9375 q -1.67969,-1.17187 -3.59375,-1.64062 1.21094,-0.66407 1.21094,-1.95313 0,-0.625 -0.39063,-1.05469 -0.39062,-0.46875 -0.89843,-0.46875 h -8.78907 v -4.45312 h 8.90625 q 2.42188,0 4.14063,1.75781 1.71875,1.71875 1.71875,4.10156 0,2.34375 -2.30469,3.71094 z"
           style="font-family:BroshK;-inkscape-font-specification:BroshK"
           id="path3430" /></g><path
         id="rect846-81-7-6"
         style="font-variation-settings:normal;fill:url(#linearGradient429);fill-opacity:1;stroke-width:9.0178;stroke-linecap:butt;stroke-linejoin:miter;stroke-miterlimit:4;stroke-dasharray:none;stroke-dashoffset:0;stroke-opacity:1;stop-color:#000000"
         d="m 369.63544,115.46334 -46.39853,72.64318 v 17.20027 l 57.38556,-89.84345 z m 18.2747,0 -64.67323,101.2521 v 38.01828 c 0,6.71609 2.84151,12.72917 7.37155,16.95997 l 99.7855,-156.23035 z m 124.96026,0 -103.78182,162.48211 H 451.5724 L 555.35421,115.46334 Z m 48.90104,0.91123 -103.19925,161.57088 h 10.9893 L 570.01796,120.66331 c -2.39472,-1.9493 -5.19141,-3.41665 -8.24652,-4.28874 z" /></g></g></svg>
