<?xml version="1.0" encoding="UTF-8" standalone="no"?>
<!-- Created with Inkscape (http://www.inkscape.org/) -->

<svg
   width="255.33008"
   height="162.48358"
   viewBox="0 0 255.33008 162.48358"
   version="1.1"
   id="svg5"
   inkscape:version="1.2.1 (9c6d41e410, 2022-07-14)"
   sodipodi:docname="mockup.svg"
   xml:space="preserve"
   xmlns:inkscape="http://www.inkscape.org/namespaces/inkscape"
   xmlns:sodipodi="http://sodipodi.sourceforge.net/DTD/sodipodi-0.dtd"
   xmlns:xlink="http://www.w3.org/1999/xlink"
   xmlns="http://www.w3.org/2000/svg"
   xmlns:svg="http://www.w3.org/2000/svg"><sodipodi:namedview
     id="namedview7"
     pagecolor="#404040"
     bordercolor="#666666"
     borderopacity="1.0"
     inkscape:pageshadow="2"
     inkscape:pageopacity="0"
     inkscape:pagecheckerboard="0"
     inkscape:document-units="px"
     showgrid="false"
     inkscape:snap-global="true"
     inkscape:zoom="1.9548704"
     inkscape:cx="723.06582"
     inkscape:cy="486.22148"
     inkscape:window-width="3840"
     inkscape:window-height="2066"
     inkscape:window-x="-11"
     inkscape:window-y="-11"
     inkscape:window-maximized="1"
     inkscape:current-layer="layer1"
     inkscape:showpageshadow="2"
     inkscape:deskcolor="#404040" /><defs
     id="defs2"><linearGradient
       inkscape:collect="always"
       id="linearGradient5357"><stop
         style="stop-color:#ffffff;stop-opacity:0.25748503;"
         offset="0"
         id="stop5353" /><stop
         style="stop-color:#ffffff;stop-opacity:0;"
         offset="0.67889911"
         id="stop5355" /></linearGradient><linearGradient
       inkscape:collect="always"
       xlink:href="#linearGradient5357"
       id="linearGradient17806"
       gradientUnits="userSpaceOnUse"
       gradientTransform="matrix(1.1605865,0,0,1.1605865,86.65967,-14.4071)"
       x1="203.84238"
       y1="279.54575"
       x2="203.84238"
       y2="350.50412"
       spreadMethod="reflect" /></defs><g
     inkscape:label="Layer 1"
     inkscape:groupmode="layer"
     id="layer1"
     transform="translate(-323.23639,-309.64786)"><g
       id="g17929"><path
         id="rect846-7-18-8"
         style="fill:#aa0000;stroke-width:15.8465;stroke-opacity:0.547893"
         d="M 346.44864,309.64859 H 555.3542 c 12.8593,0 23.21173,10.35243 23.21173,23.21173 v 116.05866 c 0,12.8593 -10.35243,23.21173 -23.21173,23.21173 H 346.44864 c -12.8593,0 -23.21173,-10.35243 -23.21173,-23.21173 V 332.86032 c 0,-12.8593 10.35243,-23.21173 23.21173,-23.21173 z" /><path
         id="rect846-7-18-8-9"
         style="fill:#7c0000;fill-opacity:1;stroke-width:15.8465;stroke-opacity:0.547893"
         d="m 335.36653,312.44277 c -0.17928,0.0971 -0.34455,0.21483 -0.52091,0.31653 l 1.52344,2.63866 1.52231,-0.8789 c 0.69913,-0.40365 1.44001,-0.50062 2.22264,-0.29092 0.78261,0.2097 1.37574,0.66413 1.77939,1.36326 l 2.7539,4.7699 4.0595,-2.34375 -3.08594,-5.34499 c -0.76823,-1.33062 -2.2156,-2.11878 -4.34209,-2.36449 -0.10293,-0.0127 -0.19481,0.0187 -0.29697,0.009 -1.98092,0.47562 -3.87098,1.18042 -5.61527,2.12563 z m -1.02248,0.61965 c -1.35231,0.82618 -2.61172,1.78255 -3.76165,2.85964 l 5.43848,9.41971 4.05949,-2.34375 z m -5.52922,4.69655 c -1.43364,1.67396 -2.62742,3.55439 -3.54064,5.594 -0.0216,0.35181 0.0308,0.69385 -0.0566,1.05431 -0.19937,0.82392 -0.58685,1.50727 -1.08635,2.10667 -0.32845,1.16437 -0.57425,2.36272 -0.71877,3.59491 l 1.08789,1.88428 0.50744,-0.29297 c 2.48079,-1.43229 4.08342,-3.50023 4.80784,-6.20383 0.7282,-2.71764 0.39051,-5.29625 -1.00082,-7.73737 z m 16.57962,-8.0567 1.85058,3.20531 4.05949,-2.34375 -0.52832,-0.91508 -4.32792,-1.1e-4 c -0.3559,0 -0.70195,0.0379 -1.05383,0.0536 z m 2.04207,3.77134 2.28516,3.958 11.50189,-6.64062 -0.65918,-1.14174 -6.50244,-8.4e-4 z m -24.11253,17.65385 c -0.042,0.573 -0.086,1.14578 -0.0861,1.72986 l 0.81359,-0.46972 z m 38.59316,-21.4789 0.37989,0.65798 1.14004,-0.6582 z M 323.2374,335.2392 v 5.27734 l 7.11426,-4.10742 -2.28515,-3.958 z m 5.74249,-3.31543 2.28516,3.95801 5.17585,-2.98828 c 1.30806,-0.75521 2.6931,-0.90834 4.1551,-0.45941 1.48456,0.43591 2.61747,1.33045 3.39872,2.68362 0.78125,1.35316 0.98949,2.78156 0.62472,4.28518 -0.35523,1.46805 -1.18688,2.57967 -2.49494,3.33488 l -0.50743,0.29297 2.28515,3.958 0.50743,-0.29296 c 2.4808,-1.43229 4.08342,-3.50023 4.80785,-6.20383 0.73396,-2.73916 0.3913,-5.33787 -1.02797,-7.79612 -1.4323,-2.4808 -3.51151,-4.0769 -6.23766,-4.78831 -2.73916,-0.73395 -5.33788,-0.3913 -7.79612,1.02797 z m 16.08744,-9.28808 2.22656,3.85652 7.61156,-4.39453 c 0.29319,-0.16927 0.63066,-0.18369 1.01244,-0.0433 0.36876,0.11787 0.65731,0.35723 0.86564,0.71807 0.42969,0.74424 0.40563,1.50988 -0.0721,2.29693 1.26133,-0.36739 2.5722,-0.49274 3.93259,-0.37606 0.87487,-1.55757 0.9217,-3.01295 0.14045,-4.3661 -0.79427,-1.37572 -1.97403,-2.27328 -3.53927,-2.69269 -1.57825,-0.44196 -3.06652,-0.25929 -4.46479,0.548 z m 13.80228,-7.96875 2.28515,3.958 11.5019,-6.64062 -1.34863,-2.3359 -3.74603,-4e-5 z m 13.6565,-5.01813 1.04394,1.80816 3.13258,-1.80859 z m -24.83776,17.29224 7.73437,13.39633 4.0595,-2.34375 -7.73438,-13.39633 z m -24.4506,14.25188 -3.6e-4,9.22203 1.10449,1.91303 4.05949,-2.34375 -5.09766,-8.8294 z m 8.42176,-4.86231 7.73437,13.39633 4.0595,-2.34375 -7.73438,-13.39633 z m 29.88971,-17.25683 5.09766,8.8294 4.05949,-2.34375 -5.09765,-8.8294 z m 12.41529,-7.16797 7.73438,13.39633 4.05949,-2.34375 -7.68457,-13.31007 -0.20035,6.5e-4 z m -48.8057,31.29026 2.28516,3.95801 5.5818,-3.22265 -2.28516,-3.95802 z m 42.305,-24.42481 2.28516,3.95802 5.5818,-3.22266 -2.28516,-3.95801 z m -13.62649,8.27322 1.93359,3.34908 1.52231,-0.87891 c 0.69913,-0.40364 1.44,-0.50061 2.22263,-0.29091 0.78261,0.2097 1.37575,0.66412 1.7794,1.36326 l 2.7539,4.7699 4.0595,-2.34375 -3.08594,-5.345 c -0.76823,-1.33061 -2.2156,-2.11877 -4.3421,-2.36448 -2.10395,-0.25874 -4.04676,0.12623 -5.82842,1.15488 z m 31.57278,-17.39636 c 0.30961,0.33122 0.64754,0.62548 0.88962,1.04477 0.78125,1.35317 0.9895,2.78156 0.62473,4.28519 -0.35524,1.46805 -1.1869,2.57967 -2.49495,3.33488 l -0.50743,0.29296 2.28516,3.95801 0.50743,-0.29297 c 2.48079,-1.43229 4.08341,-3.50023 4.80784,-6.20382 0.5987,-2.23436 0.44181,-4.37016 -0.3922,-6.4176 z m 8.70142,9.8e-4 3.61621,6.26346 4.05949,-2.34375 -2.26367,-3.92079 z m -70.87428,43.34371 4.6e-4,5.92659 2.56594,-1.48145 z m 1.29612,-0.0988 2.28515,3.95801 11.5019,-6.64063 -2.28515,-3.958 z m 42.305,-24.4248 2.28515,3.958 11.5019,-6.64062 -2.28515,-3.95801 z m 38.77458,-18.82093 0.74121,1.28381 2.22257,-1.2832 z m -82.37638,51.78867 8.6e-4,2.47806 1.15332,1.9976 7.61155,-4.39453 c 0.29318,-0.16927 0.63066,-0.18369 1.01245,-0.0433 0.36875,0.11788 0.6573,0.35723 0.86563,0.71807 0.42969,0.74424 0.40563,1.50989 -0.0721,2.29693 1.26133,-0.36739 2.5722,-0.49274 3.93259,-0.37606 0.87487,-1.55757 0.9217,-3.01295 0.14045,-4.3661 -0.79427,-1.37572 -1.97402,-2.27328 -3.53926,-2.69269 -1.57826,-0.44195 -3.06653,-0.25928 -4.4648,0.54801 z m 12.72989,-7.34961 2.28516,3.95801 11.5019,-6.64063 -2.28516,-3.958 z m 12.41529,-7.16797 2.28516,3.95801 5.17585,-2.98828 c 1.30805,-0.75521 2.6931,-0.90835 4.1551,-0.45942 1.48456,0.43592 2.61746,1.33046 3.39871,2.68363 0.78125,1.35316 0.9895,2.78156 0.62473,4.28518 -0.35523,1.46805 -1.18689,2.57968 -2.49495,3.33488 l -0.50743,0.29297 2.28515,3.958 0.50744,-0.29297 c 2.4808,-1.43229 4.08342,-3.50023 4.80785,-6.20382 0.73396,-2.73916 0.3913,-5.33787 -1.02797,-7.79612 -1.4323,-2.48081 -3.51151,-4.07691 -6.23766,-4.78831 -2.73916,-0.73395 -5.33788,-0.3913 -7.79613,1.02797 z m 16.08744,-9.28808 2.22656,3.85652 7.61155,-4.39453 c 0.29319,-0.16927 0.63067,-0.18369 1.01245,-0.0433 0.36875,0.11788 0.6573,0.35723 0.86563,0.71806 0.42969,0.74425 0.40563,1.5099 -0.0721,2.29693 1.26134,-0.36738 2.57221,-0.49273 3.93259,-0.37605 0.87488,-1.55758 0.9217,-3.01295 0.14046,-4.36611 -0.79427,-1.37571 -1.97403,-2.27327 -3.53927,-2.69269 -1.57826,-0.44195 -3.06653,-0.25928 -4.46479,0.54801 z m 13.80228,-7.96875 2.28515,3.958 11.5019,-6.64062 -2.28515,-3.95801 z m 12.41529,-7.16797 2.28515,3.958 5.17585,-2.98828 c 1.30806,-0.7552 2.6931,-0.90834 4.15511,-0.45941 1.48456,0.43591 2.61746,1.33046 3.39871,2.68362 0.78125,1.35317 0.9895,2.78156 0.62473,4.28518 -0.35524,1.46805 -1.1869,2.57968 -2.49495,3.33489 l -0.50744,0.29297 2.28515,3.958 0.50744,-0.29297 c 2.4808,-1.43229 4.08342,-3.50023 4.80785,-6.20383 0.73396,-2.73916 0.3913,-5.33787 -1.02797,-7.79611 -1.4323,-2.48081 -3.51151,-4.07691 -6.23766,-4.78832 -2.73916,-0.73395 -5.33787,-0.39129 -7.79612,1.02798 z m 16.08743,-9.28809 2.22657,3.85652 7.61154,-4.39453 c 0.29319,-0.16927 0.63067,-0.18369 1.01245,-0.0433 0.36875,0.11788 0.6573,0.35724 0.86563,0.71807 0.42969,0.74425 0.40564,1.50989 -0.0721,2.29693 1.26133,-0.36739 2.5722,-0.49274 3.93259,-0.37606 0.87487,-1.55757 0.92169,-3.01294 0.14044,-4.3661 -0.2911,-0.5042 -0.69016,-0.87432 -1.08482,-1.25006 l -8.4703,8.9e-4 z m -81.98899,53.15497 7.73438,13.39633 4.05949,-2.34375 -7.73437,-13.39633 z m 42.30501,-24.42481 7.73437,13.39633 4.0595,-2.34375 -7.73438,-13.39633 z m 42.305,-24.4248 7.73438,13.39633 4.05949,-2.34375 -7.73438,-13.39633 z m -70.74913,40.98235 5.09765,8.8294 4.0595,-2.34375 -5.09766,-8.8294 z m 12.41529,-7.16797 7.73437,13.39633 4.0595,-2.34375 -7.73438,-13.39633 z m 29.88971,-17.25684 5.09766,8.8294 4.05949,-2.34375 -5.09765,-8.8294 z m 12.41529,-7.16797 7.73437,13.39633 4.0595,-2.34375 -7.73438,-13.39633 z m 29.89167,-17.25344 5.0957,8.82601 4.05949,-2.34375 -3.74218,-6.48166 z m -100.02165,59.96445 6.6e-4,15.27459 c 1.51063,-1.30762 2.53845,-2.96365 3.0773,-4.97466 0.73396,-2.73916 0.3913,-5.33787 -1.02797,-7.79611 -0.57081,-0.98869 -1.27367,-1.79617 -2.04999,-2.50382 z m 21.32428,-11.42074 2.28516,3.95801 5.5818,-3.22266 -2.28516,-3.95801 z m 42.305,-24.42481 2.28516,3.95801 5.5818,-3.22265 -2.28516,-3.95801 z m -55.9315,32.69802 1.93359,3.34908 1.52231,-0.8789 c 0.69912,-0.40364 1.44001,-0.50062 2.22263,-0.29091 0.78261,0.2097 1.37576,0.66411 1.7794,1.36325 l 2.75391,4.7699 4.05949,-2.34375 -3.08594,-5.345 c -0.76823,-1.33061 -2.2156,-2.11877 -4.3421,-2.36448 -2.10394,-0.25874 -4.04675,0.12623 -5.82842,1.15488 z m 42.305,-24.4248 1.93359,3.34908 1.52231,-0.87891 c 0.69913,-0.40364 1.44001,-0.50061 2.22263,-0.29091 0.78261,0.2097 1.37576,0.66412 1.7794,1.36325 l 2.75391,4.7699 4.05949,-2.34375 -3.08593,-5.34499 c -0.76823,-1.33061 -2.2156,-2.11877 -4.3421,-2.36448 -2.10395,-0.25874 -4.04676,0.12623 -5.82843,1.15487 z m 42.305,-24.4248 1.93359,3.34908 1.52232,-0.87891 c 0.69912,-0.40364 1.44,-0.50062 2.22263,-0.29091 0.78261,0.2097 1.37574,0.66412 1.77939,1.36325 l 2.7539,4.7699 4.0595,-2.34375 -3.08594,-5.34499 c -0.76822,-1.33062 -2.2156,-2.11877 -4.34209,-2.36449 -2.10395,-0.25874 -4.04676,0.12623 -5.82842,1.15488 z m 13.80325,-7.96706 2.1084,3.65185 5.58182,-3.22266 -0.24708,-0.42794 z m 10.46457,1.6e-4 3.59375,6.22455 4.05949,-2.34375 -2.24023,-3.8802 z m -95.87678,58.24123 2.28516,3.958 11.5019,-6.64062 -2.28516,-3.958 z m 42.30501,-24.4248 2.28515,3.958 11.5019,-6.64063 -2.28515,-3.958 z m 42.305,-24.42481 2.28516,3.958 11.5019,-6.64062 -2.28516,-3.958 z m 17.35616,-9.39137 2.0127,3.48609 0.50744,-0.29297 c 1.45116,-0.83783 2.56598,-1.91957 3.41615,-3.19242 z m -122.66396,77.98509 -1e-5,5.27734 3.61295,-2.08594 -2.28515,-3.958 z m 2.24118,-1.29395 2.28515,3.95801 5.17585,-2.98828 c 1.30806,-0.75521 2.6931,-0.90835 4.1551,-0.45941 1.48457,0.43591 2.61747,1.33045 3.39872,2.68362 0.78125,1.35316 0.9895,2.78156 0.62472,4.28518 -0.35523,1.46805 -1.18689,2.57968 -2.49494,3.33488 l -0.50744,0.29297 2.28516,3.95801 0.50743,-0.29297 c 2.4808,-1.43229 4.08342,-3.50024 4.80784,-6.20383 0.73397,-2.73916 0.39131,-5.33787 -1.02796,-7.79612 -1.4323,-2.48081 -3.51151,-4.07691 -6.23766,-4.78831 -2.73916,-0.73395 -5.33787,-0.3913 -7.79612,1.02797 z m 16.08743,-9.28808 2.22657,3.85652 7.61155,-4.39453 c 0.29318,-0.16927 0.63066,-0.18369 1.01244,-0.0433 0.36875,0.11788 0.6573,0.35723 0.86563,0.71807 0.42969,0.74424 0.40564,1.50989 -0.0721,2.29692 1.26132,-0.36738 2.57219,-0.49273 3.93259,-0.37605 0.87487,-1.55757 0.92169,-3.01295 0.14044,-4.3661 -0.79427,-1.37572 -1.97402,-2.27328 -3.53926,-2.69269 -1.57826,-0.44195 -3.06652,-0.25929 -4.46479,0.548 z m 13.80228,-7.96875 2.28516,3.958 11.5019,-6.64062 -2.28516,-3.95801 z m 12.41529,-7.16797 2.28516,3.958 5.17585,-2.98828 c 1.30805,-0.7552 2.69309,-0.90834 4.15509,-0.4594 1.48457,0.4359 2.61747,1.33045 3.39872,2.68361 0.78125,1.35317 0.9895,2.78156 0.62472,4.28519 -0.35523,1.46804 -1.18688,2.57967 -2.49494,3.33488 l -0.50744,0.29297 2.28516,3.958 0.50744,-0.29297 c 2.4808,-1.43229 4.08342,-3.50023 4.80783,-6.20382 0.73398,-2.73917 0.39131,-5.33788 -1.02796,-7.79612 -1.43229,-2.48081 -3.5115,-4.07691 -6.23766,-4.78831 -2.73915,-0.73396 -5.33787,-0.3913 -7.79612,1.02797 z m 16.08744,-9.28809 2.22656,3.85653 7.61155,-4.39453 c 0.29318,-0.16927 0.63067,-0.1837 1.01245,-0.0433 0.36875,0.11788 0.65729,0.35724 0.86562,0.71807 0.42969,0.74425 0.40564,1.50989 -0.0721,2.29693 1.26133,-0.36738 2.5722,-0.49273 3.93259,-0.37606 0.87488,-1.55757 0.92169,-3.01294 0.14045,-4.3661 -0.79427,-1.37571 -1.97402,-2.27328 -3.53927,-2.69269 -1.57825,-0.44195 -3.06652,-0.25928 -4.46479,0.54801 z m 13.80228,-7.96875 2.28515,3.95801 11.5019,-6.64063 -2.28515,-3.958 z m 12.41528,-7.16797 2.28516,3.95801 5.17585,-2.98828 c 1.30805,-0.75521 2.6931,-0.90835 4.1551,-0.45941 1.48456,0.43591 2.61747,1.33045 3.39872,2.68362 0.78125,1.35316 0.98949,2.78156 0.62472,4.28518 -0.35523,1.46805 -1.18689,2.57968 -2.49494,3.33488 l -0.50744,0.29297 2.28515,3.95801 0.50744,-0.29297 c 2.4808,-1.43229 4.08342,-3.50024 4.80784,-6.20383 0.73396,-2.73916 0.39131,-5.33787 -1.02796,-7.79612 -1.4323,-2.48081 -3.51152,-4.0769 -6.23767,-4.78831 -2.73915,-0.73395 -5.33787,-0.3913 -7.79611,1.02797 z m 16.08744,-9.28808 2.22656,3.85652 7.61155,-4.39453 c 0.29319,-0.16927 0.63067,-0.18369 1.01245,-0.0433 0.36875,0.11788 0.6573,0.35723 0.86563,0.71807 0.42969,0.74424 0.40564,1.50989 -0.0721,2.29692 1.26132,-0.36738 2.57219,-0.49273 3.93258,-0.37605 0.87488,-1.55757 0.9217,-3.01295 0.14045,-4.3661 -0.79427,-1.37572 -1.97403,-2.27328 -3.53927,-2.69269 -1.57825,-0.44195 -3.06652,-0.25929 -4.46478,0.548 z m 13.80228,-7.96875 2.28515,3.958 11.5019,-6.64062 -2.28515,-3.95801 z m 12.41528,-7.16797 2.28515,3.95801 5.17586,-2.98829 c 1.30806,-0.7552 2.6931,-0.90834 4.1551,-0.4594 1.48456,0.43591 2.61747,1.33045 3.39872,2.68361 0.78124,1.35317 0.98949,2.78157 0.62472,4.28519 -0.35523,1.46804 -1.18689,2.57967 -2.49494,3.33488 l -0.50744,0.29297 2.28516,3.958 0.50743,-0.29297 c 2.48079,-1.43228 4.08342,-3.50023 4.80784,-6.20382 0.73396,-2.73916 0.3913,-5.33787 -1.02797,-7.79612 -1.1256,-1.9496 -2.66511,-3.33125 -4.5898,-4.18807 l -8.51416,-8.5e-4 c -0.30985,0.14314 -0.6243,0.25219 -0.92981,0.42858 z m -108.20655,68.29169 7.73438,13.39633 4.05949,-2.34375 -7.73437,-13.39633 z m 42.305,-24.42481 7.73438,13.39633 4.05949,-2.34375 -7.73437,-13.39633 z m 42.30501,-24.4248 7.73437,13.39633 4.0595,-2.34375 -7.73438,-13.39633 z m -100.63886,58.23919 7.73438,13.39633 4.05949,-2.34375 -7.73437,-13.39633 z m 29.88973,-17.25684 5.09765,8.82939 4.0595,-2.34375 -5.09766,-8.82939 z m 12.41528,-7.16797 7.73437,13.39633 4.0595,-2.34375 -7.73438,-13.39633 z m 29.88972,-17.25684 5.09765,8.8294 4.0595,-2.34375 -5.09766,-8.8294 z m 12.41528,-7.16796 7.73437,13.39633 4.0595,-2.34375 -7.73438,-13.39633 z m 29.88972,-17.25684 5.09766,8.82939 4.05949,-2.34375 -5.09765,-8.82939 z m 12.41528,-7.16797 7.73438,13.39633 4.05949,-2.34375 -7.73437,-13.39633 z m 16.93314,-7.82328 6.83008,11.83004 4.05949,-2.34375 -5.47754,-9.48738 z m -148.76903,87.05104 2.6e-4,3.64889 0.70508,1.22124 5.58181,-3.22266 -2.28516,-3.95802 z m 40.72519,-23.51269 2.28516,3.95801 5.58181,-3.22266 -2.28516,-3.95801 z m 42.305,-24.42481 2.28516,3.95802 5.58181,-3.22266 -2.28516,-3.95802 z m 42.305,-24.4248 2.28516,3.95801 5.5818,-3.22265 -2.28516,-3.95802 z m -98.2365,57.12283 1.93359,3.34907 1.52232,-0.87891 c 0.69912,-0.40364 1.44001,-0.50061 2.22263,-0.29091 0.78261,0.2097 1.37574,0.66412 1.77939,1.36326 l 2.7539,4.7699 4.0595,-2.34375 -3.08594,-5.34499 c -0.76823,-1.33062 -2.2156,-2.11878 -4.34209,-2.36449 -2.10395,-0.25874 -4.04676,0.12623 -5.82842,1.15488 z m 42.305,-24.42481 1.93359,3.34908 1.52232,-0.87891 c 0.69913,-0.40364 1.44001,-0.50062 2.22263,-0.29091 0.78261,0.2097 1.37575,0.66412 1.77939,1.36325 l 2.75391,4.76991 4.05949,-2.34375 -3.08593,-5.345 c -0.76823,-1.33061 -2.2156,-2.11877 -4.3421,-2.36448 -2.10395,-0.25874 -4.04675,0.12623 -5.82842,1.15487 z m 42.30501,-24.4248 1.93359,3.34907 1.52231,-0.8789 c 0.69913,-0.40365 1.44001,-0.50062 2.22264,-0.29092 0.7826,0.2097 1.37574,0.66412 1.77939,1.36326 l 2.7539,4.7699 4.0595,-2.34375 -3.08594,-5.34499 c -0.76823,-1.33062 -2.2156,-2.11878 -4.34209,-2.36449 -2.10396,-0.25874 -4.04676,0.12623 -5.82842,1.15488 z m 43.14973,-22.9617 1.08886,1.88597 1.52231,-0.87891 c 0.69913,-0.40364 1.44002,-0.50062 2.22264,-0.29091 0.78261,0.2097 1.37574,0.66412 1.77939,1.36325 l 2.7539,4.76991 4.0595,-2.34375 -2.60156,-4.50604 z m -154.85876,91.8705 3.7e-4,3.84051 1.66271,-0.95996 z m 7.2e-4,4.5169 -5.7e-4,5.09274 0.0801,0.1387 11.5019,-6.64063 -2.28515,-3.958 z m 40.09935,-23.15137 2.28516,3.958 11.5019,-6.64062 -2.28516,-3.95801 z m 42.30501,-24.42481 2.28515,3.95801 11.5019,-6.64063 -2.28515,-3.958 z m 42.305,-24.4248 2.28515,3.958 11.5019,-6.64062 -2.28515,-3.95801 z m 42.32649,-24.3876 2.26367,3.9208 6.7895,-3.91992 z m -167.03699,104.18346 6.1e-4,5.14169 5.26381,-3.03907 c 0.29319,-0.16927 0.63067,-0.18369 1.01245,-0.0433 0.36875,0.11788 0.65729,0.35723 0.86562,0.71807 0.42969,0.74425 0.40564,1.50989 -0.0721,2.29693 1.26134,-0.36739 2.57221,-0.49273 3.93259,-0.37606 0.87489,-1.55757 0.9217,-3.01294 0.14046,-4.3661 -0.79427,-1.37572 -1.97403,-2.27328 -3.53927,-2.69269 -1.57825,-0.44195 -3.06652,-0.25929 -4.46478,0.548 z m 9.22859,-5.32812 2.28515,3.958 11.5019,-6.64062 -2.28515,-3.95801 z m 12.41528,-7.16797 2.28515,3.95801 5.17586,-2.98829 c 1.30806,-0.7552 2.6931,-0.90834 4.1551,-0.4594 1.48456,0.43591 2.61746,1.33045 3.39871,2.68362 0.78125,1.35316 0.9895,2.78156 0.62473,4.28518 -0.35523,1.46804 -1.18689,2.57967 -2.49494,3.33488 l -0.50744,0.29297 2.28515,3.958 0.50744,-0.29297 c 2.48079,-1.43228 4.08342,-3.50023 4.80784,-6.20382 0.73396,-2.73916 0.3913,-5.33787 -1.02797,-7.79612 -1.4323,-2.4808 -3.51151,-4.07691 -6.23766,-4.78831 -2.73915,-0.73396 -5.33787,-0.3913 -7.79611,1.02797 z m 16.08744,-9.28809 2.22656,3.85653 7.61155,-4.39453 c 0.29319,-0.16927 0.63067,-0.1837 1.01245,-0.0433 0.36875,0.11787 0.6573,0.35723 0.86563,0.71807 0.42969,0.74424 0.40564,1.50988 -0.0721,2.29693 1.26133,-0.36739 2.5722,-0.49274 3.93259,-0.37606 0.87488,-1.55758 0.9217,-3.01295 0.14045,-4.3661 -0.79427,-1.37572 -1.97403,-2.27328 -3.53926,-2.69269 -1.57826,-0.44196 -3.06653,-0.25929 -4.46479,0.548 z m 13.80228,-7.96875 2.28515,3.95801 11.5019,-6.64063 -2.28515,-3.958 z m 12.41528,-7.16796 2.28515,3.958 5.17587,-2.98828 c 1.30805,-0.75521 2.69309,-0.90834 4.15509,-0.45941 1.48456,0.43591 2.61746,1.33046 3.39871,2.68362 0.78125,1.35317 0.9895,2.78156 0.62473,4.28518 -0.35523,1.46805 -1.18689,2.57968 -2.49494,3.33488 l -0.50744,0.29297 2.28516,3.95801 0.50744,-0.29297 c 2.48079,-1.43229 4.08341,-3.50023 4.80783,-6.20383 0.73397,-2.73915 0.3913,-5.33786 -1.02797,-7.79611 -1.43229,-2.48081 -3.5115,-4.07691 -6.23765,-4.78832 -2.73916,-0.73395 -5.33788,-0.39129 -7.79612,1.02797 z m 16.08744,-9.28809 2.22657,3.85652 7.61155,-4.39453 c 0.29318,-0.16927 0.63066,-0.18369 1.01244,-0.0433 0.36876,0.11788 0.6573,0.35723 0.86563,0.71807 0.42969,0.74425 0.40564,1.50989 -0.0721,2.29693 1.26133,-0.36739 2.5722,-0.49273 3.93259,-0.37606 0.87487,-1.55757 0.9217,-3.01294 0.14046,-4.3661 -0.79427,-1.37572 -1.97403,-2.27328 -3.53927,-2.69269 -1.57825,-0.44195 -3.06653,-0.25928 -4.46479,0.548 z m 13.80228,-7.96875 2.28516,3.958 11.5019,-6.64062 -2.28516,-3.95801 z m 12.41528,-7.16797 2.28516,3.95801 5.17586,-2.98829 c 1.30805,-0.7552 2.69309,-0.90833 4.15509,-0.4594 1.48456,0.43591 2.61746,1.33045 3.39871,2.68362 0.78125,1.35316 0.9895,2.78156 0.62473,4.28518 -0.35523,1.46804 -1.18688,2.57967 -2.49494,3.33488 l -0.50743,0.29297 2.28515,3.958 0.50744,-0.29297 c 2.48079,-1.43228 4.08342,-3.50023 4.80784,-6.20382 0.73396,-2.73916 0.3913,-5.33787 -1.02797,-7.79612 -1.4323,-2.4808 -3.51151,-4.07691 -6.23766,-4.78831 -2.73915,-0.73396 -5.33788,-0.3913 -7.79612,1.02797 z m 16.08745,-9.28809 2.22656,3.85653 7.61155,-4.39453 c 0.29318,-0.16927 0.63067,-0.1837 1.01245,-0.0433 0.36875,0.11787 0.65729,0.35723 0.86562,0.71807 0.42969,0.74424 0.40564,1.50988 -0.0721,2.29693 1.26134,-0.36739 2.57221,-0.49274 3.93259,-0.37606 0.87488,-1.55757 0.9217,-3.01295 0.14046,-4.3661 -0.79427,-1.37572 -1.97403,-2.27328 -3.53927,-2.69269 -1.57825,-0.44196 -3.06653,-0.25929 -4.46479,0.548 z m 13.80228,-7.96875 2.28515,3.95801 11.50189,-6.64062 -2.28515,-3.95801 z m 12.41528,-7.16796 2.28515,3.958 5.17586,-2.98828 c 1.30806,-0.75521 2.69309,-0.90834 4.1551,-0.45941 1.48456,0.43591 2.61746,1.33046 3.39871,2.68362 0.78125,1.35317 0.9895,2.78156 0.62473,4.28518 -0.35524,1.46805 -1.18689,2.57968 -2.49494,3.33488 l -0.50744,0.29297 2.28515,3.95801 0.50744,-0.29297 c 2.48079,-1.43229 4.08342,-3.50023 4.80784,-6.20383 0.73396,-2.73915 0.3913,-5.33786 -1.02797,-7.79611 -1.4323,-2.48081 -3.51151,-4.07691 -6.23766,-4.78832 -2.73915,-0.73395 -5.33787,-0.39129 -7.79611,1.02797 z m 16.08743,-9.28809 2.22657,3.85653 7.61155,-4.39454 c 0.29319,-0.16927 0.63066,-0.18369 1.01244,-0.0433 0.36876,0.11787 0.65731,0.35722 0.86564,0.71806 0.42969,0.74425 0.40564,1.50989 -0.0721,2.29693 1.26133,-0.36739 2.5722,-0.49273 3.93259,-0.37606 0.87487,-1.55757 0.9217,-3.01294 0.14045,-4.3661 -0.79427,-1.37572 -1.97403,-2.27328 -3.53926,-2.69269 -1.57826,-0.44195 -3.06653,-0.25928 -4.4648,0.54801 z m 13.80228,-7.96875 2.28516,3.95801 8.85647,-5.11329 -9.14063,1e-5 z m -178.44764,108.8454 -5.1e-4,4.51084 5.78125,10.01342 4.0595,-2.34375 -7.73438,-13.39633 z m 40.35137,-23.29687 7.73438,13.39633 4.05949,-2.34375 -7.73438,-13.39633 z m 42.305,-24.42481 7.73438,13.39633 4.05949,-2.34375 -7.73437,-13.39633 z m 42.30501,-24.4248 7.73437,13.39633 4.0595,-2.34375 -7.73438,-13.39633 z m 42.305,-24.42481 7.73438,13.39633 4.05949,-2.34375 -7.73438,-13.39633 z m -155.35914,89.83196 5.09766,8.8294 4.05949,-2.34375 -5.09765,-8.8294 z m 12.41529,-7.16797 7.73438,13.39633 4.05949,-2.34375 -7.73438,-13.39633 z m 29.88972,-17.25683 5.09765,8.82939 4.05949,-2.34375 -5.09765,-8.82939 z m 12.41528,-7.16797 7.73438,13.39633 4.05949,-2.34375 -7.73437,-13.39633 z m 29.88972,-17.25684 5.09765,8.8294 4.0595,-2.34375 -5.09766,-8.8294 z m 12.41529,-7.16797 7.73437,13.39633 4.0595,-2.34375 -7.73438,-13.39633 z m 29.88971,-17.25683 5.09766,8.82939 4.05949,-2.34375 -5.09765,-8.82939 z m 12.41529,-7.16797 7.73438,13.39633 4.05949,-2.34375 -7.73438,-13.39633 z m 29.88972,-17.25684 5.09765,8.8294 4.05949,-2.34375 -5.09765,-8.8294 z m 13.34204,-5.56277 6.80762,11.79113 4.05949,-2.34375 -5.4541,-9.44678 z m -176.64747,102.95948 2.28516,3.95801 5.5818,-3.22265 -2.28516,-3.95802 z m 42.305,-24.42481 2.28516,3.95802 5.58181,-3.22266 -2.28516,-3.95801 z m 42.30501,-24.4248 2.28516,3.95801 5.5818,-3.22265 -2.28516,-3.95802 z m 42.305,-24.42481 2.28516,3.95802 5.5818,-3.22266 -2.28516,-3.95801 z m 42.305,-24.4248 2.28516,3.95801 5.58181,-3.22265 -2.28516,-3.95802 z m -182.8465,105.97244 1.93359,3.34907 1.5223,-0.8789 c 0.69914,-0.40365 1.44002,-0.50062 2.22264,-0.29092 0.78261,0.2097 1.37575,0.66413 1.77939,1.36326 l 2.75391,4.7699 4.05949,-2.34375 -3.08593,-5.34499 c -0.76823,-1.33062 -2.2156,-2.11878 -4.34209,-2.36449 -2.10396,-0.25873 -4.04676,0.12623 -5.82843,1.15488 z m 42.305,-24.42481 1.93359,3.34908 1.52231,-0.87891 c 0.69913,-0.40364 1.44001,-0.50062 2.22264,-0.29091 0.78261,0.2097 1.37574,0.66412 1.77939,1.36325 l 2.7539,4.76991 4.0595,-2.34375 -3.08594,-5.345 c -0.76823,-1.33061 -2.2156,-2.11877 -4.34209,-2.36448 -2.10396,-0.25874 -4.04676,0.12623 -5.82842,1.15487 z m 42.305,-24.4248 1.93359,3.34907 1.52231,-0.8789 c 0.69913,-0.40365 1.44002,-0.50062 2.22264,-0.29092 0.78261,0.2097 1.37575,0.66413 1.77939,1.36326 l 2.75391,4.7699 4.05949,-2.34375 -3.08593,-5.34499 c -0.76823,-1.33062 -2.2156,-2.11878 -4.3421,-2.36449 -2.10395,-0.25873 -4.04675,0.12623 -5.82842,1.15488 z m 42.30501,-24.42481 1.93359,3.34908 1.5223,-0.87891 c 0.69914,-0.40364 1.44002,-0.50062 2.22263,-0.29091 0.78262,0.2097 1.37576,0.66412 1.7794,1.36325 l 2.75391,4.76991 4.05949,-2.34375 -3.08593,-5.345 c -0.76823,-1.33061 -2.2156,-2.11877 -4.34209,-2.36448 -2.10396,-0.25874 -4.04676,0.12623 -5.82843,1.15487 z m 42.305,-24.4248 1.93359,3.34907 1.52231,-0.8789 c 0.69913,-0.40365 1.44,-0.50062 2.22263,-0.29091 0.78262,0.20969 1.37575,0.66412 1.7794,1.36325 l 2.7539,4.7699 4.0595,-2.34375 -3.08594,-5.34499 c -0.76823,-1.33062 -2.2156,-2.11878 -4.3421,-2.36448 -2.10395,-0.25874 -4.04675,0.12622 -5.82842,1.15487 z m 33.16539,-13.53242 c 0.006,0.48449 0.0433,0.9648 -0.0783,1.46601 -0.35524,1.46805 -1.18689,2.57967 -2.49495,3.33488 l -0.50743,0.29297 2.28516,3.958 0.50743,-0.29296 c 2.4808,-1.43229 4.08342,-3.50023 4.80784,-6.20383 0.2325,-0.86771 0.31669,-1.71633 0.33312,-2.55585 z m -189.38435,112.65636 2.28515,3.958 11.5019,-6.64062 -2.28515,-3.95801 z m 42.305,-24.42481 2.28515,3.95801 11.5019,-6.64063 -2.28515,-3.958 z m 42.305,-24.4248 2.28516,3.958 11.5019,-6.64062 -2.28516,-3.95801 z m 42.30501,-24.42481 2.28515,3.95801 11.50189,-6.64062 -2.28515,-3.95801 z m 42.30499,-24.4248 2.28516,3.95801 11.5019,-6.64063 -2.28516,-3.958 z m 29.50265,-14.9585 1.38672,2.40186 4.05949,-2.34375 -0.0332,-0.0575 z m -215.91914,130.38034 -3.7e-4,2.90952 1.02539,1.77603 5.17585,-2.98828 c 1.30806,-0.75521 2.69309,-0.90834 4.1551,-0.45941 1.48456,0.43591 2.61746,1.33045 3.39871,2.68362 0.78125,1.35316 0.9895,2.78156 0.62473,4.28518 -0.35524,1.46805 -1.18688,2.57967 -2.49495,3.33488 l -0.50743,0.29297 2.28516,3.958 0.50743,-0.29296 c 2.4808,-1.43229 4.08343,-3.50024 4.80784,-6.20383 0.73397,-2.73916 0.3913,-5.33787 -1.02797,-7.79612 -1.43229,-2.4808 -3.5115,-4.0769 -6.23765,-4.78831 -2.73916,-0.73395 -5.33788,-0.3913 -7.79613,1.02797 z m 14.8273,-8.56054 2.22656,3.85652 7.61156,-4.39453 c 0.29318,-0.16927 0.63066,-0.18369 1.01244,-0.0433 0.36876,0.11787 0.6573,0.35723 0.86563,0.71807 0.42969,0.74424 0.40564,1.50988 -0.0721,2.29693 1.26134,-0.36739 2.5722,-0.49274 3.93259,-0.37606 0.87488,-1.55757 0.9217,-3.01295 0.14046,-4.3661 -0.79427,-1.37572 -1.97403,-2.27328 -3.53927,-2.69269 -1.57825,-0.44196 -3.06653,-0.25929 -4.4648,0.548 z m 13.80228,-7.96875 2.28515,3.958 11.5019,-6.64062 -2.28515,-3.95801 z m 12.41528,-7.16797 2.28516,3.958 5.17585,-2.98828 c 1.30806,-0.75521 2.6931,-0.90834 4.1551,-0.45941 1.48456,0.43591 2.61747,1.33046 3.39872,2.68362 0.78125,1.35317 0.98949,2.78156 0.62472,4.28519 -0.35523,1.46805 -1.18688,2.57967 -2.49494,3.33488 l -0.50743,0.29296 2.28515,3.95801 0.50743,-0.29297 c 2.4808,-1.43229 4.08342,-3.50023 4.80785,-6.20382 0.73396,-2.73916 0.3913,-5.33787 -1.02797,-7.79612 -1.4323,-2.48081 -3.51151,-4.07691 -6.23766,-4.78832 -2.73916,-0.73394 -5.33788,-0.39129 -7.79612,1.02798 z m 16.08744,-9.28809 2.22656,3.85653 7.61156,-4.39454 c 0.29319,-0.16927 0.63066,-0.18369 1.01244,-0.0433 0.36876,0.11787 0.65731,0.35722 0.86564,0.71806 0.42969,0.74425 0.40563,1.50989 -0.0721,2.29693 1.26133,-0.36738 2.5722,-0.49273 3.93258,-0.37605 0.87488,-1.55758 0.9217,-3.01295 0.14046,-4.36611 -0.79427,-1.37571 -1.97403,-2.27328 -3.53927,-2.69269 -1.57825,-0.44195 -3.06652,-0.25928 -4.46479,0.54801 z m 13.80228,-7.96875 2.28515,3.95801 11.5019,-6.64063 -2.28515,-3.958 z m 12.41529,-7.16797 2.28515,3.95801 5.17586,-2.98828 c 1.30806,-0.75521 2.69309,-0.90834 4.1551,-0.45941 1.48456,0.43591 2.61746,1.33045 3.39871,2.68362 0.78125,1.35316 0.9895,2.78156 0.62473,4.28518 -0.35524,1.46805 -1.18689,2.57967 -2.49495,3.33488 l -0.50743,0.29297 2.28515,3.958 0.50744,-0.29296 c 2.48079,-1.43229 4.08341,-3.50023 4.80784,-6.20383 0.73396,-2.73916 0.3913,-5.33787 -1.02797,-7.79612 -1.43229,-2.4808 -3.51151,-4.0769 -6.23765,-4.78831 -2.73917,-0.73395 -5.33788,-0.3913 -7.79613,1.02797 z m 16.08743,-9.28808 2.22657,3.85652 7.61156,-4.39453 c 0.29318,-0.16927 0.63065,-0.18369 1.01243,-0.0433 0.36876,0.11787 0.65731,0.35723 0.86564,0.71807 0.42969,0.74424 0.40564,1.50988 -0.0721,2.29693 1.26133,-0.36739 2.5722,-0.49274 3.93259,-0.37606 0.87487,-1.55757 0.9217,-3.01295 0.14045,-4.3661 -0.79427,-1.37572 -1.97403,-2.27328 -3.53926,-2.69269 -1.57826,-0.44196 -3.06653,-0.25929 -4.4648,0.548 z m 13.80228,-7.96875 2.28516,3.958 11.5019,-6.64062 -2.28516,-3.95801 z m 12.41529,-7.16797 2.28516,3.958 5.17585,-2.98828 c 1.30805,-0.7552 2.69309,-0.90834 4.1551,-0.45941 1.48456,0.43591 2.61746,1.33046 3.39871,2.68362 0.78125,1.35317 0.9895,2.78156 0.62473,4.28519 -0.35524,1.46805 -1.18689,2.57967 -2.49495,3.33488 l -0.50743,0.29296 2.28516,3.95801 0.50743,-0.29297 c 2.4808,-1.43229 4.08342,-3.50023 4.80784,-6.20382 0.73397,-2.73916 0.3913,-5.33787 -1.02797,-7.79612 -1.43229,-2.48081 -3.5115,-4.07691 -6.23765,-4.78832 -2.73916,-0.73394 -5.33788,-0.39129 -7.79613,1.02798 z m 16.08744,-9.28809 2.22656,3.85653 7.61155,-4.39453 c 0.29318,-0.16927 0.63067,-0.1837 1.01245,-0.0433 0.36876,0.11787 0.6573,0.35722 0.86563,0.71806 0.42969,0.74425 0.40564,1.50989 -0.0721,2.29693 1.26134,-0.36738 2.5722,-0.49273 3.93259,-0.37605 0.87488,-1.55758 0.9217,-3.01295 0.14046,-4.36611 -0.79427,-1.37571 -1.97403,-2.27328 -3.53927,-2.69269 -1.57825,-0.44195 -3.06653,-0.25928 -4.4648,0.54801 z m 13.80228,-7.96875 2.28515,3.95801 11.5019,-6.64063 -2.28515,-3.958 z m 12.41528,-7.16797 2.28516,3.95801 5.17585,-2.98828 c 1.30805,-0.75521 2.6931,-0.90834 4.1551,-0.45941 1.48456,0.43591 2.61747,1.33045 3.39872,2.68362 0.78125,1.35316 0.98949,2.78156 0.62472,4.28518 -0.35523,1.46805 -1.18689,2.57968 -2.49494,3.33488 l -0.50744,0.29297 2.28515,3.95801 0.50744,-0.29297 c 2.4808,-1.43229 4.08342,-3.50023 4.80785,-6.20383 0.73396,-2.73916 0.3913,-5.33787 -1.02797,-7.79612 -1.4323,-2.4808 -3.51151,-4.0769 -6.23766,-4.78831 -2.73916,-0.73395 -5.33788,-0.3913 -7.79612,1.02797 z m 16.08744,-9.28808 2.22656,3.85652 7.61155,-4.39453 c 0.29319,-0.16927 0.63067,-0.18369 1.01245,-0.0433 0.36875,0.11788 0.65731,0.35723 0.86564,0.71807 0.42969,0.74424 0.40563,1.50988 -0.0721,2.29693 1.26133,-0.36739 2.5722,-0.49274 3.93258,-0.37606 0.87488,-1.55757 0.9217,-3.01295 0.14046,-4.3661 -0.79427,-1.37572 -1.97403,-2.27328 -3.53927,-2.69269 -1.57826,-0.44195 -3.06653,-0.25929 -4.46479,0.548 z m 13.80228,-7.96875 2.28515,3.958 11.5019,-6.64062 -2.28515,-3.95801 z m 12.41529,-7.16797 2.28515,3.958 5.17585,-2.98828 c 1.30806,-0.7552 2.6931,-0.90834 4.15511,-0.45941 1.48456,0.43591 2.61746,1.33046 3.39871,2.68362 0.78125,1.35317 0.9895,2.78156 0.62473,4.28519 -0.35524,1.46805 -1.1869,2.57967 -2.49495,3.33488 l -0.50744,0.29297 2.28516,3.958 0.50743,-0.29297 c 2.4808,-1.43229 4.08342,-3.50023 4.80785,-6.20382 0.73396,-2.73916 0.3913,-5.33787 -1.02797,-7.79612 -1.4323,-2.48081 -3.51151,-4.07691 -6.23766,-4.78832 -2.73916,-0.73394 -5.33787,-0.39129 -7.79612,1.02798 z m 16.26321,-8.98363 2.05079,3.55207 5.9387,-3.42871 c -0.78944,-0.0805 -1.58924,-0.1228 -2.4006,-0.1228 z m -226.52778,135.40018 -3.1e-4,0.25727 0.11164,-0.0644 z m 17.44801,-9.27525 7.73437,13.39633 4.05949,-2.34375 -7.73437,-13.39633 z m 42.305,-24.42481 7.73437,13.39633 4.0595,-2.34375 -7.73438,-13.39633 z m 42.305,-24.4248 7.73438,13.39633 4.05949,-2.34375 -7.73437,-13.39633 z m 42.30501,-24.42481 7.73437,13.39633 4.05949,-2.34375 -7.73437,-13.39633 z m 42.305,-24.4248 7.73437,13.39633 4.0595,-2.34375 -7.73438,-13.39633 z m 42.305,-24.42481 7.73438,13.39633 4.05949,-2.34375 -7.73437,-13.39633 z m -227.55385,131.5136 7.73437,13.39633 4.05949,-2.34375 -7.73437,-13.39633 z m 29.88971,-17.25683 5.09766,8.8294 4.05949,-2.34375 -5.09766,-8.8294 z m 12.41529,-7.16797 7.73437,13.39633 4.0595,-2.34375 -7.73438,-13.39633 z m 29.88971,-17.25684 5.09766,8.8294 4.05949,-2.34375 -5.09765,-8.8294 z m 12.41529,-7.16797 7.73438,13.39633 4.05949,-2.34375 -7.73437,-13.39633 z m 29.88972,-17.25683 5.09765,8.8294 4.0595,-2.34375 -5.09766,-8.8294 z m 12.41529,-7.16797 7.73437,13.39633 4.05949,-2.34375 -7.73437,-13.39633 z m 29.88971,-17.25684 5.09766,8.8294 4.05949,-2.34375 -5.09766,-8.8294 z m 12.41529,-7.16797 7.73437,13.39633 4.0595,-2.34375 -7.73438,-13.39633 z m 29.88971,-17.25683 5.09766,8.8294 4.05949,-2.34375 -5.09765,-8.8294 z m 12.41529,-7.16797 7.73438,13.39633 4.05949,-2.34375 -7.73437,-13.39633 z m 25.40213,-12.52567 c 0.009,0.41552 -0.0903,0.83626 -0.35025,1.26445 1.02078,-0.29732 2.09698,-0.32362 3.18263,-0.30391 -0.91246,-0.38519 -1.86399,-0.69281 -2.83238,-0.96054 z M 323.24577,449.08964 c 0.0123,1.7012 0.21359,3.3546 0.57003,4.94825 l 2.20735,-1.27441 -2.28516,-3.95802 z m 37.21542,-21.48633 2.28516,3.95802 5.5818,-3.22266 -2.28516,-3.95801 z m 42.305,-24.4248 2.28516,3.95801 5.5818,-3.22265 -2.28516,-3.95802 z m 42.305,-24.42481 2.28516,3.95802 5.58181,-3.22266 -2.28516,-3.95801 z m 42.30501,-24.4248 2.28516,3.95801 5.5818,-3.22265 -2.28516,-3.95802 z m 42.305,-24.42481 2.28516,3.95802 5.5818,-3.22266 -2.28516,-3.95801 z m -182.84651,105.97244 1.93359,3.34908 1.52231,-0.87891 c 0.69914,-0.40364 1.44001,-0.50061 2.22263,-0.29091 0.78262,0.2097 1.37576,0.66412 1.7794,1.36326 l 2.75391,4.7699 4.05949,-2.34375 -3.08593,-5.345 c -0.76823,-1.33061 -2.2156,-2.11877 -4.3421,-2.36448 -2.10395,-0.25874 -4.04675,0.12623 -5.82843,1.15488 z m 42.30501,-24.4248 1.93359,3.34907 1.5223,-0.8789 c 0.69914,-0.40365 1.44001,-0.50061 2.22264,-0.29091 0.78261,0.20969 1.37575,0.66412 1.7794,1.36325 l 2.7539,4.7699 4.05949,-2.34375 -3.08593,-5.34499 c -0.76823,-1.33062 -2.2156,-2.11877 -4.3421,-2.36448 -2.10395,-0.25874 -4.04675,0.12622 -5.82842,1.15487 z m 42.305,-24.42481 1.93359,3.34908 1.52231,-0.87891 c 0.69913,-0.40364 1.44001,-0.50061 2.22263,-0.29091 0.78262,0.2097 1.37575,0.66412 1.7794,1.36326 l 2.7539,4.7699 4.0595,-2.34375 -3.08594,-5.345 c -0.76823,-1.33061 -2.2156,-2.11877 -4.3421,-2.36448 -2.10394,-0.25874 -4.04676,0.12623 -5.82842,1.15488 z m 42.305,-24.4248 1.93359,3.34907 1.52231,-0.8789 c 0.69913,-0.40365 1.44001,-0.50061 2.22263,-0.29091 0.78262,0.20969 1.37576,0.66412 1.7794,1.36325 l 2.75391,4.7699 4.05949,-2.34375 -3.08593,-5.34499 c -0.76823,-1.33062 -2.2156,-2.11877 -4.3421,-2.36448 -2.10395,-0.25874 -4.04676,0.12623 -5.82843,1.15487 z m 42.30501,-24.42481 1.93359,3.34908 1.5223,-0.87891 c 0.69914,-0.40364 1.44001,-0.50061 2.22264,-0.29091 0.78261,0.2097 1.37575,0.66412 1.7794,1.36326 l 2.7539,4.7699 4.05949,-2.34375 -3.08593,-5.345 c -0.76823,-1.33061 -2.2156,-2.11877 -4.3421,-2.36448 -2.10395,-0.25874 -4.04676,0.12623 -5.82842,1.15488 z m 42.305,-24.4248 1.93359,3.34907 1.52231,-0.8789 c 0.69912,-0.40364 1.44001,-0.50061 2.22263,-0.29091 0.78261,0.2097 1.37575,0.66412 1.7794,1.36325 l 2.7539,4.7699 4.0595,-2.34375 -2.96484,-5.13525 c -1.1293,-0.88438 -2.33864,-1.66537 -3.62342,-2.33062 -0.29984,-0.0651 -0.50659,-0.20511 -0.83978,-0.2436 -2.10394,-0.25874 -4.04676,0.12623 -5.82842,1.15487 z M 324.87842,457.48387 c 0.56657,1.43279 1.26574,2.79435 2.09233,4.06934 l 4.34705,-2.50977 -2.28516,-3.95801 z m 34.95732,-20.18261 2.28515,3.958 11.5019,-6.64062 -2.28515,-3.95801 z m 42.305,-24.42481 2.28515,3.95801 11.5019,-6.64063 -2.28515,-3.958 z m 42.305,-24.4248 2.28516,3.958 11.5019,-6.64062 -2.28516,-3.95801 z m 42.30501,-24.42481 2.28515,3.95801 11.5019,-6.64063 -2.28515,-3.958 z m 42.305,-24.4248 2.28515,3.958 11.5019,-6.64062 -2.28515,-3.95801 z m 43.55989,-22.25128 1.03027,1.78448 0.29262,-0.16895 c -0.41764,-0.55869 -0.85754,-1.09762 -1.32289,-1.61553 z m -243.65181,145.56863 1.78223,3.08691 c 0.2593,0.23828 0.51199,0.48359 0.78202,0.70996 l 11.22281,-6.47949 -2.28516,-3.958 z m 12.41529,-7.16797 2.28515,3.95801 5.17586,-2.98828 c 1.30805,-0.75521 2.69309,-0.90835 4.1551,-0.45942 1.48456,0.43592 2.61746,1.33046 3.39871,2.68363 0.78125,1.35316 0.9895,2.78156 0.62473,4.28518 -0.35524,1.46805 -1.1869,2.57968 -2.49495,3.33488 l -0.50743,0.29297 2.28516,3.958 0.50743,-0.29296 c 2.4808,-1.43229 4.08342,-3.50024 4.80784,-6.20383 0.73396,-2.73916 0.3913,-5.33787 -1.02797,-7.79612 -1.43229,-2.48081 -3.51151,-4.07691 -6.23765,-4.78831 -2.73917,-0.73395 -5.33788,-0.3913 -7.79613,1.02797 z m 16.08743,-9.28808 2.22657,3.85652 7.61155,-4.39453 c 0.29318,-0.16927 0.63066,-0.18369 1.01244,-0.0433 0.36876,0.11788 0.65731,0.35723 0.86564,0.71806 0.42969,0.74425 0.40564,1.50989 -0.0721,2.29693 1.26133,-0.36738 2.5722,-0.49273 3.93259,-0.37605 0.87487,-1.55758 0.9217,-3.01295 0.14045,-4.36611 -0.79427,-1.37571 -1.97402,-2.27327 -3.53926,-2.69269 -1.57826,-0.44195 -3.06653,-0.25928 -4.4648,0.54801 z m 13.80228,-7.96875 2.28516,3.958 11.5019,-6.64062 -2.28516,-3.95801 z m 12.41529,-7.16797 2.28516,3.958 5.17585,-2.98828 c 1.30805,-0.7552 2.69309,-0.90834 4.1551,-0.45941 1.48456,0.43591 2.61746,1.33046 3.39871,2.68362 0.78125,1.35317 0.9895,2.78156 0.62473,4.28518 -0.35524,1.46805 -1.18689,2.57968 -2.49495,3.33489 l -0.50743,0.29297 2.28515,3.958 0.50744,-0.29297 c 2.4808,-1.43229 4.08342,-3.50023 4.80784,-6.20383 0.73397,-2.73916 0.3913,-5.33787 -1.02797,-7.79611 -1.43229,-2.48081 -3.5115,-4.07691 -6.23765,-4.78832 -2.73916,-0.73395 -5.33788,-0.39129 -7.79613,1.02798 z m 16.08744,-9.28809 2.22656,3.85652 7.61155,-4.39453 c 0.29319,-0.16927 0.63067,-0.18369 1.01245,-0.0433 0.36875,0.11788 0.6573,0.35723 0.86563,0.71807 0.42969,0.74424 0.40563,1.50989 -0.0721,2.29693 1.26134,-0.36739 2.57221,-0.49274 3.93259,-0.37606 0.87488,-1.55757 0.9217,-3.01295 0.14046,-4.3661 -0.79427,-1.37572 -1.97403,-2.27328 -3.53927,-2.69269 -1.57826,-0.44195 -3.06653,-0.25928 -4.46479,0.54801 z m 13.80228,-7.96875 2.28515,3.95801 11.5019,-6.64063 -2.28515,-3.958 z m 12.41529,-7.16797 2.28515,3.95801 5.17585,-2.98828 c 1.30806,-0.75521 2.6931,-0.90835 4.15511,-0.45942 1.48455,0.43592 2.61746,1.33046 3.39871,2.68363 0.78125,1.35316 0.98949,2.78156 0.62473,4.28518 -0.35524,1.46805 -1.1869,2.57968 -2.49495,3.33488 l -0.50744,0.29297 2.28515,3.95801 0.50744,-0.29297 c 2.4808,-1.43229 4.08342,-3.50024 4.80785,-6.20383 0.73396,-2.73916 0.3913,-5.33787 -1.02797,-7.79612 -1.4323,-2.48081 -3.51151,-4.07691 -6.23766,-4.78831 -2.73916,-0.73395 -5.33787,-0.3913 -7.79612,1.02797 z m 16.08743,-9.28808 2.22657,3.85652 7.61154,-4.39453 c 0.29319,-0.16927 0.63067,-0.18369 1.01245,-0.0433 0.36875,0.11788 0.65731,0.35723 0.86564,0.71806 0.42969,0.74425 0.40563,1.5099 -0.0721,2.29693 1.26133,-0.36738 2.5722,-0.49273 3.93259,-0.37605 0.87487,-1.55758 0.9217,-3.01295 0.14045,-4.36611 -0.79427,-1.37571 -1.97403,-2.27327 -3.53927,-2.69269 -1.57826,-0.44195 -3.06652,-0.25928 -4.46479,0.54801 z m 13.80228,-7.96875 2.28516,3.958 11.5019,-6.64062 -2.28516,-3.95801 z m 12.41529,-7.16797 2.28515,3.958 5.17586,-2.98828 c 1.30805,-0.7552 2.69309,-0.90834 4.1551,-0.45941 1.48456,0.43591 2.61746,1.33046 3.39871,2.68362 0.78125,1.35317 0.9895,2.78156 0.62473,4.28518 -0.35524,1.46805 -1.1869,2.57968 -2.49495,3.33489 l -0.50744,0.29297 2.28516,3.958 0.50744,-0.29297 c 2.4808,-1.43229 4.08341,-3.50023 4.80784,-6.20383 0.73396,-2.73916 0.3913,-5.33787 -1.02797,-7.79611 -1.43229,-2.48081 -3.51151,-4.07691 -6.23765,-4.78832 -2.73917,-0.73395 -5.33788,-0.39129 -7.79613,1.02798 z m 16.08743,-9.28809 2.22657,3.85652 7.61155,-4.39453 c 0.29318,-0.16927 0.63066,-0.18369 1.01244,-0.0433 0.36876,0.11788 0.65731,0.35723 0.86564,0.71807 0.42969,0.74424 0.40563,1.50989 -0.0721,2.29693 1.26133,-0.36739 2.5722,-0.49274 3.93259,-0.37606 0.87487,-1.55757 0.9217,-3.01295 0.14045,-4.3661 -0.79427,-1.37572 -1.97402,-2.27328 -3.53927,-2.69269 -1.57825,-0.44195 -3.06652,-0.25928 -4.46479,0.54801 z m 13.80228,-7.96875 2.28516,3.95801 11.5019,-6.64063 -2.28516,-3.958 z m 12.41529,-7.16797 2.28516,3.95801 5.17585,-2.98828 c 1.30805,-0.75521 2.69309,-0.90835 4.1551,-0.45942 1.48456,0.43592 2.61746,1.33046 3.39871,2.68363 0.78125,1.35316 0.9895,2.78156 0.62473,4.28518 -0.35524,1.46805 -1.18689,2.57968 -2.49495,3.33488 l -0.50743,0.29297 2.28515,3.95801 0.50744,-0.29297 c 2.4808,-1.43229 4.08342,-3.50024 4.80784,-6.20383 0.73397,-2.73916 0.3913,-5.33787 -1.02797,-7.79612 -1.43229,-2.48081 -3.5115,-4.07691 -6.23765,-4.78831 -2.73916,-0.73395 -5.33788,-0.3913 -7.79613,1.02797 z m 16.08744,-9.28808 2.22656,3.85652 7.61155,-4.39453 c 0.29319,-0.16927 0.63067,-0.18369 1.01245,-0.0433 0.36875,0.11788 0.65729,0.35723 0.86562,0.71807 0.42969,0.74424 0.40564,1.50989 -0.0721,2.29692 1.26134,-0.36738 2.5722,-0.49273 3.93259,-0.37605 0.87488,-1.55758 0.92169,-3.01295 0.14045,-4.3661 -0.79427,-1.37572 -1.97402,-2.27328 -3.53927,-2.69269 -1.57825,-0.44196 -3.06652,-0.25929 -4.46478,0.548 z m 13.80228,-7.96875 2.28515,3.958 11.5019,-6.64062 -2.28515,-3.95801 z m 12.41528,-7.16797 2.28516,3.958 5.17585,-2.98828 c 1.30806,-0.7552 2.6931,-0.90834 4.1551,-0.45941 1.48456,0.43591 2.61747,1.33046 3.39872,2.68362 0.78125,1.35317 0.98949,2.78156 0.62472,4.28519 -0.35523,1.46804 -1.18689,2.57967 -2.49494,3.33488 l -0.50744,0.29297 2.28515,3.958 0.50744,-0.29297 c 2.4808,-1.43229 4.08342,-3.50023 4.80784,-6.20382 0.73397,-2.73917 0.39131,-5.33788 -1.02796,-7.79612 -1.4323,-2.48081 -3.51151,-4.07691 -6.23767,-4.78831 -2.73915,-0.73396 -5.33786,-0.3913 -7.79611,1.02797 z m 16.08744,-9.28809 2.22656,3.85652 5.88965,-3.40039 c -0.52073,-1.41127 -1.17271,-2.75411 -1.94409,-4.0196 z m -208.904,126.42938 7.73438,13.39634 4.05949,-2.34375 -7.73437,-13.39634 z m 42.30501,-24.4248 7.73437,13.39633 4.0595,-2.34375 -7.73438,-13.39633 z m 42.305,-24.42481 7.73437,13.39634 4.0595,-2.34375 -7.73438,-13.39634 z m 42.305,-24.4248 7.73438,13.39633 4.05949,-2.34375 -7.73437,-13.39633 z m 42.30501,-24.42481 7.73437,13.39634 4.0595,-2.34375 -7.73438,-13.39634 z m 42.305,-24.4248 6.95312,12.04317 3e-5,-7.82807 c 10e-6,-0.57256 -0.0447,-1.13229 -0.0851,-1.69422 l -2.8086,-4.86463 z M 332.02064,467.10846 c 2.1078,1.67175 4.51197,2.98014 7.12761,3.84149 l -3.44531,-5.96746 z m 12.03809,-6.95019 6.91211,11.97213 3.2901,-6.1e-4 1.59166,-0.91894 -7.73437,-13.39633 z m 29.88972,-17.25684 5.09765,8.8294 4.0595,-2.34375 -5.09766,-8.8294 z m 12.41529,-7.16797 7.73437,13.39633 4.0595,-2.34375 -7.73438,-13.39633 z m 29.88971,-17.25683 5.09766,8.8294 4.05949,-2.34375 -5.09765,-8.8294 z m 12.41529,-7.16797 7.73437,13.39633 4.0595,-2.34375 -7.73438,-13.39633 z m 29.88971,-17.25684 5.09766,8.8294 4.05949,-2.34375 -5.09765,-8.8294 z m 12.41529,-7.16797 7.73438,13.39633 4.05949,-2.34375 -7.73437,-13.39633 z m 29.88972,-17.25683 5.09765,8.8294 4.0595,-2.34375 -5.09766,-8.8294 z m 12.41529,-7.16797 7.73437,13.39633 4.0595,-2.34375 -7.73438,-13.39633 z m 29.88971,-17.25684 5.09766,8.8294 4.05949,-2.34375 -5.09765,-8.8294 z m 12.41528,-7.16796 7.73438,13.39633 4.05949,-2.34375 -7.73438,-13.39633 z m -218.02571,128.98948 2.28516,3.95801 5.58181,-3.22266 -2.28516,-3.95801 z m 42.30501,-24.42481 2.28516,3.95801 5.5818,-3.22265 -2.28516,-3.95801 z m 42.305,-24.4248 2.28516,3.95801 5.5818,-3.22266 -2.28516,-3.95801 z m 42.305,-24.42481 2.28516,3.95801 5.5818,-3.22265 -2.28516,-3.95801 z m 42.30501,-24.4248 2.28516,3.95801 5.5818,-3.22266 -2.28516,-3.95801 z m 42.30499,-24.4248 2.28516,3.95801 5.58181,-3.22266 -2.28516,-3.95801 z m -182.8465,105.97243 1.93359,3.34908 1.52231,-0.87891 c 0.69913,-0.40364 1.44001,-0.50061 2.22263,-0.29091 0.78261,0.2097 1.37576,0.66412 1.7794,1.36325 l 2.75391,4.76991 4.05949,-2.34375 -3.08594,-5.345 c -0.76823,-1.33061 -2.2156,-2.11877 -4.3421,-2.36448 -2.10394,-0.25874 -4.04675,0.12623 -5.82842,1.15487 z m 42.305,-24.42481 1.93359,3.34908 1.52231,-0.8789 c 0.69913,-0.40364 1.44001,-0.50062 2.22263,-0.29091 0.78261,0.2097 1.37576,0.66411 1.7794,1.36325 l 2.75391,4.7699 4.05949,-2.34375 -3.08593,-5.345 c -0.76823,-1.33061 -2.2156,-2.11877 -4.3421,-2.36448 -2.10395,-0.25874 -4.04676,0.12623 -5.82843,1.15488 z m 42.30501,-24.4248 1.93359,3.34908 1.52231,-0.87891 c 0.69912,-0.40364 1.44,-0.50061 2.22263,-0.29091 0.78261,0.2097 1.37575,0.66412 1.7794,1.36325 l 2.7539,4.76991 4.0595,-2.34375 -3.08594,-5.345 c -0.76823,-1.33061 -2.2156,-2.11877 -4.3421,-2.36448 -2.10395,-0.25874 -4.04676,0.12623 -5.82842,1.15487 z m 42.305,-24.42481 1.93359,3.34908 1.52231,-0.8789 c 0.69912,-0.40364 1.44001,-0.50062 2.22263,-0.29091 0.78261,0.2097 1.37576,0.66411 1.7794,1.36325 l 2.75391,4.7699 4.05949,-2.34375 -3.08594,-5.345 c -0.76823,-1.33061 -2.2156,-2.11876 -4.3421,-2.36448 -2.10394,-0.25874 -4.04675,0.12623 -5.82842,1.15488 z m 42.305,-24.4248 1.93359,3.34908 1.52231,-0.87891 c 0.69913,-0.40364 1.44001,-0.50061 2.22263,-0.29091 0.78261,0.2097 1.37575,0.66412 1.77939,1.36326 l 2.75391,4.7699 4.05949,-2.34375 -3.08593,-5.345 c -0.76823,-1.33061 -2.2156,-2.11877 -4.34209,-2.36448 -2.10396,-0.25874 -4.04676,0.12623 -5.82843,1.15487 z m 42.305,-24.4248 0.57226,0.99119 c -0.0544,-0.40733 -0.10978,-0.8146 -0.18491,-1.21483 z M 345.01098,472.05761 c 0.47786,0.0291 0.95219,0.0721 1.43763,0.0721 l 3.16849,-3e-4 -1.18262,-2.04835 z m 34.2266,-19.76074 2.28516,3.958 11.5019,-6.64062 -2.28516,-3.95801 z m 42.30501,-24.42481 2.28515,3.95801 11.5019,-6.64063 -2.28515,-3.958 z m 42.305,-24.4248 2.28516,3.958 11.5019,-6.64062 -2.28516,-3.95801 z m 42.305,-24.42481 2.28516,3.95801 11.5019,-6.64063 -2.28516,-3.958 z m 42.30501,-24.4248 2.28515,3.958 11.5019,-6.64062 -2.28515,-3.95801 z m -190.07174,117.53219 1.97586,4.1e-4 -0.49414,-0.85588 z m 2.39511,-1.38281 0.79785,1.38191 5.94767,9e-4 0.71548,-0.41309 c 1.30806,-0.7552 2.6931,-0.90834 4.1551,-0.4594 0.64897,0.19055 1.20208,0.5059 1.71665,0.87174 l 6.1594,4.4e-4 c -0.10154,-0.20261 -0.16663,-0.40971 -0.28252,-0.61044 -1.4323,-2.48081 -3.51151,-4.07691 -6.23766,-4.78831 -2.73916,-0.73396 -5.33787,-0.3913 -7.79612,1.02797 z m 16.08743,-9.28809 2.22657,3.85653 7.61155,-4.39453 c 0.29318,-0.16927 0.63066,-0.1837 1.01244,-0.0433 0.36875,0.11787 0.6573,0.35723 0.86563,0.71807 0.42969,0.74424 0.40564,1.50988 -0.0721,2.29692 1.26133,-0.36739 2.57219,-0.49273 3.93259,-0.37606 0.87487,-1.55757 0.92169,-3.01294 0.14044,-4.3661 -0.79427,-1.37571 -1.97402,-2.27328 -3.53926,-2.69268 -1.57826,-0.44196 -3.06652,-0.25929 -4.46479,0.548 z m 13.80228,-7.96875 2.28516,3.95801 11.5019,-6.64063 -2.28516,-3.958 z m 12.41529,-7.16797 2.28515,3.95801 5.17586,-2.98828 c 1.30805,-0.75521 2.69309,-0.90835 4.15509,-0.45941 1.48457,0.43591 2.61747,1.33045 3.39872,2.68362 0.78125,1.35316 0.9895,2.78156 0.62472,4.28518 -0.35523,1.46805 -1.18688,2.57968 -2.49494,3.33488 l -0.50744,0.29297 2.28516,3.95801 0.50744,-0.29297 c 2.4808,-1.43229 4.08342,-3.50023 4.80783,-6.20383 0.73398,-2.73916 0.39131,-5.33787 -1.02796,-7.79612 -1.43229,-2.48081 -3.5115,-4.07691 -6.23766,-4.78831 -2.73915,-0.73395 -5.33787,-0.3913 -7.79612,1.02797 z m 16.08744,-9.28808 2.22656,3.85652 7.61155,-4.39453 c 0.29318,-0.16927 0.63067,-0.18369 1.01245,-0.0433 0.36875,0.11788 0.65729,0.35723 0.86562,0.71807 0.42969,0.74424 0.40564,1.50989 -0.0721,2.29693 1.26133,-0.36739 2.5722,-0.49273 3.93259,-0.37606 0.87488,-1.55757 0.92169,-3.01294 0.14045,-4.3661 -0.79427,-1.37572 -1.97402,-2.27328 -3.53927,-2.69269 -1.57825,-0.44195 -3.06652,-0.25929 -4.46479,0.548 z m 13.80227,-7.96875 2.28516,3.958 11.5019,-6.64062 -2.28516,-3.95801 z m 12.41529,-7.16797 2.28516,3.958 5.17585,-2.98828 c 1.30805,-0.7552 2.6931,-0.90834 4.1551,-0.4594 1.48456,0.4359 2.61747,1.33045 3.39872,2.68361 0.78125,1.35317 0.98949,2.78156 0.62472,4.28519 -0.35523,1.46804 -1.18689,2.57967 -2.49494,3.33488 l -0.50744,0.29297 2.28515,3.958 0.50744,-0.29297 c 2.4808,-1.43229 4.08342,-3.50023 4.80784,-6.20382 0.73397,-2.73917 0.39131,-5.33788 -1.02796,-7.79612 -1.4323,-2.48081 -3.51151,-4.07691 -6.23767,-4.78831 -2.73915,-0.73396 -5.33787,-0.3913 -7.79611,1.02797 z m 16.08744,-9.28809 2.22656,3.85653 7.61155,-4.39453 c 0.29319,-0.16927 0.63067,-0.1837 1.01245,-0.0433 0.36875,0.11787 0.6573,0.35723 0.86563,0.71807 0.42969,0.74424 0.40564,1.50988 -0.0721,2.29692 1.26132,-0.36738 2.57219,-0.49273 3.93258,-0.37606 0.87488,-1.55757 0.9217,-3.01294 0.14045,-4.3661 -0.79427,-1.37571 -1.97402,-2.27328 -3.53927,-2.69268 -1.57825,-0.44196 -3.06652,-0.25929 -4.46478,0.548 z m 13.80228,-7.96875 2.28515,3.95801 11.5019,-6.64063 -2.28515,-3.958 z m 12.41529,-7.16797 2.28515,3.95801 5.17585,-2.98828 c 1.30806,-0.75521 2.6931,-0.90835 4.1551,-0.45941 1.48457,0.43591 2.61747,1.33045 3.39872,2.68362 0.78125,1.35316 0.9895,2.78156 0.62472,4.28518 -0.35523,1.46805 -1.18689,2.57968 -2.49494,3.33488 l -0.50744,0.29297 2.28516,3.95801 0.50743,-0.29297 c 2.4808,-1.43229 4.08342,-3.50023 4.80784,-6.20383 0.73396,-2.73916 0.39131,-5.33787 -1.02796,-7.79612 -1.4323,-2.48081 -3.51152,-4.0769 -6.23766,-4.78831 -2.73916,-0.73395 -5.33787,-0.3913 -7.79612,1.02797 z m 16.08743,-9.28808 2.22657,3.85652 7.61155,-4.39453 c 0.29318,-0.16927 0.63066,-0.18369 1.01244,-0.0433 0.36875,0.11788 0.6573,0.35723 0.86563,0.71807 0.42969,0.74424 0.40564,1.50989 -0.0721,2.29693 1.26133,-0.36739 2.5722,-0.49273 3.9326,-0.37606 0.87487,-1.55757 0.92169,-3.01294 0.14044,-4.3661 -0.79427,-1.37572 -1.97402,-2.27328 -3.53926,-2.69269 -1.57826,-0.44195 -3.06652,-0.25929 -4.46479,0.548 z m 13.80228,-7.96875 2.28516,3.958 11.5019,-6.64062 -2.28516,-3.95801 z m 12.41529,-7.16797 2.28515,3.958 5.17586,-2.98828 c 1.30805,-0.7552 2.69309,-0.90834 4.15509,-0.4594 1.48456,0.43591 2.61746,1.33045 3.39871,2.68362 0.78125,1.35316 0.9895,2.78156 0.62473,4.28518 -0.35523,1.46804 -1.18688,2.57967 -2.49494,3.33488 l -0.50744,0.29297 2.28516,3.958 0.50744,-0.29297 c 2.48079,-1.43228 4.08342,-3.50023 4.80783,-6.20382 0.73397,-2.73916 0.3913,-5.33787 -1.02796,-7.79612 -1.4323,-2.48081 -3.51151,-4.07691 -6.23766,-4.78831 -2.73916,-0.73396 -5.33788,-0.3913 -7.79612,1.02797 z m 16.08743,-9.28809 2.22657,3.85653 7.61155,-4.39453 c 0.29318,-0.16927 0.63067,-0.1837 1.01245,-0.0433 0.36875,0.11787 0.65729,0.35723 0.86562,0.71807 0.42969,0.74424 0.40564,1.50988 -0.0721,2.29693 1.26134,-0.36739 2.57221,-0.49274 3.93259,-0.37606 0.87489,-1.55758 0.9217,-3.01295 0.14046,-4.36611 -0.79427,-1.37571 -1.97403,-2.27327 -3.53927,-2.69268 -1.57825,-0.44196 -3.06652,-0.25929 -4.46479,0.548 z m 13.80228,-7.96875 2.28516,3.95801 11.5019,-6.64063 -2.28516,-3.958 z m 12.41528,-7.16796 2.28516,3.958 3.97493,-2.29492 -10e-4,-5.15039 c -0.36174,0.16033 -0.72724,0.29357 -1.08309,0.49902 z m -192.81655,117.14129 3.67481,6.36495 5.41301,6.1e-4 -5.02832,-8.70931 z m 42.305,-24.4248 7.73438,13.39633 4.05949,-2.34375 -7.73437,-13.39633 z m 42.30501,-24.42481 7.73437,13.39633 4.0595,-2.34375 -7.73438,-13.39633 z m 42.30499,-24.4248 7.73438,13.39633 4.05949,-2.34375 -7.73437,-13.39633 z m 42.30501,-24.4248 7.73437,13.39633 4.05949,-2.34375 -7.73437,-13.39633 z m -155.35913,89.83195 5.09765,8.8294 4.0595,-2.34375 -5.09766,-8.8294 z m 12.41528,-7.16796 7.73437,13.39633 4.05949,-2.34375 -7.73437,-13.39633 z m 29.88972,-17.25684 5.09765,8.82939 4.0595,-2.34375 -5.09766,-8.82939 z m 12.41528,-7.16797 7.73437,13.39633 4.0595,-2.34375 -7.73438,-13.39633 z m 29.88972,-17.25684 5.09766,8.8294 4.05949,-2.34375 -5.09765,-8.8294 z m 12.41528,-7.16796 7.73438,13.39633 4.05949,-2.34375 -7.73437,-13.39633 z m 29.88972,-17.25684 5.09765,8.8294 4.0595,-2.34375 -5.09766,-8.8294 z m 12.41529,-7.16797 7.73437,13.39633 4.05949,-2.34375 -7.73437,-13.39633 z m 29.88971,-17.25683 5.09766,8.82939 4.05949,-2.34375 -5.09766,-8.82939 z m 12.41529,-7.16797 3.58008,6.20088 7.3e-4,-8.26827 z m -175.72071,104.56467 2.28516,3.95802 5.58181,-3.22266 -2.28516,-3.95802 z m 42.305,-24.4248 2.28516,3.95801 5.58181,-3.22266 -2.28516,-3.95801 z m 42.305,-24.42481 2.28516,3.95802 5.58181,-3.22266 -2.28516,-3.95802 z m 42.30501,-24.4248 2.28516,3.95801 5.58181,-3.22266 -2.28516,-3.95801 z m 42.305,-24.42481 2.28516,3.95802 5.5818,-3.22266 -2.28516,-3.95801 z m -182.84651,105.97244 1.93359,3.34908 1.52232,-0.87891 c 0.69912,-0.40364 1.44001,-0.50062 2.22263,-0.29091 0.78261,0.2097 1.37574,0.66412 1.77939,1.36325 l 1.57031,2.71987 4.73396,2.3e-4 0.50913,-0.29394 -3.08594,-5.345 c -0.76823,-1.33061 -2.2156,-2.11877 -4.34209,-2.36448 -2.10395,-0.25874 -4.04676,0.12623 -5.82842,1.15487 z m 42.305,-24.4248 1.93359,3.34907 1.52232,-0.87891 c 0.69913,-0.40364 1.44001,-0.50061 2.22263,-0.29091 0.78261,0.2097 1.37575,0.66412 1.77939,1.36326 l 2.75391,4.7699 4.05949,-2.34375 -3.08593,-5.34499 c -0.76823,-1.33062 -2.2156,-2.11878 -4.3421,-2.36449 -2.10395,-0.25874 -4.04675,0.12623 -5.82842,1.15488 z m 42.30501,-24.42481 1.93359,3.34908 1.52231,-0.87891 c 0.69913,-0.40364 1.44001,-0.50062 2.22263,-0.29091 0.78261,0.2097 1.37575,0.66412 1.7794,1.36325 l 2.7539,4.76991 4.0595,-2.34375 -3.08594,-5.345 c -0.76823,-1.33061 -2.2156,-2.11877 -4.34209,-2.36448 -2.10396,-0.25874 -4.04676,0.12623 -5.82843,1.15487 z m 42.305,-24.4248 1.93359,3.34907 1.52232,-0.87891 c 0.69912,-0.40364 1.44,-0.50061 2.22263,-0.29091 0.78261,0.2097 1.37574,0.66412 1.77939,1.36326 l 2.7539,4.7699 4.0595,-2.34375 -3.08594,-5.34499 c -0.76823,-1.33062 -2.2156,-2.11878 -4.34209,-2.36449 -2.10395,-0.25874 -4.04676,0.12623 -5.82842,1.15488 z m 42.305,-24.42481 1.93359,3.34908 1.52231,-0.87891 c 0.69914,-0.40364 1.44002,-0.50062 2.22264,-0.29091 0.78261,0.2097 1.37575,0.66412 1.77939,1.36325 l 2.75391,4.76991 4.05949,-2.34375 -3.08593,-5.345 c -0.76823,-1.33061 -2.2156,-2.11877 -4.3421,-2.36448 -2.10395,-0.25874 -4.04675,0.12623 -5.82842,1.15487 z m -156.21896,99.12394 2.28516,3.95801 11.5019,-6.64063 -2.28516,-3.958 z m 42.305,-24.4248 2.28516,3.958 11.5019,-6.64062 -2.28516,-3.95801 z m 42.30501,-24.42481 2.28515,3.95801 11.5019,-6.64063 -2.28515,-3.958 z m 42.305,-24.4248 2.28516,3.958 11.5019,-6.64062 -2.28516,-3.95801 z m 42.305,-24.42481 2.28516,3.95801 8.42176,-4.86231 v -5.27734 z m -164.09943,102.53708 6.09811,-2.6e-4 c -0.44562,-0.25579 -0.874,-0.53302 -1.41004,-0.67665 -1.57826,-0.44195 -3.06652,-0.25929 -4.46479,0.548 z m 6.31252,-3.64453 2.10351,3.64339 0.7246,0.001 10.95894,-6.32715 -2.28515,-3.95801 z m 12.41528,-7.16797 2.28515,3.95801 5.17587,-2.98829 c 1.30805,-0.7552 2.69309,-0.90834 4.15509,-0.4594 1.48456,0.43591 2.61746,1.33045 3.39871,2.68362 0.78125,1.35316 0.9895,2.78156 0.62473,4.28518 -0.35508,1.46739 -1.18621,2.57872 -2.49325,3.3339 l 6.17515,3.6e-4 c 0.37616,-0.69748 0.69852,-1.43297 0.91615,-2.2452 0.73396,-2.73916 0.3913,-5.33787 -1.02797,-7.79612 -1.43229,-2.4808 -3.51151,-4.07691 -6.23765,-4.78831 -2.73916,-0.73396 -5.33788,-0.3913 -7.79612,1.02797 z m 16.08744,-9.28809 2.22657,3.85653 7.61155,-4.39453 c 0.29318,-0.16927 0.63066,-0.1837 1.01244,-0.0433 0.36876,0.11787 0.6573,0.35723 0.86563,0.71807 0.42969,0.74424 0.40564,1.50988 -0.0721,2.29693 1.26133,-0.36739 2.5722,-0.49274 3.93259,-0.37606 0.87488,-1.55758 0.9217,-3.01295 0.14045,-4.3661 -0.79427,-1.37572 -1.97402,-2.27328 -3.53926,-2.69269 -1.57825,-0.44196 -3.06653,-0.25929 -4.46479,0.548 z m 13.80228,-7.96875 2.28516,3.95801 11.5019,-6.64063 -2.28516,-3.958 z m 12.41528,-7.16796 2.28516,3.958 5.17586,-2.98828 c 1.30805,-0.75521 2.69309,-0.90834 4.15509,-0.45941 1.48456,0.43591 2.61746,1.33046 3.39871,2.68362 0.78125,1.35317 0.9895,2.78156 0.62473,4.28518 -0.35523,1.46805 -1.18688,2.57968 -2.49494,3.33488 l -0.50744,0.29297 2.28516,3.95801 0.50744,-0.29297 c 2.48079,-1.43229 4.08342,-3.50023 4.80784,-6.20382 0.73396,-2.73916 0.3913,-5.33787 -1.02797,-7.79612 -1.4323,-2.48081 -3.51151,-4.07691 -6.23766,-4.78832 -2.73915,-0.73395 -5.33788,-0.39129 -7.79612,1.02797 z m 16.08745,-9.28809 2.22656,3.85652 7.61155,-4.39453 c 0.29318,-0.16927 0.63067,-0.18369 1.01245,-0.0433 0.36875,0.11788 0.65729,0.35723 0.86562,0.71807 0.42969,0.74425 0.40564,1.50989 -0.0721,2.29693 1.26134,-0.36739 2.57221,-0.49273 3.93259,-0.37605 0.87488,-1.55758 0.9217,-3.01295 0.14046,-4.36611 -0.79427,-1.37572 -1.97403,-2.27328 -3.53927,-2.69269 -1.57825,-0.44195 -3.06653,-0.25928 -4.46479,0.548 z m 13.80228,-7.96875 2.28515,3.958 11.5019,-6.64062 -2.28515,-3.95801 z m 12.41528,-7.16797 2.28515,3.95801 5.17586,-2.98829 c 1.30806,-0.7552 2.69309,-0.90833 4.1551,-0.4594 1.48456,0.43591 2.61746,1.33045 3.39871,2.68362 0.78125,1.35316 0.9895,2.78156 0.62473,4.28518 -0.35524,1.46805 -1.18689,2.57967 -2.49494,3.33488 l -0.50744,0.29297 2.28515,3.958 0.50744,-0.29297 c 2.48079,-1.43228 4.08342,-3.50023 4.80784,-6.20382 0.73396,-2.73916 0.3913,-5.33787 -1.02797,-7.79612 -1.4323,-2.4808 -3.51151,-4.07691 -6.23766,-4.78831 -2.73915,-0.73396 -5.33787,-0.3913 -7.79611,1.02797 z m 16.08743,-9.28808 2.22657,3.85652 7.61155,-4.39453 c 0.29319,-0.16927 0.63067,-0.1837 1.01244,-0.0433 0.36876,0.11787 0.65731,0.35723 0.86564,0.71807 0.42969,0.74424 0.40564,1.50988 -0.0721,2.29693 1.26133,-0.36739 2.5722,-0.49274 3.93259,-0.37606 0.87487,-1.55757 0.9217,-3.01295 0.14045,-4.3661 -0.79427,-1.37572 -1.97403,-2.27328 -3.53926,-2.69269 -1.57826,-0.44196 -3.06653,-0.25929 -4.46479,0.548 z m 13.80228,-7.96875 2.28516,3.958 11.5019,-6.64063 -2.28515,-3.958 z m 12.41529,-7.16797 2.28515,3.958 5.17586,-2.98828 c 1.30806,-0.75521 2.69309,-0.90834 4.1551,-0.45941 1.48456,0.43591 2.61746,1.33046 3.39871,2.68362 0.78125,1.35317 0.9895,2.78156 0.62473,4.28518 -0.35524,1.46806 -1.18689,2.57968 -2.49495,3.33489 l -0.50743,0.29296 2.28516,3.95801 0.50743,-0.29297 c 2.4808,-1.43229 4.08342,-3.50023 4.80784,-6.20382 0.73396,-2.73916 0.3913,-5.33787 -1.02797,-7.79612 -1.43229,-2.48081 -3.51151,-4.07691 -6.23765,-4.78832 -2.73916,-0.73395 -5.33788,-0.39129 -7.79613,1.02798 z m 16.08743,-9.28809 2.22657,3.85653 7.61156,-4.39454 c 0.29318,-0.16927 0.63065,-0.18369 1.01244,-0.0433 0.36876,0.11787 0.6573,0.35722 0.86563,0.71806 0.42969,0.74425 0.40564,1.50989 -0.0721,2.29693 0.45933,-0.13378 0.95965,-0.0671 1.43211,-0.13672 l -6e-5,-6.86727 c -0.30476,-0.13701 -0.55681,-0.33936 -0.89827,-0.43086 -1.57825,-0.44195 -3.06653,-0.25928 -4.4648,0.54801 z m -124.29399,77.57978 7.73438,13.39633 4.05949,-2.34375 -7.73437,-13.39633 z m 42.30501,-24.42481 7.73437,13.39633 4.0595,-2.34375 -7.73438,-13.39633 z m 42.305,-24.4248 7.73438,13.39633 4.05949,-2.34375 -7.73438,-13.39633 z m 42.305,-24.42481 7.73438,13.39633 2.71986,-1.57031 -2.1e-4,-3.09411 -6.39453,-11.07566 z m -154.0381,89.06926 3.65154,4.6e-4 -0.91308,-1.58151 z m 11.09425,-6.40527 3.69824,6.40554 5.41302,6.2e-4 -5.05176,-8.74991 z m 29.88972,-17.25683 5.09765,8.82939 4.0595,-2.34375 -5.09766,-8.82939 z m 12.41529,-7.16797 7.73437,13.39633 4.0595,-2.34375 -7.73438,-13.39633 z m 29.88971,-17.25684 5.09766,8.8294 4.05949,-2.34375 -5.09765,-8.8294 z m 12.41529,-7.16797 7.73438,13.39633 4.05949,-2.34375 -7.73438,-13.39633 z m 29.88972,-17.25683 5.09765,8.82939 4.05949,-2.34375 -5.09765,-8.82939 z m 12.41528,-7.16797 7.73438,13.39633 4.05949,-2.34375 -7.73437,-13.39633 z m -132.61903,79.67991 6.37986,-5.4e-4 -1.59473,-2.76216 z m 41.50833,-23.96485 2.28516,3.95802 5.5818,-3.22266 -2.28516,-3.95801 z m 42.305,-24.4248 2.28516,3.95801 5.5818,-3.22265 -2.28516,-3.95802 z m 42.305,-24.42481 2.28516,3.95802 5.58181,-3.22266 -2.28516,-3.95801 z m -98.2365,57.12283 1.93359,3.34908 1.52231,-0.87891 c 0.69913,-0.40364 1.44002,-0.50061 2.22264,-0.29091 0.78261,0.2097 1.37575,0.66412 1.77939,1.36325 l 2.75391,4.76991 4.05949,-2.34375 -3.08594,-5.345 c -0.76823,-1.33061 -2.21559,-2.11877 -4.34209,-2.36448 -2.10395,-0.25874 -4.04675,0.12623 -5.82842,1.15487 z m 42.30501,-24.4248 1.93359,3.34907 1.5223,-0.8789 c 0.69914,-0.40365 1.44002,-0.50062 2.22264,-0.29092 0.78261,0.2097 1.37575,0.66413 1.77939,1.36326 l 2.75391,4.7699 4.05949,-2.34375 -3.08593,-5.34499 c -0.76823,-1.33062 -2.2156,-2.11877 -4.34209,-2.36449 -2.10396,-0.25873 -4.04676,0.12623 -5.82843,1.15488 z m 42.305,-24.42481 1.93359,3.34908 1.52231,-0.87891 c 0.69913,-0.40364 1.44001,-0.50061 2.22264,-0.29091 0.78261,0.2097 1.37574,0.66412 1.77939,1.36325 l 2.7539,4.76991 4.0595,-2.34375 -3.08594,-5.345 c -0.76823,-1.33061 -2.2156,-2.11877 -4.3421,-2.36448 -2.10395,-0.25874 -4.04675,0.12623 -5.82842,1.15488 z m 42.305,-24.4248 1.93359,3.34907 1.52231,-0.8789 c 0.27485,-0.15869 0.56175,-0.23036 0.8495,-0.29425 l -10e-4,-3.83784 c -1.1455,0.16274 -2.25299,0.47759 -3.28943,1.07598 z m -113.91396,74.69913 2.28516,3.95801 11.5019,-6.64063 -2.28516,-3.958 z m 42.30501,-24.4248 2.28515,3.958 11.5019,-6.64062 -2.28515,-3.95801 z m 42.30499,-24.4248 2.28516,3.958 11.5019,-6.64063 -2.28515,-3.958 z m -86.97919,58.01168 2.22657,3.85653 7.61156,-4.39454 c 0.29318,-0.16927 0.63065,-0.18368 1.01243,-0.0433 0.36876,0.11787 0.65731,0.35722 0.86564,0.71806 0.42969,0.74425 0.40564,1.50989 -0.0721,2.29693 1.26133,-0.36738 2.5722,-0.49273 3.93259,-0.37605 0.87487,-1.55758 0.9217,-3.01295 0.14045,-4.36611 -0.79427,-1.37571 -1.97403,-2.27328 -3.53926,-2.69269 -1.57826,-0.44195 -3.06653,-0.25928 -4.4648,0.54801 z m 13.80228,-7.96875 2.28516,3.95801 11.5019,-6.64063 -2.28516,-3.958 z m 12.41529,-7.16797 2.28516,3.95801 5.17585,-2.98828 c 1.30806,-0.75521 2.69309,-0.90834 4.1551,-0.45941 1.48456,0.43591 2.61746,1.33046 3.39871,2.68362 0.78125,1.35316 0.9895,2.78156 0.62473,4.28518 -0.35524,1.46805 -1.18688,2.57967 -2.49495,3.33488 l -0.50743,0.29297 2.28516,3.958 0.50743,-0.29296 c 2.4808,-1.43229 4.08342,-3.50023 4.80784,-6.20383 0.73397,-2.73916 0.3913,-5.33787 -1.02797,-7.79612 -1.43229,-2.4808 -3.5115,-4.0769 -6.23765,-4.78831 -2.73916,-0.73395 -5.33788,-0.3913 -7.79613,1.02797 z m 16.08744,-9.28808 2.22656,3.85652 7.61156,-4.39453 c 0.29318,-0.16927 0.63066,-0.18369 1.01244,-0.0433 0.36876,0.11787 0.6573,0.35723 0.86563,0.71807 0.42969,0.74424 0.40564,1.50988 -0.0721,2.29693 1.26134,-0.36739 2.5722,-0.49274 3.93259,-0.37606 0.87488,-1.55757 0.9217,-3.01295 0.14046,-4.3661 -0.79427,-1.37572 -1.97403,-2.27328 -3.53927,-2.69269 -1.57825,-0.44196 -3.06653,-0.25929 -4.4648,0.548 z m 13.80228,-7.96875 2.28515,3.958 11.5019,-6.64062 -2.28515,-3.95801 z m 12.41528,-7.16797 2.28516,3.958 5.17585,-2.98828 c 1.30805,-0.7552 2.6931,-0.90834 4.1551,-0.45941 1.48456,0.43592 2.61747,1.33046 3.39872,2.68362 0.78125,1.35317 0.98949,2.78156 0.62472,4.28519 -0.35523,1.46805 -1.18689,2.57967 -2.49494,3.33488 l -0.50743,0.29296 2.28515,3.95801 0.50743,-0.29297 c 2.4808,-1.43229 4.08342,-3.50023 4.80785,-6.20382 0.73396,-2.73916 0.3913,-5.33787 -1.02797,-7.79612 -1.4323,-2.48081 -3.51151,-4.07691 -6.23766,-4.78832 -2.73916,-0.73394 -5.33788,-0.39129 -7.79612,1.02798 z m 16.08744,-9.28809 2.22656,3.85653 7.61156,-4.39454 c 0.29318,-0.16926 0.63066,-0.18368 1.01244,-0.0433 0.36876,0.11787 0.65731,0.35722 0.86564,0.71806 0.42969,0.74425 0.40563,1.50989 -0.0721,2.29693 1.26133,-0.36738 2.5722,-0.49273 3.93258,-0.37605 0.87488,-1.55758 0.9217,-3.01295 0.14046,-4.36611 -0.79427,-1.37571 -1.97403,-2.27328 -3.53927,-2.69269 -1.57825,-0.44195 -3.06653,-0.25928 -4.46479,0.54801 z m 13.80228,-7.96875 2.28515,3.95801 11.5019,-6.64063 -2.28515,-3.958 z m 12.41529,-7.16797 2.28515,3.95801 5.17585,-2.98828 c 0.74008,-0.42729 1.51137,-0.60992 2.30073,-0.65174 l -8.3e-4,-4.64989 c -1.57675,0.0761 -3.10951,0.49172 -4.58505,1.34362 z m -118.47521,69.09181 3.55876,-10e-5 c -1.2141,-0.21339 -2.40122,-0.22015 -3.55876,10e-5 z m 10.26865,-0.80012 0.46192,0.80006 5.41203,-10e-4 -1.81445,-3.14273 z m 42.305,-24.4248 7.73438,13.39633 4.05949,-2.34375 -7.73437,-13.39633 z m 42.30501,-24.42481 7.73437,13.39633 4.0595,-2.34375 -7.73438,-13.39633 z m -70.74913,40.98235 5.0039,8.66702 0.37453,2.7e-4 3.77872,-2.18164 -5.09766,-8.8294 z m 12.41528,-7.16797 7.73438,13.39633 4.05949,-2.34375 -7.73437,-13.39633 z m 29.88972,-17.25683 5.09765,8.8294 4.0595,-2.34375 -5.09766,-8.8294 z m 12.41529,-7.16797 7.73437,13.39633 4.0595,-2.34375 -7.73438,-13.39633 z m 29.88971,-17.25684 5.09766,8.8294 4.05949,-2.34375 -5.09765,-8.8294 z m 12.41529,-7.16797 7.08106,12.26475 9e-4,-9.37344 -3.02246,-5.23506 z m -91.11071,55.71507 2.28516,3.95801 5.58181,-3.22265 -2.28516,-3.95801 z m 42.30501,-24.4248 2.28516,3.95801 5.5818,-3.22266 -2.28516,-3.95801 z m 42.305,-24.42481 2.28516,3.95801 5.5818,-3.22265 -2.28516,-3.95801 z m -98.2365,57.12283 0.40234,0.69687 10.82504,-4.7e-4 -0.042,-0.0727 c -0.76823,-1.33062 -2.2156,-2.11877 -4.3421,-2.36448 -2.10394,-0.25874 -4.04675,0.12622 -5.82842,1.15487 z m 42.305,-24.42481 1.93359,3.34908 1.52231,-0.8789 c 0.69913,-0.40365 1.44001,-0.50062 2.22263,-0.29092 0.78262,0.2097 1.37576,0.66412 1.7794,1.36326 l 2.75391,4.7699 4.05949,-2.34375 -3.08593,-5.345 c -0.76823,-1.33061 -2.2156,-2.11877 -4.3421,-2.36448 -2.10395,-0.25874 -4.04676,0.12623 -5.82843,1.15488 z m 42.30501,-24.4248 1.93359,3.34908 1.5223,-0.87891 c 0.69914,-0.40364 1.44001,-0.50061 2.22264,-0.29091 0.78261,0.20969 1.37575,0.66412 1.7794,1.36325 l 2.7539,4.7699 4.05949,-2.34375 -3.08593,-5.34499 c -0.76823,-1.33062 -2.2156,-2.11877 -4.3421,-2.36448 -2.10395,-0.25874 -4.04676,0.12623 -5.82842,1.15487 z m -70.34714,49.54582 9.14063,-1e-5 3.3846,-1.9541 -2.28516,-3.958 z m 41.04318,-23.69629 2.28515,3.958 11.5019,-6.64062 -2.28515,-3.95801 z m 42.305,-24.42481 2.28515,3.95801 11.5019,-6.64063 -2.28515,-3.958 z m -69.84812,48.12107 9.14062,-10e-6 1.31764,-0.76074 -2.28515,-3.958 z m 9.0865,-5.2461 2.28515,3.95801 5.17586,-2.98828 c 1.30805,-0.75521 2.69309,-0.90835 4.1551,-0.45941 1.48456,0.43591 2.61746,1.33045 3.39871,2.68362 0.38434,0.66568 0.62263,1.35068 0.72962,2.05279 l 4.80566,-5.7e-4 c -0.092,-1.53768 -0.50843,-3.03296 -1.34047,-4.4741 -1.43229,-2.48081 -3.51151,-4.07691 -6.23765,-4.78831 -2.73917,-0.73395 -5.33788,-0.3913 -7.79613,1.02797 z m 16.08743,-9.28808 2.22657,3.85652 7.61155,-4.39453 c 0.29318,-0.16927 0.63066,-0.18369 1.01244,-0.0433 0.36876,0.11788 0.65731,0.35723 0.86564,0.71806 0.42969,0.74425 0.40563,1.5099 -0.0721,2.29693 1.26133,-0.36738 2.5722,-0.49273 3.93259,-0.37605 0.87487,-1.55757 0.9217,-3.01295 0.14045,-4.36611 -0.79427,-1.37571 -1.97402,-2.27327 -3.53926,-2.69269 -1.57826,-0.44194 -3.06653,-0.25928 -4.4648,0.54801 z m 13.80228,-7.96875 2.28516,3.958 11.5019,-6.64062 -2.28516,-3.95801 z m 12.41529,-7.16797 2.28516,3.958 5.17585,-2.98828 c 1.30805,-0.7552 2.69309,-0.90834 4.1551,-0.45941 1.48456,0.43591 2.61746,1.33046 3.39871,2.68362 0.78125,1.35317 0.9895,2.78156 0.62473,4.28518 -0.35524,1.46805 -1.18689,2.57968 -2.49495,3.33489 l -0.50743,0.29297 2.28515,3.958 0.50744,-0.29297 c 2.4808,-1.43229 4.08342,-3.50023 4.80784,-6.20383 0.73397,-2.73916 0.3913,-5.33787 -1.02797,-7.79611 -1.43229,-2.48081 -3.5115,-4.07691 -6.23765,-4.78832 -2.73916,-0.73395 -5.33788,-0.39129 -7.79613,1.02798 z m 16.08744,-9.28809 2.22656,3.85652 7.61155,-4.39453 c 0.29319,-0.16927 0.63067,-0.18369 1.01245,-0.0433 0.36875,0.11788 0.65729,0.35724 0.86562,0.71807 0.42969,0.74425 0.40564,1.50989 -0.0721,2.29693 1.26134,-0.36739 2.57221,-0.49274 3.93259,-0.37606 0.87488,-1.55757 0.9217,-3.01295 0.14045,-4.3661 -0.79426,-1.37572 -1.97402,-2.27328 -3.53926,-2.69269 -1.57826,-0.44195 -3.06653,-0.25928 -4.46479,0.54801 z m 13.80228,-7.96875 2.28515,3.95801 0.48883,-0.28223 v -5.27734 z m -53.48627,36.69892 5.90625,10.22992 5.41204,-10e-4 -7.25879,-12.57259 z m 42.30501,-24.42481 7.73437,13.39633 4.0595,-2.34375 -7.73438,-13.39633 z m -58.33385,33.81438 0.48438,0.83896 5.41301,6.1e-4 -1.83789,-3.18332 z m 29.88972,-17.25684 5.09765,8.8294 4.0595,-2.34375 -5.09766,-8.8294 z m 12.41529,-7.16797 7.73437,13.39634 4.0595,-2.34375 -7.73438,-13.39634 z m 29.88971,-17.25683 0.0947,0.16407 -1e-5,-0.21876 z m -36.39041,24.12229 2.28516,3.95801 5.5818,-3.22265 -2.28516,-3.95801 z m -13.6265,8.27322 1.93359,3.34908 1.52231,-0.87891 c 0.69912,-0.40364 1.44001,-0.50061 2.22263,-0.29091 0.78261,0.2097 1.37575,0.66412 1.7794,1.36325 l 2.7539,4.76991 4.0595,-2.34375 -3.08594,-5.345 c -0.76823,-1.33061 -2.2156,-2.11877 -4.3421,-2.36448 -2.10394,-0.25874 -4.04675,0.12623 -5.82842,1.15488 z m 42.305,-24.4248 1.93359,3.34908 1.52231,-0.87891 c 0.69913,-0.40364 1.44001,-0.50062 2.22263,-0.29091 0.78261,0.2097 1.37575,0.66412 1.77939,1.36325 l 0.34864,0.60386 2.2e-4,-5.60901 c -0.33827,-0.0792 -0.58135,-0.23403 -0.96348,-0.27818 -2.10395,-0.25874 -4.04676,0.12624 -5.82843,1.15488 z m -29.30396,25.84953 2.28516,3.958 11.5019,-6.64062 -2.28516,-3.95801 z m -1.57082,8.70114 8.90613,8e-5 0.13363,-0.0772 c 0.29318,-0.16927 0.63066,-0.1837 1.01244,-0.0433 0.0614,0.0196 0.0868,0.0936 0.14371,0.12 l 5.20563,8e-4 c -0.024,-0.63286 -0.14013,-1.25443 -0.48281,-1.84797 -0.79427,-1.37571 -1.97402,-2.27328 -3.53926,-2.69268 -1.57826,-0.44196 -3.06652,-0.25929 -4.46479,0.548 z m 13.00392,-7.50782 2.28516,3.95801 11.5019,-6.64063 -2.28516,-3.958 z m 12.41529,-7.16797 2.28515,3.95801 5.17586,-2.98828 c 1.25734,-0.72593 2.58995,-0.86327 3.98956,-0.4766 0.60603,-1.44169 1.06433,-2.96075 1.37109,-4.53535 -2.68326,-0.68117 -5.23314,-0.33901 -7.64581,1.05394 z m -9.73567,11.57482 1.73437,3.00403 c 1.68414,-0.13904 3.31966,-0.44444 4.88078,-0.92124 l -2.55566,-4.42654 z m 12.41528,-7.16796 2.62695,4.55002 c 1.23595,-1.07797 2.34972,-2.28623 3.33293,-3.6022 l -1.90039,-3.29157 z m -6.50071,6.86545 1.26465,2.19044 c 2.07419,-0.69286 4.01893,-1.65935 5.78299,-2.87422 l -1.46582,-2.53888 z" /><path
         id="rect846-81-7-9-74"
         style="font-variation-settings:normal;opacity:0.68714;fill:url(#linearGradient17806);fill-opacity:1;stroke-width:9.0178;stroke-linecap:butt;stroke-linejoin:miter;stroke-miterlimit:4;stroke-dasharray:none;stroke-dashoffset:0;stroke-opacity:1;stop-color:#000000"
         d="m 369.63492,309.64786 -46.39854,72.64318 v 17.20027 l 57.38556,-89.84345 z m 18.27469,0 -64.67323,101.25211 v 38.01827 c 0,6.71609 2.84151,12.72917 7.37155,16.95997 l 99.7855,-156.23035 z m 124.96026,0 -103.78182,162.48211 h 42.48382 L 555.35368,309.64786 Z m 48.90105,0.91123 -103.19926,161.57088 h 10.9893 L 570.01743,314.84783 c -2.39472,-1.9493 -5.19141,-3.41665 -8.24651,-4.28874 z" /></g></g></svg>
